%TF.GenerationSoftware,KiCad,Pcbnew,(6.0.5)*%
%TF.CreationDate,2023-11-29T10:07:13+07:00*%
%TF.ProjectId,conn_station,636f6e6e-5f73-4746-9174-696f6e2e6b69,rev?*%
%TF.SameCoordinates,Original*%
%TF.FileFunction,Copper,L1,Top*%
%TF.FilePolarity,Positive*%
%FSLAX46Y46*%
G04 Gerber Fmt 4.6, Leading zero omitted, Abs format (unit mm)*
G04 Created by KiCad (PCBNEW (6.0.5)) date 2023-11-29 10:07:13*
%MOMM*%
%LPD*%
G01*
G04 APERTURE LIST*
%TA.AperFunction,ComponentPad*%
%ADD10R,1.700000X1.700000*%
%TD*%
%TA.AperFunction,ComponentPad*%
%ADD11O,1.700000X1.700000*%
%TD*%
%TA.AperFunction,SMDPad,CuDef*%
%ADD12R,1.000000X0.400000*%
%TD*%
%TA.AperFunction,SMDPad,CuDef*%
%ADD13R,1.300000X2.000000*%
%TD*%
%TA.AperFunction,ViaPad*%
%ADD14C,0.800000*%
%TD*%
%TA.AperFunction,Conductor*%
%ADD15C,0.250000*%
%TD*%
G04 APERTURE END LIST*
D10*
%TO.P,J3,1,Pin_1*%
%TO.N,Net-(J2-Pad12)*%
X106700000Y-60800000D03*
D11*
%TO.P,J3,2,Pin_2*%
%TO.N,/GND*%
X106700000Y-63340000D03*
%TO.P,J3,3,Pin_3*%
X106700000Y-65880000D03*
%TO.P,J3,4,Pin_4*%
%TO.N,Net-(J2-Pad9)*%
X106700000Y-68420000D03*
%TO.P,J3,5,Pin_5*%
%TO.N,/GND*%
X106700000Y-70960000D03*
%TO.P,J3,6,Pin_6*%
%TO.N,Net-(J2-Pad7)*%
X106700000Y-73500000D03*
%TD*%
D10*
%TO.P,J1,1,Pin_1*%
%TO.N,Net-(J1-Pad1)*%
X106700000Y-76675000D03*
D11*
%TO.P,J1,2,Pin_2*%
%TO.N,/GND*%
X106700000Y-79215000D03*
%TO.P,J1,3,Pin_3*%
%TO.N,Net-(J1-Pad3)*%
X106700000Y-81755000D03*
%TO.P,J1,4,Pin_4*%
%TO.N,/GND*%
X106700000Y-84295000D03*
%TO.P,J1,5,Pin_5*%
X106700000Y-86835000D03*
%TO.P,J1,6,Pin_6*%
%TO.N,Net-(J1-Pad6)*%
X106700000Y-89375000D03*
%TD*%
D12*
%TO.P,J2,1,Pin_1*%
%TO.N,Net-(J1-Pad6)*%
X109900000Y-80600000D03*
%TO.P,J2,2,Pin_2*%
%TO.N,/GND*%
X109900000Y-79600000D03*
%TO.P,J2,3,Pin_3*%
X109900000Y-78600000D03*
%TO.P,J2,4,Pin_4*%
%TO.N,Net-(J1-Pad3)*%
X109900000Y-77600000D03*
%TO.P,J2,5,Pin_5*%
%TO.N,/GND*%
X109900000Y-76600000D03*
%TO.P,J2,6,Pin_6*%
%TO.N,Net-(J1-Pad1)*%
X109900000Y-75600000D03*
%TO.P,J2,7,Pin_7*%
%TO.N,Net-(J2-Pad7)*%
X109900000Y-74600000D03*
%TO.P,J2,8,Pin_8*%
%TO.N,/GND*%
X109900000Y-73600000D03*
%TO.P,J2,9,Pin_9*%
%TO.N,Net-(J2-Pad9)*%
X109900000Y-72600000D03*
%TO.P,J2,10,Pin_10*%
%TO.N,/GND*%
X109900000Y-71600000D03*
%TO.P,J2,11,Pin_11*%
X109900000Y-70600000D03*
%TO.P,J2,12,Pin_12*%
%TO.N,Net-(J2-Pad12)*%
X109900000Y-69600000D03*
D13*
%TO.P,J2,MP*%
%TO.N,/GND*%
X112600000Y-83400000D03*
X112600000Y-66800000D03*
%TD*%
D14*
%TO.N,/GND*%
X112600000Y-72600000D03*
X101100000Y-65800000D03*
X104300000Y-86900000D03*
X112600000Y-80400000D03*
X104300000Y-81700000D03*
X110100000Y-60800000D03*
X104500000Y-70900000D03*
X112500000Y-89400000D03*
X101100000Y-63300000D03*
X101000000Y-79200000D03*
X112600000Y-75300000D03*
X112600000Y-63400000D03*
X104500000Y-73400000D03*
X101100000Y-60800000D03*
X104500000Y-63300000D03*
X112500000Y-86900000D03*
X112600000Y-70200000D03*
X101100000Y-70900000D03*
X101000000Y-76700000D03*
X101100000Y-73400000D03*
X112600000Y-60900000D03*
X104500000Y-68300000D03*
X104300000Y-89400000D03*
X100900000Y-86900000D03*
X100900000Y-84200000D03*
X104300000Y-84200000D03*
X101100000Y-68300000D03*
X100900000Y-89400000D03*
X104400000Y-79200000D03*
X104400000Y-76700000D03*
X104500000Y-60800000D03*
X104500000Y-65800000D03*
X100900000Y-81700000D03*
X112600000Y-77900000D03*
X109900000Y-89400000D03*
%TD*%
D15*
%TO.N,Net-(J2-Pad12)*%
X109900000Y-69600000D02*
X109900000Y-64000000D01*
X109900000Y-64000000D02*
X106700000Y-60800000D01*
%TO.N,Net-(J1-Pad1)*%
X107775000Y-75600000D02*
X109900000Y-75600000D01*
X106700000Y-76675000D02*
X107775000Y-75600000D01*
%TO.N,/GND*%
X106700000Y-79215000D02*
X109315000Y-76600000D01*
X108773551Y-80200000D02*
X108773551Y-84761449D01*
X109373551Y-79600000D02*
X108773551Y-80200000D01*
X109900000Y-70600000D02*
X109600000Y-70600000D01*
X109900000Y-79600000D02*
X109373551Y-79600000D01*
X108324031Y-70324031D02*
X108324031Y-67504031D01*
X109900000Y-78600000D02*
X109224031Y-78600000D01*
X108773551Y-69773551D02*
X108773551Y-65413551D01*
X108773551Y-84761449D02*
X106700000Y-86835000D01*
X108324031Y-82670969D02*
X106700000Y-84295000D01*
X109340000Y-73600000D02*
X109900000Y-73600000D01*
X108324031Y-79500000D02*
X108324031Y-82670969D01*
X109315000Y-76600000D02*
X109900000Y-76600000D01*
X109600000Y-70600000D02*
X108773551Y-69773551D01*
X108773551Y-65413551D02*
X106700000Y-63340000D01*
X109600000Y-71600000D02*
X108324031Y-70324031D01*
X109900000Y-71600000D02*
X109600000Y-71600000D01*
X108324031Y-67504031D02*
X106700000Y-65880000D01*
X106700000Y-70960000D02*
X109340000Y-73600000D01*
X109224031Y-78600000D02*
X108324031Y-79500000D01*
%TO.N,Net-(J2-Pad9)*%
X107874511Y-70874511D02*
X107874511Y-69594511D01*
X107874511Y-69594511D02*
X106700000Y-68420000D01*
X109900000Y-72600000D02*
X109600000Y-72600000D01*
X109600000Y-72600000D02*
X107874511Y-70874511D01*
%TO.N,Net-(J1-Pad3)*%
X107874511Y-79125489D02*
X109400000Y-77600000D01*
X106700000Y-81755000D02*
X107874511Y-80580489D01*
X109400000Y-77600000D02*
X109900000Y-77600000D01*
X107874511Y-80580489D02*
X107874511Y-79125489D01*
%TO.N,Net-(J2-Pad7)*%
X106700000Y-73500000D02*
X107800000Y-74600000D01*
X107800000Y-74600000D02*
X109900000Y-74600000D01*
%TO.N,Net-(J1-Pad6)*%
X109900000Y-86175000D02*
X106700000Y-89375000D01*
X109900000Y-80600000D02*
X109900000Y-86175000D01*
%TD*%
%TA.AperFunction,Conductor*%
%TO.N,/GND*%
G36*
X105290198Y-59728502D02*
G01*
X105336691Y-59782158D01*
X105347340Y-59848108D01*
X105341500Y-59901866D01*
X105341500Y-61698134D01*
X105348255Y-61760316D01*
X105399385Y-61896705D01*
X105486739Y-62013261D01*
X105603295Y-62100615D01*
X105611704Y-62103767D01*
X105611705Y-62103768D01*
X105720960Y-62144726D01*
X105777725Y-62187367D01*
X105802425Y-62253929D01*
X105787218Y-62323278D01*
X105767825Y-62349759D01*
X105644590Y-62478717D01*
X105638104Y-62486727D01*
X105518098Y-62662649D01*
X105513000Y-62671623D01*
X105423338Y-62864783D01*
X105419775Y-62874470D01*
X105364389Y-63074183D01*
X105365912Y-63082607D01*
X105378292Y-63086000D01*
X108036459Y-63086000D01*
X108036459Y-63090775D01*
X108073133Y-63090792D01*
X108126673Y-63122577D01*
X109229595Y-64225499D01*
X109263621Y-64287811D01*
X109266500Y-64314594D01*
X109266500Y-68819618D01*
X109246498Y-68887739D01*
X109192842Y-68934232D01*
X109184731Y-68937599D01*
X109161707Y-68946231D01*
X109161704Y-68946232D01*
X109153295Y-68949385D01*
X109036739Y-69036739D01*
X108949385Y-69153295D01*
X108898255Y-69289684D01*
X108891500Y-69351866D01*
X108891500Y-69848134D01*
X108898255Y-69910316D01*
X108947589Y-70041914D01*
X108949385Y-70046705D01*
X108948693Y-70046964D01*
X108962343Y-70109374D01*
X108949420Y-70153385D01*
X108949828Y-70153538D01*
X108947738Y-70159112D01*
X108947174Y-70161034D01*
X108946679Y-70161939D01*
X108901522Y-70282394D01*
X108897895Y-70297649D01*
X108892369Y-70348514D01*
X108892000Y-70355328D01*
X108892000Y-70381885D01*
X108896475Y-70397124D01*
X108897865Y-70398329D01*
X108905548Y-70400000D01*
X110889884Y-70400000D01*
X110905123Y-70395525D01*
X110906328Y-70394135D01*
X110907999Y-70386452D01*
X110907999Y-70355331D01*
X110907629Y-70348510D01*
X110902105Y-70297648D01*
X110898479Y-70282396D01*
X110853321Y-70161939D01*
X110852826Y-70161034D01*
X110852607Y-70160034D01*
X110850172Y-70153538D01*
X110851110Y-70153186D01*
X110837657Y-70091677D01*
X110850838Y-70046788D01*
X110850615Y-70046705D01*
X110851756Y-70043663D01*
X110851758Y-70043656D01*
X110901745Y-69910316D01*
X110908500Y-69848134D01*
X110908500Y-69351866D01*
X110901745Y-69289684D01*
X110850615Y-69153295D01*
X110763261Y-69036739D01*
X110646705Y-68949385D01*
X110638296Y-68946232D01*
X110638293Y-68946231D01*
X110615269Y-68937599D01*
X110558505Y-68894957D01*
X110533806Y-68828395D01*
X110533500Y-68819618D01*
X110533500Y-67844669D01*
X111442001Y-67844669D01*
X111442371Y-67851490D01*
X111447895Y-67902352D01*
X111451521Y-67917604D01*
X111496676Y-68038054D01*
X111505214Y-68053649D01*
X111581715Y-68155724D01*
X111594276Y-68168285D01*
X111696351Y-68244786D01*
X111711946Y-68253324D01*
X111832394Y-68298478D01*
X111847649Y-68302105D01*
X111898514Y-68307631D01*
X111905328Y-68308000D01*
X112327885Y-68308000D01*
X112343124Y-68303525D01*
X112344329Y-68302135D01*
X112346000Y-68294452D01*
X112346000Y-68289884D01*
X112854000Y-68289884D01*
X112858475Y-68305123D01*
X112859865Y-68306328D01*
X112867548Y-68307999D01*
X113294669Y-68307999D01*
X113301490Y-68307629D01*
X113352352Y-68302105D01*
X113367604Y-68298479D01*
X113488054Y-68253324D01*
X113503649Y-68244786D01*
X113605724Y-68168285D01*
X113618285Y-68155724D01*
X113694786Y-68053649D01*
X113703324Y-68038054D01*
X113748478Y-67917606D01*
X113752105Y-67902351D01*
X113757631Y-67851486D01*
X113758000Y-67844672D01*
X113758000Y-67072115D01*
X113753525Y-67056876D01*
X113752135Y-67055671D01*
X113744452Y-67054000D01*
X112872115Y-67054000D01*
X112856876Y-67058475D01*
X112855671Y-67059865D01*
X112854000Y-67067548D01*
X112854000Y-68289884D01*
X112346000Y-68289884D01*
X112346000Y-67072115D01*
X112341525Y-67056876D01*
X112340135Y-67055671D01*
X112332452Y-67054000D01*
X111460116Y-67054000D01*
X111444877Y-67058475D01*
X111443672Y-67059865D01*
X111442001Y-67067548D01*
X111442001Y-67844669D01*
X110533500Y-67844669D01*
X110533500Y-66527885D01*
X111442000Y-66527885D01*
X111446475Y-66543124D01*
X111447865Y-66544329D01*
X111455548Y-66546000D01*
X112327885Y-66546000D01*
X112343124Y-66541525D01*
X112344329Y-66540135D01*
X112346000Y-66532452D01*
X112346000Y-66527885D01*
X112854000Y-66527885D01*
X112858475Y-66543124D01*
X112859865Y-66544329D01*
X112867548Y-66546000D01*
X113739884Y-66546000D01*
X113755123Y-66541525D01*
X113756328Y-66540135D01*
X113757999Y-66532452D01*
X113757999Y-65755331D01*
X113757629Y-65748510D01*
X113752105Y-65697648D01*
X113748479Y-65682396D01*
X113703324Y-65561946D01*
X113694786Y-65546351D01*
X113618285Y-65444276D01*
X113605724Y-65431715D01*
X113503649Y-65355214D01*
X113488054Y-65346676D01*
X113367606Y-65301522D01*
X113352351Y-65297895D01*
X113301486Y-65292369D01*
X113294672Y-65292000D01*
X112872115Y-65292000D01*
X112856876Y-65296475D01*
X112855671Y-65297865D01*
X112854000Y-65305548D01*
X112854000Y-66527885D01*
X112346000Y-66527885D01*
X112346000Y-65310116D01*
X112341525Y-65294877D01*
X112340135Y-65293672D01*
X112332452Y-65292001D01*
X111905331Y-65292001D01*
X111898510Y-65292371D01*
X111847648Y-65297895D01*
X111832396Y-65301521D01*
X111711946Y-65346676D01*
X111696351Y-65355214D01*
X111594276Y-65431715D01*
X111581715Y-65444276D01*
X111505214Y-65546351D01*
X111496676Y-65561946D01*
X111451522Y-65682394D01*
X111447895Y-65697649D01*
X111442369Y-65748514D01*
X111442000Y-65755328D01*
X111442000Y-66527885D01*
X110533500Y-66527885D01*
X110533500Y-64078763D01*
X110534027Y-64067579D01*
X110535701Y-64060091D01*
X110533562Y-63992032D01*
X110533500Y-63988075D01*
X110533500Y-63960144D01*
X110532994Y-63956138D01*
X110532061Y-63944292D01*
X110530922Y-63908037D01*
X110530673Y-63900110D01*
X110525022Y-63880658D01*
X110521014Y-63861306D01*
X110519468Y-63849068D01*
X110519467Y-63849066D01*
X110518474Y-63841203D01*
X110502194Y-63800086D01*
X110498359Y-63788885D01*
X110486018Y-63746406D01*
X110481985Y-63739587D01*
X110481983Y-63739582D01*
X110475707Y-63728971D01*
X110467010Y-63711221D01*
X110459552Y-63692383D01*
X110433571Y-63656623D01*
X110427053Y-63646701D01*
X110408578Y-63615460D01*
X110408574Y-63615455D01*
X110404542Y-63608637D01*
X110390218Y-63594313D01*
X110377376Y-63579278D01*
X110365472Y-63562893D01*
X110331406Y-63534711D01*
X110322627Y-63526722D01*
X108095405Y-61299500D01*
X108061379Y-61237188D01*
X108058500Y-61210405D01*
X108058500Y-59901866D01*
X108052660Y-59848108D01*
X108065188Y-59778225D01*
X108113509Y-59726210D01*
X108177923Y-59708500D01*
X114677530Y-59708500D01*
X114745651Y-59728502D01*
X114766625Y-59745405D01*
X114854595Y-59833375D01*
X114888621Y-59895687D01*
X114891500Y-59922470D01*
X114891500Y-90477530D01*
X114871498Y-90545651D01*
X114854595Y-90566625D01*
X114766625Y-90654595D01*
X114704313Y-90688621D01*
X114677530Y-90691500D01*
X107587489Y-90691500D01*
X107519368Y-90671498D01*
X107472875Y-90617842D01*
X107462771Y-90547568D01*
X107492265Y-90482988D01*
X107514321Y-90462921D01*
X107579860Y-90416173D01*
X107738096Y-90258489D01*
X107797594Y-90175689D01*
X107865435Y-90081277D01*
X107868453Y-90077077D01*
X107967430Y-89876811D01*
X108032370Y-89663069D01*
X108061529Y-89441590D01*
X108063156Y-89375000D01*
X108044852Y-89152361D01*
X108016821Y-89040765D01*
X108019625Y-88969823D01*
X108049930Y-88920974D01*
X110292247Y-86678657D01*
X110300537Y-86671113D01*
X110307018Y-86667000D01*
X110353659Y-86617332D01*
X110356413Y-86614491D01*
X110376134Y-86594770D01*
X110378612Y-86591575D01*
X110386318Y-86582553D01*
X110400499Y-86567452D01*
X110416586Y-86550321D01*
X110426346Y-86532568D01*
X110437199Y-86516045D01*
X110444753Y-86506306D01*
X110449613Y-86500041D01*
X110467176Y-86459457D01*
X110472383Y-86448827D01*
X110493695Y-86410060D01*
X110495666Y-86402383D01*
X110495668Y-86402378D01*
X110498732Y-86390442D01*
X110505138Y-86371730D01*
X110510034Y-86360417D01*
X110513181Y-86353145D01*
X110520097Y-86309481D01*
X110522504Y-86297860D01*
X110531528Y-86262711D01*
X110531528Y-86262710D01*
X110533500Y-86255030D01*
X110533500Y-86234769D01*
X110535051Y-86215058D01*
X110536979Y-86202885D01*
X110538219Y-86195057D01*
X110534059Y-86151046D01*
X110533500Y-86139189D01*
X110533500Y-84444669D01*
X111442001Y-84444669D01*
X111442371Y-84451490D01*
X111447895Y-84502352D01*
X111451521Y-84517604D01*
X111496676Y-84638054D01*
X111505214Y-84653649D01*
X111581715Y-84755724D01*
X111594276Y-84768285D01*
X111696351Y-84844786D01*
X111711946Y-84853324D01*
X111832394Y-84898478D01*
X111847649Y-84902105D01*
X111898514Y-84907631D01*
X111905328Y-84908000D01*
X112327885Y-84908000D01*
X112343124Y-84903525D01*
X112344329Y-84902135D01*
X112346000Y-84894452D01*
X112346000Y-84889884D01*
X112854000Y-84889884D01*
X112858475Y-84905123D01*
X112859865Y-84906328D01*
X112867548Y-84907999D01*
X113294669Y-84907999D01*
X113301490Y-84907629D01*
X113352352Y-84902105D01*
X113367604Y-84898479D01*
X113488054Y-84853324D01*
X113503649Y-84844786D01*
X113605724Y-84768285D01*
X113618285Y-84755724D01*
X113694786Y-84653649D01*
X113703324Y-84638054D01*
X113748478Y-84517606D01*
X113752105Y-84502351D01*
X113757631Y-84451486D01*
X113758000Y-84444672D01*
X113758000Y-83672115D01*
X113753525Y-83656876D01*
X113752135Y-83655671D01*
X113744452Y-83654000D01*
X112872115Y-83654000D01*
X112856876Y-83658475D01*
X112855671Y-83659865D01*
X112854000Y-83667548D01*
X112854000Y-84889884D01*
X112346000Y-84889884D01*
X112346000Y-83672115D01*
X112341525Y-83656876D01*
X112340135Y-83655671D01*
X112332452Y-83654000D01*
X111460116Y-83654000D01*
X111444877Y-83658475D01*
X111443672Y-83659865D01*
X111442001Y-83667548D01*
X111442001Y-84444669D01*
X110533500Y-84444669D01*
X110533500Y-83127885D01*
X111442000Y-83127885D01*
X111446475Y-83143124D01*
X111447865Y-83144329D01*
X111455548Y-83146000D01*
X112327885Y-83146000D01*
X112343124Y-83141525D01*
X112344329Y-83140135D01*
X112346000Y-83132452D01*
X112346000Y-83127885D01*
X112854000Y-83127885D01*
X112858475Y-83143124D01*
X112859865Y-83144329D01*
X112867548Y-83146000D01*
X113739884Y-83146000D01*
X113755123Y-83141525D01*
X113756328Y-83140135D01*
X113757999Y-83132452D01*
X113757999Y-82355331D01*
X113757629Y-82348510D01*
X113752105Y-82297648D01*
X113748479Y-82282396D01*
X113703324Y-82161946D01*
X113694786Y-82146351D01*
X113618285Y-82044276D01*
X113605724Y-82031715D01*
X113503649Y-81955214D01*
X113488054Y-81946676D01*
X113367606Y-81901522D01*
X113352351Y-81897895D01*
X113301486Y-81892369D01*
X113294672Y-81892000D01*
X112872115Y-81892000D01*
X112856876Y-81896475D01*
X112855671Y-81897865D01*
X112854000Y-81905548D01*
X112854000Y-83127885D01*
X112346000Y-83127885D01*
X112346000Y-81910116D01*
X112341525Y-81894877D01*
X112340135Y-81893672D01*
X112332452Y-81892001D01*
X111905331Y-81892001D01*
X111898510Y-81892371D01*
X111847648Y-81897895D01*
X111832396Y-81901521D01*
X111711946Y-81946676D01*
X111696351Y-81955214D01*
X111594276Y-82031715D01*
X111581715Y-82044276D01*
X111505214Y-82146351D01*
X111496676Y-82161946D01*
X111451522Y-82282394D01*
X111447895Y-82297649D01*
X111442369Y-82348514D01*
X111442000Y-82355328D01*
X111442000Y-83127885D01*
X110533500Y-83127885D01*
X110533500Y-81380382D01*
X110553502Y-81312261D01*
X110607158Y-81265768D01*
X110615269Y-81262401D01*
X110638293Y-81253769D01*
X110638296Y-81253768D01*
X110646705Y-81250615D01*
X110763261Y-81163261D01*
X110850615Y-81046705D01*
X110901745Y-80910316D01*
X110908500Y-80848134D01*
X110908500Y-80351866D01*
X110901745Y-80289684D01*
X110850615Y-80153295D01*
X110851307Y-80153036D01*
X110837657Y-80090626D01*
X110850580Y-80046615D01*
X110850172Y-80046462D01*
X110852262Y-80040888D01*
X110852826Y-80038966D01*
X110853321Y-80038061D01*
X110898478Y-79917606D01*
X110902105Y-79902351D01*
X110907631Y-79851486D01*
X110908000Y-79844672D01*
X110908000Y-79818115D01*
X110903525Y-79802876D01*
X110902135Y-79801671D01*
X110894452Y-79800000D01*
X108910116Y-79800000D01*
X108894877Y-79804475D01*
X108893672Y-79805865D01*
X108892001Y-79813548D01*
X108892001Y-79844669D01*
X108892371Y-79851490D01*
X108897895Y-79902352D01*
X108901521Y-79917604D01*
X108946679Y-80038061D01*
X108947174Y-80038966D01*
X108947393Y-80039966D01*
X108949828Y-80046462D01*
X108948890Y-80046814D01*
X108962343Y-80108323D01*
X108949162Y-80153212D01*
X108949385Y-80153295D01*
X108948244Y-80156337D01*
X108948242Y-80156344D01*
X108898255Y-80289684D01*
X108891500Y-80351866D01*
X108891500Y-80848134D01*
X108898255Y-80910316D01*
X108949385Y-81046705D01*
X109036739Y-81163261D01*
X109153295Y-81250615D01*
X109161704Y-81253768D01*
X109161707Y-81253769D01*
X109184731Y-81262401D01*
X109241495Y-81305043D01*
X109266194Y-81371605D01*
X109266500Y-81380382D01*
X109266500Y-85860405D01*
X109246498Y-85928526D01*
X109229595Y-85949500D01*
X108126653Y-87052442D01*
X108064341Y-87086468D01*
X108036351Y-87085547D01*
X108036351Y-87089000D01*
X105383225Y-87089000D01*
X105369694Y-87092973D01*
X105368257Y-87102966D01*
X105398565Y-87237446D01*
X105401645Y-87247275D01*
X105481770Y-87444603D01*
X105486413Y-87453794D01*
X105597694Y-87635388D01*
X105603777Y-87643699D01*
X105743213Y-87804667D01*
X105750580Y-87811883D01*
X105914434Y-87947916D01*
X105922881Y-87953831D01*
X105991969Y-87994203D01*
X106040693Y-88045842D01*
X106053764Y-88115625D01*
X106027033Y-88181396D01*
X105986584Y-88214752D01*
X105973607Y-88221507D01*
X105969474Y-88224610D01*
X105969471Y-88224612D01*
X105799100Y-88352530D01*
X105794965Y-88355635D01*
X105640629Y-88517138D01*
X105514743Y-88701680D01*
X105420688Y-88904305D01*
X105360989Y-89119570D01*
X105337251Y-89341695D01*
X105337548Y-89346848D01*
X105337548Y-89346851D01*
X105343011Y-89441590D01*
X105350110Y-89564715D01*
X105351247Y-89569761D01*
X105351248Y-89569767D01*
X105371119Y-89657939D01*
X105399222Y-89782639D01*
X105483266Y-89989616D01*
X105599987Y-90180088D01*
X105746250Y-90348938D01*
X105890331Y-90468556D01*
X105929966Y-90527458D01*
X105931464Y-90598439D01*
X105894350Y-90658962D01*
X105830406Y-90689811D01*
X105809846Y-90691500D01*
X99722470Y-90691500D01*
X99654349Y-90671498D01*
X99633375Y-90654595D01*
X99545405Y-90566625D01*
X99511379Y-90504313D01*
X99508500Y-90477530D01*
X99508500Y-86569183D01*
X105364389Y-86569183D01*
X105365912Y-86577607D01*
X105378292Y-86581000D01*
X106427885Y-86581000D01*
X106443124Y-86576525D01*
X106444329Y-86575135D01*
X106446000Y-86567452D01*
X106446000Y-86562885D01*
X106954000Y-86562885D01*
X106958475Y-86578124D01*
X106959865Y-86579329D01*
X106967548Y-86581000D01*
X108018344Y-86581000D01*
X108031875Y-86577027D01*
X108033180Y-86567947D01*
X107991214Y-86400875D01*
X107987894Y-86391124D01*
X107902972Y-86195814D01*
X107898105Y-86186739D01*
X107782426Y-86007926D01*
X107776136Y-85999757D01*
X107632806Y-85842240D01*
X107625273Y-85835215D01*
X107458139Y-85703222D01*
X107449552Y-85697517D01*
X107412116Y-85676851D01*
X107362146Y-85626419D01*
X107347374Y-85556976D01*
X107372490Y-85490571D01*
X107399842Y-85463964D01*
X107575327Y-85338792D01*
X107583200Y-85332139D01*
X107734052Y-85181812D01*
X107740730Y-85173965D01*
X107865003Y-85001020D01*
X107870313Y-84992183D01*
X107964670Y-84801267D01*
X107968469Y-84791672D01*
X108030377Y-84587910D01*
X108032555Y-84577837D01*
X108033986Y-84566962D01*
X108031775Y-84552778D01*
X108018617Y-84549000D01*
X106972115Y-84549000D01*
X106956876Y-84553475D01*
X106955671Y-84554865D01*
X106954000Y-84562548D01*
X106954000Y-86562885D01*
X106446000Y-86562885D01*
X106446000Y-84567115D01*
X106441525Y-84551876D01*
X106440135Y-84550671D01*
X106432452Y-84549000D01*
X105383225Y-84549000D01*
X105369694Y-84552973D01*
X105368257Y-84562966D01*
X105398565Y-84697446D01*
X105401645Y-84707275D01*
X105481770Y-84904603D01*
X105486413Y-84913794D01*
X105597694Y-85095388D01*
X105603777Y-85103699D01*
X105743213Y-85264667D01*
X105750580Y-85271883D01*
X105914434Y-85407916D01*
X105922881Y-85413831D01*
X105992479Y-85454501D01*
X106041203Y-85506140D01*
X106054274Y-85575923D01*
X106027543Y-85641694D01*
X105987087Y-85675053D01*
X105978462Y-85679542D01*
X105969738Y-85685036D01*
X105799433Y-85812905D01*
X105791726Y-85819748D01*
X105644590Y-85973717D01*
X105638104Y-85981727D01*
X105518098Y-86157649D01*
X105513000Y-86166623D01*
X105423338Y-86359783D01*
X105419775Y-86369470D01*
X105364389Y-86569183D01*
X99508500Y-86569183D01*
X99508500Y-81721695D01*
X105337251Y-81721695D01*
X105337548Y-81726848D01*
X105337548Y-81726851D01*
X105347852Y-81905548D01*
X105350110Y-81944715D01*
X105351247Y-81949761D01*
X105351248Y-81949767D01*
X105371119Y-82037939D01*
X105399222Y-82162639D01*
X105460673Y-82313976D01*
X105477466Y-82355331D01*
X105483266Y-82369616D01*
X105599987Y-82560088D01*
X105746250Y-82728938D01*
X105918126Y-82871632D01*
X105991955Y-82914774D01*
X106040679Y-82966412D01*
X106053750Y-83036195D01*
X106027019Y-83101967D01*
X105986562Y-83135327D01*
X105978457Y-83139546D01*
X105969738Y-83145036D01*
X105799433Y-83272905D01*
X105791726Y-83279748D01*
X105644590Y-83433717D01*
X105638104Y-83441727D01*
X105518098Y-83617649D01*
X105513000Y-83626623D01*
X105423338Y-83819783D01*
X105419775Y-83829470D01*
X105364389Y-84029183D01*
X105365912Y-84037607D01*
X105378292Y-84041000D01*
X108018344Y-84041000D01*
X108031875Y-84037027D01*
X108033180Y-84027947D01*
X107991214Y-83860875D01*
X107987894Y-83851124D01*
X107902972Y-83655814D01*
X107898105Y-83646739D01*
X107782426Y-83467926D01*
X107776136Y-83459757D01*
X107632806Y-83302240D01*
X107625273Y-83295215D01*
X107458139Y-83163222D01*
X107449556Y-83157520D01*
X107412602Y-83137120D01*
X107362631Y-83086687D01*
X107347859Y-83017245D01*
X107372975Y-82950839D01*
X107400327Y-82924232D01*
X107423797Y-82907491D01*
X107579860Y-82796173D01*
X107738096Y-82638489D01*
X107797594Y-82555689D01*
X107865435Y-82461277D01*
X107868453Y-82457077D01*
X107967430Y-82256811D01*
X108032370Y-82043069D01*
X108061529Y-81821590D01*
X108063156Y-81755000D01*
X108044852Y-81532361D01*
X108016821Y-81420765D01*
X108019625Y-81349823D01*
X108049930Y-81300974D01*
X108266758Y-81084146D01*
X108275048Y-81076602D01*
X108281529Y-81072489D01*
X108328170Y-81022821D01*
X108330924Y-81019980D01*
X108350645Y-81000259D01*
X108353123Y-80997064D01*
X108360829Y-80988042D01*
X108385669Y-80961590D01*
X108391097Y-80955810D01*
X108400857Y-80938057D01*
X108411710Y-80921534D01*
X108419264Y-80911795D01*
X108424124Y-80905530D01*
X108441687Y-80864946D01*
X108446894Y-80854316D01*
X108468206Y-80815549D01*
X108470177Y-80807872D01*
X108470179Y-80807867D01*
X108473243Y-80795931D01*
X108479649Y-80777219D01*
X108484545Y-80765906D01*
X108487692Y-80758634D01*
X108491827Y-80732530D01*
X108494608Y-80714970D01*
X108497015Y-80703349D01*
X108506039Y-80668200D01*
X108506039Y-80668199D01*
X108508011Y-80660519D01*
X108508011Y-80640258D01*
X108509562Y-80620547D01*
X108511490Y-80608374D01*
X108512730Y-80600546D01*
X108508570Y-80556535D01*
X108508011Y-80544678D01*
X108508011Y-79440083D01*
X108528013Y-79371962D01*
X108544916Y-79350988D01*
X108681413Y-79214491D01*
X108743725Y-79180465D01*
X108814540Y-79185530D01*
X108871376Y-79228077D01*
X108896187Y-79294597D01*
X108895771Y-79317192D01*
X108892369Y-79348509D01*
X108892000Y-79355328D01*
X108892000Y-79381885D01*
X108896475Y-79397124D01*
X108897865Y-79398329D01*
X108905548Y-79400000D01*
X109681885Y-79400000D01*
X109697124Y-79395525D01*
X109698329Y-79394135D01*
X109700000Y-79386452D01*
X109700000Y-79381885D01*
X110100000Y-79381885D01*
X110104475Y-79397124D01*
X110105865Y-79398329D01*
X110113548Y-79400000D01*
X110889884Y-79400000D01*
X110905123Y-79395525D01*
X110906328Y-79394135D01*
X110907999Y-79386452D01*
X110907999Y-79355331D01*
X110907629Y-79348510D01*
X110902105Y-79297648D01*
X110898479Y-79282396D01*
X110853321Y-79161939D01*
X110852538Y-79160508D01*
X110852192Y-79158927D01*
X110850172Y-79153538D01*
X110850950Y-79153246D01*
X110837369Y-79091151D01*
X110850460Y-79046570D01*
X110850172Y-79046462D01*
X110851646Y-79042531D01*
X110852538Y-79039492D01*
X110853321Y-79038061D01*
X110898478Y-78917606D01*
X110902105Y-78902351D01*
X110907631Y-78851486D01*
X110908000Y-78844672D01*
X110908000Y-78818115D01*
X110903525Y-78802876D01*
X110902135Y-78801671D01*
X110894452Y-78800000D01*
X110118115Y-78800000D01*
X110102876Y-78804475D01*
X110101671Y-78805865D01*
X110100000Y-78813548D01*
X110100000Y-79381885D01*
X109700000Y-79381885D01*
X109700000Y-78526000D01*
X109720002Y-78457879D01*
X109773658Y-78411386D01*
X109826000Y-78400000D01*
X110889884Y-78400000D01*
X110905123Y-78395525D01*
X110906328Y-78394135D01*
X110907999Y-78386452D01*
X110907999Y-78355331D01*
X110907629Y-78348510D01*
X110902105Y-78297648D01*
X110898479Y-78282396D01*
X110853321Y-78161939D01*
X110852826Y-78161034D01*
X110852607Y-78160034D01*
X110850172Y-78153538D01*
X110851110Y-78153186D01*
X110837657Y-78091677D01*
X110850838Y-78046788D01*
X110850615Y-78046705D01*
X110851756Y-78043663D01*
X110851758Y-78043656D01*
X110855566Y-78033500D01*
X110884024Y-77957586D01*
X110901745Y-77910316D01*
X110908500Y-77848134D01*
X110908500Y-77351866D01*
X110901745Y-77289684D01*
X110884024Y-77242414D01*
X110853766Y-77161699D01*
X110853764Y-77161696D01*
X110850615Y-77153295D01*
X110851307Y-77153036D01*
X110837657Y-77090626D01*
X110850580Y-77046615D01*
X110850172Y-77046462D01*
X110852262Y-77040888D01*
X110852826Y-77038966D01*
X110853321Y-77038061D01*
X110898478Y-76917606D01*
X110902105Y-76902351D01*
X110907631Y-76851486D01*
X110908000Y-76844672D01*
X110908000Y-76818115D01*
X110903525Y-76802876D01*
X110902135Y-76801671D01*
X110894452Y-76800000D01*
X108910116Y-76800000D01*
X108894877Y-76804475D01*
X108893672Y-76805865D01*
X108892001Y-76813548D01*
X108892001Y-76844669D01*
X108892371Y-76851490D01*
X108897895Y-76902352D01*
X108901521Y-76917604D01*
X108949828Y-77046462D01*
X108946885Y-77047565D01*
X108958725Y-77101732D01*
X108933980Y-77168277D01*
X108922132Y-77181963D01*
X108212866Y-77891229D01*
X108150554Y-77925255D01*
X108079739Y-77920190D01*
X108022903Y-77877643D01*
X107998092Y-77811123D01*
X108005789Y-77757905D01*
X108048971Y-77642718D01*
X108048973Y-77642712D01*
X108051745Y-77635316D01*
X108058500Y-77573134D01*
X108058500Y-76359500D01*
X108078502Y-76291379D01*
X108132158Y-76244886D01*
X108184500Y-76233500D01*
X108766000Y-76233500D01*
X108834121Y-76253502D01*
X108880614Y-76307158D01*
X108892000Y-76359500D01*
X108892000Y-76381885D01*
X108896475Y-76397124D01*
X108897865Y-76398329D01*
X108905548Y-76400000D01*
X110889884Y-76400000D01*
X110905123Y-76395525D01*
X110906328Y-76394135D01*
X110907999Y-76386452D01*
X110907999Y-76355331D01*
X110907629Y-76348510D01*
X110902105Y-76297648D01*
X110898479Y-76282396D01*
X110853321Y-76161939D01*
X110852826Y-76161034D01*
X110852607Y-76160034D01*
X110850172Y-76153538D01*
X110851110Y-76153186D01*
X110837657Y-76091677D01*
X110850838Y-76046788D01*
X110850615Y-76046705D01*
X110851756Y-76043663D01*
X110851758Y-76043656D01*
X110901745Y-75910316D01*
X110908500Y-75848134D01*
X110908500Y-75351866D01*
X110901745Y-75289684D01*
X110858067Y-75173173D01*
X110853766Y-75161699D01*
X110853764Y-75161696D01*
X110850615Y-75153295D01*
X110851466Y-75152976D01*
X110837945Y-75091151D01*
X110850958Y-75046834D01*
X110850615Y-75046705D01*
X110852372Y-75042019D01*
X110852373Y-75042015D01*
X110901745Y-74910316D01*
X110908500Y-74848134D01*
X110908500Y-74351866D01*
X110901745Y-74289684D01*
X110850615Y-74153295D01*
X110851307Y-74153036D01*
X110837657Y-74090626D01*
X110850580Y-74046615D01*
X110850172Y-74046462D01*
X110852262Y-74040888D01*
X110852826Y-74038966D01*
X110853321Y-74038061D01*
X110898478Y-73917606D01*
X110902105Y-73902351D01*
X110907631Y-73851486D01*
X110908000Y-73844672D01*
X110908000Y-73818115D01*
X110903525Y-73802876D01*
X110902135Y-73801671D01*
X110894452Y-73800000D01*
X108910116Y-73800000D01*
X108894877Y-73804475D01*
X108893672Y-73805865D01*
X108892001Y-73813548D01*
X108892001Y-73840500D01*
X108871999Y-73908621D01*
X108818343Y-73955114D01*
X108766001Y-73966500D01*
X108148128Y-73966500D01*
X108080007Y-73946498D01*
X108033514Y-73892842D01*
X108023410Y-73822568D01*
X108027569Y-73803874D01*
X108030866Y-73793023D01*
X108030869Y-73793010D01*
X108032370Y-73788069D01*
X108061529Y-73566590D01*
X108063156Y-73500000D01*
X108044852Y-73277361D01*
X107990431Y-73060702D01*
X107901354Y-72855840D01*
X107857081Y-72787405D01*
X107782822Y-72672617D01*
X107782820Y-72672614D01*
X107780014Y-72668277D01*
X107629670Y-72503051D01*
X107625619Y-72499852D01*
X107625615Y-72499848D01*
X107458414Y-72367800D01*
X107458410Y-72367798D01*
X107454359Y-72364598D01*
X107412569Y-72341529D01*
X107362598Y-72291097D01*
X107347826Y-72221654D01*
X107372942Y-72155248D01*
X107400294Y-72128641D01*
X107575328Y-72003792D01*
X107583200Y-71997139D01*
X107734052Y-71846812D01*
X107744081Y-71835027D01*
X107745630Y-71836345D01*
X107794742Y-71798039D01*
X107865444Y-71791572D01*
X107930198Y-71826102D01*
X108854597Y-72750502D01*
X108888621Y-72812812D01*
X108891500Y-72839595D01*
X108891500Y-72848134D01*
X108898255Y-72910316D01*
X108947589Y-73041914D01*
X108949385Y-73046705D01*
X108948693Y-73046964D01*
X108962343Y-73109374D01*
X108949420Y-73153385D01*
X108949828Y-73153538D01*
X108947738Y-73159112D01*
X108947174Y-73161034D01*
X108946679Y-73161939D01*
X108901522Y-73282394D01*
X108897895Y-73297649D01*
X108892369Y-73348514D01*
X108892000Y-73355328D01*
X108892000Y-73381885D01*
X108896475Y-73397124D01*
X108897865Y-73398329D01*
X108905548Y-73400000D01*
X110889884Y-73400000D01*
X110905123Y-73395525D01*
X110906328Y-73394135D01*
X110907999Y-73386452D01*
X110907999Y-73355331D01*
X110907629Y-73348510D01*
X110902105Y-73297648D01*
X110898479Y-73282396D01*
X110853321Y-73161939D01*
X110852826Y-73161034D01*
X110852607Y-73160034D01*
X110850172Y-73153538D01*
X110851110Y-73153186D01*
X110837657Y-73091677D01*
X110850838Y-73046788D01*
X110850615Y-73046705D01*
X110851756Y-73043663D01*
X110851758Y-73043656D01*
X110901745Y-72910316D01*
X110908500Y-72848134D01*
X110908500Y-72351866D01*
X110901745Y-72289684D01*
X110861402Y-72182069D01*
X110853766Y-72161699D01*
X110853764Y-72161696D01*
X110850615Y-72153295D01*
X110851307Y-72153036D01*
X110837657Y-72090626D01*
X110850580Y-72046615D01*
X110850172Y-72046462D01*
X110852262Y-72040888D01*
X110852826Y-72038966D01*
X110853321Y-72038061D01*
X110898478Y-71917606D01*
X110902105Y-71902351D01*
X110907631Y-71851486D01*
X110908000Y-71844672D01*
X110908000Y-71818115D01*
X110903525Y-71802876D01*
X110902135Y-71801671D01*
X110894452Y-71800000D01*
X109826000Y-71800000D01*
X109757879Y-71779998D01*
X109711386Y-71726342D01*
X109700000Y-71674000D01*
X109700000Y-71381885D01*
X110100000Y-71381885D01*
X110104475Y-71397124D01*
X110105865Y-71398329D01*
X110113548Y-71400000D01*
X110889884Y-71400000D01*
X110905123Y-71395525D01*
X110906328Y-71394135D01*
X110907999Y-71386452D01*
X110907999Y-71355331D01*
X110907629Y-71348510D01*
X110902105Y-71297648D01*
X110898479Y-71282396D01*
X110853321Y-71161939D01*
X110852538Y-71160508D01*
X110852192Y-71158927D01*
X110850172Y-71153538D01*
X110850950Y-71153246D01*
X110837369Y-71091151D01*
X110850460Y-71046570D01*
X110850172Y-71046462D01*
X110851646Y-71042531D01*
X110852538Y-71039492D01*
X110853321Y-71038061D01*
X110898478Y-70917606D01*
X110902105Y-70902351D01*
X110907631Y-70851486D01*
X110908000Y-70844672D01*
X110908000Y-70818115D01*
X110903525Y-70802876D01*
X110902135Y-70801671D01*
X110894452Y-70800000D01*
X110118115Y-70800000D01*
X110102876Y-70804475D01*
X110101671Y-70805865D01*
X110100000Y-70813548D01*
X110100000Y-71381885D01*
X109700000Y-71381885D01*
X109700000Y-70818115D01*
X109695525Y-70802876D01*
X109694135Y-70801671D01*
X109686452Y-70800000D01*
X108910116Y-70800000D01*
X108894877Y-70804474D01*
X108893209Y-70806400D01*
X108833483Y-70844784D01*
X108762487Y-70844784D01*
X108708889Y-70812983D01*
X108544916Y-70649010D01*
X108510890Y-70586698D01*
X108508011Y-70559915D01*
X108508011Y-69673274D01*
X108508538Y-69662090D01*
X108510212Y-69654602D01*
X108508073Y-69586543D01*
X108508011Y-69582586D01*
X108508011Y-69554655D01*
X108507505Y-69550649D01*
X108506572Y-69538803D01*
X108505433Y-69502548D01*
X108505184Y-69494621D01*
X108499533Y-69475169D01*
X108495525Y-69455817D01*
X108493979Y-69443579D01*
X108493978Y-69443577D01*
X108492985Y-69435714D01*
X108476705Y-69394597D01*
X108472870Y-69383396D01*
X108460529Y-69340917D01*
X108456496Y-69334098D01*
X108456494Y-69334093D01*
X108450218Y-69323482D01*
X108441521Y-69305732D01*
X108434063Y-69286894D01*
X108408082Y-69251134D01*
X108401564Y-69241212D01*
X108383089Y-69209971D01*
X108383085Y-69209966D01*
X108379053Y-69203148D01*
X108364729Y-69188824D01*
X108351887Y-69173789D01*
X108339983Y-69157404D01*
X108305917Y-69129222D01*
X108297138Y-69121233D01*
X108051218Y-68875313D01*
X108017192Y-68813001D01*
X108019755Y-68749589D01*
X108030865Y-68713022D01*
X108032370Y-68708069D01*
X108061529Y-68486590D01*
X108063156Y-68420000D01*
X108044852Y-68197361D01*
X107990431Y-67980702D01*
X107901354Y-67775840D01*
X107780014Y-67588277D01*
X107629670Y-67423051D01*
X107625619Y-67419852D01*
X107625615Y-67419848D01*
X107458414Y-67287800D01*
X107458410Y-67287798D01*
X107454359Y-67284598D01*
X107412569Y-67261529D01*
X107362598Y-67211097D01*
X107347826Y-67141654D01*
X107372942Y-67075248D01*
X107400294Y-67048641D01*
X107575328Y-66923792D01*
X107583200Y-66917139D01*
X107734052Y-66766812D01*
X107740730Y-66758965D01*
X107865003Y-66586020D01*
X107870313Y-66577183D01*
X107964670Y-66386267D01*
X107968469Y-66376672D01*
X108030377Y-66172910D01*
X108032555Y-66162837D01*
X108033986Y-66151962D01*
X108031775Y-66137778D01*
X108018617Y-66134000D01*
X105383225Y-66134000D01*
X105369694Y-66137973D01*
X105368257Y-66147966D01*
X105398565Y-66282446D01*
X105401645Y-66292275D01*
X105481770Y-66489603D01*
X105486413Y-66498794D01*
X105597694Y-66680388D01*
X105603777Y-66688699D01*
X105743213Y-66849667D01*
X105750580Y-66856883D01*
X105914434Y-66992916D01*
X105922881Y-66998831D01*
X105991969Y-67039203D01*
X106040693Y-67090842D01*
X106053764Y-67160625D01*
X106027033Y-67226396D01*
X105986584Y-67259752D01*
X105973607Y-67266507D01*
X105969474Y-67269610D01*
X105969471Y-67269612D01*
X105945247Y-67287800D01*
X105794965Y-67400635D01*
X105640629Y-67562138D01*
X105514743Y-67746680D01*
X105420688Y-67949305D01*
X105360989Y-68164570D01*
X105337251Y-68386695D01*
X105337548Y-68391848D01*
X105337548Y-68391851D01*
X105343011Y-68486590D01*
X105350110Y-68609715D01*
X105351247Y-68614761D01*
X105351248Y-68614767D01*
X105371119Y-68702939D01*
X105399222Y-68827639D01*
X105483266Y-69034616D01*
X105485965Y-69039020D01*
X105562440Y-69163816D01*
X105599987Y-69225088D01*
X105746250Y-69393938D01*
X105918126Y-69536632D01*
X105948969Y-69554655D01*
X105991955Y-69579774D01*
X106040679Y-69631412D01*
X106053750Y-69701195D01*
X106027019Y-69766967D01*
X105986562Y-69800327D01*
X105978457Y-69804546D01*
X105969738Y-69810036D01*
X105799433Y-69937905D01*
X105791726Y-69944748D01*
X105644590Y-70098717D01*
X105638104Y-70106727D01*
X105518098Y-70282649D01*
X105513000Y-70291623D01*
X105423338Y-70484783D01*
X105419775Y-70494470D01*
X105364389Y-70694183D01*
X105365912Y-70702607D01*
X105378292Y-70706000D01*
X106828000Y-70706000D01*
X106896121Y-70726002D01*
X106942614Y-70779658D01*
X106954000Y-70832000D01*
X106954000Y-71088000D01*
X106933998Y-71156121D01*
X106880342Y-71202614D01*
X106828000Y-71214000D01*
X105383225Y-71214000D01*
X105369694Y-71217973D01*
X105368257Y-71227966D01*
X105398565Y-71362446D01*
X105401645Y-71372275D01*
X105481770Y-71569603D01*
X105486413Y-71578794D01*
X105597694Y-71760388D01*
X105603777Y-71768699D01*
X105743213Y-71929667D01*
X105750580Y-71936883D01*
X105914434Y-72072916D01*
X105922881Y-72078831D01*
X105991969Y-72119203D01*
X106040693Y-72170842D01*
X106053764Y-72240625D01*
X106027033Y-72306396D01*
X105986584Y-72339752D01*
X105973607Y-72346507D01*
X105969474Y-72349610D01*
X105969471Y-72349612D01*
X105945247Y-72367800D01*
X105794965Y-72480635D01*
X105640629Y-72642138D01*
X105514743Y-72826680D01*
X105420688Y-73029305D01*
X105360989Y-73244570D01*
X105337251Y-73466695D01*
X105337548Y-73471848D01*
X105337548Y-73471851D01*
X105343011Y-73566590D01*
X105350110Y-73689715D01*
X105351247Y-73694761D01*
X105351248Y-73694767D01*
X105371120Y-73782942D01*
X105399222Y-73907639D01*
X105483266Y-74114616D01*
X105534942Y-74198944D01*
X105595362Y-74297540D01*
X105599987Y-74305088D01*
X105746250Y-74473938D01*
X105918126Y-74616632D01*
X106111000Y-74729338D01*
X106319692Y-74809030D01*
X106324760Y-74810061D01*
X106324763Y-74810062D01*
X106432003Y-74831880D01*
X106538597Y-74853567D01*
X106543772Y-74853757D01*
X106543774Y-74853757D01*
X106756673Y-74861564D01*
X106756677Y-74861564D01*
X106761837Y-74861753D01*
X106766957Y-74861097D01*
X106766959Y-74861097D01*
X106845512Y-74851034D01*
X106983416Y-74833368D01*
X107029826Y-74819444D01*
X107100821Y-74819026D01*
X107155129Y-74851034D01*
X107296348Y-74992253D01*
X107303888Y-75000539D01*
X107308000Y-75007018D01*
X107310643Y-75009500D01*
X107337900Y-75072978D01*
X107326196Y-75143004D01*
X107309983Y-75168263D01*
X107309794Y-75168492D01*
X107301712Y-75177384D01*
X107199501Y-75279595D01*
X107137189Y-75313621D01*
X107110406Y-75316500D01*
X105801866Y-75316500D01*
X105739684Y-75323255D01*
X105603295Y-75374385D01*
X105486739Y-75461739D01*
X105399385Y-75578295D01*
X105348255Y-75714684D01*
X105341500Y-75776866D01*
X105341500Y-77573134D01*
X105348255Y-77635316D01*
X105399385Y-77771705D01*
X105486739Y-77888261D01*
X105603295Y-77975615D01*
X105611704Y-77978767D01*
X105611705Y-77978768D01*
X105720960Y-78019726D01*
X105777725Y-78062367D01*
X105802425Y-78128929D01*
X105787218Y-78198278D01*
X105767825Y-78224759D01*
X105644590Y-78353717D01*
X105638104Y-78361727D01*
X105518098Y-78537649D01*
X105513000Y-78546623D01*
X105423338Y-78739783D01*
X105419775Y-78749470D01*
X105364389Y-78949183D01*
X105365912Y-78957607D01*
X105378292Y-78961000D01*
X106828000Y-78961000D01*
X106896121Y-78981002D01*
X106942614Y-79034658D01*
X106954000Y-79087000D01*
X106954000Y-79343000D01*
X106933998Y-79411121D01*
X106880342Y-79457614D01*
X106828000Y-79469000D01*
X105383225Y-79469000D01*
X105369694Y-79472973D01*
X105368257Y-79482966D01*
X105398565Y-79617446D01*
X105401645Y-79627275D01*
X105481770Y-79824603D01*
X105486413Y-79833794D01*
X105597694Y-80015388D01*
X105603777Y-80023699D01*
X105743213Y-80184667D01*
X105750580Y-80191883D01*
X105914434Y-80327916D01*
X105922881Y-80333831D01*
X105991969Y-80374203D01*
X106040693Y-80425842D01*
X106053764Y-80495625D01*
X106027033Y-80561396D01*
X105986584Y-80594752D01*
X105973607Y-80601507D01*
X105969474Y-80604610D01*
X105969471Y-80604612D01*
X105830302Y-80709103D01*
X105794965Y-80735635D01*
X105791393Y-80739373D01*
X105711961Y-80822494D01*
X105640629Y-80897138D01*
X105637715Y-80901410D01*
X105637714Y-80901411D01*
X105575663Y-80992375D01*
X105514743Y-81081680D01*
X105512564Y-81086375D01*
X105429293Y-81265768D01*
X105420688Y-81284305D01*
X105360989Y-81499570D01*
X105337251Y-81721695D01*
X99508500Y-81721695D01*
X99508500Y-65614183D01*
X105364389Y-65614183D01*
X105365912Y-65622607D01*
X105378292Y-65626000D01*
X106427885Y-65626000D01*
X106443124Y-65621525D01*
X106444329Y-65620135D01*
X106446000Y-65612452D01*
X106446000Y-65607885D01*
X106954000Y-65607885D01*
X106958475Y-65623124D01*
X106959865Y-65624329D01*
X106967548Y-65626000D01*
X108018344Y-65626000D01*
X108031875Y-65622027D01*
X108033180Y-65612947D01*
X107991214Y-65445875D01*
X107987894Y-65436124D01*
X107902972Y-65240814D01*
X107898105Y-65231739D01*
X107782426Y-65052926D01*
X107776136Y-65044757D01*
X107632806Y-64887240D01*
X107625273Y-64880215D01*
X107458139Y-64748222D01*
X107449552Y-64742517D01*
X107412116Y-64721851D01*
X107362146Y-64671419D01*
X107347374Y-64601976D01*
X107372490Y-64535571D01*
X107399842Y-64508964D01*
X107575327Y-64383792D01*
X107583200Y-64377139D01*
X107734052Y-64226812D01*
X107740730Y-64218965D01*
X107865003Y-64046020D01*
X107870313Y-64037183D01*
X107964670Y-63846267D01*
X107968469Y-63836672D01*
X108030377Y-63632910D01*
X108032555Y-63622837D01*
X108033986Y-63611962D01*
X108031775Y-63597778D01*
X108018617Y-63594000D01*
X106972115Y-63594000D01*
X106956876Y-63598475D01*
X106955671Y-63599865D01*
X106954000Y-63607548D01*
X106954000Y-65607885D01*
X106446000Y-65607885D01*
X106446000Y-63612115D01*
X106441525Y-63596876D01*
X106440135Y-63595671D01*
X106432452Y-63594000D01*
X105383225Y-63594000D01*
X105369694Y-63597973D01*
X105368257Y-63607966D01*
X105398565Y-63742446D01*
X105401645Y-63752275D01*
X105481770Y-63949603D01*
X105486413Y-63958794D01*
X105597694Y-64140388D01*
X105603777Y-64148699D01*
X105743213Y-64309667D01*
X105750580Y-64316883D01*
X105914434Y-64452916D01*
X105922881Y-64458831D01*
X105992479Y-64499501D01*
X106041203Y-64551140D01*
X106054274Y-64620923D01*
X106027543Y-64686694D01*
X105987087Y-64720053D01*
X105978462Y-64724542D01*
X105969738Y-64730036D01*
X105799433Y-64857905D01*
X105791726Y-64864748D01*
X105644590Y-65018717D01*
X105638104Y-65026727D01*
X105518098Y-65202649D01*
X105513000Y-65211623D01*
X105423338Y-65404783D01*
X105419775Y-65414470D01*
X105364389Y-65614183D01*
X99508500Y-65614183D01*
X99508500Y-59922470D01*
X99528502Y-59854349D01*
X99545405Y-59833375D01*
X99633375Y-59745405D01*
X99695687Y-59711379D01*
X99722470Y-59708500D01*
X105222077Y-59708500D01*
X105290198Y-59728502D01*
G37*
%TD.AperFunction*%
%TD*%
M02*
