%FSLAX45Y45*%
G04 Gerber Fmt 4.5, Leading zero omitted, Abs format (unit mm)*
G04 Created by KiCad (PCBNEW (6.0.5)) date 2023-11-29 10:06:58*
%MOMM*%
%LPD*%
G01*
G04 APERTURE LIST*
%TA.AperFunction,Profile*%
%ADD10C,0.100000*%
%TD*%
%ADD11C,0.200000*%
G04 APERTURE END LIST*
D10*
X9900000Y-5920000D02*
X11540000Y-5920000D01*
X11540000Y-5920000D02*
X11540000Y-9120000D01*
X11540000Y-9120000D02*
X9900000Y-9120000D01*
X9900000Y-9120000D02*
X9900000Y-5920000D01*
D11*
X10152619Y-9435476D02*
X10152619Y-9235476D01*
X10200238Y-9235476D01*
X10228810Y-9245000D01*
X10247857Y-9264048D01*
X10257381Y-9283095D01*
X10266905Y-9321190D01*
X10266905Y-9349762D01*
X10257381Y-9387857D01*
X10247857Y-9406905D01*
X10228810Y-9425952D01*
X10200238Y-9435476D01*
X10152619Y-9435476D01*
X10352619Y-9435476D02*
X10352619Y-9302143D01*
X10352619Y-9340238D02*
X10362143Y-9321190D01*
X10371667Y-9311667D01*
X10390714Y-9302143D01*
X10409762Y-9302143D01*
X10476429Y-9435476D02*
X10476429Y-9302143D01*
X10476429Y-9235476D02*
X10466905Y-9245000D01*
X10476429Y-9254524D01*
X10485952Y-9245000D01*
X10476429Y-9235476D01*
X10476429Y-9254524D01*
X10600238Y-9435476D02*
X10581190Y-9425952D01*
X10571667Y-9406905D01*
X10571667Y-9235476D01*
X10705000Y-9435476D02*
X10685952Y-9425952D01*
X10676429Y-9406905D01*
X10676429Y-9235476D01*
X10933571Y-9435476D02*
X10933571Y-9235476D01*
X11000238Y-9378333D01*
X11066905Y-9235476D01*
X11066905Y-9435476D01*
X11247857Y-9435476D02*
X11247857Y-9330714D01*
X11238333Y-9311667D01*
X11219286Y-9302143D01*
X11181190Y-9302143D01*
X11162143Y-9311667D01*
X11247857Y-9425952D02*
X11228809Y-9435476D01*
X11181190Y-9435476D01*
X11162143Y-9425952D01*
X11152619Y-9406905D01*
X11152619Y-9387857D01*
X11162143Y-9368810D01*
X11181190Y-9359286D01*
X11228809Y-9359286D01*
X11247857Y-9349762D01*
X11343095Y-9302143D02*
X11343095Y-9502143D01*
X11343095Y-9311667D02*
X11362143Y-9302143D01*
X11400238Y-9302143D01*
X11419286Y-9311667D01*
X11428809Y-9321190D01*
X11438333Y-9340238D01*
X11438333Y-9397381D01*
X11428809Y-9416429D01*
X11419286Y-9425952D01*
X11400238Y-9435476D01*
X11362143Y-9435476D01*
X11343095Y-9425952D01*
X11524048Y-9416429D02*
X11533571Y-9425952D01*
X11524048Y-9435476D01*
X11514524Y-9425952D01*
X11524048Y-9416429D01*
X11524048Y-9435476D01*
X11524048Y-9311667D02*
X11533571Y-9321190D01*
X11524048Y-9330714D01*
X11514524Y-9321190D01*
X11524048Y-9311667D01*
X11524048Y-9330714D01*
M02*
