%TF.GenerationSoftware,KiCad,Pcbnew,(6.0.5)*%
%TF.CreationDate,2023-11-29T10:07:13+07:00*%
%TF.ProjectId,conn_station,636f6e6e-5f73-4746-9174-696f6e2e6b69,rev?*%
%TF.SameCoordinates,Original*%
%TF.FileFunction,Copper,L2,Bot*%
%TF.FilePolarity,Positive*%
%FSLAX46Y46*%
G04 Gerber Fmt 4.6, Leading zero omitted, Abs format (unit mm)*
G04 Created by KiCad (PCBNEW (6.0.5)) date 2023-11-29 10:07:13*
%MOMM*%
%LPD*%
G01*
G04 APERTURE LIST*
%TA.AperFunction,ComponentPad*%
%ADD10R,1.700000X1.700000*%
%TD*%
%TA.AperFunction,ComponentPad*%
%ADD11O,1.700000X1.700000*%
%TD*%
%TA.AperFunction,ViaPad*%
%ADD12C,0.800000*%
%TD*%
G04 APERTURE END LIST*
D10*
%TO.P,J3,1,Pin_1*%
%TO.N,Net-(J2-Pad12)*%
X106700000Y-60800000D03*
D11*
%TO.P,J3,2,Pin_2*%
%TO.N,/GND*%
X106700000Y-63340000D03*
%TO.P,J3,3,Pin_3*%
X106700000Y-65880000D03*
%TO.P,J3,4,Pin_4*%
%TO.N,Net-(J2-Pad9)*%
X106700000Y-68420000D03*
%TO.P,J3,5,Pin_5*%
%TO.N,/GND*%
X106700000Y-70960000D03*
%TO.P,J3,6,Pin_6*%
%TO.N,Net-(J2-Pad7)*%
X106700000Y-73500000D03*
%TD*%
D10*
%TO.P,J1,1,Pin_1*%
%TO.N,Net-(J1-Pad1)*%
X106700000Y-76675000D03*
D11*
%TO.P,J1,2,Pin_2*%
%TO.N,/GND*%
X106700000Y-79215000D03*
%TO.P,J1,3,Pin_3*%
%TO.N,Net-(J1-Pad3)*%
X106700000Y-81755000D03*
%TO.P,J1,4,Pin_4*%
%TO.N,/GND*%
X106700000Y-84295000D03*
%TO.P,J1,5,Pin_5*%
X106700000Y-86835000D03*
%TO.P,J1,6,Pin_6*%
%TO.N,Net-(J1-Pad6)*%
X106700000Y-89375000D03*
%TD*%
D12*
%TO.N,/GND*%
X112600000Y-72600000D03*
X101100000Y-65800000D03*
X104300000Y-86900000D03*
X112600000Y-80400000D03*
X104300000Y-81700000D03*
X110100000Y-60800000D03*
X104500000Y-70900000D03*
X112500000Y-89400000D03*
X101100000Y-63300000D03*
X101000000Y-79200000D03*
X112600000Y-75300000D03*
X112600000Y-63400000D03*
X104500000Y-73400000D03*
X101100000Y-60800000D03*
X104500000Y-63300000D03*
X112500000Y-86900000D03*
X112600000Y-70200000D03*
X101100000Y-70900000D03*
X101000000Y-76700000D03*
X101100000Y-73400000D03*
X112600000Y-60900000D03*
X104500000Y-68300000D03*
X104300000Y-89400000D03*
X100900000Y-86900000D03*
X100900000Y-84200000D03*
X104300000Y-84200000D03*
X101100000Y-68300000D03*
X100900000Y-89400000D03*
X104400000Y-79200000D03*
X104400000Y-76700000D03*
X104500000Y-60800000D03*
X104500000Y-65800000D03*
X100900000Y-81700000D03*
X112600000Y-77900000D03*
X109900000Y-89400000D03*
%TD*%
%TA.AperFunction,Conductor*%
%TO.N,/GND*%
G36*
X105290198Y-59728502D02*
G01*
X105336691Y-59782158D01*
X105347340Y-59848108D01*
X105341500Y-59901866D01*
X105341500Y-61698134D01*
X105348255Y-61760316D01*
X105399385Y-61896705D01*
X105486739Y-62013261D01*
X105603295Y-62100615D01*
X105611704Y-62103767D01*
X105611705Y-62103768D01*
X105720960Y-62144726D01*
X105777725Y-62187367D01*
X105802425Y-62253929D01*
X105787218Y-62323278D01*
X105767825Y-62349759D01*
X105644590Y-62478717D01*
X105638104Y-62486727D01*
X105518098Y-62662649D01*
X105513000Y-62671623D01*
X105423338Y-62864783D01*
X105419775Y-62874470D01*
X105364389Y-63074183D01*
X105365912Y-63082607D01*
X105378292Y-63086000D01*
X108018344Y-63086000D01*
X108031875Y-63082027D01*
X108033180Y-63072947D01*
X107991214Y-62905875D01*
X107987894Y-62896124D01*
X107902972Y-62700814D01*
X107898105Y-62691739D01*
X107782426Y-62512926D01*
X107776136Y-62504757D01*
X107632293Y-62346677D01*
X107601241Y-62282831D01*
X107609635Y-62212333D01*
X107654812Y-62157564D01*
X107681256Y-62143895D01*
X107788297Y-62103767D01*
X107796705Y-62100615D01*
X107913261Y-62013261D01*
X108000615Y-61896705D01*
X108051745Y-61760316D01*
X108058500Y-61698134D01*
X108058500Y-59901866D01*
X108052660Y-59848108D01*
X108065188Y-59778225D01*
X108113509Y-59726210D01*
X108177923Y-59708500D01*
X114677530Y-59708500D01*
X114745651Y-59728502D01*
X114766625Y-59745405D01*
X114854595Y-59833375D01*
X114888621Y-59895687D01*
X114891500Y-59922470D01*
X114891500Y-90477530D01*
X114871498Y-90545651D01*
X114854595Y-90566625D01*
X114766625Y-90654595D01*
X114704313Y-90688621D01*
X114677530Y-90691500D01*
X107587489Y-90691500D01*
X107519368Y-90671498D01*
X107472875Y-90617842D01*
X107462771Y-90547568D01*
X107492265Y-90482988D01*
X107514321Y-90462921D01*
X107579860Y-90416173D01*
X107738096Y-90258489D01*
X107797594Y-90175689D01*
X107865435Y-90081277D01*
X107868453Y-90077077D01*
X107967430Y-89876811D01*
X108032370Y-89663069D01*
X108061529Y-89441590D01*
X108063156Y-89375000D01*
X108044852Y-89152361D01*
X107990431Y-88935702D01*
X107901354Y-88730840D01*
X107780014Y-88543277D01*
X107629670Y-88378051D01*
X107625619Y-88374852D01*
X107625615Y-88374848D01*
X107458414Y-88242800D01*
X107458410Y-88242798D01*
X107454359Y-88239598D01*
X107412569Y-88216529D01*
X107362598Y-88166097D01*
X107347826Y-88096654D01*
X107372942Y-88030248D01*
X107400294Y-88003641D01*
X107575328Y-87878792D01*
X107583200Y-87872139D01*
X107734052Y-87721812D01*
X107740730Y-87713965D01*
X107865003Y-87541020D01*
X107870313Y-87532183D01*
X107964670Y-87341267D01*
X107968469Y-87331672D01*
X108030377Y-87127910D01*
X108032555Y-87117837D01*
X108033986Y-87106962D01*
X108031775Y-87092778D01*
X108018617Y-87089000D01*
X105383225Y-87089000D01*
X105369694Y-87092973D01*
X105368257Y-87102966D01*
X105398565Y-87237446D01*
X105401645Y-87247275D01*
X105481770Y-87444603D01*
X105486413Y-87453794D01*
X105597694Y-87635388D01*
X105603777Y-87643699D01*
X105743213Y-87804667D01*
X105750580Y-87811883D01*
X105914434Y-87947916D01*
X105922881Y-87953831D01*
X105991969Y-87994203D01*
X106040693Y-88045842D01*
X106053764Y-88115625D01*
X106027033Y-88181396D01*
X105986584Y-88214752D01*
X105973607Y-88221507D01*
X105969474Y-88224610D01*
X105969471Y-88224612D01*
X105945247Y-88242800D01*
X105794965Y-88355635D01*
X105640629Y-88517138D01*
X105514743Y-88701680D01*
X105420688Y-88904305D01*
X105360989Y-89119570D01*
X105337251Y-89341695D01*
X105337548Y-89346848D01*
X105337548Y-89346851D01*
X105343011Y-89441590D01*
X105350110Y-89564715D01*
X105351247Y-89569761D01*
X105351248Y-89569767D01*
X105371119Y-89657939D01*
X105399222Y-89782639D01*
X105483266Y-89989616D01*
X105599987Y-90180088D01*
X105746250Y-90348938D01*
X105890331Y-90468556D01*
X105929966Y-90527458D01*
X105931464Y-90598439D01*
X105894350Y-90658962D01*
X105830406Y-90689811D01*
X105809846Y-90691500D01*
X99722470Y-90691500D01*
X99654349Y-90671498D01*
X99633375Y-90654595D01*
X99545405Y-90566625D01*
X99511379Y-90504313D01*
X99508500Y-90477530D01*
X99508500Y-86569183D01*
X105364389Y-86569183D01*
X105365912Y-86577607D01*
X105378292Y-86581000D01*
X106427885Y-86581000D01*
X106443124Y-86576525D01*
X106444329Y-86575135D01*
X106446000Y-86567452D01*
X106446000Y-86562885D01*
X106954000Y-86562885D01*
X106958475Y-86578124D01*
X106959865Y-86579329D01*
X106967548Y-86581000D01*
X108018344Y-86581000D01*
X108031875Y-86577027D01*
X108033180Y-86567947D01*
X107991214Y-86400875D01*
X107987894Y-86391124D01*
X107902972Y-86195814D01*
X107898105Y-86186739D01*
X107782426Y-86007926D01*
X107776136Y-85999757D01*
X107632806Y-85842240D01*
X107625273Y-85835215D01*
X107458139Y-85703222D01*
X107449552Y-85697517D01*
X107412116Y-85676851D01*
X107362146Y-85626419D01*
X107347374Y-85556976D01*
X107372490Y-85490571D01*
X107399842Y-85463964D01*
X107575327Y-85338792D01*
X107583200Y-85332139D01*
X107734052Y-85181812D01*
X107740730Y-85173965D01*
X107865003Y-85001020D01*
X107870313Y-84992183D01*
X107964670Y-84801267D01*
X107968469Y-84791672D01*
X108030377Y-84587910D01*
X108032555Y-84577837D01*
X108033986Y-84566962D01*
X108031775Y-84552778D01*
X108018617Y-84549000D01*
X106972115Y-84549000D01*
X106956876Y-84553475D01*
X106955671Y-84554865D01*
X106954000Y-84562548D01*
X106954000Y-86562885D01*
X106446000Y-86562885D01*
X106446000Y-84567115D01*
X106441525Y-84551876D01*
X106440135Y-84550671D01*
X106432452Y-84549000D01*
X105383225Y-84549000D01*
X105369694Y-84552973D01*
X105368257Y-84562966D01*
X105398565Y-84697446D01*
X105401645Y-84707275D01*
X105481770Y-84904603D01*
X105486413Y-84913794D01*
X105597694Y-85095388D01*
X105603777Y-85103699D01*
X105743213Y-85264667D01*
X105750580Y-85271883D01*
X105914434Y-85407916D01*
X105922881Y-85413831D01*
X105992479Y-85454501D01*
X106041203Y-85506140D01*
X106054274Y-85575923D01*
X106027543Y-85641694D01*
X105987087Y-85675053D01*
X105978462Y-85679542D01*
X105969738Y-85685036D01*
X105799433Y-85812905D01*
X105791726Y-85819748D01*
X105644590Y-85973717D01*
X105638104Y-85981727D01*
X105518098Y-86157649D01*
X105513000Y-86166623D01*
X105423338Y-86359783D01*
X105419775Y-86369470D01*
X105364389Y-86569183D01*
X99508500Y-86569183D01*
X99508500Y-81721695D01*
X105337251Y-81721695D01*
X105337548Y-81726848D01*
X105337548Y-81726851D01*
X105343011Y-81821590D01*
X105350110Y-81944715D01*
X105351247Y-81949761D01*
X105351248Y-81949767D01*
X105371119Y-82037939D01*
X105399222Y-82162639D01*
X105483266Y-82369616D01*
X105599987Y-82560088D01*
X105746250Y-82728938D01*
X105918126Y-82871632D01*
X105991955Y-82914774D01*
X106040679Y-82966412D01*
X106053750Y-83036195D01*
X106027019Y-83101967D01*
X105986562Y-83135327D01*
X105978457Y-83139546D01*
X105969738Y-83145036D01*
X105799433Y-83272905D01*
X105791726Y-83279748D01*
X105644590Y-83433717D01*
X105638104Y-83441727D01*
X105518098Y-83617649D01*
X105513000Y-83626623D01*
X105423338Y-83819783D01*
X105419775Y-83829470D01*
X105364389Y-84029183D01*
X105365912Y-84037607D01*
X105378292Y-84041000D01*
X108018344Y-84041000D01*
X108031875Y-84037027D01*
X108033180Y-84027947D01*
X107991214Y-83860875D01*
X107987894Y-83851124D01*
X107902972Y-83655814D01*
X107898105Y-83646739D01*
X107782426Y-83467926D01*
X107776136Y-83459757D01*
X107632806Y-83302240D01*
X107625273Y-83295215D01*
X107458139Y-83163222D01*
X107449556Y-83157520D01*
X107412602Y-83137120D01*
X107362631Y-83086687D01*
X107347859Y-83017245D01*
X107372975Y-82950839D01*
X107400327Y-82924232D01*
X107423797Y-82907491D01*
X107579860Y-82796173D01*
X107738096Y-82638489D01*
X107797594Y-82555689D01*
X107865435Y-82461277D01*
X107868453Y-82457077D01*
X107967430Y-82256811D01*
X108032370Y-82043069D01*
X108061529Y-81821590D01*
X108063156Y-81755000D01*
X108044852Y-81532361D01*
X107990431Y-81315702D01*
X107901354Y-81110840D01*
X107780014Y-80923277D01*
X107629670Y-80758051D01*
X107625619Y-80754852D01*
X107625615Y-80754848D01*
X107458414Y-80622800D01*
X107458410Y-80622798D01*
X107454359Y-80619598D01*
X107412569Y-80596529D01*
X107362598Y-80546097D01*
X107347826Y-80476654D01*
X107372942Y-80410248D01*
X107400294Y-80383641D01*
X107575328Y-80258792D01*
X107583200Y-80252139D01*
X107734052Y-80101812D01*
X107740730Y-80093965D01*
X107865003Y-79921020D01*
X107870313Y-79912183D01*
X107964670Y-79721267D01*
X107968469Y-79711672D01*
X108030377Y-79507910D01*
X108032555Y-79497837D01*
X108033986Y-79486962D01*
X108031775Y-79472778D01*
X108018617Y-79469000D01*
X105383225Y-79469000D01*
X105369694Y-79472973D01*
X105368257Y-79482966D01*
X105398565Y-79617446D01*
X105401645Y-79627275D01*
X105481770Y-79824603D01*
X105486413Y-79833794D01*
X105597694Y-80015388D01*
X105603777Y-80023699D01*
X105743213Y-80184667D01*
X105750580Y-80191883D01*
X105914434Y-80327916D01*
X105922881Y-80333831D01*
X105991969Y-80374203D01*
X106040693Y-80425842D01*
X106053764Y-80495625D01*
X106027033Y-80561396D01*
X105986584Y-80594752D01*
X105973607Y-80601507D01*
X105969474Y-80604610D01*
X105969471Y-80604612D01*
X105945247Y-80622800D01*
X105794965Y-80735635D01*
X105640629Y-80897138D01*
X105514743Y-81081680D01*
X105420688Y-81284305D01*
X105360989Y-81499570D01*
X105337251Y-81721695D01*
X99508500Y-81721695D01*
X99508500Y-77573134D01*
X105341500Y-77573134D01*
X105348255Y-77635316D01*
X105399385Y-77771705D01*
X105486739Y-77888261D01*
X105603295Y-77975615D01*
X105611704Y-77978767D01*
X105611705Y-77978768D01*
X105720960Y-78019726D01*
X105777725Y-78062367D01*
X105802425Y-78128929D01*
X105787218Y-78198278D01*
X105767825Y-78224759D01*
X105644590Y-78353717D01*
X105638104Y-78361727D01*
X105518098Y-78537649D01*
X105513000Y-78546623D01*
X105423338Y-78739783D01*
X105419775Y-78749470D01*
X105364389Y-78949183D01*
X105365912Y-78957607D01*
X105378292Y-78961000D01*
X108018344Y-78961000D01*
X108031875Y-78957027D01*
X108033180Y-78947947D01*
X107991214Y-78780875D01*
X107987894Y-78771124D01*
X107902972Y-78575814D01*
X107898105Y-78566739D01*
X107782426Y-78387926D01*
X107776136Y-78379757D01*
X107632293Y-78221677D01*
X107601241Y-78157831D01*
X107609635Y-78087333D01*
X107654812Y-78032564D01*
X107681256Y-78018895D01*
X107788297Y-77978767D01*
X107796705Y-77975615D01*
X107913261Y-77888261D01*
X108000615Y-77771705D01*
X108051745Y-77635316D01*
X108058500Y-77573134D01*
X108058500Y-75776866D01*
X108051745Y-75714684D01*
X108000615Y-75578295D01*
X107913261Y-75461739D01*
X107796705Y-75374385D01*
X107660316Y-75323255D01*
X107598134Y-75316500D01*
X105801866Y-75316500D01*
X105739684Y-75323255D01*
X105603295Y-75374385D01*
X105486739Y-75461739D01*
X105399385Y-75578295D01*
X105348255Y-75714684D01*
X105341500Y-75776866D01*
X105341500Y-77573134D01*
X99508500Y-77573134D01*
X99508500Y-73466695D01*
X105337251Y-73466695D01*
X105337548Y-73471848D01*
X105337548Y-73471851D01*
X105343011Y-73566590D01*
X105350110Y-73689715D01*
X105351247Y-73694761D01*
X105351248Y-73694767D01*
X105371119Y-73782939D01*
X105399222Y-73907639D01*
X105483266Y-74114616D01*
X105599987Y-74305088D01*
X105746250Y-74473938D01*
X105918126Y-74616632D01*
X106111000Y-74729338D01*
X106319692Y-74809030D01*
X106324760Y-74810061D01*
X106324763Y-74810062D01*
X106432017Y-74831883D01*
X106538597Y-74853567D01*
X106543772Y-74853757D01*
X106543774Y-74853757D01*
X106756673Y-74861564D01*
X106756677Y-74861564D01*
X106761837Y-74861753D01*
X106766957Y-74861097D01*
X106766959Y-74861097D01*
X106978288Y-74834025D01*
X106978289Y-74834025D01*
X106983416Y-74833368D01*
X106988366Y-74831883D01*
X107192429Y-74770661D01*
X107192434Y-74770659D01*
X107197384Y-74769174D01*
X107397994Y-74670896D01*
X107579860Y-74541173D01*
X107738096Y-74383489D01*
X107797594Y-74300689D01*
X107865435Y-74206277D01*
X107868453Y-74202077D01*
X107967430Y-74001811D01*
X108032370Y-73788069D01*
X108061529Y-73566590D01*
X108063156Y-73500000D01*
X108044852Y-73277361D01*
X107990431Y-73060702D01*
X107901354Y-72855840D01*
X107780014Y-72668277D01*
X107629670Y-72503051D01*
X107625619Y-72499852D01*
X107625615Y-72499848D01*
X107458414Y-72367800D01*
X107458410Y-72367798D01*
X107454359Y-72364598D01*
X107412569Y-72341529D01*
X107362598Y-72291097D01*
X107347826Y-72221654D01*
X107372942Y-72155248D01*
X107400294Y-72128641D01*
X107575328Y-72003792D01*
X107583200Y-71997139D01*
X107734052Y-71846812D01*
X107740730Y-71838965D01*
X107865003Y-71666020D01*
X107870313Y-71657183D01*
X107964670Y-71466267D01*
X107968469Y-71456672D01*
X108030377Y-71252910D01*
X108032555Y-71242837D01*
X108033986Y-71231962D01*
X108031775Y-71217778D01*
X108018617Y-71214000D01*
X105383225Y-71214000D01*
X105369694Y-71217973D01*
X105368257Y-71227966D01*
X105398565Y-71362446D01*
X105401645Y-71372275D01*
X105481770Y-71569603D01*
X105486413Y-71578794D01*
X105597694Y-71760388D01*
X105603777Y-71768699D01*
X105743213Y-71929667D01*
X105750580Y-71936883D01*
X105914434Y-72072916D01*
X105922881Y-72078831D01*
X105991969Y-72119203D01*
X106040693Y-72170842D01*
X106053764Y-72240625D01*
X106027033Y-72306396D01*
X105986584Y-72339752D01*
X105973607Y-72346507D01*
X105969474Y-72349610D01*
X105969471Y-72349612D01*
X105945247Y-72367800D01*
X105794965Y-72480635D01*
X105640629Y-72642138D01*
X105514743Y-72826680D01*
X105420688Y-73029305D01*
X105360989Y-73244570D01*
X105337251Y-73466695D01*
X99508500Y-73466695D01*
X99508500Y-68386695D01*
X105337251Y-68386695D01*
X105337548Y-68391848D01*
X105337548Y-68391851D01*
X105343011Y-68486590D01*
X105350110Y-68609715D01*
X105351247Y-68614761D01*
X105351248Y-68614767D01*
X105371119Y-68702939D01*
X105399222Y-68827639D01*
X105483266Y-69034616D01*
X105599987Y-69225088D01*
X105746250Y-69393938D01*
X105918126Y-69536632D01*
X105991955Y-69579774D01*
X106040679Y-69631412D01*
X106053750Y-69701195D01*
X106027019Y-69766967D01*
X105986562Y-69800327D01*
X105978457Y-69804546D01*
X105969738Y-69810036D01*
X105799433Y-69937905D01*
X105791726Y-69944748D01*
X105644590Y-70098717D01*
X105638104Y-70106727D01*
X105518098Y-70282649D01*
X105513000Y-70291623D01*
X105423338Y-70484783D01*
X105419775Y-70494470D01*
X105364389Y-70694183D01*
X105365912Y-70702607D01*
X105378292Y-70706000D01*
X108018344Y-70706000D01*
X108031875Y-70702027D01*
X108033180Y-70692947D01*
X107991214Y-70525875D01*
X107987894Y-70516124D01*
X107902972Y-70320814D01*
X107898105Y-70311739D01*
X107782426Y-70132926D01*
X107776136Y-70124757D01*
X107632806Y-69967240D01*
X107625273Y-69960215D01*
X107458139Y-69828222D01*
X107449556Y-69822520D01*
X107412602Y-69802120D01*
X107362631Y-69751687D01*
X107347859Y-69682245D01*
X107372975Y-69615839D01*
X107400327Y-69589232D01*
X107423797Y-69572491D01*
X107579860Y-69461173D01*
X107738096Y-69303489D01*
X107797594Y-69220689D01*
X107865435Y-69126277D01*
X107868453Y-69122077D01*
X107967430Y-68921811D01*
X108032370Y-68708069D01*
X108061529Y-68486590D01*
X108063156Y-68420000D01*
X108044852Y-68197361D01*
X107990431Y-67980702D01*
X107901354Y-67775840D01*
X107780014Y-67588277D01*
X107629670Y-67423051D01*
X107625619Y-67419852D01*
X107625615Y-67419848D01*
X107458414Y-67287800D01*
X107458410Y-67287798D01*
X107454359Y-67284598D01*
X107412569Y-67261529D01*
X107362598Y-67211097D01*
X107347826Y-67141654D01*
X107372942Y-67075248D01*
X107400294Y-67048641D01*
X107575328Y-66923792D01*
X107583200Y-66917139D01*
X107734052Y-66766812D01*
X107740730Y-66758965D01*
X107865003Y-66586020D01*
X107870313Y-66577183D01*
X107964670Y-66386267D01*
X107968469Y-66376672D01*
X108030377Y-66172910D01*
X108032555Y-66162837D01*
X108033986Y-66151962D01*
X108031775Y-66137778D01*
X108018617Y-66134000D01*
X105383225Y-66134000D01*
X105369694Y-66137973D01*
X105368257Y-66147966D01*
X105398565Y-66282446D01*
X105401645Y-66292275D01*
X105481770Y-66489603D01*
X105486413Y-66498794D01*
X105597694Y-66680388D01*
X105603777Y-66688699D01*
X105743213Y-66849667D01*
X105750580Y-66856883D01*
X105914434Y-66992916D01*
X105922881Y-66998831D01*
X105991969Y-67039203D01*
X106040693Y-67090842D01*
X106053764Y-67160625D01*
X106027033Y-67226396D01*
X105986584Y-67259752D01*
X105973607Y-67266507D01*
X105969474Y-67269610D01*
X105969471Y-67269612D01*
X105945247Y-67287800D01*
X105794965Y-67400635D01*
X105640629Y-67562138D01*
X105514743Y-67746680D01*
X105420688Y-67949305D01*
X105360989Y-68164570D01*
X105337251Y-68386695D01*
X99508500Y-68386695D01*
X99508500Y-65614183D01*
X105364389Y-65614183D01*
X105365912Y-65622607D01*
X105378292Y-65626000D01*
X106427885Y-65626000D01*
X106443124Y-65621525D01*
X106444329Y-65620135D01*
X106446000Y-65612452D01*
X106446000Y-65607885D01*
X106954000Y-65607885D01*
X106958475Y-65623124D01*
X106959865Y-65624329D01*
X106967548Y-65626000D01*
X108018344Y-65626000D01*
X108031875Y-65622027D01*
X108033180Y-65612947D01*
X107991214Y-65445875D01*
X107987894Y-65436124D01*
X107902972Y-65240814D01*
X107898105Y-65231739D01*
X107782426Y-65052926D01*
X107776136Y-65044757D01*
X107632806Y-64887240D01*
X107625273Y-64880215D01*
X107458139Y-64748222D01*
X107449552Y-64742517D01*
X107412116Y-64721851D01*
X107362146Y-64671419D01*
X107347374Y-64601976D01*
X107372490Y-64535571D01*
X107399842Y-64508964D01*
X107575327Y-64383792D01*
X107583200Y-64377139D01*
X107734052Y-64226812D01*
X107740730Y-64218965D01*
X107865003Y-64046020D01*
X107870313Y-64037183D01*
X107964670Y-63846267D01*
X107968469Y-63836672D01*
X108030377Y-63632910D01*
X108032555Y-63622837D01*
X108033986Y-63611962D01*
X108031775Y-63597778D01*
X108018617Y-63594000D01*
X106972115Y-63594000D01*
X106956876Y-63598475D01*
X106955671Y-63599865D01*
X106954000Y-63607548D01*
X106954000Y-65607885D01*
X106446000Y-65607885D01*
X106446000Y-63612115D01*
X106441525Y-63596876D01*
X106440135Y-63595671D01*
X106432452Y-63594000D01*
X105383225Y-63594000D01*
X105369694Y-63597973D01*
X105368257Y-63607966D01*
X105398565Y-63742446D01*
X105401645Y-63752275D01*
X105481770Y-63949603D01*
X105486413Y-63958794D01*
X105597694Y-64140388D01*
X105603777Y-64148699D01*
X105743213Y-64309667D01*
X105750580Y-64316883D01*
X105914434Y-64452916D01*
X105922881Y-64458831D01*
X105992479Y-64499501D01*
X106041203Y-64551140D01*
X106054274Y-64620923D01*
X106027543Y-64686694D01*
X105987087Y-64720053D01*
X105978462Y-64724542D01*
X105969738Y-64730036D01*
X105799433Y-64857905D01*
X105791726Y-64864748D01*
X105644590Y-65018717D01*
X105638104Y-65026727D01*
X105518098Y-65202649D01*
X105513000Y-65211623D01*
X105423338Y-65404783D01*
X105419775Y-65414470D01*
X105364389Y-65614183D01*
X99508500Y-65614183D01*
X99508500Y-59922470D01*
X99528502Y-59854349D01*
X99545405Y-59833375D01*
X99633375Y-59745405D01*
X99695687Y-59711379D01*
X99722470Y-59708500D01*
X105222077Y-59708500D01*
X105290198Y-59728502D01*
G37*
%TD.AperFunction*%
%TD*%
M02*
