%TF.GenerationSoftware,KiCad,Pcbnew,(6.0.5)*%
%TF.CreationDate,2023-11-29T10:07:13+07:00*%
%TF.ProjectId,conn_station,636f6e6e-5f73-4746-9174-696f6e2e6b69,rev?*%
%TF.SameCoordinates,Original*%
%TF.FileFunction,Legend,Top*%
%TF.FilePolarity,Positive*%
%FSLAX46Y46*%
G04 Gerber Fmt 4.6, Leading zero omitted, Abs format (unit mm)*
G04 Created by KiCad (PCBNEW (6.0.5)) date 2023-11-29 10:07:13*
%MOMM*%
%LPD*%
G01*
G04 APERTURE LIST*
%ADD10C,0.150000*%
%ADD11C,0.120000*%
G04 APERTURE END LIST*
D10*
%TO.C,J3*%
X101986666Y-57482380D02*
X101986666Y-58196666D01*
X101939047Y-58339523D01*
X101843809Y-58434761D01*
X101700952Y-58482380D01*
X101605714Y-58482380D01*
X102367619Y-57482380D02*
X102986666Y-57482380D01*
X102653333Y-57863333D01*
X102796190Y-57863333D01*
X102891428Y-57910952D01*
X102939047Y-57958571D01*
X102986666Y-58053809D01*
X102986666Y-58291904D01*
X102939047Y-58387142D01*
X102891428Y-58434761D01*
X102796190Y-58482380D01*
X102510476Y-58482380D01*
X102415238Y-58434761D01*
X102367619Y-58387142D01*
%TO.C,J1*%
X101986666Y-73357380D02*
X101986666Y-74071666D01*
X101939047Y-74214523D01*
X101843809Y-74309761D01*
X101700952Y-74357380D01*
X101605714Y-74357380D01*
X102986666Y-74357380D02*
X102415238Y-74357380D01*
X102700952Y-74357380D02*
X102700952Y-73357380D01*
X102605714Y-73500238D01*
X102510476Y-73595476D01*
X102415238Y-73643095D01*
%TO.C,J2*%
X107652380Y-75433333D02*
X108366666Y-75433333D01*
X108509523Y-75480952D01*
X108604761Y-75576190D01*
X108652380Y-75719047D01*
X108652380Y-75814285D01*
X107747619Y-75004761D02*
X107700000Y-74957142D01*
X107652380Y-74861904D01*
X107652380Y-74623809D01*
X107700000Y-74528571D01*
X107747619Y-74480952D01*
X107842857Y-74433333D01*
X107938095Y-74433333D01*
X108080952Y-74480952D01*
X108652380Y-75052380D01*
X108652380Y-74433333D01*
D11*
%TO.C,J3*%
X105240000Y-73860000D02*
X105650000Y-73860000D01*
X105240000Y-65520000D02*
X105650000Y-65520000D01*
X96610000Y-64610000D02*
X105240000Y-64610000D01*
X96610000Y-59944285D02*
X105240000Y-59944285D01*
X105240000Y-70600000D02*
X105650000Y-70600000D01*
X105240000Y-60440000D02*
X105590000Y-60440000D01*
X96610000Y-60416665D02*
X105240000Y-60416665D01*
X107810000Y-59470000D02*
X107810000Y-60800000D01*
X96610000Y-60298570D02*
X105240000Y-60298570D01*
X96610000Y-61833805D02*
X105240000Y-61833805D01*
X96610000Y-61361425D02*
X105240000Y-61361425D01*
X105240000Y-61160000D02*
X105590000Y-61160000D01*
X105240000Y-62980000D02*
X105650000Y-62980000D01*
X96610000Y-61243330D02*
X105240000Y-61243330D01*
X96610000Y-61479520D02*
X105240000Y-61479520D01*
X96610000Y-61597615D02*
X105240000Y-61597615D01*
X96610000Y-59470000D02*
X105240000Y-59470000D01*
X96610000Y-69690000D02*
X105240000Y-69690000D01*
X96610000Y-59708095D02*
X105240000Y-59708095D01*
X96610000Y-62070000D02*
X105240000Y-62070000D01*
X96610000Y-59590000D02*
X105240000Y-59590000D01*
X96610000Y-59470000D02*
X96610000Y-74830000D01*
X96610000Y-60180475D02*
X105240000Y-60180475D01*
X96610000Y-60652855D02*
X105240000Y-60652855D01*
X96610000Y-61125235D02*
X105240000Y-61125235D01*
X105240000Y-66240000D02*
X105650000Y-66240000D01*
X96610000Y-61715710D02*
X105240000Y-61715710D01*
X105240000Y-73140000D02*
X105650000Y-73140000D01*
X105240000Y-68780000D02*
X105650000Y-68780000D01*
X105240000Y-68060000D02*
X105650000Y-68060000D01*
X96610000Y-67150000D02*
X105240000Y-67150000D01*
X96610000Y-59826190D02*
X105240000Y-59826190D01*
X96610000Y-61951900D02*
X105240000Y-61951900D01*
X96610000Y-60534760D02*
X105240000Y-60534760D01*
X106700000Y-59470000D02*
X107810000Y-59470000D01*
X105240000Y-59470000D02*
X105240000Y-74830000D01*
X105240000Y-63700000D02*
X105650000Y-63700000D01*
X105240000Y-71320000D02*
X105650000Y-71320000D01*
X96610000Y-72230000D02*
X105240000Y-72230000D01*
X96610000Y-60062380D02*
X105240000Y-60062380D01*
X96610000Y-60889045D02*
X105240000Y-60889045D01*
X96610000Y-74830000D02*
X105240000Y-74830000D01*
X96610000Y-61007140D02*
X105240000Y-61007140D01*
X96610000Y-60770950D02*
X105240000Y-60770950D01*
%TO.C,J1*%
X96610000Y-77945000D02*
X105240000Y-77945000D01*
X96610000Y-77708805D02*
X105240000Y-77708805D01*
X96610000Y-77826900D02*
X105240000Y-77826900D01*
X105240000Y-82115000D02*
X105650000Y-82115000D01*
X96610000Y-75701190D02*
X105240000Y-75701190D01*
X96610000Y-75345000D02*
X105240000Y-75345000D01*
X96610000Y-76173570D02*
X105240000Y-76173570D01*
X105240000Y-84655000D02*
X105650000Y-84655000D01*
X96610000Y-77236425D02*
X105240000Y-77236425D01*
X96610000Y-76409760D02*
X105240000Y-76409760D01*
X105240000Y-86475000D02*
X105650000Y-86475000D01*
X96610000Y-80485000D02*
X105240000Y-80485000D01*
X96610000Y-76291665D02*
X105240000Y-76291665D01*
X105240000Y-77035000D02*
X105590000Y-77035000D01*
X96610000Y-75465000D02*
X105240000Y-75465000D01*
X96610000Y-76645950D02*
X105240000Y-76645950D01*
X96610000Y-77590710D02*
X105240000Y-77590710D01*
X105240000Y-78855000D02*
X105650000Y-78855000D01*
X96610000Y-77472615D02*
X105240000Y-77472615D01*
X105240000Y-87195000D02*
X105650000Y-87195000D01*
X96610000Y-75819285D02*
X105240000Y-75819285D01*
X96610000Y-77354520D02*
X105240000Y-77354520D01*
X96610000Y-88105000D02*
X105240000Y-88105000D01*
X96610000Y-76527855D02*
X105240000Y-76527855D01*
X96610000Y-77118330D02*
X105240000Y-77118330D01*
X96610000Y-77000235D02*
X105240000Y-77000235D01*
X96610000Y-76055475D02*
X105240000Y-76055475D01*
X105240000Y-81395000D02*
X105650000Y-81395000D01*
X96610000Y-75937380D02*
X105240000Y-75937380D01*
X107810000Y-75345000D02*
X107810000Y-76675000D01*
X96610000Y-90705000D02*
X105240000Y-90705000D01*
X105240000Y-89735000D02*
X105650000Y-89735000D01*
X96610000Y-75583095D02*
X105240000Y-75583095D01*
X105240000Y-76315000D02*
X105590000Y-76315000D01*
X105240000Y-79575000D02*
X105650000Y-79575000D01*
X106700000Y-75345000D02*
X107810000Y-75345000D01*
X96610000Y-75345000D02*
X96610000Y-90705000D01*
X96610000Y-76764045D02*
X105240000Y-76764045D01*
X96610000Y-85565000D02*
X105240000Y-85565000D01*
X96610000Y-76882140D02*
X105240000Y-76882140D01*
X105240000Y-75345000D02*
X105240000Y-90705000D01*
X105240000Y-89015000D02*
X105650000Y-89015000D01*
X105240000Y-83935000D02*
X105650000Y-83935000D01*
X96610000Y-83025000D02*
X105240000Y-83025000D01*
%TO.C,J2*%
X113810000Y-66390000D02*
X113510000Y-66390000D01*
X113810000Y-83810000D02*
X113810000Y-83010000D01*
X109640000Y-83040000D02*
X109640000Y-83810000D01*
X109990000Y-67160000D02*
X109990000Y-69140000D01*
X115110000Y-67190000D02*
X113810000Y-67190000D01*
X109640000Y-83810000D02*
X111690000Y-83810000D01*
X115110000Y-83010000D02*
X115110000Y-67190000D01*
X109400000Y-81060000D02*
X109990000Y-81060000D01*
X113510000Y-83810000D02*
X113810000Y-83810000D01*
X109990000Y-81060000D02*
X109990000Y-83040000D01*
X113810000Y-67190000D02*
X113810000Y-66390000D01*
X109640000Y-67160000D02*
X109990000Y-67160000D01*
X109640000Y-66390000D02*
X109640000Y-67160000D01*
X113810000Y-83010000D02*
X115110000Y-83010000D01*
X109990000Y-83040000D02*
X109640000Y-83040000D01*
X111690000Y-66390000D02*
X109640000Y-66390000D01*
%TD*%
M02*
