M48
; DRILL file {KiCad (6.0.5)} date Wed Nov 29 10:07:08 2023
; FORMAT={-:-/ absolute / inch / decimal}
; #@! TF.CreationDate,2023-11-29T10:07:08+07:00
; #@! TF.GenerationSoftware,Kicad,Pcbnew,(6.0.5)
; #@! TF.FileFunction,Plated,1,2,PTH
FMAT,2
INCH
; #@! TA.AperFunction,Plated,PTH,ViaDrill
T1C0.0157
; #@! TA.AperFunction,Plated,PTH,ComponentDrill
T2C0.0394
%
G90
G05
T1
X3.9724Y-3.2165
X3.9724Y-3.315
X3.9724Y-3.4213
X3.9724Y-3.5197
X3.9764Y-3.0197
X3.9764Y-3.1181
X3.9803Y-2.3937
X3.9803Y-2.4921
X3.9803Y-2.5906
X3.9803Y-2.689
X3.9803Y-2.7913
X3.9803Y-2.8898
X4.1063Y-3.2165
X4.1063Y-3.315
X4.1063Y-3.4213
X4.1063Y-3.5197
X4.1102Y-3.0197
X4.1102Y-3.1181
X4.1142Y-2.3937
X4.1142Y-2.4921
X4.1142Y-2.5906
X4.1142Y-2.689
X4.1142Y-2.7913
X4.1142Y-2.8898
X4.3268Y-3.5197
X4.3346Y-2.3937
X4.4291Y-3.4213
X4.4291Y-3.5197
X4.4331Y-2.3976
X4.4331Y-2.4961
X4.4331Y-2.7638
X4.4331Y-2.8583
X4.4331Y-2.9646
X4.4331Y-3.0669
X4.4331Y-3.1654
T2
X4.2008Y-2.3937
X4.2008Y-2.4937
X4.2008Y-2.5937
X4.2008Y-2.6937
X4.2008Y-2.7937
X4.2008Y-2.8937
X4.2008Y-3.0187
X4.2008Y-3.1187
X4.2008Y-3.2187
X4.2008Y-3.3187
X4.2008Y-3.4187
X4.2008Y-3.5187
T0
M30
