%TF.GenerationSoftware,KiCad,Pcbnew,(6.0.5)*%
%TF.CreationDate,2023-11-29T10:13:34+07:00*%
%TF.ProjectId,view_base,76696577-5f62-4617-9365-2e6b69636164,rev?*%
%TF.SameCoordinates,Original*%
%TF.FileFunction,Other,Comment*%
%FSLAX46Y46*%
G04 Gerber Fmt 4.6, Leading zero omitted, Abs format (unit mm)*
G04 Created by KiCad (PCBNEW (6.0.5)) date 2023-11-29 10:13:34*
%MOMM*%
%LPD*%
G01*
G04 APERTURE LIST*
%ADD10C,0.150000*%
%ADD11C,0.002000*%
G04 APERTURE END LIST*
D10*
%TO.C,J1*%
X96724071Y-121638020D02*
X96016964Y-120930914D01*
X96757743Y-121200288D01*
X96488369Y-120459509D01*
X97195475Y-121166616D01*
X97296491Y-120661540D02*
X97633208Y-120324822D01*
X97431178Y-120930914D02*
X96959773Y-119988105D01*
X97902582Y-120459509D01*
X97363834Y-119584044D02*
X98542345Y-119819746D01*
X97835239Y-119112639D02*
X98070941Y-120291150D01*
X98811719Y-119550372D02*
X98104613Y-118843265D01*
X99148437Y-119213654D02*
X98441330Y-118506548D01*
X99182109Y-118775922D01*
X98912735Y-118035143D01*
X99619841Y-118742250D01*
X99249452Y-117698426D02*
X99821872Y-118270845D01*
X99922887Y-118304517D01*
X99990231Y-118304517D01*
X100091246Y-118270845D01*
X100225933Y-118136158D01*
X100259605Y-118035143D01*
X100259605Y-117967800D01*
X100225933Y-117866784D01*
X99653513Y-117294364D01*
X100697338Y-117664754D02*
X99990231Y-116957647D01*
X100731009Y-117227021D01*
X100461635Y-116486242D01*
X101168742Y-117193349D01*
X101404444Y-117092334D02*
X101943192Y-116553586D01*
X102044208Y-116317884D02*
X101337101Y-115610777D01*
X101606475Y-115341403D01*
X101707490Y-115307731D01*
X101774834Y-115307731D01*
X101875849Y-115341403D01*
X101976864Y-115442418D01*
X102010536Y-115543433D01*
X102010536Y-115610777D01*
X101976864Y-115711792D01*
X101707490Y-115981166D01*
X102515612Y-115442418D02*
X102852330Y-115105701D01*
X102650299Y-115711792D02*
X102178895Y-114768983D01*
X103121704Y-115240388D01*
X103694123Y-114533281D02*
X103694123Y-114600624D01*
X103626780Y-114735311D01*
X103559436Y-114802655D01*
X103424749Y-114869998D01*
X103290062Y-114869998D01*
X103189047Y-114836327D01*
X103020688Y-114735311D01*
X102919673Y-114634296D01*
X102818658Y-114465937D01*
X102784986Y-114364922D01*
X102784986Y-114230235D01*
X102852330Y-114095548D01*
X102919673Y-114028205D01*
X103054360Y-113960861D01*
X103121704Y-113960861D01*
X104064513Y-114297579D02*
X103357406Y-113590472D01*
X104468574Y-113893518D02*
X103761467Y-113792502D01*
X103761467Y-113186411D02*
X103761467Y-113994533D01*
X104535917Y-113422113D02*
X104872635Y-113085396D01*
X104670604Y-113691487D02*
X104199200Y-112748678D01*
X105142009Y-113220083D01*
X105074665Y-111940556D02*
X104973650Y-111974228D01*
X104872635Y-112075243D01*
X104805291Y-112209930D01*
X104805291Y-112344617D01*
X104838963Y-112445632D01*
X104939978Y-112613991D01*
X105040993Y-112715006D01*
X105209352Y-112816022D01*
X105310367Y-112849693D01*
X105445054Y-112849693D01*
X105579741Y-112782350D01*
X105647085Y-112715006D01*
X105714429Y-112580319D01*
X105714428Y-112512976D01*
X105478726Y-112277274D01*
X105344039Y-112411961D01*
X105714429Y-111906884D02*
X105950131Y-111671182D01*
X106421535Y-111940556D02*
X106084818Y-112277274D01*
X105377711Y-111570167D01*
X105714429Y-111233449D01*
X106623566Y-111873212D02*
X107162314Y-111334464D01*
X107263329Y-111098762D02*
X106556222Y-110391655D01*
X106892940Y-110728373D02*
X107297001Y-110324312D01*
X107667390Y-110694701D02*
X106960283Y-109987594D01*
X107633718Y-109987594D02*
X107869421Y-109751892D01*
X108340825Y-110021266D02*
X108004108Y-110357984D01*
X107297001Y-109650877D01*
X107633718Y-109314159D01*
X108643871Y-109718220D02*
X107936764Y-109011114D01*
X108677543Y-108337679D02*
X108576527Y-108371350D01*
X108475512Y-108472366D01*
X108408169Y-108607053D01*
X108408169Y-108741740D01*
X108441840Y-108842755D01*
X108542856Y-109011114D01*
X108643871Y-109112129D01*
X108812230Y-109213144D01*
X108913245Y-109246816D01*
X109047932Y-109246816D01*
X109182619Y-109179472D01*
X109249962Y-109112129D01*
X109317306Y-108977442D01*
X109317306Y-108910098D01*
X109081604Y-108674396D01*
X108946917Y-108809083D01*
X109687695Y-108674396D02*
X108980588Y-107967289D01*
X109317306Y-108304007D02*
X109721367Y-107899946D01*
X110091756Y-108270335D02*
X109384649Y-107563228D01*
X109620352Y-107327526D02*
X110024413Y-106923465D01*
X110529489Y-107832602D02*
X109822382Y-107125496D01*
X110899878Y-107327526D02*
X110967222Y-107327526D01*
X110967222Y-107394870D01*
X110899878Y-107394870D01*
X110899878Y-107327526D01*
X110967222Y-107394870D01*
X110529489Y-106957137D02*
X110596832Y-106957137D01*
X110596832Y-107024480D01*
X110529489Y-107024480D01*
X110529489Y-106957137D01*
X110596832Y-107024480D01*
X111202924Y-107293854D02*
X111741672Y-106755106D01*
X111068237Y-105879641D02*
X111505970Y-105441908D01*
X111539642Y-105946984D01*
X111640657Y-105845969D01*
X111741672Y-105812297D01*
X111809016Y-105812297D01*
X111910031Y-105845969D01*
X112078390Y-106014328D01*
X112112061Y-106115343D01*
X112112061Y-106182686D01*
X112078390Y-106283702D01*
X111876359Y-106485732D01*
X111775344Y-106519404D01*
X111708000Y-106519404D01*
X112448779Y-105778625D02*
X112516122Y-105778625D01*
X112516122Y-105845969D01*
X112448779Y-105845969D01*
X112448779Y-105778625D01*
X112516122Y-105845969D01*
X112684481Y-104734801D02*
X113155886Y-105206206D01*
X112246748Y-104633786D02*
X112583466Y-105307221D01*
X113021199Y-104869488D01*
X113425260Y-105071519D02*
X113964008Y-104532771D01*
X114065023Y-104297068D02*
X113357916Y-103589962D01*
X114098695Y-103859336D01*
X113829321Y-103118557D01*
X114536427Y-103825664D01*
X114873145Y-103488946D02*
X114166038Y-102781840D01*
X114906817Y-103051214D01*
X114637443Y-102310435D01*
X115344549Y-103017542D01*
X106668686Y-115285508D02*
X105961579Y-114578401D01*
X107072747Y-114881447D01*
X106365640Y-114174340D01*
X106837044Y-113702935D02*
X106971731Y-113568248D01*
X107072747Y-113534576D01*
X107207434Y-113534576D01*
X107375792Y-113635592D01*
X107611495Y-113871294D01*
X107712510Y-114039653D01*
X107712510Y-114174340D01*
X107678838Y-114275355D01*
X107544151Y-114410042D01*
X107443136Y-114443714D01*
X107308449Y-114443714D01*
X107140090Y-114342699D01*
X106904388Y-114106996D01*
X106803373Y-113938638D01*
X106803373Y-113803951D01*
X106837044Y-113702935D01*
X107342121Y-113197859D02*
X107746182Y-112793798D01*
X108251258Y-113702935D02*
X107544151Y-112995828D01*
X108318602Y-112894813D02*
X108554304Y-112659111D01*
X109025708Y-112928485D02*
X108688991Y-113265202D01*
X107981884Y-112558096D01*
X108318602Y-112221378D01*
D11*
X114977185Y-120486959D02*
X114977185Y-120495511D01*
X114968633Y-120512616D01*
X114960080Y-120521169D01*
X114942975Y-120529722D01*
X114925869Y-120529722D01*
X114913040Y-120525445D01*
X114891659Y-120512616D01*
X114878830Y-120499787D01*
X114866001Y-120478406D01*
X114861725Y-120465577D01*
X114861725Y-120448472D01*
X114870277Y-120431366D01*
X114878830Y-120422814D01*
X114895935Y-120414261D01*
X114904488Y-120414261D01*
X115037054Y-120444195D02*
X115024225Y-120448472D01*
X115015672Y-120448472D01*
X115002843Y-120444195D01*
X114977185Y-120418538D01*
X114972909Y-120405709D01*
X114972909Y-120397156D01*
X114977185Y-120384327D01*
X114990014Y-120371498D01*
X115002843Y-120367222D01*
X115011396Y-120367222D01*
X115024225Y-120371498D01*
X115049882Y-120397156D01*
X115054159Y-120409985D01*
X115054159Y-120418538D01*
X115049882Y-120431366D01*
X115037054Y-120444195D01*
X115045606Y-120315906D02*
X115135409Y-120405709D01*
X115049882Y-120320182D02*
X115054159Y-120307353D01*
X115071264Y-120290248D01*
X115084093Y-120285972D01*
X115092646Y-120285972D01*
X115105475Y-120290248D01*
X115131132Y-120315906D01*
X115135409Y-120328735D01*
X115135409Y-120337288D01*
X115131132Y-120350117D01*
X115114027Y-120367222D01*
X115101198Y-120371498D01*
X115118303Y-120243209D02*
X115199553Y-120281696D01*
X115161067Y-120200446D02*
X115199553Y-120281696D01*
X115212382Y-120311630D01*
X115212382Y-120320182D01*
X115208106Y-120333011D01*
X115255145Y-120226103D02*
X115195277Y-120166235D01*
X115212382Y-120183340D02*
X115208106Y-120170511D01*
X115208106Y-120161959D01*
X115212382Y-120149130D01*
X115220935Y-120140577D01*
X115310738Y-120170511D02*
X115250869Y-120110643D01*
X115220935Y-120080709D02*
X115220935Y-120089261D01*
X115229488Y-120089261D01*
X115229488Y-120080709D01*
X115220935Y-120080709D01*
X115229488Y-120089261D01*
X115332119Y-120029393D02*
X115404816Y-120102090D01*
X115409093Y-120114919D01*
X115409093Y-120123472D01*
X115404816Y-120136301D01*
X115391987Y-120149130D01*
X115379159Y-120153406D01*
X115387711Y-120084985D02*
X115383435Y-120097814D01*
X115366330Y-120114919D01*
X115353501Y-120119196D01*
X115344948Y-120119196D01*
X115332119Y-120114919D01*
X115306461Y-120089261D01*
X115302185Y-120076433D01*
X115302185Y-120067880D01*
X115306461Y-120055051D01*
X115323566Y-120037946D01*
X115336395Y-120033669D01*
X115434751Y-120046498D02*
X115344948Y-119956696D01*
X115473237Y-120008012D02*
X115426198Y-119960972D01*
X115413369Y-119956696D01*
X115400540Y-119960972D01*
X115387711Y-119973801D01*
X115383435Y-119986630D01*
X115383435Y-119995183D01*
X115443303Y-119918209D02*
X115477514Y-119883998D01*
X115426198Y-119875446D02*
X115503172Y-119952419D01*
X115516001Y-119956696D01*
X115528829Y-119952419D01*
X115537382Y-119943867D01*
X115550211Y-119768538D02*
X115550211Y-119759985D01*
X115554487Y-119747156D01*
X115575869Y-119725775D01*
X115588698Y-119721499D01*
X115597250Y-119721499D01*
X115610079Y-119725775D01*
X115618632Y-119734328D01*
X115627185Y-119751433D01*
X115627185Y-119854064D01*
X115682777Y-119798472D01*
X115648566Y-119653078D02*
X115657119Y-119644525D01*
X115669948Y-119640249D01*
X115678500Y-119640249D01*
X115691329Y-119644525D01*
X115712711Y-119657354D01*
X115734092Y-119678735D01*
X115746921Y-119700117D01*
X115751198Y-119712946D01*
X115751198Y-119721499D01*
X115746921Y-119734328D01*
X115738369Y-119742880D01*
X115725540Y-119747156D01*
X115716987Y-119747156D01*
X115704158Y-119742880D01*
X115682777Y-119730051D01*
X115661395Y-119708670D01*
X115648566Y-119687288D01*
X115644290Y-119674459D01*
X115644290Y-119665907D01*
X115648566Y-119653078D01*
X115721264Y-119597486D02*
X115721264Y-119588933D01*
X115725540Y-119576104D01*
X115746921Y-119554722D01*
X115759750Y-119550446D01*
X115768303Y-119550446D01*
X115781132Y-119554722D01*
X115789685Y-119563275D01*
X115798237Y-119580380D01*
X115798237Y-119683012D01*
X115853829Y-119627420D01*
X115939355Y-119541893D02*
X115888040Y-119593209D01*
X115913698Y-119567551D02*
X115823895Y-119477749D01*
X115828171Y-119499130D01*
X115828171Y-119516236D01*
X115823895Y-119529065D01*
X116016329Y-119413604D02*
X116059092Y-119370841D01*
X116033434Y-119447815D02*
X115973566Y-119328078D01*
X116093303Y-119387946D01*
X116157447Y-119315249D02*
X116153171Y-119328078D01*
X116136066Y-119345183D01*
X116123237Y-119349459D01*
X116114684Y-119349459D01*
X116101855Y-119345183D01*
X116076197Y-119319525D01*
X116071921Y-119306696D01*
X116071921Y-119298144D01*
X116076197Y-119285315D01*
X116093303Y-119268209D01*
X116106132Y-119263933D01*
X116234421Y-119238275D02*
X116230145Y-119251104D01*
X116213039Y-119268209D01*
X116200211Y-119272486D01*
X116191658Y-119272486D01*
X116178829Y-119268209D01*
X116153171Y-119242552D01*
X116148895Y-119229723D01*
X116148895Y-119221170D01*
X116153171Y-119208341D01*
X116170276Y-119191236D01*
X116183105Y-119186960D01*
X116307118Y-119165578D02*
X116302842Y-119178407D01*
X116285737Y-119195512D01*
X116272908Y-119199788D01*
X116260079Y-119195512D01*
X116225868Y-119161302D01*
X116221592Y-119148473D01*
X116225868Y-119135644D01*
X116242974Y-119118539D01*
X116255803Y-119114262D01*
X116268632Y-119118539D01*
X116277184Y-119127091D01*
X116242974Y-119178407D01*
X116366987Y-119114262D02*
X116354158Y-119118539D01*
X116341329Y-119114262D01*
X116264355Y-119037289D01*
X116431131Y-119041565D02*
X116426855Y-119054394D01*
X116409750Y-119071499D01*
X116396921Y-119075775D01*
X116384092Y-119071499D01*
X116349881Y-119037289D01*
X116345605Y-119024460D01*
X116349881Y-119011631D01*
X116366987Y-118994525D01*
X116379816Y-118990249D01*
X116392645Y-118994525D01*
X116401197Y-119003078D01*
X116366987Y-119054394D01*
X116478171Y-119003078D02*
X116418302Y-118943210D01*
X116435408Y-118960315D02*
X116431131Y-118947486D01*
X116431131Y-118938933D01*
X116435408Y-118926104D01*
X116443960Y-118917552D01*
X116572250Y-118908999D02*
X116525210Y-118861960D01*
X116512381Y-118857683D01*
X116499552Y-118861960D01*
X116482447Y-118879065D01*
X116478171Y-118891894D01*
X116567973Y-118904723D02*
X116563697Y-118917552D01*
X116542316Y-118938933D01*
X116529487Y-118943210D01*
X116516658Y-118938933D01*
X116508105Y-118930381D01*
X116503829Y-118917552D01*
X116508105Y-118904723D01*
X116529487Y-118883341D01*
X116533763Y-118870512D01*
X116542316Y-118819197D02*
X116576526Y-118784986D01*
X116525210Y-118776434D02*
X116602184Y-118853407D01*
X116615013Y-118857683D01*
X116627842Y-118853407D01*
X116636394Y-118844855D01*
X116696263Y-118776434D02*
X116691986Y-118789262D01*
X116674881Y-118806368D01*
X116662052Y-118810644D01*
X116649223Y-118806368D01*
X116615013Y-118772157D01*
X116610737Y-118759328D01*
X116615013Y-118746499D01*
X116632118Y-118729394D01*
X116644947Y-118725118D01*
X116657776Y-118729394D01*
X116666329Y-118737947D01*
X116632118Y-118789262D01*
X116781789Y-118699460D02*
X116691986Y-118609657D01*
X116777513Y-118695184D02*
X116773236Y-118708013D01*
X116756131Y-118725118D01*
X116743302Y-118729394D01*
X116734750Y-118729394D01*
X116721921Y-118725118D01*
X116696263Y-118699460D01*
X116691986Y-118686631D01*
X116691986Y-118678078D01*
X116696263Y-118665249D01*
X116713368Y-118648144D01*
X116726197Y-118643868D01*
X116892973Y-118588276D02*
X116803171Y-118498473D01*
X116824552Y-118477092D01*
X116841657Y-118468539D01*
X116858763Y-118468539D01*
X116871592Y-118472815D01*
X116892973Y-118485644D01*
X116905802Y-118498473D01*
X116918631Y-118519855D01*
X116922907Y-118532684D01*
X116922907Y-118549789D01*
X116914355Y-118566894D01*
X116892973Y-118588276D01*
X117012710Y-118459986D02*
X117008434Y-118472815D01*
X116991328Y-118489921D01*
X116978499Y-118494197D01*
X116965670Y-118489921D01*
X116931460Y-118455710D01*
X116927184Y-118442881D01*
X116931460Y-118430052D01*
X116948565Y-118412947D01*
X116961394Y-118408671D01*
X116974223Y-118412947D01*
X116982776Y-118421500D01*
X116948565Y-118472815D01*
X117051197Y-118421500D02*
X117064026Y-118417223D01*
X117081131Y-118400118D01*
X117085407Y-118387289D01*
X117081131Y-118374460D01*
X117076855Y-118370184D01*
X117064026Y-118365908D01*
X117051197Y-118370184D01*
X117038368Y-118383013D01*
X117025539Y-118387289D01*
X117012710Y-118383013D01*
X117008434Y-118378737D01*
X117004157Y-118365908D01*
X117008434Y-118353079D01*
X117021262Y-118340250D01*
X117034091Y-118335973D01*
X117132447Y-118348802D02*
X117072578Y-118288934D01*
X117042644Y-118259000D02*
X117042644Y-118267552D01*
X117051197Y-118267552D01*
X117051197Y-118259000D01*
X117042644Y-118259000D01*
X117051197Y-118267552D01*
X117153828Y-118207684D02*
X117226525Y-118280381D01*
X117230802Y-118293210D01*
X117230802Y-118301763D01*
X117226525Y-118314592D01*
X117213697Y-118327421D01*
X117200868Y-118331697D01*
X117209420Y-118263276D02*
X117205144Y-118276105D01*
X117188039Y-118293210D01*
X117175210Y-118297487D01*
X117166657Y-118297487D01*
X117153828Y-118293210D01*
X117128170Y-118267552D01*
X117123894Y-118254723D01*
X117123894Y-118246171D01*
X117128170Y-118233342D01*
X117145276Y-118216237D01*
X117158104Y-118211960D01*
X117196591Y-118164921D02*
X117256460Y-118224789D01*
X117205144Y-118173474D02*
X117205144Y-118164921D01*
X117209420Y-118152092D01*
X117222249Y-118139263D01*
X117235078Y-118134987D01*
X117247907Y-118139263D01*
X117294946Y-118186302D01*
X117329157Y-118143539D02*
X117341986Y-118139263D01*
X117359091Y-118122158D01*
X117363367Y-118109329D01*
X117359091Y-118096500D01*
X117354815Y-118092224D01*
X117341986Y-118087947D01*
X117329157Y-118092224D01*
X117316328Y-118105053D01*
X117303499Y-118109329D01*
X117290670Y-118105053D01*
X117286394Y-118100776D01*
X117282118Y-118087947D01*
X117286394Y-118075118D01*
X117299223Y-118062289D01*
X117312052Y-118058013D01*
X117401854Y-118062289D02*
X117410407Y-118062289D01*
X117410407Y-118070842D01*
X117401854Y-118070842D01*
X117401854Y-118062289D01*
X117410407Y-118070842D01*
X117491657Y-117938276D02*
X117534420Y-117895513D01*
X117508762Y-117972487D02*
X117448894Y-117852750D01*
X117568630Y-117912618D01*
X117611394Y-117869855D02*
X117598565Y-117874132D01*
X117585736Y-117869855D01*
X117508762Y-117792882D01*
X117658433Y-117822816D02*
X117645604Y-117827092D01*
X117632775Y-117822816D01*
X117555802Y-117745842D01*
X117761065Y-117720184D02*
X117701196Y-117660316D01*
X117718301Y-117677421D02*
X117714025Y-117664592D01*
X117714025Y-117656040D01*
X117718301Y-117643211D01*
X117726854Y-117634658D01*
X117816657Y-117664592D02*
X117756788Y-117604724D01*
X117726854Y-117574790D02*
X117726854Y-117583342D01*
X117735407Y-117583342D01*
X117735407Y-117574790D01*
X117726854Y-117574790D01*
X117735407Y-117583342D01*
X117838038Y-117523474D02*
X117910735Y-117596171D01*
X117915012Y-117609000D01*
X117915012Y-117617553D01*
X117910735Y-117630382D01*
X117897907Y-117643211D01*
X117885078Y-117647487D01*
X117893630Y-117579066D02*
X117889354Y-117591895D01*
X117872249Y-117609000D01*
X117859420Y-117613277D01*
X117850867Y-117613277D01*
X117838038Y-117609000D01*
X117812380Y-117583342D01*
X117808104Y-117570513D01*
X117808104Y-117561961D01*
X117812380Y-117549132D01*
X117829486Y-117532027D01*
X117842314Y-117527750D01*
X117940670Y-117540579D02*
X117850867Y-117450777D01*
X117979156Y-117502092D02*
X117932117Y-117455053D01*
X117919288Y-117450777D01*
X117906459Y-117455053D01*
X117893630Y-117467882D01*
X117889354Y-117480711D01*
X117889354Y-117489264D01*
X117949222Y-117412290D02*
X117983433Y-117378079D01*
X117932117Y-117369527D02*
X118009091Y-117446500D01*
X118021920Y-117450777D01*
X118034749Y-117446500D01*
X118043301Y-117437948D01*
X118064683Y-117408014D02*
X118077512Y-117403737D01*
X118094617Y-117386632D01*
X118098893Y-117373803D01*
X118094617Y-117360974D01*
X118090341Y-117356698D01*
X118077512Y-117352422D01*
X118064683Y-117356698D01*
X118051854Y-117369527D01*
X118039025Y-117373803D01*
X118026196Y-117369527D01*
X118021920Y-117365250D01*
X118017643Y-117352422D01*
X118021920Y-117339593D01*
X118034749Y-117326764D01*
X118047577Y-117322487D01*
X118214354Y-117266895D02*
X118154485Y-117207027D01*
X118171591Y-117224132D02*
X118167314Y-117211303D01*
X118167314Y-117202751D01*
X118171591Y-117189922D01*
X118180143Y-117181369D01*
X118299880Y-117172816D02*
X118295604Y-117185645D01*
X118278498Y-117202751D01*
X118265669Y-117207027D01*
X118252840Y-117202751D01*
X118218630Y-117168540D01*
X118214354Y-117155711D01*
X118218630Y-117142882D01*
X118235735Y-117125777D01*
X118248564Y-117121501D01*
X118261393Y-117125777D01*
X118269946Y-117134330D01*
X118235735Y-117185645D01*
X118338367Y-117134330D02*
X118351196Y-117130053D01*
X118368301Y-117112948D01*
X118372577Y-117100119D01*
X118368301Y-117087290D01*
X118364025Y-117083014D01*
X118351196Y-117078738D01*
X118338367Y-117083014D01*
X118325538Y-117095843D01*
X118312709Y-117100119D01*
X118299880Y-117095843D01*
X118295604Y-117091566D01*
X118291327Y-117078738D01*
X118295604Y-117065909D01*
X118308433Y-117053080D01*
X118321261Y-117048803D01*
X118449551Y-117023145D02*
X118445275Y-117035974D01*
X118428169Y-117053080D01*
X118415340Y-117057356D01*
X118402511Y-117053080D01*
X118368301Y-117018869D01*
X118364025Y-117006040D01*
X118368301Y-116993211D01*
X118385406Y-116976106D01*
X118398235Y-116971830D01*
X118411064Y-116976106D01*
X118419617Y-116984659D01*
X118385406Y-117035974D01*
X118496590Y-116984659D02*
X118436722Y-116924790D01*
X118453827Y-116941896D02*
X118449551Y-116929067D01*
X118449551Y-116920514D01*
X118453827Y-116907685D01*
X118462380Y-116899132D01*
X118483761Y-116877751D02*
X118565011Y-116916238D01*
X118526524Y-116834988D01*
X118650538Y-116822159D02*
X118646261Y-116834988D01*
X118629156Y-116852093D01*
X118616327Y-116856369D01*
X118603498Y-116852093D01*
X118569288Y-116817882D01*
X118565011Y-116805054D01*
X118569288Y-116792225D01*
X118586393Y-116775119D01*
X118599222Y-116770843D01*
X118612051Y-116775119D01*
X118620603Y-116783672D01*
X118586393Y-116834988D01*
X118736064Y-116745185D02*
X118646261Y-116655383D01*
X118731787Y-116740909D02*
X118727511Y-116753738D01*
X118710406Y-116770843D01*
X118697577Y-116775119D01*
X118689024Y-116775119D01*
X118676195Y-116770843D01*
X118650538Y-116745185D01*
X118646261Y-116732356D01*
X118646261Y-116723804D01*
X118650538Y-116710975D01*
X118667643Y-116693869D01*
X118680472Y-116689593D01*
X118770274Y-116693869D02*
X118778827Y-116693869D01*
X118778827Y-116702422D01*
X118770274Y-116702422D01*
X118770274Y-116693869D01*
X118778827Y-116702422D01*
D10*
%TO.C,H3*%
X106465400Y-91122500D02*
G75*
G03*
X106465400Y-91122500I-1340000J0D01*
G01*
%TO.C,H1*%
X106465400Y-108877500D02*
G75*
G03*
X106465400Y-108877500I-1340000J0D01*
G01*
%TO.C,H2*%
X91089100Y-100000000D02*
G75*
G03*
X91089100Y-100000000I-1340000J0D01*
G01*
%TO.C,H4*%
X101750000Y-129800000D02*
G75*
G03*
X101750000Y-129800000I-1750000J0D01*
G01*
%TO.C,H5*%
X71950000Y-100000000D02*
G75*
G03*
X71950000Y-100000000I-1750000J0D01*
G01*
%TO.C,H6*%
X101750000Y-70200000D02*
G75*
G03*
X101750000Y-70200000I-1750000J0D01*
G01*
%TO.C,H7*%
X131550000Y-100000000D02*
G75*
G03*
X131550000Y-100000000I-1750000J0D01*
G01*
%TO.C,H8*%
X136750000Y-100000000D02*
G75*
G03*
X136750000Y-100000000I-1750000J0D01*
G01*
%TO.C,H9*%
X66750000Y-100000000D02*
G75*
G03*
X66750000Y-100000000I-1750000J0D01*
G01*
%TD*%
M02*
