M48
; DRILL file {KiCad (6.0.5)} date Wed Nov 29 10:13:31 2023
; FORMAT={-:-/ absolute / inch / decimal}
; #@! TF.CreationDate,2023-11-29T10:13:31+07:00
; #@! TF.GenerationSoftware,Kicad,Pcbnew,(6.0.5)
; #@! TF.FileFunction,Plated,1,4,PTH
FMAT,2
INCH
; #@! TA.AperFunction,Plated,PTH,ViaDrill
T1C0.0118
; #@! TA.AperFunction,Plated,PTH,ComponentDrill
T2C0.0118
; #@! TA.AperFunction,Plated,PTH,ViaDrill
T3C0.0157
; #@! TA.AperFunction,Plated,PTH,ComponentDrill
T4C0.0236
; #@! TA.AperFunction,Plated,PTH,ComponentDrill
T5C0.0394
; #@! TA.AperFunction,Plated,PTH,ComponentDrill
T6C0.0669
; #@! TA.AperFunction,Plated,PTH,ComponentDrill
T7C0.0866
%
G90
G05
T1
X2.3583Y-4.4016
X2.3583Y-4.9764
X2.3661Y-4.5157
X2.3661Y-4.5906
X2.3661Y-4.6417
X2.3661Y-4.6969
X2.3661Y-4.752
X2.3661Y-4.811
X2.3661Y-4.8622
X2.3701Y-4.2795
X2.3701Y-4.3228
X2.378Y-4.9291
X2.3976Y-4.9488
X2.4134Y-4.5748
X2.4173Y-4.4094
X2.4173Y-4.5157
X2.4173Y-4.6417
X2.4173Y-4.6969
X2.4173Y-4.752
X2.4173Y-4.811
X2.4213Y-4.8504
X2.4252Y-4.9724
X2.437Y-4.6063
X2.4449Y-4.878
X2.4646Y-4.8976
X2.4882Y-4.9173
X2.5039Y-5.0787
X2.5118Y-4.878
X2.5118Y-4.937
X2.5157Y-4.4882
X2.5157Y-4.5157
X2.5157Y-4.5433
X2.5157Y-4.5709
X2.5157Y-4.6024
X2.5157Y-4.6299
X2.5157Y-4.6614
X2.5157Y-4.685
X2.5157Y-4.7126
X2.5157Y-4.7441
X2.5157Y-4.7756
X2.5236Y-5.0984
X2.5236Y-5.1654
X2.5315Y-4.8071
X2.5354Y-4.4449
X2.5354Y-4.9016
X2.5394Y-5.3976
X2.5394Y-5.437
X2.5394Y-5.4764
X2.5433Y-5.1181
X2.5472Y-4.8268
X2.5512Y-4.9843
X2.5512Y-5.1929
X2.5591Y-4.4646
X2.5591Y-4.4921
X2.5591Y-4.5157
X2.5591Y-4.5394
X2.5591Y-4.563
X2.5591Y-4.5866
X2.5591Y-4.6102
X2.5591Y-4.6339
X2.5591Y-4.6575
X2.5591Y-4.6811
X2.5591Y-4.7047
X2.5591Y-4.7323
X2.5591Y-4.7559
X2.5669Y-4.7795
X2.5669Y-4.8425
X2.5669Y-5.0
X2.5669Y-5.1417
X2.5669Y-5.5079
X2.5827Y-5.0157
X2.5906Y-5.1654
X2.6024Y-5.0315
X2.6142Y-5.189
X2.6181Y-4.9843
X2.6181Y-5.2323
X2.6181Y-5.2756
X2.6181Y-5.3268
X2.6181Y-5.3661
X2.6181Y-5.4016
X2.6181Y-5.437
X2.622Y-5.0472
X2.6339Y-5.0
X2.6417Y-5.4606
X2.6575Y-5.0079
X2.6575Y-5.0551
X2.6614Y-5.0866
X2.6614Y-5.1181
X2.6732Y-4.8228
X2.6811Y-5.0079
X2.685Y-4.8661
X2.6929Y-5.0551
X2.7008Y-5.4961
X2.7087Y-4.8228
X2.7087Y-4.8819
X2.7126Y-4.752
X2.7283Y-4.9016
X2.7362Y-4.8465
X2.7362Y-5.1929
X2.7362Y-5.2244
X2.7362Y-5.2638
X2.7402Y-4.7756
X2.7402Y-5.4961
X2.748Y-5.0
X2.7559Y-4.9646
X2.7756Y-4.5906
X2.7756Y-5.0512
X2.7795Y-4.7008
X2.7795Y-4.8071
X2.7795Y-4.8898
X2.7992Y-4.0866
X2.7992Y-5.5157
X2.8228Y-5.4921
X2.8268Y-4.937
X2.8268Y-5.3386
X2.8307Y-4.6378
X2.8307Y-4.8583
X2.8346Y-4.0472
X2.8346Y-4.1575
X2.8346Y-4.2008
X2.8346Y-4.248
X2.8346Y-4.5118
X2.8346Y-4.5512
X2.8346Y-4.752
X2.8386Y-4.2913
X2.8386Y-4.3346
X2.8386Y-4.3819
X2.8386Y-4.4252
X2.8425Y-4.122
X2.8465Y-5.4685
X2.8504Y-5.0787
X2.8622Y-5.0
X2.8661Y-5.0945
X2.878Y-4.0079
X2.8819Y-4.0827
X2.9134Y-4.874
X2.9134Y-4.9409
X2.9173Y-3.9685
X2.9213Y-4.0394
X2.9528Y-3.9331
X2.9528Y-4.9409
X2.9646Y-3.9961
X2.9882Y-3.8976
X3.0354Y-3.9291
X3.063Y-3.9685
X3.0669Y-3.8976
X3.1063Y-3.9685
X3.1102Y-3.8937
X3.1417Y-3.9685
X3.1575Y-3.8976
X3.1772Y-3.9685
X3.2047Y-3.8976
X3.2047Y-5.4803
X3.2283Y-3.9685
X3.2559Y-3.8976
X3.2638Y-5.252
X3.2756Y-3.9685
X3.2835Y-5.2874
X3.2835Y-5.4213
X3.2992Y-3.8976
X3.2992Y-5.2283
X3.3189Y-3.9685
X3.3228Y-5.5079
X3.3425Y-5.4803
X3.3465Y-3.9252
X3.3661Y-3.9685
X3.3937Y-3.8071
X3.4016Y-3.9252
X3.4094Y-3.9724
X3.4213Y-3.8976
X3.4449Y-3.8071
X3.4488Y-3.9724
X3.4606Y-3.9291
X3.4882Y-3.8071
X3.5394Y-3.8071
X3.5945Y-3.8071
X3.6063Y-3.9724
X3.6339Y-3.9213
X3.6457Y-3.8031
X3.6457Y-3.9724
X3.6496Y-5.2913
X3.6535Y-5.2047
X3.6535Y-5.3661
X3.685Y-3.9528
X3.6969Y-3.8937
X3.7126Y-3.8189
X3.7323Y-3.9488
X3.748Y-3.8425
X3.752Y-3.8937
X3.7677Y-3.9724
X3.8976Y-3.8976
X3.8976Y-3.9291
X3.8976Y-3.9606
X3.9252Y-5.2205
X3.9685Y-5.2205
X4.6024Y-5.4291
X5.0984Y-4.5866
T2
X5.0197Y-4.7835
X5.0197Y-4.8228
X5.0591Y-4.7835
X5.0591Y-4.8228
T3
X2.3701Y-3.4496
X2.5362Y-5.3575
X2.6575Y-5.248
X2.685Y-4.9173
X2.7652Y-5.415
X2.7717Y-4.4449
X2.7953Y-5.126
X2.8346Y-5.1732
X2.8583Y-5.2559
X2.8819Y-5.1378
X2.9134Y-5.0787
X2.9331Y-4.689
X2.9331Y-5.0276
X2.9409Y-5.3898
X2.9449Y-4.2402
X2.9449Y-4.2874
X2.9449Y-4.3346
X2.9961Y-4.2402
X2.9961Y-4.2874
X2.9961Y-4.3346
X3.0079Y-5.185
X3.0118Y-3.9646
X3.0236Y-3.8661
X3.0433Y-5.2205
X3.0472Y-4.2402
X3.0472Y-4.2874
X3.0472Y-4.3346
X3.063Y-5.1496
X3.0768Y-5.25
X3.1024Y-4.2402
X3.1024Y-4.2874
X3.1024Y-4.3346
X3.1063Y-5.185
X3.123Y-5.2707
X3.1417Y-5.2165
X3.1457Y-5.1496
X3.1496Y-4.2402
X3.1496Y-4.2874
X3.1496Y-4.3346
X3.1535Y-4.4528
X3.1535Y-4.5
X3.1535Y-4.5472
X3.1614Y-5.2717
X3.185Y-5.185
X3.1997Y-4.9793
X3.2047Y-4.4528
X3.2047Y-4.5
X3.2047Y-4.5472
X3.2054Y-5.0486
X3.2489Y-4.9488
X3.2559Y-4.4528
X3.2559Y-4.5
X3.2559Y-4.5472
X3.2559Y-5.437
X3.2795Y-5.378
X3.2992Y-4.9488
X3.311Y-4.4528
X3.311Y-4.5
X3.311Y-4.5472
X3.3346Y-4.8386
X3.3425Y-5.0079
X3.3583Y-4.4528
X3.3583Y-4.5
X3.3583Y-4.5472
X3.4134Y-4.8858
X3.4685Y-4.6378
X3.4685Y-4.685
X3.4685Y-4.7323
X3.4764Y-4.9213
X3.4961Y-5.0394
X3.5197Y-4.6378
X3.5197Y-4.685
X3.5197Y-4.7323
X3.5472Y-4.9921
X3.5709Y-4.6378
X3.5709Y-4.685
X3.5709Y-4.7323
X3.626Y-4.6378
X3.626Y-4.685
X3.626Y-4.7323
X3.6732Y-4.6378
X3.6732Y-4.685
X3.6732Y-4.7323
X3.8271Y-5.2268
X3.937Y-4.0748
X3.9764Y-3.8583
X4.0394Y-5.2244
X4.0554Y-5.1756
X4.0945Y-4.0748
X4.1614Y-4.8858
X4.1811Y-4.5787
X4.1811Y-4.626
X4.1811Y-4.6811
X4.1811Y-4.7323
X4.1811Y-4.7835
X4.2165Y-4.878
X4.2165Y-5.4252
X4.2283Y-4.6811
X4.2283Y-4.7323
X4.2283Y-4.5787
X4.2283Y-4.626
X4.2283Y-4.7835
X4.2756Y-4.5787
X4.2756Y-4.626
X4.2756Y-4.6811
X4.2756Y-4.7323
X4.2756Y-4.7835
X4.2953Y-4.8425
X4.3661Y-5.4252
X4.3701Y-5.0984
X4.4685Y-5.2953
X4.4882Y-4.7441
X4.5276Y-5.4921
X4.5669Y-4.9016
X4.6063Y-5.3346
X4.6457Y-4.9409
X4.7047Y-4.5276
X4.7244Y-4.8819
X4.7244Y-5.4921
X4.7953Y-4.7205
X4.8031Y-4.9016
X4.8071Y-4.8425
X4.878Y-4.6772
X4.9213Y-5.4921
X4.9331Y-4.5827
X4.9409Y-5.0197
X4.9602Y-4.7381
X4.9646Y-4.6929
X4.9803Y-4.5276
X5.0Y-5.0472
X5.0079Y-4.6811
X5.0394Y-5.2165
X5.0591Y-5.0787
X5.0984Y-5.0197
X5.0984Y-5.2165
X5.1181Y-5.0984
X5.1181Y-5.4921
X5.1299Y-4.6693
X5.1378Y-4.8031
X5.1575Y-5.2165
X5.1772Y-5.1181
X5.2126Y-4.2402
X5.2126Y-4.2874
X5.2126Y-4.3346
X5.2165Y-5.2165
X5.2362Y-5.1457
X5.2559Y-4.5276
X5.2638Y-4.2402
X5.2638Y-4.2874
X5.2638Y-4.3346
X5.2756Y-5.2165
X5.315Y-4.2402
X5.315Y-4.2874
X5.315Y-4.3346
X5.3346Y-5.2165
X5.3701Y-4.2402
X5.3701Y-4.2874
X5.3701Y-4.3346
X5.3937Y-4.685
X5.3937Y-4.8819
X5.3937Y-5.0787
X5.3937Y-5.4921
X5.4173Y-4.2402
X5.4173Y-4.2874
X5.4173Y-4.3346
T5
X2.4488Y-3.4488
X2.4488Y-3.5488
X2.4488Y-3.6488
X2.4488Y-3.7488
X2.4488Y-5.0906
X2.4488Y-5.1906
X2.4488Y-5.2906
X2.4488Y-5.3906
X2.622Y-4.2929
X2.622Y-4.3929
X2.622Y-4.4929
X2.622Y-4.5929
X2.622Y-4.6929
X2.622Y-4.7929
X2.622Y-4.8929
T6
X3.5334Y-3.937
X4.1388Y-3.5875
X4.1388Y-4.2865
T7
X2.5591Y-3.937
X2.7638Y-3.937
X3.937Y-2.7638
X3.937Y-5.1102
X5.1102Y-3.937
X5.315Y-3.937
T4
G00X3.7157Y-5.2992
M15
G01X3.7157Y-5.3307
M16
G05
G00X3.7157Y-5.4488
M15
G01X3.7157Y-5.4961
M16
G05
G00X4.1583Y-5.2992
M15
G01X4.1583Y-5.3307
M16
G05
G00X4.1583Y-5.4488
M15
G01X4.1583Y-5.4961
M16
G05
T0
M30
