%TF.GenerationSoftware,KiCad,Pcbnew,(6.0.5)*%
%TF.CreationDate,2023-11-29T10:11:24+07:00*%
%TF.ProjectId,lidar,6c696461-722e-46b6-9963-61645f706362,rev?*%
%TF.SameCoordinates,Original*%
%TF.FileFunction,Soldermask,Top*%
%TF.FilePolarity,Negative*%
%FSLAX46Y46*%
G04 Gerber Fmt 4.6, Leading zero omitted, Abs format (unit mm)*
G04 Created by KiCad (PCBNEW (6.0.5)) date 2023-11-29 10:11:24*
%MOMM*%
%LPD*%
G01*
G04 APERTURE LIST*
G04 Aperture macros list*
%AMRoundRect*
0 Rectangle with rounded corners*
0 $1 Rounding radius*
0 $2 $3 $4 $5 $6 $7 $8 $9 X,Y pos of 4 corners*
0 Add a 4 corners polygon primitive as box body*
4,1,4,$2,$3,$4,$5,$6,$7,$8,$9,$2,$3,0*
0 Add four circle primitives for the rounded corners*
1,1,$1+$1,$2,$3*
1,1,$1+$1,$4,$5*
1,1,$1+$1,$6,$7*
1,1,$1+$1,$8,$9*
0 Add four rect primitives between the rounded corners*
20,1,$1+$1,$2,$3,$4,$5,0*
20,1,$1+$1,$4,$5,$6,$7,0*
20,1,$1+$1,$6,$7,$8,$9,0*
20,1,$1+$1,$8,$9,$2,$3,0*%
G04 Aperture macros list end*
%ADD10C,1.000000*%
%ADD11RoundRect,0.140000X0.140000X0.170000X-0.140000X0.170000X-0.140000X-0.170000X0.140000X-0.170000X0*%
%ADD12RoundRect,0.140000X0.219203X0.021213X0.021213X0.219203X-0.219203X-0.021213X-0.021213X-0.219203X0*%
%ADD13RoundRect,0.140000X-0.140000X-0.170000X0.140000X-0.170000X0.140000X0.170000X-0.140000X0.170000X0*%
%ADD14RoundRect,0.140000X-0.170000X0.140000X-0.170000X-0.140000X0.170000X-0.140000X0.170000X0.140000X0*%
%ADD15RoundRect,0.140000X-0.219203X-0.021213X-0.021213X-0.219203X0.219203X0.021213X0.021213X0.219203X0*%
%ADD16RoundRect,0.135000X0.226274X0.035355X0.035355X0.226274X-0.226274X-0.035355X-0.035355X-0.226274X0*%
%ADD17RoundRect,0.140000X0.021213X-0.219203X0.219203X-0.021213X-0.021213X0.219203X-0.219203X0.021213X0*%
%ADD18RoundRect,0.100000X0.021213X0.162635X-0.162635X-0.021213X-0.021213X-0.162635X0.162635X0.021213X0*%
%ADD19RoundRect,0.135000X0.035355X-0.226274X0.226274X-0.035355X-0.035355X0.226274X-0.226274X0.035355X0*%
%ADD20RoundRect,0.102000X-0.300000X0.245000X-0.300000X-0.245000X0.300000X-0.245000X0.300000X0.245000X0*%
%ADD21RoundRect,0.102000X0.385373X0.038891X0.038891X0.385373X-0.385373X-0.038891X-0.038891X-0.385373X0*%
%ADD22RoundRect,0.135000X-0.135000X-0.185000X0.135000X-0.185000X0.135000X0.185000X-0.135000X0.185000X0*%
%ADD23RoundRect,0.102000X0.245000X0.300000X-0.245000X0.300000X-0.245000X-0.300000X0.245000X-0.300000X0*%
%ADD24RoundRect,0.140000X-0.021213X0.219203X-0.219203X0.021213X0.021213X-0.219203X0.219203X-0.021213X0*%
%ADD25RoundRect,0.104400X-0.127279X-0.293591X0.293591X0.127279X0.127279X0.293591X-0.293591X-0.127279X0*%
%ADD26RoundRect,0.104400X0.127279X-0.293591X0.293591X-0.127279X-0.127279X0.293591X-0.293591X0.127279X0*%
%ADD27RoundRect,0.102000X0.353553X-2.156676X2.156676X-0.353553X-0.353553X2.156676X-2.156676X0.353553X0*%
%ADD28C,0.604000*%
%ADD29RoundRect,0.140000X0.170000X-0.140000X0.170000X0.140000X-0.170000X0.140000X-0.170000X-0.140000X0*%
%ADD30RoundRect,0.102000X-0.245000X-0.300000X0.245000X-0.300000X0.245000X0.300000X-0.245000X0.300000X0*%
%ADD31R,0.400000X1.000000*%
%ADD32R,2.000000X1.300000*%
G04 APERTURE END LIST*
D10*
%TO.C,D2*%
X133500000Y-78770000D02*
G75*
G03*
X133500000Y-78770000I-500000J0D01*
G01*
X133500000Y-76230000D02*
G75*
G03*
X133500000Y-76230000I-500000J0D01*
G01*
%TO.C,D1*%
X132230000Y-88100000D02*
G75*
G03*
X132230000Y-88100000I-500000J0D01*
G01*
X134770000Y-88100000D02*
G75*
G03*
X134770000Y-88100000I-500000J0D01*
G01*
%TD*%
D11*
%TO.C,C21*%
X138280000Y-76700000D03*
X137320000Y-76700000D03*
%TD*%
D12*
%TO.C,C27*%
X136432311Y-88146511D03*
X135753489Y-87467689D03*
%TD*%
D11*
%TO.C,C19*%
X132480000Y-91000000D03*
X131520000Y-91000000D03*
%TD*%
D13*
%TO.C,C14*%
X140100000Y-78700000D03*
X141060000Y-78700000D03*
%TD*%
D14*
%TO.C,C25*%
X133500000Y-90020000D03*
X133500000Y-90980000D03*
%TD*%
D15*
%TO.C,C7*%
X138460589Y-87560589D03*
X139139411Y-88239411D03*
%TD*%
D11*
%TO.C,C23*%
X139980000Y-91200000D03*
X139020000Y-91200000D03*
%TD*%
D15*
%TO.C,C28*%
X136460589Y-86760589D03*
X137139411Y-87439411D03*
%TD*%
D16*
%TO.C,R12*%
X141960624Y-82560624D03*
X141239376Y-81839376D03*
%TD*%
D17*
%TO.C,C30*%
X139860589Y-87539411D03*
X140539411Y-86860589D03*
%TD*%
D18*
%TO.C,C17*%
X134660589Y-77008040D03*
X134208041Y-77460588D03*
%TD*%
D19*
%TO.C,R11*%
X141039376Y-84960624D03*
X141760624Y-84239376D03*
%TD*%
D12*
%TO.C,C8*%
X138396911Y-88953611D03*
X137718089Y-88274789D03*
%TD*%
D13*
%TO.C,C18*%
X131520000Y-90000000D03*
X132480000Y-90000000D03*
%TD*%
D11*
%TO.C,C15*%
X138300000Y-78700000D03*
X137340000Y-78700000D03*
%TD*%
D20*
%TO.C,FB7*%
X142300000Y-90245000D03*
X142300000Y-91155000D03*
%TD*%
D21*
%TO.C,FB5*%
X141821734Y-88321734D03*
X141178266Y-87678266D03*
%TD*%
D22*
%TO.C,R17*%
X130265000Y-83500000D03*
X131285000Y-83500000D03*
%TD*%
D23*
%TO.C,FB4*%
X137755000Y-90700000D03*
X136845000Y-90700000D03*
%TD*%
D24*
%TO.C,C20*%
X133739411Y-85960589D03*
X133060589Y-86639411D03*
%TD*%
D25*
%TO.C,U1*%
X135419060Y-83106066D03*
X135772614Y-83459619D03*
X136126167Y-83813173D03*
X136479720Y-84166726D03*
X136833274Y-84520280D03*
X137186827Y-84873833D03*
X137540381Y-85227386D03*
X137893934Y-85580940D03*
D26*
X138813173Y-85580940D03*
X139166726Y-85227386D03*
X139520280Y-84873833D03*
X139873833Y-84520280D03*
X140227386Y-84166726D03*
X140580940Y-83813173D03*
D25*
X140580940Y-82893934D03*
X140227386Y-82540381D03*
X139873833Y-82186827D03*
X139520280Y-81833274D03*
X139166726Y-81479720D03*
X138813173Y-81126167D03*
X138459619Y-80772614D03*
X138106066Y-80419060D03*
D26*
X137186827Y-80419060D03*
X136833274Y-80772614D03*
X136479720Y-81126167D03*
X136126167Y-81479720D03*
X135772614Y-81833274D03*
X135419060Y-82186827D03*
D27*
X138000000Y-83000000D03*
D28*
X137275216Y-83724784D03*
X138000000Y-83000000D03*
X138724784Y-82275216D03*
X136921662Y-81921662D03*
X139078338Y-84078338D03*
%TD*%
D29*
%TO.C,C26*%
X134500000Y-90980000D03*
X134500000Y-90020000D03*
%TD*%
D13*
%TO.C,C13*%
X137320000Y-77700000D03*
X138280000Y-77700000D03*
%TD*%
D20*
%TO.C,FB2*%
X141100000Y-90245000D03*
X141100000Y-91155000D03*
%TD*%
D23*
%TO.C,FB3*%
X136655000Y-74500000D03*
X135745000Y-74500000D03*
%TD*%
D30*
%TO.C,FB6*%
X138245000Y-74500000D03*
X139155000Y-74500000D03*
%TD*%
D20*
%TO.C,FB1*%
X139400000Y-76745000D03*
X139400000Y-77655000D03*
%TD*%
D29*
%TO.C,C37*%
X143400000Y-92180000D03*
X143400000Y-91220000D03*
%TD*%
D22*
%TO.C,R15*%
X130290000Y-81300000D03*
X131310000Y-81300000D03*
%TD*%
D13*
%TO.C,C22*%
X137320000Y-75700000D03*
X138280000Y-75700000D03*
%TD*%
D24*
%TO.C,C29*%
X139839411Y-86160589D03*
X139160589Y-86839411D03*
%TD*%
D22*
%TO.C,R16*%
X130265000Y-82400000D03*
X131285000Y-82400000D03*
%TD*%
D31*
%TO.C,J1*%
X130100000Y-93700000D03*
X131100000Y-93700000D03*
X132100000Y-93700000D03*
X133100000Y-93700000D03*
X134100000Y-93700000D03*
X135100000Y-93700000D03*
X136100000Y-93700000D03*
X137100000Y-93700000D03*
X138100000Y-93700000D03*
X139100000Y-93700000D03*
X140100000Y-93700000D03*
X141100000Y-93700000D03*
D32*
X143900000Y-96400000D03*
X127300000Y-96400000D03*
%TD*%
D13*
%TO.C,C24*%
X139020000Y-90200000D03*
X139980000Y-90200000D03*
%TD*%
D11*
%TO.C,C16*%
X141060000Y-79700000D03*
X140100000Y-79700000D03*
%TD*%
D13*
%TO.C,C38*%
X141320000Y-92200000D03*
X142280000Y-92200000D03*
%TD*%
M02*
