%FSLAX45Y45*%
G04 Gerber Fmt 4.5, Leading zero omitted, Abs format (unit mm)*
G04 Created by KiCad (PCBNEW (6.0.5)) date 2023-11-29 10:11:23*
%MOMM*%
%LPD*%
G01*
G04 APERTURE LIST*
%TA.AperFunction,Profile*%
%ADD10C,0.100000*%
%TD*%
%ADD11C,0.200000*%
G04 APERTURE END LIST*
D10*
X12660000Y-7320000D02*
X14460000Y-7320000D01*
X14460000Y-7320000D02*
X14460000Y-9920000D01*
X14460000Y-9920000D02*
X12660000Y-9920000D01*
X12660000Y-9920000D02*
X12660000Y-7320000D01*
D11*
X12912619Y-10235476D02*
X12912619Y-10035476D01*
X12960238Y-10035476D01*
X12988809Y-10045000D01*
X13007857Y-10064048D01*
X13017381Y-10083095D01*
X13026905Y-10121190D01*
X13026905Y-10149762D01*
X13017381Y-10187857D01*
X13007857Y-10206905D01*
X12988809Y-10225952D01*
X12960238Y-10235476D01*
X12912619Y-10235476D01*
X13112619Y-10235476D02*
X13112619Y-10102143D01*
X13112619Y-10140238D02*
X13122143Y-10121190D01*
X13131667Y-10111667D01*
X13150714Y-10102143D01*
X13169762Y-10102143D01*
X13236428Y-10235476D02*
X13236428Y-10102143D01*
X13236428Y-10035476D02*
X13226905Y-10045000D01*
X13236428Y-10054524D01*
X13245952Y-10045000D01*
X13236428Y-10035476D01*
X13236428Y-10054524D01*
X13360238Y-10235476D02*
X13341190Y-10225952D01*
X13331667Y-10206905D01*
X13331667Y-10035476D01*
X13465000Y-10235476D02*
X13445952Y-10225952D01*
X13436428Y-10206905D01*
X13436428Y-10035476D01*
X13693571Y-10235476D02*
X13693571Y-10035476D01*
X13760238Y-10178333D01*
X13826905Y-10035476D01*
X13826905Y-10235476D01*
X14007857Y-10235476D02*
X14007857Y-10130714D01*
X13998333Y-10111667D01*
X13979286Y-10102143D01*
X13941190Y-10102143D01*
X13922143Y-10111667D01*
X14007857Y-10225952D02*
X13988809Y-10235476D01*
X13941190Y-10235476D01*
X13922143Y-10225952D01*
X13912619Y-10206905D01*
X13912619Y-10187857D01*
X13922143Y-10168810D01*
X13941190Y-10159286D01*
X13988809Y-10159286D01*
X14007857Y-10149762D01*
X14103095Y-10102143D02*
X14103095Y-10302143D01*
X14103095Y-10111667D02*
X14122143Y-10102143D01*
X14160238Y-10102143D01*
X14179286Y-10111667D01*
X14188809Y-10121190D01*
X14198333Y-10140238D01*
X14198333Y-10197381D01*
X14188809Y-10216429D01*
X14179286Y-10225952D01*
X14160238Y-10235476D01*
X14122143Y-10235476D01*
X14103095Y-10225952D01*
X14284048Y-10216429D02*
X14293571Y-10225952D01*
X14284048Y-10235476D01*
X14274524Y-10225952D01*
X14284048Y-10216429D01*
X14284048Y-10235476D01*
X14284048Y-10111667D02*
X14293571Y-10121190D01*
X14284048Y-10130714D01*
X14274524Y-10121190D01*
X14284048Y-10111667D01*
X14284048Y-10130714D01*
M02*
