%FSLAX45Y45*%
G04 Gerber Fmt 4.5, Leading zero omitted, Abs format (unit mm)*
G04 Created by KiCad (PCBNEW (6.0.5)) date 2023-11-29 10:11:23*
%MOMM*%
%LPD*%
G01*
G04 APERTURE LIST*
%TA.AperFunction,Profile*%
%ADD10C,0.100000*%
%TD*%
%ADD11C,0.200000*%
%ADD12C,0.030000*%
%ADD13C,0.040000*%
%ADD14C,0.100000*%
G04 APERTURE END LIST*
D10*
X12660000Y-7320000D02*
X14460000Y-7320000D01*
X14460000Y-7320000D02*
X14460000Y-9920000D01*
X14460000Y-9920000D02*
X12660000Y-9920000D01*
X12660000Y-9920000D02*
X12660000Y-7320000D01*
D11*
D12*
X12925000Y-8555000D02*
X12955000Y-8585000D01*
X12955000Y-8555000D02*
X12925000Y-8585000D01*
X12925000Y-9025000D02*
X12955000Y-9055000D01*
X12955000Y-9025000D02*
X12925000Y-9055000D01*
X12935000Y-8425000D02*
X12965000Y-8455000D01*
X12965000Y-8425000D02*
X12935000Y-8455000D01*
X13045000Y-9075000D02*
X13075000Y-9105000D01*
X13075000Y-9075000D02*
X13045000Y-9105000D01*
X13235000Y-8445000D02*
X13265000Y-8475000D01*
X13265000Y-8445000D02*
X13235000Y-8475000D01*
X13245000Y-8555000D02*
X13275000Y-8585000D01*
X13275000Y-8555000D02*
X13245000Y-8585000D01*
X13685000Y-8255000D02*
X13715000Y-8285000D01*
X13715000Y-8255000D02*
X13685000Y-8285000D01*
X13770627Y-8174135D02*
X13800627Y-8204135D01*
X13800627Y-8174135D02*
X13770627Y-8204135D01*
X13777166Y-8392834D02*
X13807166Y-8422834D01*
X13807166Y-8392834D02*
X13777166Y-8422834D01*
X13885000Y-8295000D02*
X13915000Y-8325000D01*
X13915000Y-8295000D02*
X13885000Y-8325000D01*
X13965000Y-8885000D02*
X13995000Y-8915000D01*
X13995000Y-8885000D02*
X13965000Y-8915000D01*
X14052450Y-8805000D02*
X14082450Y-8835000D01*
X14082450Y-8805000D02*
X14052450Y-8835000D01*
X14082912Y-8882912D02*
X14112912Y-8912912D01*
X14112912Y-8882912D02*
X14082912Y-8912912D01*
X14145000Y-8585000D02*
X14175000Y-8615000D01*
X14175000Y-8585000D02*
X14145000Y-8615000D01*
X14205000Y-8325000D02*
X14235000Y-8355000D01*
X14235000Y-8325000D02*
X14205000Y-8355000D01*
X14215000Y-8675000D02*
X14245000Y-8705000D01*
X14245000Y-8675000D02*
X14215000Y-8705000D01*
X14235000Y-8485000D02*
X14265000Y-8515000D01*
X14265000Y-8485000D02*
X14235000Y-8515000D01*
X14305000Y-9015000D02*
X14335000Y-9045000D01*
X14335000Y-9015000D02*
X14305000Y-9045000D01*
X13707166Y-8192166D02*
G75*
G03*
X13707166Y-8192166I-15000J0D01*
G01*
X13742522Y-8372478D02*
G75*
G03*
X13742522Y-8372478I-15000J0D01*
G01*
X13815000Y-8300000D02*
G75*
G03*
X13815000Y-8300000I-15000J0D01*
G01*
X13887478Y-8227522D02*
G75*
G03*
X13887478Y-8227522I-15000J0D01*
G01*
X13922834Y-8407834D02*
G75*
G03*
X13922834Y-8407834I-15000J0D01*
G01*
D13*
X12990000Y-8010000D02*
X12990000Y-8050000D01*
X12970000Y-8030000D02*
X13010000Y-8030000D01*
X13180000Y-9170000D02*
X13180000Y-9210000D01*
X13160000Y-9190000D02*
X13200000Y-9190000D01*
X13320000Y-9180000D02*
X13320000Y-9220000D01*
X13300000Y-9200000D02*
X13340000Y-9200000D01*
X13351300Y-8477900D02*
X13351300Y-8517900D01*
X13331300Y-8497900D02*
X13371300Y-8497900D01*
X13810000Y-9185050D02*
X13810000Y-9225050D01*
X13790000Y-9205050D02*
X13830000Y-9205050D01*
X14002694Y-9202694D02*
X14002694Y-9242694D01*
X13982694Y-9222694D02*
X14022694Y-9222694D01*
X14010000Y-9350000D02*
X14010000Y-9390000D01*
X13990000Y-9370000D02*
X14030000Y-9370000D01*
X14020000Y-7420000D02*
X14020000Y-7460000D01*
X14000000Y-7440000D02*
X14040000Y-7440000D01*
X14020000Y-7540000D02*
X14020000Y-7580000D01*
X14000000Y-7560000D02*
X14040000Y-7560000D01*
X14100000Y-7730000D02*
X14100000Y-7770000D01*
X14080000Y-7750000D02*
X14120000Y-7750000D01*
X14210000Y-8060000D02*
X14210000Y-8100000D01*
X14190000Y-8080000D02*
X14230000Y-8080000D01*
X14275000Y-8165000D02*
X14275000Y-8205000D01*
X14255000Y-8185000D02*
X14295000Y-8185000D01*
D14*
X13208356Y-8845356D02*
X13208356Y-8774644D01*
X13137644Y-8774644D01*
X13137644Y-8845356D01*
X13208356Y-8845356D01*
X13335356Y-7658356D02*
X13335356Y-7587644D01*
X13264644Y-7587644D01*
X13264644Y-7658356D01*
X13335356Y-7658356D01*
X13335356Y-7912356D02*
X13335356Y-7841644D01*
X13264644Y-7841644D01*
X13264644Y-7912356D01*
X13335356Y-7912356D01*
X13462356Y-8845356D02*
X13462356Y-8774644D01*
X13391644Y-8774644D01*
X13391644Y-8845356D01*
X13462356Y-8845356D01*
D11*
X12912619Y-10235476D02*
X12912619Y-10035476D01*
X12960238Y-10035476D01*
X12988809Y-10045000D01*
X13007857Y-10064048D01*
X13017381Y-10083095D01*
X13026905Y-10121190D01*
X13026905Y-10149762D01*
X13017381Y-10187857D01*
X13007857Y-10206905D01*
X12988809Y-10225952D01*
X12960238Y-10235476D01*
X12912619Y-10235476D01*
X13112619Y-10235476D02*
X13112619Y-10102143D01*
X13112619Y-10140238D02*
X13122143Y-10121190D01*
X13131667Y-10111667D01*
X13150714Y-10102143D01*
X13169762Y-10102143D01*
X13236428Y-10235476D02*
X13236428Y-10102143D01*
X13236428Y-10035476D02*
X13226905Y-10045000D01*
X13236428Y-10054524D01*
X13245952Y-10045000D01*
X13236428Y-10035476D01*
X13236428Y-10054524D01*
X13360238Y-10235476D02*
X13341190Y-10225952D01*
X13331667Y-10206905D01*
X13331667Y-10035476D01*
X13465000Y-10235476D02*
X13445952Y-10225952D01*
X13436428Y-10206905D01*
X13436428Y-10035476D01*
X13693571Y-10235476D02*
X13693571Y-10035476D01*
X13760238Y-10178333D01*
X13826905Y-10035476D01*
X13826905Y-10235476D01*
X14007857Y-10235476D02*
X14007857Y-10130714D01*
X13998333Y-10111667D01*
X13979286Y-10102143D01*
X13941190Y-10102143D01*
X13922143Y-10111667D01*
X14007857Y-10225952D02*
X13988809Y-10235476D01*
X13941190Y-10235476D01*
X13922143Y-10225952D01*
X13912619Y-10206905D01*
X13912619Y-10187857D01*
X13922143Y-10168810D01*
X13941190Y-10159286D01*
X13988809Y-10159286D01*
X14007857Y-10149762D01*
X14103095Y-10102143D02*
X14103095Y-10302143D01*
X14103095Y-10111667D02*
X14122143Y-10102143D01*
X14160238Y-10102143D01*
X14179286Y-10111667D01*
X14188809Y-10121190D01*
X14198333Y-10140238D01*
X14198333Y-10197381D01*
X14188809Y-10216429D01*
X14179286Y-10225952D01*
X14160238Y-10235476D01*
X14122143Y-10235476D01*
X14103095Y-10225952D01*
X14284048Y-10216429D02*
X14293571Y-10225952D01*
X14284048Y-10235476D01*
X14274524Y-10225952D01*
X14284048Y-10216429D01*
X14284048Y-10235476D01*
X14284048Y-10111667D02*
X14293571Y-10121190D01*
X14284048Y-10130714D01*
X14274524Y-10121190D01*
X14284048Y-10111667D01*
X14284048Y-10130714D01*
D12*
X12625000Y-10550000D02*
X12655000Y-10580000D01*
X12655000Y-10550000D02*
X12625000Y-10580000D01*
D11*
X12950714Y-10455476D02*
X12969762Y-10455476D01*
X12988809Y-10465000D01*
X12998333Y-10474524D01*
X13007857Y-10493571D01*
X13017381Y-10531667D01*
X13017381Y-10579286D01*
X13007857Y-10617381D01*
X12998333Y-10636429D01*
X12988809Y-10645952D01*
X12969762Y-10655476D01*
X12950714Y-10655476D01*
X12931667Y-10645952D01*
X12922143Y-10636429D01*
X12912619Y-10617381D01*
X12903095Y-10579286D01*
X12903095Y-10531667D01*
X12912619Y-10493571D01*
X12922143Y-10474524D01*
X12931667Y-10465000D01*
X12950714Y-10455476D01*
X13103095Y-10636429D02*
X13112619Y-10645952D01*
X13103095Y-10655476D01*
X13093571Y-10645952D01*
X13103095Y-10636429D01*
X13103095Y-10655476D01*
X13179286Y-10455476D02*
X13303095Y-10455476D01*
X13236428Y-10531667D01*
X13265000Y-10531667D01*
X13284048Y-10541190D01*
X13293571Y-10550714D01*
X13303095Y-10569762D01*
X13303095Y-10617381D01*
X13293571Y-10636429D01*
X13284048Y-10645952D01*
X13265000Y-10655476D01*
X13207857Y-10655476D01*
X13188809Y-10645952D01*
X13179286Y-10636429D01*
X13426905Y-10455476D02*
X13445952Y-10455476D01*
X13465000Y-10465000D01*
X13474524Y-10474524D01*
X13484048Y-10493571D01*
X13493571Y-10531667D01*
X13493571Y-10579286D01*
X13484048Y-10617381D01*
X13474524Y-10636429D01*
X13465000Y-10645952D01*
X13445952Y-10655476D01*
X13426905Y-10655476D01*
X13407857Y-10645952D01*
X13398333Y-10636429D01*
X13388809Y-10617381D01*
X13379286Y-10579286D01*
X13379286Y-10531667D01*
X13388809Y-10493571D01*
X13398333Y-10474524D01*
X13407857Y-10465000D01*
X13426905Y-10455476D01*
X13617381Y-10455476D02*
X13636428Y-10455476D01*
X13655476Y-10465000D01*
X13665000Y-10474524D01*
X13674524Y-10493571D01*
X13684048Y-10531667D01*
X13684048Y-10579286D01*
X13674524Y-10617381D01*
X13665000Y-10636429D01*
X13655476Y-10645952D01*
X13636428Y-10655476D01*
X13617381Y-10655476D01*
X13598333Y-10645952D01*
X13588809Y-10636429D01*
X13579286Y-10617381D01*
X13569762Y-10579286D01*
X13569762Y-10531667D01*
X13579286Y-10493571D01*
X13588809Y-10474524D01*
X13598333Y-10465000D01*
X13617381Y-10455476D01*
X13769762Y-10655476D02*
X13769762Y-10522143D01*
X13769762Y-10541190D02*
X13779286Y-10531667D01*
X13798333Y-10522143D01*
X13826905Y-10522143D01*
X13845952Y-10531667D01*
X13855476Y-10550714D01*
X13855476Y-10655476D01*
X13855476Y-10550714D02*
X13865000Y-10531667D01*
X13884048Y-10522143D01*
X13912619Y-10522143D01*
X13931667Y-10531667D01*
X13941190Y-10550714D01*
X13941190Y-10655476D01*
X14036428Y-10655476D02*
X14036428Y-10522143D01*
X14036428Y-10541190D02*
X14045952Y-10531667D01*
X14065000Y-10522143D01*
X14093571Y-10522143D01*
X14112619Y-10531667D01*
X14122143Y-10550714D01*
X14122143Y-10655476D01*
X14122143Y-10550714D02*
X14131667Y-10531667D01*
X14150714Y-10522143D01*
X14179286Y-10522143D01*
X14198333Y-10531667D01*
X14207857Y-10550714D01*
X14207857Y-10655476D01*
X14598333Y-10445952D02*
X14426905Y-10703095D01*
X14855476Y-10455476D02*
X14874524Y-10455476D01*
X14893571Y-10465000D01*
X14903095Y-10474524D01*
X14912619Y-10493571D01*
X14922143Y-10531667D01*
X14922143Y-10579286D01*
X14912619Y-10617381D01*
X14903095Y-10636429D01*
X14893571Y-10645952D01*
X14874524Y-10655476D01*
X14855476Y-10655476D01*
X14836428Y-10645952D01*
X14826905Y-10636429D01*
X14817381Y-10617381D01*
X14807857Y-10579286D01*
X14807857Y-10531667D01*
X14817381Y-10493571D01*
X14826905Y-10474524D01*
X14836428Y-10465000D01*
X14855476Y-10455476D01*
X15007857Y-10636429D02*
X15017381Y-10645952D01*
X15007857Y-10655476D01*
X14998333Y-10645952D01*
X15007857Y-10636429D01*
X15007857Y-10655476D01*
X15141190Y-10455476D02*
X15160238Y-10455476D01*
X15179286Y-10465000D01*
X15188809Y-10474524D01*
X15198333Y-10493571D01*
X15207857Y-10531667D01*
X15207857Y-10579286D01*
X15198333Y-10617381D01*
X15188809Y-10636429D01*
X15179286Y-10645952D01*
X15160238Y-10655476D01*
X15141190Y-10655476D01*
X15122143Y-10645952D01*
X15112619Y-10636429D01*
X15103095Y-10617381D01*
X15093571Y-10579286D01*
X15093571Y-10531667D01*
X15103095Y-10493571D01*
X15112619Y-10474524D01*
X15122143Y-10465000D01*
X15141190Y-10455476D01*
X15398333Y-10655476D02*
X15284048Y-10655476D01*
X15341190Y-10655476D02*
X15341190Y-10455476D01*
X15322143Y-10484048D01*
X15303095Y-10503095D01*
X15284048Y-10512619D01*
X15588809Y-10655476D02*
X15474524Y-10655476D01*
X15531667Y-10655476D02*
X15531667Y-10455476D01*
X15512619Y-10484048D01*
X15493571Y-10503095D01*
X15474524Y-10512619D01*
X15703095Y-10541190D02*
X15684048Y-10531667D01*
X15674524Y-10522143D01*
X15665000Y-10503095D01*
X15665000Y-10493571D01*
X15674524Y-10474524D01*
X15684048Y-10465000D01*
X15703095Y-10455476D01*
X15741190Y-10455476D01*
X15760238Y-10465000D01*
X15769762Y-10474524D01*
X15779286Y-10493571D01*
X15779286Y-10503095D01*
X15769762Y-10522143D01*
X15760238Y-10531667D01*
X15741190Y-10541190D01*
X15703095Y-10541190D01*
X15684048Y-10550714D01*
X15674524Y-10560238D01*
X15665000Y-10579286D01*
X15665000Y-10617381D01*
X15674524Y-10636429D01*
X15684048Y-10645952D01*
X15703095Y-10655476D01*
X15741190Y-10655476D01*
X15760238Y-10645952D01*
X15769762Y-10636429D01*
X15779286Y-10617381D01*
X15779286Y-10579286D01*
X15769762Y-10560238D01*
X15760238Y-10550714D01*
X15741190Y-10541190D01*
X15855476Y-10455476D02*
X15855476Y-10493571D01*
X15931667Y-10455476D02*
X15931667Y-10493571D01*
X16226905Y-10731667D02*
X16217381Y-10722143D01*
X16198333Y-10693571D01*
X16188809Y-10674524D01*
X16179286Y-10645952D01*
X16169762Y-10598333D01*
X16169762Y-10560238D01*
X16179286Y-10512619D01*
X16188809Y-10484048D01*
X16198333Y-10465000D01*
X16217381Y-10436429D01*
X16226905Y-10426905D01*
X16407857Y-10655476D02*
X16293571Y-10655476D01*
X16350714Y-10655476D02*
X16350714Y-10455476D01*
X16331667Y-10484048D01*
X16312619Y-10503095D01*
X16293571Y-10512619D01*
X16522143Y-10541190D02*
X16503095Y-10531667D01*
X16493571Y-10522143D01*
X16484048Y-10503095D01*
X16484048Y-10493571D01*
X16493571Y-10474524D01*
X16503095Y-10465000D01*
X16522143Y-10455476D01*
X16560238Y-10455476D01*
X16579286Y-10465000D01*
X16588809Y-10474524D01*
X16598333Y-10493571D01*
X16598333Y-10503095D01*
X16588809Y-10522143D01*
X16579286Y-10531667D01*
X16560238Y-10541190D01*
X16522143Y-10541190D01*
X16503095Y-10550714D01*
X16493571Y-10560238D01*
X16484048Y-10579286D01*
X16484048Y-10617381D01*
X16493571Y-10636429D01*
X16503095Y-10645952D01*
X16522143Y-10655476D01*
X16560238Y-10655476D01*
X16579286Y-10645952D01*
X16588809Y-10636429D01*
X16598333Y-10617381D01*
X16598333Y-10579286D01*
X16588809Y-10560238D01*
X16579286Y-10550714D01*
X16560238Y-10541190D01*
X16836429Y-10655476D02*
X16836429Y-10455476D01*
X16922143Y-10655476D02*
X16922143Y-10550714D01*
X16912619Y-10531667D01*
X16893571Y-10522143D01*
X16865000Y-10522143D01*
X16845952Y-10531667D01*
X16836429Y-10541190D01*
X17045952Y-10655476D02*
X17026905Y-10645952D01*
X17017381Y-10636429D01*
X17007857Y-10617381D01*
X17007857Y-10560238D01*
X17017381Y-10541190D01*
X17026905Y-10531667D01*
X17045952Y-10522143D01*
X17074524Y-10522143D01*
X17093571Y-10531667D01*
X17103095Y-10541190D01*
X17112619Y-10560238D01*
X17112619Y-10617381D01*
X17103095Y-10636429D01*
X17093571Y-10645952D01*
X17074524Y-10655476D01*
X17045952Y-10655476D01*
X17226905Y-10655476D02*
X17207857Y-10645952D01*
X17198333Y-10626905D01*
X17198333Y-10455476D01*
X17379286Y-10645952D02*
X17360238Y-10655476D01*
X17322143Y-10655476D01*
X17303095Y-10645952D01*
X17293571Y-10626905D01*
X17293571Y-10550714D01*
X17303095Y-10531667D01*
X17322143Y-10522143D01*
X17360238Y-10522143D01*
X17379286Y-10531667D01*
X17388810Y-10550714D01*
X17388810Y-10569762D01*
X17293571Y-10588810D01*
X17465000Y-10645952D02*
X17484048Y-10655476D01*
X17522143Y-10655476D01*
X17541190Y-10645952D01*
X17550714Y-10626905D01*
X17550714Y-10617381D01*
X17541190Y-10598333D01*
X17522143Y-10588810D01*
X17493571Y-10588810D01*
X17474524Y-10579286D01*
X17465000Y-10560238D01*
X17465000Y-10550714D01*
X17474524Y-10531667D01*
X17493571Y-10522143D01*
X17522143Y-10522143D01*
X17541190Y-10531667D01*
X17617381Y-10731667D02*
X17626905Y-10722143D01*
X17645952Y-10693571D01*
X17655476Y-10674524D01*
X17665000Y-10645952D01*
X17674524Y-10598333D01*
X17674524Y-10560238D01*
X17665000Y-10512619D01*
X17655476Y-10484048D01*
X17645952Y-10465000D01*
X17626905Y-10436429D01*
X17617381Y-10426905D01*
D12*
X12655000Y-10829000D02*
G75*
G03*
X12655000Y-10829000I-15000J0D01*
G01*
D11*
X12950714Y-10719476D02*
X12969762Y-10719476D01*
X12988809Y-10729000D01*
X12998333Y-10738524D01*
X13007857Y-10757571D01*
X13017381Y-10795667D01*
X13017381Y-10843286D01*
X13007857Y-10881381D01*
X12998333Y-10900429D01*
X12988809Y-10909952D01*
X12969762Y-10919476D01*
X12950714Y-10919476D01*
X12931667Y-10909952D01*
X12922143Y-10900429D01*
X12912619Y-10881381D01*
X12903095Y-10843286D01*
X12903095Y-10795667D01*
X12912619Y-10757571D01*
X12922143Y-10738524D01*
X12931667Y-10729000D01*
X12950714Y-10719476D01*
X13103095Y-10900429D02*
X13112619Y-10909952D01*
X13103095Y-10919476D01*
X13093571Y-10909952D01*
X13103095Y-10900429D01*
X13103095Y-10919476D01*
X13179286Y-10719476D02*
X13303095Y-10719476D01*
X13236428Y-10795667D01*
X13265000Y-10795667D01*
X13284048Y-10805190D01*
X13293571Y-10814714D01*
X13303095Y-10833762D01*
X13303095Y-10881381D01*
X13293571Y-10900429D01*
X13284048Y-10909952D01*
X13265000Y-10919476D01*
X13207857Y-10919476D01*
X13188809Y-10909952D01*
X13179286Y-10900429D01*
X13426905Y-10719476D02*
X13445952Y-10719476D01*
X13465000Y-10729000D01*
X13474524Y-10738524D01*
X13484048Y-10757571D01*
X13493571Y-10795667D01*
X13493571Y-10843286D01*
X13484048Y-10881381D01*
X13474524Y-10900429D01*
X13465000Y-10909952D01*
X13445952Y-10919476D01*
X13426905Y-10919476D01*
X13407857Y-10909952D01*
X13398333Y-10900429D01*
X13388809Y-10881381D01*
X13379286Y-10843286D01*
X13379286Y-10795667D01*
X13388809Y-10757571D01*
X13398333Y-10738524D01*
X13407857Y-10729000D01*
X13426905Y-10719476D01*
X13617381Y-10719476D02*
X13636428Y-10719476D01*
X13655476Y-10729000D01*
X13665000Y-10738524D01*
X13674524Y-10757571D01*
X13684048Y-10795667D01*
X13684048Y-10843286D01*
X13674524Y-10881381D01*
X13665000Y-10900429D01*
X13655476Y-10909952D01*
X13636428Y-10919476D01*
X13617381Y-10919476D01*
X13598333Y-10909952D01*
X13588809Y-10900429D01*
X13579286Y-10881381D01*
X13569762Y-10843286D01*
X13569762Y-10795667D01*
X13579286Y-10757571D01*
X13588809Y-10738524D01*
X13598333Y-10729000D01*
X13617381Y-10719476D01*
X13769762Y-10919476D02*
X13769762Y-10786143D01*
X13769762Y-10805190D02*
X13779286Y-10795667D01*
X13798333Y-10786143D01*
X13826905Y-10786143D01*
X13845952Y-10795667D01*
X13855476Y-10814714D01*
X13855476Y-10919476D01*
X13855476Y-10814714D02*
X13865000Y-10795667D01*
X13884048Y-10786143D01*
X13912619Y-10786143D01*
X13931667Y-10795667D01*
X13941190Y-10814714D01*
X13941190Y-10919476D01*
X14036428Y-10919476D02*
X14036428Y-10786143D01*
X14036428Y-10805190D02*
X14045952Y-10795667D01*
X14065000Y-10786143D01*
X14093571Y-10786143D01*
X14112619Y-10795667D01*
X14122143Y-10814714D01*
X14122143Y-10919476D01*
X14122143Y-10814714D02*
X14131667Y-10795667D01*
X14150714Y-10786143D01*
X14179286Y-10786143D01*
X14198333Y-10795667D01*
X14207857Y-10814714D01*
X14207857Y-10919476D01*
X14598333Y-10709952D02*
X14426905Y-10967095D01*
X14855476Y-10719476D02*
X14874524Y-10719476D01*
X14893571Y-10729000D01*
X14903095Y-10738524D01*
X14912619Y-10757571D01*
X14922143Y-10795667D01*
X14922143Y-10843286D01*
X14912619Y-10881381D01*
X14903095Y-10900429D01*
X14893571Y-10909952D01*
X14874524Y-10919476D01*
X14855476Y-10919476D01*
X14836428Y-10909952D01*
X14826905Y-10900429D01*
X14817381Y-10881381D01*
X14807857Y-10843286D01*
X14807857Y-10795667D01*
X14817381Y-10757571D01*
X14826905Y-10738524D01*
X14836428Y-10729000D01*
X14855476Y-10719476D01*
X15007857Y-10900429D02*
X15017381Y-10909952D01*
X15007857Y-10919476D01*
X14998333Y-10909952D01*
X15007857Y-10900429D01*
X15007857Y-10919476D01*
X15141190Y-10719476D02*
X15160238Y-10719476D01*
X15179286Y-10729000D01*
X15188809Y-10738524D01*
X15198333Y-10757571D01*
X15207857Y-10795667D01*
X15207857Y-10843286D01*
X15198333Y-10881381D01*
X15188809Y-10900429D01*
X15179286Y-10909952D01*
X15160238Y-10919476D01*
X15141190Y-10919476D01*
X15122143Y-10909952D01*
X15112619Y-10900429D01*
X15103095Y-10881381D01*
X15093571Y-10843286D01*
X15093571Y-10795667D01*
X15103095Y-10757571D01*
X15112619Y-10738524D01*
X15122143Y-10729000D01*
X15141190Y-10719476D01*
X15398333Y-10919476D02*
X15284048Y-10919476D01*
X15341190Y-10919476D02*
X15341190Y-10719476D01*
X15322143Y-10748048D01*
X15303095Y-10767095D01*
X15284048Y-10776619D01*
X15588809Y-10919476D02*
X15474524Y-10919476D01*
X15531667Y-10919476D02*
X15531667Y-10719476D01*
X15512619Y-10748048D01*
X15493571Y-10767095D01*
X15474524Y-10776619D01*
X15703095Y-10805190D02*
X15684048Y-10795667D01*
X15674524Y-10786143D01*
X15665000Y-10767095D01*
X15665000Y-10757571D01*
X15674524Y-10738524D01*
X15684048Y-10729000D01*
X15703095Y-10719476D01*
X15741190Y-10719476D01*
X15760238Y-10729000D01*
X15769762Y-10738524D01*
X15779286Y-10757571D01*
X15779286Y-10767095D01*
X15769762Y-10786143D01*
X15760238Y-10795667D01*
X15741190Y-10805190D01*
X15703095Y-10805190D01*
X15684048Y-10814714D01*
X15674524Y-10824238D01*
X15665000Y-10843286D01*
X15665000Y-10881381D01*
X15674524Y-10900429D01*
X15684048Y-10909952D01*
X15703095Y-10919476D01*
X15741190Y-10919476D01*
X15760238Y-10909952D01*
X15769762Y-10900429D01*
X15779286Y-10881381D01*
X15779286Y-10843286D01*
X15769762Y-10824238D01*
X15760238Y-10814714D01*
X15741190Y-10805190D01*
X15855476Y-10719476D02*
X15855476Y-10757571D01*
X15931667Y-10719476D02*
X15931667Y-10757571D01*
X16226905Y-10995667D02*
X16217381Y-10986143D01*
X16198333Y-10957571D01*
X16188809Y-10938524D01*
X16179286Y-10909952D01*
X16169762Y-10862333D01*
X16169762Y-10824238D01*
X16179286Y-10776619D01*
X16188809Y-10748048D01*
X16198333Y-10729000D01*
X16217381Y-10700429D01*
X16226905Y-10690905D01*
X16398333Y-10719476D02*
X16303095Y-10719476D01*
X16293571Y-10814714D01*
X16303095Y-10805190D01*
X16322143Y-10795667D01*
X16369762Y-10795667D01*
X16388809Y-10805190D01*
X16398333Y-10814714D01*
X16407857Y-10833762D01*
X16407857Y-10881381D01*
X16398333Y-10900429D01*
X16388809Y-10909952D01*
X16369762Y-10919476D01*
X16322143Y-10919476D01*
X16303095Y-10909952D01*
X16293571Y-10900429D01*
X16645952Y-10919476D02*
X16645952Y-10719476D01*
X16731667Y-10919476D02*
X16731667Y-10814714D01*
X16722143Y-10795667D01*
X16703095Y-10786143D01*
X16674524Y-10786143D01*
X16655476Y-10795667D01*
X16645952Y-10805190D01*
X16855476Y-10919476D02*
X16836429Y-10909952D01*
X16826905Y-10900429D01*
X16817381Y-10881381D01*
X16817381Y-10824238D01*
X16826905Y-10805190D01*
X16836429Y-10795667D01*
X16855476Y-10786143D01*
X16884048Y-10786143D01*
X16903095Y-10795667D01*
X16912619Y-10805190D01*
X16922143Y-10824238D01*
X16922143Y-10881381D01*
X16912619Y-10900429D01*
X16903095Y-10909952D01*
X16884048Y-10919476D01*
X16855476Y-10919476D01*
X17036429Y-10919476D02*
X17017381Y-10909952D01*
X17007857Y-10890905D01*
X17007857Y-10719476D01*
X17188810Y-10909952D02*
X17169762Y-10919476D01*
X17131667Y-10919476D01*
X17112619Y-10909952D01*
X17103095Y-10890905D01*
X17103095Y-10814714D01*
X17112619Y-10795667D01*
X17131667Y-10786143D01*
X17169762Y-10786143D01*
X17188810Y-10795667D01*
X17198333Y-10814714D01*
X17198333Y-10833762D01*
X17103095Y-10852810D01*
X17274524Y-10909952D02*
X17293571Y-10919476D01*
X17331667Y-10919476D01*
X17350714Y-10909952D01*
X17360238Y-10890905D01*
X17360238Y-10881381D01*
X17350714Y-10862333D01*
X17331667Y-10852810D01*
X17303095Y-10852810D01*
X17284048Y-10843286D01*
X17274524Y-10824238D01*
X17274524Y-10814714D01*
X17284048Y-10795667D01*
X17303095Y-10786143D01*
X17331667Y-10786143D01*
X17350714Y-10795667D01*
X17426905Y-10995667D02*
X17436429Y-10986143D01*
X17455476Y-10957571D01*
X17465000Y-10938524D01*
X17474524Y-10909952D01*
X17484048Y-10862333D01*
X17484048Y-10824238D01*
X17474524Y-10776619D01*
X17465000Y-10748048D01*
X17455476Y-10729000D01*
X17436429Y-10700429D01*
X17426905Y-10690905D01*
D13*
X12635000Y-11073000D02*
X12635000Y-11113000D01*
X12615000Y-11093000D02*
X12655000Y-11093000D01*
D11*
X12950714Y-10983476D02*
X12969762Y-10983476D01*
X12988809Y-10993000D01*
X12998333Y-11002524D01*
X13007857Y-11021571D01*
X13017381Y-11059667D01*
X13017381Y-11107286D01*
X13007857Y-11145381D01*
X12998333Y-11164429D01*
X12988809Y-11173952D01*
X12969762Y-11183476D01*
X12950714Y-11183476D01*
X12931667Y-11173952D01*
X12922143Y-11164429D01*
X12912619Y-11145381D01*
X12903095Y-11107286D01*
X12903095Y-11059667D01*
X12912619Y-11021571D01*
X12922143Y-11002524D01*
X12931667Y-10993000D01*
X12950714Y-10983476D01*
X13103095Y-11164429D02*
X13112619Y-11173952D01*
X13103095Y-11183476D01*
X13093571Y-11173952D01*
X13103095Y-11164429D01*
X13103095Y-11183476D01*
X13284048Y-11050143D02*
X13284048Y-11183476D01*
X13236428Y-10973952D02*
X13188809Y-11116810D01*
X13312619Y-11116810D01*
X13426905Y-10983476D02*
X13445952Y-10983476D01*
X13465000Y-10993000D01*
X13474524Y-11002524D01*
X13484048Y-11021571D01*
X13493571Y-11059667D01*
X13493571Y-11107286D01*
X13484048Y-11145381D01*
X13474524Y-11164429D01*
X13465000Y-11173952D01*
X13445952Y-11183476D01*
X13426905Y-11183476D01*
X13407857Y-11173952D01*
X13398333Y-11164429D01*
X13388809Y-11145381D01*
X13379286Y-11107286D01*
X13379286Y-11059667D01*
X13388809Y-11021571D01*
X13398333Y-11002524D01*
X13407857Y-10993000D01*
X13426905Y-10983476D01*
X13617381Y-10983476D02*
X13636428Y-10983476D01*
X13655476Y-10993000D01*
X13665000Y-11002524D01*
X13674524Y-11021571D01*
X13684048Y-11059667D01*
X13684048Y-11107286D01*
X13674524Y-11145381D01*
X13665000Y-11164429D01*
X13655476Y-11173952D01*
X13636428Y-11183476D01*
X13617381Y-11183476D01*
X13598333Y-11173952D01*
X13588809Y-11164429D01*
X13579286Y-11145381D01*
X13569762Y-11107286D01*
X13569762Y-11059667D01*
X13579286Y-11021571D01*
X13588809Y-11002524D01*
X13598333Y-10993000D01*
X13617381Y-10983476D01*
X13769762Y-11183476D02*
X13769762Y-11050143D01*
X13769762Y-11069190D02*
X13779286Y-11059667D01*
X13798333Y-11050143D01*
X13826905Y-11050143D01*
X13845952Y-11059667D01*
X13855476Y-11078714D01*
X13855476Y-11183476D01*
X13855476Y-11078714D02*
X13865000Y-11059667D01*
X13884048Y-11050143D01*
X13912619Y-11050143D01*
X13931667Y-11059667D01*
X13941190Y-11078714D01*
X13941190Y-11183476D01*
X14036428Y-11183476D02*
X14036428Y-11050143D01*
X14036428Y-11069190D02*
X14045952Y-11059667D01*
X14065000Y-11050143D01*
X14093571Y-11050143D01*
X14112619Y-11059667D01*
X14122143Y-11078714D01*
X14122143Y-11183476D01*
X14122143Y-11078714D02*
X14131667Y-11059667D01*
X14150714Y-11050143D01*
X14179286Y-11050143D01*
X14198333Y-11059667D01*
X14207857Y-11078714D01*
X14207857Y-11183476D01*
X14598333Y-10973952D02*
X14426905Y-11231095D01*
X14855476Y-10983476D02*
X14874524Y-10983476D01*
X14893571Y-10993000D01*
X14903095Y-11002524D01*
X14912619Y-11021571D01*
X14922143Y-11059667D01*
X14922143Y-11107286D01*
X14912619Y-11145381D01*
X14903095Y-11164429D01*
X14893571Y-11173952D01*
X14874524Y-11183476D01*
X14855476Y-11183476D01*
X14836428Y-11173952D01*
X14826905Y-11164429D01*
X14817381Y-11145381D01*
X14807857Y-11107286D01*
X14807857Y-11059667D01*
X14817381Y-11021571D01*
X14826905Y-11002524D01*
X14836428Y-10993000D01*
X14855476Y-10983476D01*
X15007857Y-11164429D02*
X15017381Y-11173952D01*
X15007857Y-11183476D01*
X14998333Y-11173952D01*
X15007857Y-11164429D01*
X15007857Y-11183476D01*
X15141190Y-10983476D02*
X15160238Y-10983476D01*
X15179286Y-10993000D01*
X15188809Y-11002524D01*
X15198333Y-11021571D01*
X15207857Y-11059667D01*
X15207857Y-11107286D01*
X15198333Y-11145381D01*
X15188809Y-11164429D01*
X15179286Y-11173952D01*
X15160238Y-11183476D01*
X15141190Y-11183476D01*
X15122143Y-11173952D01*
X15112619Y-11164429D01*
X15103095Y-11145381D01*
X15093571Y-11107286D01*
X15093571Y-11059667D01*
X15103095Y-11021571D01*
X15112619Y-11002524D01*
X15122143Y-10993000D01*
X15141190Y-10983476D01*
X15398333Y-11183476D02*
X15284048Y-11183476D01*
X15341190Y-11183476D02*
X15341190Y-10983476D01*
X15322143Y-11012048D01*
X15303095Y-11031095D01*
X15284048Y-11040619D01*
X15579286Y-10983476D02*
X15484048Y-10983476D01*
X15474524Y-11078714D01*
X15484048Y-11069190D01*
X15503095Y-11059667D01*
X15550714Y-11059667D01*
X15569762Y-11069190D01*
X15579286Y-11078714D01*
X15588809Y-11097762D01*
X15588809Y-11145381D01*
X15579286Y-11164429D01*
X15569762Y-11173952D01*
X15550714Y-11183476D01*
X15503095Y-11183476D01*
X15484048Y-11173952D01*
X15474524Y-11164429D01*
X15655476Y-10983476D02*
X15788809Y-10983476D01*
X15703095Y-11183476D01*
X15855476Y-10983476D02*
X15855476Y-11021571D01*
X15931667Y-10983476D02*
X15931667Y-11021571D01*
X16226905Y-11259667D02*
X16217381Y-11250143D01*
X16198333Y-11221571D01*
X16188809Y-11202524D01*
X16179286Y-11173952D01*
X16169762Y-11126333D01*
X16169762Y-11088238D01*
X16179286Y-11040619D01*
X16188809Y-11012048D01*
X16198333Y-10993000D01*
X16217381Y-10964429D01*
X16226905Y-10954905D01*
X16407857Y-11183476D02*
X16293571Y-11183476D01*
X16350714Y-11183476D02*
X16350714Y-10983476D01*
X16331667Y-11012048D01*
X16312619Y-11031095D01*
X16293571Y-11040619D01*
X16484048Y-11002524D02*
X16493571Y-10993000D01*
X16512619Y-10983476D01*
X16560238Y-10983476D01*
X16579286Y-10993000D01*
X16588809Y-11002524D01*
X16598333Y-11021571D01*
X16598333Y-11040619D01*
X16588809Y-11069190D01*
X16474524Y-11183476D01*
X16598333Y-11183476D01*
X16836429Y-11183476D02*
X16836429Y-10983476D01*
X16922143Y-11183476D02*
X16922143Y-11078714D01*
X16912619Y-11059667D01*
X16893571Y-11050143D01*
X16865000Y-11050143D01*
X16845952Y-11059667D01*
X16836429Y-11069190D01*
X17045952Y-11183476D02*
X17026905Y-11173952D01*
X17017381Y-11164429D01*
X17007857Y-11145381D01*
X17007857Y-11088238D01*
X17017381Y-11069190D01*
X17026905Y-11059667D01*
X17045952Y-11050143D01*
X17074524Y-11050143D01*
X17093571Y-11059667D01*
X17103095Y-11069190D01*
X17112619Y-11088238D01*
X17112619Y-11145381D01*
X17103095Y-11164429D01*
X17093571Y-11173952D01*
X17074524Y-11183476D01*
X17045952Y-11183476D01*
X17226905Y-11183476D02*
X17207857Y-11173952D01*
X17198333Y-11154905D01*
X17198333Y-10983476D01*
X17379286Y-11173952D02*
X17360238Y-11183476D01*
X17322143Y-11183476D01*
X17303095Y-11173952D01*
X17293571Y-11154905D01*
X17293571Y-11078714D01*
X17303095Y-11059667D01*
X17322143Y-11050143D01*
X17360238Y-11050143D01*
X17379286Y-11059667D01*
X17388810Y-11078714D01*
X17388810Y-11097762D01*
X17293571Y-11116810D01*
X17465000Y-11173952D02*
X17484048Y-11183476D01*
X17522143Y-11183476D01*
X17541190Y-11173952D01*
X17550714Y-11154905D01*
X17550714Y-11145381D01*
X17541190Y-11126333D01*
X17522143Y-11116810D01*
X17493571Y-11116810D01*
X17474524Y-11107286D01*
X17465000Y-11088238D01*
X17465000Y-11078714D01*
X17474524Y-11059667D01*
X17493571Y-11050143D01*
X17522143Y-11050143D01*
X17541190Y-11059667D01*
X17617381Y-11259667D02*
X17626905Y-11250143D01*
X17645952Y-11221571D01*
X17655476Y-11202524D01*
X17665000Y-11173952D01*
X17674524Y-11126333D01*
X17674524Y-11088238D01*
X17665000Y-11040619D01*
X17655476Y-11012048D01*
X17645952Y-10993000D01*
X17626905Y-10964429D01*
X17617381Y-10954905D01*
D14*
X12640356Y-11392356D02*
X12640356Y-11321644D01*
X12569644Y-11321644D01*
X12569644Y-11392356D01*
X12640356Y-11392356D01*
D11*
X13017381Y-11447476D02*
X12903095Y-11447476D01*
X12960238Y-11447476D02*
X12960238Y-11247476D01*
X12941190Y-11276048D01*
X12922143Y-11295095D01*
X12903095Y-11304619D01*
X13103095Y-11428428D02*
X13112619Y-11437952D01*
X13103095Y-11447476D01*
X13093571Y-11437952D01*
X13103095Y-11428428D01*
X13103095Y-11447476D01*
X13236428Y-11247476D02*
X13255476Y-11247476D01*
X13274524Y-11257000D01*
X13284048Y-11266524D01*
X13293571Y-11285571D01*
X13303095Y-11323667D01*
X13303095Y-11371286D01*
X13293571Y-11409381D01*
X13284048Y-11428428D01*
X13274524Y-11437952D01*
X13255476Y-11447476D01*
X13236428Y-11447476D01*
X13217381Y-11437952D01*
X13207857Y-11428428D01*
X13198333Y-11409381D01*
X13188809Y-11371286D01*
X13188809Y-11323667D01*
X13198333Y-11285571D01*
X13207857Y-11266524D01*
X13217381Y-11257000D01*
X13236428Y-11247476D01*
X13426905Y-11247476D02*
X13445952Y-11247476D01*
X13465000Y-11257000D01*
X13474524Y-11266524D01*
X13484048Y-11285571D01*
X13493571Y-11323667D01*
X13493571Y-11371286D01*
X13484048Y-11409381D01*
X13474524Y-11428428D01*
X13465000Y-11437952D01*
X13445952Y-11447476D01*
X13426905Y-11447476D01*
X13407857Y-11437952D01*
X13398333Y-11428428D01*
X13388809Y-11409381D01*
X13379286Y-11371286D01*
X13379286Y-11323667D01*
X13388809Y-11285571D01*
X13398333Y-11266524D01*
X13407857Y-11257000D01*
X13426905Y-11247476D01*
X13617381Y-11247476D02*
X13636428Y-11247476D01*
X13655476Y-11257000D01*
X13665000Y-11266524D01*
X13674524Y-11285571D01*
X13684048Y-11323667D01*
X13684048Y-11371286D01*
X13674524Y-11409381D01*
X13665000Y-11428428D01*
X13655476Y-11437952D01*
X13636428Y-11447476D01*
X13617381Y-11447476D01*
X13598333Y-11437952D01*
X13588809Y-11428428D01*
X13579286Y-11409381D01*
X13569762Y-11371286D01*
X13569762Y-11323667D01*
X13579286Y-11285571D01*
X13588809Y-11266524D01*
X13598333Y-11257000D01*
X13617381Y-11247476D01*
X13769762Y-11447476D02*
X13769762Y-11314143D01*
X13769762Y-11333190D02*
X13779286Y-11323667D01*
X13798333Y-11314143D01*
X13826905Y-11314143D01*
X13845952Y-11323667D01*
X13855476Y-11342714D01*
X13855476Y-11447476D01*
X13855476Y-11342714D02*
X13865000Y-11323667D01*
X13884048Y-11314143D01*
X13912619Y-11314143D01*
X13931667Y-11323667D01*
X13941190Y-11342714D01*
X13941190Y-11447476D01*
X14036428Y-11447476D02*
X14036428Y-11314143D01*
X14036428Y-11333190D02*
X14045952Y-11323667D01*
X14065000Y-11314143D01*
X14093571Y-11314143D01*
X14112619Y-11323667D01*
X14122143Y-11342714D01*
X14122143Y-11447476D01*
X14122143Y-11342714D02*
X14131667Y-11323667D01*
X14150714Y-11314143D01*
X14179286Y-11314143D01*
X14198333Y-11323667D01*
X14207857Y-11342714D01*
X14207857Y-11447476D01*
X14598333Y-11237952D02*
X14426905Y-11495095D01*
X14855476Y-11247476D02*
X14874524Y-11247476D01*
X14893571Y-11257000D01*
X14903095Y-11266524D01*
X14912619Y-11285571D01*
X14922143Y-11323667D01*
X14922143Y-11371286D01*
X14912619Y-11409381D01*
X14903095Y-11428428D01*
X14893571Y-11437952D01*
X14874524Y-11447476D01*
X14855476Y-11447476D01*
X14836428Y-11437952D01*
X14826905Y-11428428D01*
X14817381Y-11409381D01*
X14807857Y-11371286D01*
X14807857Y-11323667D01*
X14817381Y-11285571D01*
X14826905Y-11266524D01*
X14836428Y-11257000D01*
X14855476Y-11247476D01*
X15007857Y-11428428D02*
X15017381Y-11437952D01*
X15007857Y-11447476D01*
X14998333Y-11437952D01*
X15007857Y-11428428D01*
X15007857Y-11447476D01*
X15141190Y-11247476D02*
X15160238Y-11247476D01*
X15179286Y-11257000D01*
X15188809Y-11266524D01*
X15198333Y-11285571D01*
X15207857Y-11323667D01*
X15207857Y-11371286D01*
X15198333Y-11409381D01*
X15188809Y-11428428D01*
X15179286Y-11437952D01*
X15160238Y-11447476D01*
X15141190Y-11447476D01*
X15122143Y-11437952D01*
X15112619Y-11428428D01*
X15103095Y-11409381D01*
X15093571Y-11371286D01*
X15093571Y-11323667D01*
X15103095Y-11285571D01*
X15112619Y-11266524D01*
X15122143Y-11257000D01*
X15141190Y-11247476D01*
X15274524Y-11247476D02*
X15398333Y-11247476D01*
X15331667Y-11323667D01*
X15360238Y-11323667D01*
X15379286Y-11333190D01*
X15388809Y-11342714D01*
X15398333Y-11361762D01*
X15398333Y-11409381D01*
X15388809Y-11428428D01*
X15379286Y-11437952D01*
X15360238Y-11447476D01*
X15303095Y-11447476D01*
X15284048Y-11437952D01*
X15274524Y-11428428D01*
X15493571Y-11447476D02*
X15531667Y-11447476D01*
X15550714Y-11437952D01*
X15560238Y-11428428D01*
X15579286Y-11399857D01*
X15588809Y-11361762D01*
X15588809Y-11285571D01*
X15579286Y-11266524D01*
X15569762Y-11257000D01*
X15550714Y-11247476D01*
X15512619Y-11247476D01*
X15493571Y-11257000D01*
X15484048Y-11266524D01*
X15474524Y-11285571D01*
X15474524Y-11333190D01*
X15484048Y-11352238D01*
X15493571Y-11361762D01*
X15512619Y-11371286D01*
X15550714Y-11371286D01*
X15569762Y-11361762D01*
X15579286Y-11352238D01*
X15588809Y-11333190D01*
X15760238Y-11314143D02*
X15760238Y-11447476D01*
X15712619Y-11237952D02*
X15665000Y-11380809D01*
X15788809Y-11380809D01*
X15855476Y-11247476D02*
X15855476Y-11285571D01*
X15931667Y-11247476D02*
X15931667Y-11285571D01*
X16226905Y-11523667D02*
X16217381Y-11514143D01*
X16198333Y-11485571D01*
X16188809Y-11466524D01*
X16179286Y-11437952D01*
X16169762Y-11390333D01*
X16169762Y-11352238D01*
X16179286Y-11304619D01*
X16188809Y-11276048D01*
X16198333Y-11257000D01*
X16217381Y-11228428D01*
X16226905Y-11218905D01*
X16388809Y-11314143D02*
X16388809Y-11447476D01*
X16341190Y-11237952D02*
X16293571Y-11380809D01*
X16417381Y-11380809D01*
X16645952Y-11447476D02*
X16645952Y-11247476D01*
X16731667Y-11447476D02*
X16731667Y-11342714D01*
X16722143Y-11323667D01*
X16703095Y-11314143D01*
X16674524Y-11314143D01*
X16655476Y-11323667D01*
X16645952Y-11333190D01*
X16855476Y-11447476D02*
X16836429Y-11437952D01*
X16826905Y-11428428D01*
X16817381Y-11409381D01*
X16817381Y-11352238D01*
X16826905Y-11333190D01*
X16836429Y-11323667D01*
X16855476Y-11314143D01*
X16884048Y-11314143D01*
X16903095Y-11323667D01*
X16912619Y-11333190D01*
X16922143Y-11352238D01*
X16922143Y-11409381D01*
X16912619Y-11428428D01*
X16903095Y-11437952D01*
X16884048Y-11447476D01*
X16855476Y-11447476D01*
X17036429Y-11447476D02*
X17017381Y-11437952D01*
X17007857Y-11418905D01*
X17007857Y-11247476D01*
X17188810Y-11437952D02*
X17169762Y-11447476D01*
X17131667Y-11447476D01*
X17112619Y-11437952D01*
X17103095Y-11418905D01*
X17103095Y-11342714D01*
X17112619Y-11323667D01*
X17131667Y-11314143D01*
X17169762Y-11314143D01*
X17188810Y-11323667D01*
X17198333Y-11342714D01*
X17198333Y-11361762D01*
X17103095Y-11380809D01*
X17274524Y-11437952D02*
X17293571Y-11447476D01*
X17331667Y-11447476D01*
X17350714Y-11437952D01*
X17360238Y-11418905D01*
X17360238Y-11409381D01*
X17350714Y-11390333D01*
X17331667Y-11380809D01*
X17303095Y-11380809D01*
X17284048Y-11371286D01*
X17274524Y-11352238D01*
X17274524Y-11342714D01*
X17284048Y-11323667D01*
X17303095Y-11314143D01*
X17331667Y-11314143D01*
X17350714Y-11323667D01*
X17426905Y-11523667D02*
X17436429Y-11514143D01*
X17455476Y-11485571D01*
X17465000Y-11466524D01*
X17474524Y-11437952D01*
X17484048Y-11390333D01*
X17484048Y-11352238D01*
X17474524Y-11304619D01*
X17465000Y-11276048D01*
X17455476Y-11257000D01*
X17436429Y-11228428D01*
X17426905Y-11218905D01*
M02*
