%TF.GenerationSoftware,KiCad,Pcbnew,(6.0.5)*%
%TF.CreationDate,2023-11-29T10:11:24+07:00*%
%TF.ProjectId,lidar,6c696461-722e-46b6-9963-61645f706362,rev?*%
%TF.SameCoordinates,Original*%
%TF.FileFunction,Copper,L4,Bot*%
%TF.FilePolarity,Positive*%
%FSLAX46Y46*%
G04 Gerber Fmt 4.6, Leading zero omitted, Abs format (unit mm)*
G04 Created by KiCad (PCBNEW (6.0.5)) date 2023-11-29 10:11:24*
%MOMM*%
%LPD*%
G01*
G04 APERTURE LIST*
%TA.AperFunction,EtchedComponent*%
%ADD10C,0.001000*%
%TD*%
%TA.AperFunction,ComponentPad*%
%ADD11C,0.400000*%
%TD*%
%TA.AperFunction,ComponentPad*%
%ADD12C,2.000000*%
%TD*%
%TA.AperFunction,ViaPad*%
%ADD13C,0.400000*%
%TD*%
%TA.AperFunction,ViaPad*%
%ADD14C,0.800000*%
%TD*%
%TA.AperFunction,Conductor*%
%ADD15C,0.250000*%
%TD*%
%TA.AperFunction,Conductor*%
%ADD16C,0.200000*%
%TD*%
%TA.AperFunction,Conductor*%
%ADD17C,0.300000*%
%TD*%
%TA.AperFunction,Conductor*%
%ADD18C,0.150000*%
%TD*%
G04 APERTURE END LIST*
%TO.C,D2*%
G36*
X134839000Y-77825000D02*
G01*
X134876000Y-77870000D01*
X134948000Y-77962000D01*
X134982000Y-78010000D01*
X135014000Y-78058000D01*
X135046000Y-78108000D01*
X135076000Y-78157000D01*
X135105000Y-78208000D01*
X135133000Y-78260000D01*
X135160000Y-78312000D01*
X135185000Y-78364000D01*
X135209000Y-78418000D01*
X135231000Y-78472000D01*
X135252000Y-78526000D01*
X135272000Y-78581000D01*
X135290000Y-78637000D01*
X135307000Y-78693000D01*
X135323000Y-78749000D01*
X135337000Y-78806000D01*
X135350000Y-78863000D01*
X135361000Y-78920000D01*
X135371000Y-78978000D01*
X135380000Y-79035000D01*
X135387000Y-79093000D01*
X135392000Y-79152000D01*
X135396000Y-79210000D01*
X135399000Y-79268000D01*
X135400000Y-79327000D01*
X135400000Y-79395000D01*
X135394000Y-79528000D01*
X135383000Y-79652000D01*
X135364000Y-79775000D01*
X135340000Y-79898000D01*
X135309000Y-80019000D01*
X135272000Y-80138000D01*
X135229000Y-80255000D01*
X135179000Y-80369000D01*
X135124000Y-80481000D01*
X135063000Y-80590000D01*
X134997000Y-80695000D01*
X134925000Y-80797000D01*
X134848000Y-80896000D01*
X134766000Y-80990000D01*
X134680000Y-81079000D01*
X134589000Y-81164000D01*
X134493000Y-81245000D01*
X134394000Y-81320000D01*
X134290000Y-81390000D01*
X134184000Y-81454000D01*
X134074000Y-81513000D01*
X133961000Y-81566000D01*
X133846000Y-81614000D01*
X133728000Y-81655000D01*
X133608000Y-81690000D01*
X133487000Y-81719000D01*
X133364000Y-81741000D01*
X133241000Y-81757000D01*
X133116000Y-81767000D01*
X133000000Y-81770000D01*
X132884000Y-81767000D01*
X132759000Y-81757000D01*
X132636000Y-81741000D01*
X132513000Y-81719000D01*
X132392000Y-81690000D01*
X132272000Y-81655000D01*
X132154000Y-81614000D01*
X132039000Y-81566000D01*
X131926000Y-81513000D01*
X131816000Y-81454000D01*
X131710000Y-81390000D01*
X131606000Y-81320000D01*
X131507000Y-81245000D01*
X131411000Y-81164000D01*
X131320000Y-81079000D01*
X131234000Y-80990000D01*
X131152000Y-80896000D01*
X131075000Y-80797000D01*
X131003000Y-80695000D01*
X130937000Y-80590000D01*
X130876000Y-80481000D01*
X130821000Y-80369000D01*
X130771000Y-80255000D01*
X130728000Y-80138000D01*
X130691000Y-80019000D01*
X130660000Y-79898000D01*
X130636000Y-79775000D01*
X130617000Y-79652000D01*
X130606000Y-79528000D01*
X130600000Y-79395000D01*
X130600000Y-79327000D01*
X130601000Y-79268000D01*
X130604000Y-79210000D01*
X130608000Y-79152000D01*
X130613000Y-79093000D01*
X130620000Y-79035000D01*
X130629000Y-78978000D01*
X130639000Y-78920000D01*
X130650000Y-78863000D01*
X130663000Y-78806000D01*
X130677000Y-78749000D01*
X130693000Y-78693000D01*
X130710000Y-78637000D01*
X130728000Y-78581000D01*
X130748000Y-78526000D01*
X130769000Y-78472000D01*
X130791000Y-78418000D01*
X130815000Y-78364000D01*
X130840000Y-78312000D01*
X130867000Y-78260000D01*
X130895000Y-78208000D01*
X130924000Y-78157000D01*
X130954000Y-78108000D01*
X130986000Y-78058000D01*
X131018000Y-78010000D01*
X131052000Y-77962000D01*
X131124000Y-77870000D01*
X131161000Y-77825000D01*
X131210000Y-77770000D01*
X134790000Y-77770000D01*
X134839000Y-77825000D01*
G37*
D10*
X134839000Y-77825000D02*
X134876000Y-77870000D01*
X134948000Y-77962000D01*
X134982000Y-78010000D01*
X135014000Y-78058000D01*
X135046000Y-78108000D01*
X135076000Y-78157000D01*
X135105000Y-78208000D01*
X135133000Y-78260000D01*
X135160000Y-78312000D01*
X135185000Y-78364000D01*
X135209000Y-78418000D01*
X135231000Y-78472000D01*
X135252000Y-78526000D01*
X135272000Y-78581000D01*
X135290000Y-78637000D01*
X135307000Y-78693000D01*
X135323000Y-78749000D01*
X135337000Y-78806000D01*
X135350000Y-78863000D01*
X135361000Y-78920000D01*
X135371000Y-78978000D01*
X135380000Y-79035000D01*
X135387000Y-79093000D01*
X135392000Y-79152000D01*
X135396000Y-79210000D01*
X135399000Y-79268000D01*
X135400000Y-79327000D01*
X135400000Y-79395000D01*
X135394000Y-79528000D01*
X135383000Y-79652000D01*
X135364000Y-79775000D01*
X135340000Y-79898000D01*
X135309000Y-80019000D01*
X135272000Y-80138000D01*
X135229000Y-80255000D01*
X135179000Y-80369000D01*
X135124000Y-80481000D01*
X135063000Y-80590000D01*
X134997000Y-80695000D01*
X134925000Y-80797000D01*
X134848000Y-80896000D01*
X134766000Y-80990000D01*
X134680000Y-81079000D01*
X134589000Y-81164000D01*
X134493000Y-81245000D01*
X134394000Y-81320000D01*
X134290000Y-81390000D01*
X134184000Y-81454000D01*
X134074000Y-81513000D01*
X133961000Y-81566000D01*
X133846000Y-81614000D01*
X133728000Y-81655000D01*
X133608000Y-81690000D01*
X133487000Y-81719000D01*
X133364000Y-81741000D01*
X133241000Y-81757000D01*
X133116000Y-81767000D01*
X133000000Y-81770000D01*
X132884000Y-81767000D01*
X132759000Y-81757000D01*
X132636000Y-81741000D01*
X132513000Y-81719000D01*
X132392000Y-81690000D01*
X132272000Y-81655000D01*
X132154000Y-81614000D01*
X132039000Y-81566000D01*
X131926000Y-81513000D01*
X131816000Y-81454000D01*
X131710000Y-81390000D01*
X131606000Y-81320000D01*
X131507000Y-81245000D01*
X131411000Y-81164000D01*
X131320000Y-81079000D01*
X131234000Y-80990000D01*
X131152000Y-80896000D01*
X131075000Y-80797000D01*
X131003000Y-80695000D01*
X130937000Y-80590000D01*
X130876000Y-80481000D01*
X130821000Y-80369000D01*
X130771000Y-80255000D01*
X130728000Y-80138000D01*
X130691000Y-80019000D01*
X130660000Y-79898000D01*
X130636000Y-79775000D01*
X130617000Y-79652000D01*
X130606000Y-79528000D01*
X130600000Y-79395000D01*
X130600000Y-79327000D01*
X130601000Y-79268000D01*
X130604000Y-79210000D01*
X130608000Y-79152000D01*
X130613000Y-79093000D01*
X130620000Y-79035000D01*
X130629000Y-78978000D01*
X130639000Y-78920000D01*
X130650000Y-78863000D01*
X130663000Y-78806000D01*
X130677000Y-78749000D01*
X130693000Y-78693000D01*
X130710000Y-78637000D01*
X130728000Y-78581000D01*
X130748000Y-78526000D01*
X130769000Y-78472000D01*
X130791000Y-78418000D01*
X130815000Y-78364000D01*
X130840000Y-78312000D01*
X130867000Y-78260000D01*
X130895000Y-78208000D01*
X130924000Y-78157000D01*
X130954000Y-78108000D01*
X130986000Y-78058000D01*
X131018000Y-78010000D01*
X131052000Y-77962000D01*
X131124000Y-77870000D01*
X131161000Y-77825000D01*
X131210000Y-77770000D01*
X134790000Y-77770000D01*
X134839000Y-77825000D01*
%TO.C,D1*%
G36*
X131232000Y-85701000D02*
G01*
X131290000Y-85704000D01*
X131348000Y-85708000D01*
X131407000Y-85713000D01*
X131465000Y-85720000D01*
X131522000Y-85729000D01*
X131580000Y-85739000D01*
X131637000Y-85750000D01*
X131694000Y-85763000D01*
X131751000Y-85777000D01*
X131807000Y-85793000D01*
X131863000Y-85810000D01*
X131919000Y-85828000D01*
X131974000Y-85848000D01*
X132028000Y-85869000D01*
X132082000Y-85891000D01*
X132136000Y-85915000D01*
X132188000Y-85940000D01*
X132240000Y-85967000D01*
X132292000Y-85995000D01*
X132343000Y-86024000D01*
X132392000Y-86054000D01*
X132442000Y-86086000D01*
X132490000Y-86118000D01*
X132538000Y-86152000D01*
X132630000Y-86224000D01*
X132675000Y-86261000D01*
X132730000Y-86310000D01*
X132730000Y-89890000D01*
X132675000Y-89939000D01*
X132630000Y-89976000D01*
X132538000Y-90048000D01*
X132490000Y-90082000D01*
X132442000Y-90114000D01*
X132392000Y-90146000D01*
X132343000Y-90176000D01*
X132292000Y-90205000D01*
X132240000Y-90233000D01*
X132188000Y-90260000D01*
X132136000Y-90285000D01*
X132082000Y-90309000D01*
X132028000Y-90331000D01*
X131974000Y-90352000D01*
X131919000Y-90372000D01*
X131863000Y-90390000D01*
X131807000Y-90407000D01*
X131751000Y-90423000D01*
X131694000Y-90437000D01*
X131637000Y-90450000D01*
X131580000Y-90461000D01*
X131522000Y-90471000D01*
X131465000Y-90480000D01*
X131407000Y-90487000D01*
X131348000Y-90492000D01*
X131290000Y-90496000D01*
X131232000Y-90499000D01*
X131173000Y-90500000D01*
X131105000Y-90500000D01*
X130972000Y-90494000D01*
X130848000Y-90483000D01*
X130725000Y-90464000D01*
X130602000Y-90440000D01*
X130481000Y-90409000D01*
X130362000Y-90372000D01*
X130245000Y-90329000D01*
X130131000Y-90279000D01*
X130019000Y-90224000D01*
X129910000Y-90163000D01*
X129805000Y-90097000D01*
X129703000Y-90025000D01*
X129604000Y-89948000D01*
X129510000Y-89866000D01*
X129421000Y-89780000D01*
X129336000Y-89689000D01*
X129255000Y-89593000D01*
X129180000Y-89494000D01*
X129110000Y-89390000D01*
X129046000Y-89284000D01*
X128987000Y-89174000D01*
X128934000Y-89061000D01*
X128886000Y-88946000D01*
X128845000Y-88828000D01*
X128810000Y-88708000D01*
X128781000Y-88587000D01*
X128759000Y-88464000D01*
X128743000Y-88341000D01*
X128733000Y-88216000D01*
X128730000Y-88100000D01*
X128733000Y-87984000D01*
X128743000Y-87859000D01*
X128759000Y-87736000D01*
X128781000Y-87613000D01*
X128810000Y-87492000D01*
X128845000Y-87372000D01*
X128886000Y-87254000D01*
X128934000Y-87139000D01*
X128987000Y-87026000D01*
X129046000Y-86916000D01*
X129110000Y-86810000D01*
X129180000Y-86706000D01*
X129255000Y-86607000D01*
X129336000Y-86511000D01*
X129421000Y-86420000D01*
X129510000Y-86334000D01*
X129604000Y-86252000D01*
X129703000Y-86175000D01*
X129805000Y-86103000D01*
X129910000Y-86037000D01*
X130019000Y-85976000D01*
X130131000Y-85921000D01*
X130245000Y-85871000D01*
X130362000Y-85828000D01*
X130481000Y-85791000D01*
X130602000Y-85760000D01*
X130725000Y-85736000D01*
X130848000Y-85717000D01*
X130972000Y-85706000D01*
X131105000Y-85700000D01*
X131173000Y-85700000D01*
X131232000Y-85701000D01*
G37*
X131232000Y-85701000D02*
X131290000Y-85704000D01*
X131348000Y-85708000D01*
X131407000Y-85713000D01*
X131465000Y-85720000D01*
X131522000Y-85729000D01*
X131580000Y-85739000D01*
X131637000Y-85750000D01*
X131694000Y-85763000D01*
X131751000Y-85777000D01*
X131807000Y-85793000D01*
X131863000Y-85810000D01*
X131919000Y-85828000D01*
X131974000Y-85848000D01*
X132028000Y-85869000D01*
X132082000Y-85891000D01*
X132136000Y-85915000D01*
X132188000Y-85940000D01*
X132240000Y-85967000D01*
X132292000Y-85995000D01*
X132343000Y-86024000D01*
X132392000Y-86054000D01*
X132442000Y-86086000D01*
X132490000Y-86118000D01*
X132538000Y-86152000D01*
X132630000Y-86224000D01*
X132675000Y-86261000D01*
X132730000Y-86310000D01*
X132730000Y-89890000D01*
X132675000Y-89939000D01*
X132630000Y-89976000D01*
X132538000Y-90048000D01*
X132490000Y-90082000D01*
X132442000Y-90114000D01*
X132392000Y-90146000D01*
X132343000Y-90176000D01*
X132292000Y-90205000D01*
X132240000Y-90233000D01*
X132188000Y-90260000D01*
X132136000Y-90285000D01*
X132082000Y-90309000D01*
X132028000Y-90331000D01*
X131974000Y-90352000D01*
X131919000Y-90372000D01*
X131863000Y-90390000D01*
X131807000Y-90407000D01*
X131751000Y-90423000D01*
X131694000Y-90437000D01*
X131637000Y-90450000D01*
X131580000Y-90461000D01*
X131522000Y-90471000D01*
X131465000Y-90480000D01*
X131407000Y-90487000D01*
X131348000Y-90492000D01*
X131290000Y-90496000D01*
X131232000Y-90499000D01*
X131173000Y-90500000D01*
X131105000Y-90500000D01*
X130972000Y-90494000D01*
X130848000Y-90483000D01*
X130725000Y-90464000D01*
X130602000Y-90440000D01*
X130481000Y-90409000D01*
X130362000Y-90372000D01*
X130245000Y-90329000D01*
X130131000Y-90279000D01*
X130019000Y-90224000D01*
X129910000Y-90163000D01*
X129805000Y-90097000D01*
X129703000Y-90025000D01*
X129604000Y-89948000D01*
X129510000Y-89866000D01*
X129421000Y-89780000D01*
X129336000Y-89689000D01*
X129255000Y-89593000D01*
X129180000Y-89494000D01*
X129110000Y-89390000D01*
X129046000Y-89284000D01*
X128987000Y-89174000D01*
X128934000Y-89061000D01*
X128886000Y-88946000D01*
X128845000Y-88828000D01*
X128810000Y-88708000D01*
X128781000Y-88587000D01*
X128759000Y-88464000D01*
X128743000Y-88341000D01*
X128733000Y-88216000D01*
X128730000Y-88100000D01*
X128733000Y-87984000D01*
X128743000Y-87859000D01*
X128759000Y-87736000D01*
X128781000Y-87613000D01*
X128810000Y-87492000D01*
X128845000Y-87372000D01*
X128886000Y-87254000D01*
X128934000Y-87139000D01*
X128987000Y-87026000D01*
X129046000Y-86916000D01*
X129110000Y-86810000D01*
X129180000Y-86706000D01*
X129255000Y-86607000D01*
X129336000Y-86511000D01*
X129421000Y-86420000D01*
X129510000Y-86334000D01*
X129604000Y-86252000D01*
X129703000Y-86175000D01*
X129805000Y-86103000D01*
X129910000Y-86037000D01*
X130019000Y-85976000D01*
X130131000Y-85921000D01*
X130245000Y-85871000D01*
X130362000Y-85828000D01*
X130481000Y-85791000D01*
X130602000Y-85760000D01*
X130725000Y-85736000D01*
X130848000Y-85717000D01*
X130972000Y-85706000D01*
X131105000Y-85700000D01*
X131173000Y-85700000D01*
X131232000Y-85701000D01*
G36*
X135028000Y-85706000D02*
G01*
X135152000Y-85717000D01*
X135275000Y-85736000D01*
X135398000Y-85760000D01*
X135519000Y-85791000D01*
X135638000Y-85828000D01*
X135755000Y-85871000D01*
X135869000Y-85921000D01*
X135981000Y-85976000D01*
X136090000Y-86037000D01*
X136195000Y-86103000D01*
X136297000Y-86175000D01*
X136396000Y-86252000D01*
X136490000Y-86334000D01*
X136579000Y-86420000D01*
X136664000Y-86511000D01*
X136745000Y-86607000D01*
X136820000Y-86706000D01*
X136890000Y-86810000D01*
X136954000Y-86916000D01*
X137013000Y-87026000D01*
X137066000Y-87139000D01*
X137114000Y-87254000D01*
X137155000Y-87372000D01*
X137190000Y-87492000D01*
X137219000Y-87613000D01*
X137241000Y-87736000D01*
X137257000Y-87859000D01*
X137267000Y-87984000D01*
X137270000Y-88100000D01*
X137267000Y-88216000D01*
X137257000Y-88341000D01*
X137241000Y-88464000D01*
X137219000Y-88587000D01*
X137190000Y-88708000D01*
X137155000Y-88828000D01*
X137114000Y-88946000D01*
X137066000Y-89061000D01*
X137013000Y-89174000D01*
X136954000Y-89284000D01*
X136890000Y-89390000D01*
X136820000Y-89494000D01*
X136745000Y-89593000D01*
X136664000Y-89689000D01*
X136579000Y-89780000D01*
X136490000Y-89866000D01*
X136396000Y-89948000D01*
X136297000Y-90025000D01*
X136195000Y-90097000D01*
X136090000Y-90163000D01*
X135981000Y-90224000D01*
X135869000Y-90279000D01*
X135755000Y-90329000D01*
X135638000Y-90372000D01*
X135519000Y-90409000D01*
X135398000Y-90440000D01*
X135275000Y-90464000D01*
X135152000Y-90483000D01*
X135028000Y-90494000D01*
X134895000Y-90500000D01*
X134827000Y-90500000D01*
X134768000Y-90499000D01*
X134710000Y-90496000D01*
X134652000Y-90492000D01*
X134593000Y-90487000D01*
X134535000Y-90480000D01*
X134478000Y-90471000D01*
X134420000Y-90461000D01*
X134363000Y-90450000D01*
X134306000Y-90437000D01*
X134249000Y-90423000D01*
X134193000Y-90407000D01*
X134137000Y-90390000D01*
X134081000Y-90372000D01*
X134026000Y-90352000D01*
X133972000Y-90331000D01*
X133918000Y-90309000D01*
X133864000Y-90285000D01*
X133812000Y-90260000D01*
X133760000Y-90233000D01*
X133708000Y-90205000D01*
X133657000Y-90176000D01*
X133608000Y-90146000D01*
X133558000Y-90114000D01*
X133510000Y-90082000D01*
X133462000Y-90048000D01*
X133370000Y-89976000D01*
X133325000Y-89939000D01*
X133270000Y-89890000D01*
X133270000Y-86310000D01*
X133325000Y-86261000D01*
X133370000Y-86224000D01*
X133462000Y-86152000D01*
X133510000Y-86118000D01*
X133558000Y-86086000D01*
X133608000Y-86054000D01*
X133657000Y-86024000D01*
X133708000Y-85995000D01*
X133760000Y-85967000D01*
X133812000Y-85940000D01*
X133864000Y-85915000D01*
X133918000Y-85891000D01*
X133972000Y-85869000D01*
X134026000Y-85848000D01*
X134081000Y-85828000D01*
X134137000Y-85810000D01*
X134193000Y-85793000D01*
X134249000Y-85777000D01*
X134306000Y-85763000D01*
X134363000Y-85750000D01*
X134420000Y-85739000D01*
X134478000Y-85729000D01*
X134535000Y-85720000D01*
X134593000Y-85713000D01*
X134652000Y-85708000D01*
X134710000Y-85704000D01*
X134768000Y-85701000D01*
X134827000Y-85700000D01*
X134895000Y-85700000D01*
X135028000Y-85706000D01*
G37*
X135028000Y-85706000D02*
X135152000Y-85717000D01*
X135275000Y-85736000D01*
X135398000Y-85760000D01*
X135519000Y-85791000D01*
X135638000Y-85828000D01*
X135755000Y-85871000D01*
X135869000Y-85921000D01*
X135981000Y-85976000D01*
X136090000Y-86037000D01*
X136195000Y-86103000D01*
X136297000Y-86175000D01*
X136396000Y-86252000D01*
X136490000Y-86334000D01*
X136579000Y-86420000D01*
X136664000Y-86511000D01*
X136745000Y-86607000D01*
X136820000Y-86706000D01*
X136890000Y-86810000D01*
X136954000Y-86916000D01*
X137013000Y-87026000D01*
X137066000Y-87139000D01*
X137114000Y-87254000D01*
X137155000Y-87372000D01*
X137190000Y-87492000D01*
X137219000Y-87613000D01*
X137241000Y-87736000D01*
X137257000Y-87859000D01*
X137267000Y-87984000D01*
X137270000Y-88100000D01*
X137267000Y-88216000D01*
X137257000Y-88341000D01*
X137241000Y-88464000D01*
X137219000Y-88587000D01*
X137190000Y-88708000D01*
X137155000Y-88828000D01*
X137114000Y-88946000D01*
X137066000Y-89061000D01*
X137013000Y-89174000D01*
X136954000Y-89284000D01*
X136890000Y-89390000D01*
X136820000Y-89494000D01*
X136745000Y-89593000D01*
X136664000Y-89689000D01*
X136579000Y-89780000D01*
X136490000Y-89866000D01*
X136396000Y-89948000D01*
X136297000Y-90025000D01*
X136195000Y-90097000D01*
X136090000Y-90163000D01*
X135981000Y-90224000D01*
X135869000Y-90279000D01*
X135755000Y-90329000D01*
X135638000Y-90372000D01*
X135519000Y-90409000D01*
X135398000Y-90440000D01*
X135275000Y-90464000D01*
X135152000Y-90483000D01*
X135028000Y-90494000D01*
X134895000Y-90500000D01*
X134827000Y-90500000D01*
X134768000Y-90499000D01*
X134710000Y-90496000D01*
X134652000Y-90492000D01*
X134593000Y-90487000D01*
X134535000Y-90480000D01*
X134478000Y-90471000D01*
X134420000Y-90461000D01*
X134363000Y-90450000D01*
X134306000Y-90437000D01*
X134249000Y-90423000D01*
X134193000Y-90407000D01*
X134137000Y-90390000D01*
X134081000Y-90372000D01*
X134026000Y-90352000D01*
X133972000Y-90331000D01*
X133918000Y-90309000D01*
X133864000Y-90285000D01*
X133812000Y-90260000D01*
X133760000Y-90233000D01*
X133708000Y-90205000D01*
X133657000Y-90176000D01*
X133608000Y-90146000D01*
X133558000Y-90114000D01*
X133510000Y-90082000D01*
X133462000Y-90048000D01*
X133370000Y-89976000D01*
X133325000Y-89939000D01*
X133270000Y-89890000D01*
X133270000Y-86310000D01*
X133325000Y-86261000D01*
X133370000Y-86224000D01*
X133462000Y-86152000D01*
X133510000Y-86118000D01*
X133558000Y-86086000D01*
X133608000Y-86054000D01*
X133657000Y-86024000D01*
X133708000Y-85995000D01*
X133760000Y-85967000D01*
X133812000Y-85940000D01*
X133864000Y-85915000D01*
X133918000Y-85891000D01*
X133972000Y-85869000D01*
X134026000Y-85848000D01*
X134081000Y-85828000D01*
X134137000Y-85810000D01*
X134193000Y-85793000D01*
X134249000Y-85777000D01*
X134306000Y-85763000D01*
X134363000Y-85750000D01*
X134420000Y-85739000D01*
X134478000Y-85729000D01*
X134535000Y-85720000D01*
X134593000Y-85713000D01*
X134652000Y-85708000D01*
X134710000Y-85704000D01*
X134768000Y-85701000D01*
X134827000Y-85700000D01*
X134895000Y-85700000D01*
X135028000Y-85706000D01*
%TD*%
D11*
%TO.P,U1,30,AVSS*%
%TO.N,GND1*%
X137275216Y-83724784D03*
%TO.P,U1,31,AVSS*%
X138000000Y-83000000D03*
%TO.P,U1,32,AVSS*%
X138724784Y-82275216D03*
%TO.P,U1,33,AVSS*%
X136921662Y-81921662D03*
%TO.P,U1,34,AVSS*%
X139078338Y-84078338D03*
%TD*%
D12*
%TO.P,D2,1*%
%TO.N,GND1*%
X133000000Y-76230000D03*
%TO.P,D2,2*%
%TO.N,Net-(D2-Pad2)*%
X133000000Y-78770000D03*
%TD*%
%TO.P,D1,A*%
%TO.N,/VDD_LED*%
X131730000Y-88100000D03*
%TO.P,D1,C*%
%TO.N,Net-(D1-PadC)*%
X134270000Y-88100000D03*
%TD*%
D13*
%TO.N,GND1*%
X139000000Y-83100000D03*
X137000000Y-82700000D03*
X137921662Y-84078338D03*
X137856274Y-81891352D03*
%TO.N,GND3*%
X143200000Y-90300000D03*
D14*
X140200000Y-74400000D03*
X140100000Y-93700000D03*
D13*
%TO.N,GND*%
X130600000Y-90900000D03*
D14*
X140200000Y-75600000D03*
D13*
X129400000Y-90400000D03*
X129500000Y-84400000D03*
D14*
X141000000Y-77500000D03*
D13*
X129400000Y-85700000D03*
X139800000Y-89000000D03*
X132600000Y-85700000D03*
D14*
%TO.N,/VDD_LED*%
X140026944Y-92226944D03*
X131800000Y-91900000D03*
D13*
%TO.N,GND2*%
X140979122Y-88979122D03*
D14*
X133513000Y-84979000D03*
%TO.N,/IOVDD_DUT*%
X142750000Y-81850000D03*
D13*
X140674500Y-88200000D03*
%TO.N,/SCL_S*%
X142500000Y-85000000D03*
%TO.N,/SDA_S*%
X132500000Y-84600000D03*
X142200000Y-83400000D03*
D14*
%TO.N,/GP1*%
X138100000Y-92050500D03*
D13*
X142300000Y-86900000D03*
%TO.N,/GP2*%
X141600000Y-86000000D03*
D14*
X133200000Y-92000000D03*
%TO.N,/VSYNC_RST*%
X142100000Y-80800000D03*
X129900000Y-80300000D03*
%TD*%
D15*
%TO.N,GND*%
X132400000Y-74900000D02*
X139500000Y-74900000D01*
X129100000Y-78200000D02*
X132400000Y-74900000D01*
X129100000Y-81700000D02*
X129100000Y-78200000D01*
X129500000Y-82100000D02*
X129100000Y-81700000D01*
X139500000Y-74900000D02*
X140200000Y-75600000D01*
X129500000Y-84400000D02*
X129500000Y-82100000D01*
%TO.N,GND1*%
X139078300Y-84078300D02*
X139078000Y-84078300D01*
X137416600Y-83866200D02*
X137275200Y-83724800D01*
X137275000Y-83724800D02*
X137416600Y-83866200D01*
%TO.N,GND3*%
X143300000Y-94000000D02*
X142500000Y-94800000D01*
X140498960Y-94800000D02*
X140100000Y-94401040D01*
D16*
X132100000Y-94300000D02*
X132600000Y-94800000D01*
D15*
X142500000Y-94800000D02*
X140498960Y-94800000D01*
X143474511Y-77674511D02*
X140200000Y-74400000D01*
X143474511Y-89625489D02*
X143474511Y-77674511D01*
X140100000Y-94401040D02*
X140100000Y-93700000D01*
D16*
X134100000Y-94401040D02*
X134100000Y-93800000D01*
X133701040Y-94800000D02*
X134100000Y-94401040D01*
D15*
X143200000Y-90300000D02*
X143200000Y-89900000D01*
D16*
X132100000Y-93800000D02*
X132100000Y-94300000D01*
D15*
X143200000Y-90300000D02*
X143300000Y-90400000D01*
X143300000Y-90400000D02*
X143300000Y-94000000D01*
X140100000Y-93700000D02*
X140100000Y-93471072D01*
X143200000Y-89900000D02*
X143474511Y-89625489D01*
D16*
X132600000Y-94800000D02*
X133701040Y-94800000D01*
D15*
%TO.N,GND*%
X141000000Y-77300000D02*
X141000000Y-77500000D01*
X139800000Y-89000000D02*
X137900000Y-90900000D01*
X140200000Y-75600000D02*
X141000000Y-76400000D01*
X137900000Y-90900000D02*
X130600000Y-90900000D01*
X141000000Y-76400000D02*
X141000000Y-77300000D01*
D17*
%TO.N,/VDD_LED*%
X140026944Y-92226944D02*
X139453888Y-92800000D01*
X139453888Y-92800000D02*
X132700000Y-92800000D01*
X132700000Y-92800000D02*
X131800000Y-91900000D01*
D15*
%TO.N,GND2*%
X140099989Y-87799989D02*
X137279000Y-84979000D01*
X140641140Y-88979122D02*
X140099989Y-88437971D01*
X140979122Y-88979122D02*
X140641140Y-88979122D01*
X137279000Y-84979000D02*
X133513000Y-84979000D01*
X140099989Y-88437971D02*
X140099989Y-87799989D01*
D18*
%TO.N,/SCL_S*%
X143000000Y-85524500D02*
X143000000Y-88794296D01*
X141100000Y-90694296D02*
X141100000Y-93800000D01*
X142475500Y-85000000D02*
X143000000Y-85524500D01*
X143000000Y-88794296D02*
X141100000Y-90694296D01*
%TO.N,/SDA_S*%
X132900000Y-84200000D02*
X135900000Y-84200000D01*
X132500000Y-84600000D02*
X132900000Y-84200000D01*
X141400000Y-83500000D02*
X142100000Y-83500000D01*
X142100000Y-83500000D02*
X142200000Y-83400000D01*
X136200000Y-81400000D02*
X136800000Y-80800000D01*
X135900000Y-84200000D02*
X136200000Y-83900000D01*
X136800000Y-80800000D02*
X138700000Y-80800000D01*
X136200000Y-83900000D02*
X136200000Y-81400000D01*
X138700000Y-80800000D02*
X141400000Y-83500000D01*
%TO.N,/GP1*%
X139249500Y-92050500D02*
X142300000Y-89000000D01*
X142300000Y-89000000D02*
X142300000Y-86900000D01*
X138100000Y-92050500D02*
X139249500Y-92050500D01*
%TO.N,/GP2*%
X139400000Y-91300000D02*
X141950480Y-88749520D01*
X141950480Y-88749520D02*
X141950480Y-87850480D01*
X133200000Y-92000000D02*
X133900000Y-91300000D01*
X141625489Y-87525489D02*
X141625489Y-86074511D01*
X133900000Y-91300000D02*
X139400000Y-91300000D01*
X141950480Y-87850480D02*
X141625489Y-87525489D01*
%TO.N,/VSYNC_RST*%
X129900000Y-80300000D02*
X129900000Y-80600000D01*
X131500000Y-82200000D02*
X134550481Y-82200000D01*
X129900000Y-80600000D02*
X131500000Y-82200000D01*
X136300000Y-80450481D02*
X141750481Y-80450481D01*
X141750481Y-80450481D02*
X142100000Y-80800000D01*
X134550481Y-82200000D02*
X136300000Y-80450481D01*
%TD*%
%TA.AperFunction,Conductor*%
%TO.N,GND*%
G36*
X132047895Y-84618907D02*
G01*
X132083859Y-84668407D01*
X132087485Y-84683513D01*
X132091566Y-84709278D01*
X132095095Y-84731562D01*
X132098631Y-84738501D01*
X132098631Y-84738502D01*
X132141297Y-84822238D01*
X132155567Y-84850245D01*
X132249755Y-84944433D01*
X132256692Y-84947968D01*
X132256694Y-84947969D01*
X132337670Y-84989228D01*
X132368438Y-85004905D01*
X132376131Y-85006124D01*
X132376133Y-85006124D01*
X132492303Y-85024523D01*
X132500000Y-85025742D01*
X132507697Y-85024523D01*
X132623867Y-85006124D01*
X132623869Y-85006124D01*
X132631562Y-85004905D01*
X132662330Y-84989228D01*
X132743302Y-84947971D01*
X132743305Y-84947969D01*
X132750245Y-84944433D01*
X132755096Y-84939582D01*
X132812838Y-84920821D01*
X132871029Y-84939728D01*
X132906993Y-84989228D01*
X132910991Y-85006899D01*
X132927956Y-85135762D01*
X132988464Y-85281841D01*
X133084718Y-85407282D01*
X133210159Y-85503536D01*
X133319443Y-85548803D01*
X133345558Y-85559620D01*
X133356238Y-85564044D01*
X133513000Y-85584682D01*
X133669762Y-85564044D01*
X133680443Y-85559620D01*
X133692458Y-85554643D01*
X133753455Y-85549842D01*
X133773694Y-85562245D01*
X133779957Y-85536811D01*
X133813175Y-85504640D01*
X133815841Y-85503536D01*
X133821245Y-85499390D01*
X133936129Y-85411236D01*
X133941282Y-85407282D01*
X133990429Y-85343233D01*
X134040852Y-85308577D01*
X134068970Y-85304500D01*
X134706910Y-85304500D01*
X134765101Y-85323407D01*
X134801065Y-85372907D01*
X134801065Y-85434093D01*
X134765101Y-85483593D01*
X134713717Y-85502266D01*
X134698714Y-85503300D01*
X134697024Y-85503402D01*
X134682132Y-85504173D01*
X134676988Y-85504439D01*
X134675365Y-85504899D01*
X134675108Y-85504929D01*
X134659523Y-85506003D01*
X134659319Y-85506007D01*
X134657784Y-85505789D01*
X134638777Y-85507400D01*
X134637420Y-85507515D01*
X134635870Y-85507635D01*
X134615564Y-85509035D01*
X134614082Y-85509483D01*
X134613872Y-85509511D01*
X134596112Y-85511016D01*
X134594953Y-85511069D01*
X134591591Y-85510711D01*
X134586025Y-85511383D01*
X134586021Y-85511383D01*
X134574236Y-85512806D01*
X134570730Y-85513167D01*
X134553448Y-85514631D01*
X134550235Y-85515656D01*
X134549056Y-85515844D01*
X134530903Y-85518035D01*
X134529656Y-85518137D01*
X134526211Y-85517898D01*
X134520682Y-85518771D01*
X134520681Y-85518771D01*
X134509076Y-85520603D01*
X134505502Y-85521101D01*
X134493928Y-85522498D01*
X134488419Y-85523163D01*
X134485167Y-85524329D01*
X134483913Y-85524576D01*
X134467944Y-85527098D01*
X134467746Y-85527119D01*
X134466356Y-85527042D01*
X134462853Y-85527646D01*
X134462852Y-85527646D01*
X134445895Y-85530569D01*
X134444520Y-85530796D01*
X134427775Y-85533440D01*
X134427770Y-85533441D01*
X134424269Y-85533994D01*
X134422972Y-85534513D01*
X134422797Y-85534553D01*
X134406630Y-85537340D01*
X134406285Y-85537383D01*
X134404339Y-85537314D01*
X134399769Y-85538196D01*
X134399768Y-85538196D01*
X134384815Y-85541081D01*
X134382882Y-85541434D01*
X134363518Y-85544773D01*
X134361723Y-85545521D01*
X134361378Y-85545604D01*
X134354443Y-85546943D01*
X134344801Y-85548803D01*
X134343772Y-85548960D01*
X134340573Y-85548954D01*
X134323228Y-85552910D01*
X134319998Y-85553589D01*
X134308132Y-85555879D01*
X134308125Y-85555881D01*
X134302664Y-85556935D01*
X134299736Y-85558225D01*
X134298713Y-85558501D01*
X134282120Y-85562285D01*
X134281867Y-85562330D01*
X134280236Y-85562354D01*
X134276313Y-85563318D01*
X134276299Y-85563320D01*
X134260440Y-85567215D01*
X134258852Y-85567592D01*
X134239213Y-85572071D01*
X134237744Y-85572778D01*
X134237507Y-85572848D01*
X134220586Y-85577005D01*
X134219279Y-85577274D01*
X134215741Y-85577459D01*
X134201972Y-85581394D01*
X134199170Y-85582194D01*
X134195592Y-85583145D01*
X134179051Y-85587207D01*
X134175891Y-85588793D01*
X134174615Y-85589210D01*
X134174453Y-85589256D01*
X134158315Y-85593866D01*
X134158076Y-85593922D01*
X134156467Y-85594033D01*
X134142823Y-85598175D01*
X134136979Y-85599949D01*
X134135418Y-85600409D01*
X134119842Y-85604859D01*
X134119838Y-85604860D01*
X134115993Y-85605959D01*
X134114578Y-85606736D01*
X134114345Y-85606819D01*
X134099060Y-85611460D01*
X134098833Y-85611517D01*
X134097236Y-85611653D01*
X134077864Y-85617880D01*
X134076326Y-85618361D01*
X134056930Y-85624249D01*
X134055546Y-85625040D01*
X134055312Y-85625128D01*
X134038600Y-85630499D01*
X134037310Y-85630861D01*
X134033773Y-85631297D01*
X134028509Y-85633211D01*
X134028510Y-85633211D01*
X134017650Y-85637160D01*
X134014123Y-85638368D01*
X134006441Y-85640837D01*
X134005371Y-85641181D01*
X133997919Y-85643576D01*
X133994846Y-85645399D01*
X133993591Y-85645908D01*
X133976982Y-85651948D01*
X133976566Y-85652078D01*
X133974435Y-85652389D01*
X133969742Y-85654214D01*
X133969736Y-85654216D01*
X133956254Y-85659459D01*
X133954228Y-85660222D01*
X133936014Y-85666845D01*
X133934201Y-85668015D01*
X133933812Y-85668187D01*
X133919084Y-85673914D01*
X133918870Y-85673985D01*
X133917315Y-85674238D01*
X133913683Y-85675718D01*
X133913679Y-85675719D01*
X133901416Y-85680715D01*
X133840392Y-85685159D01*
X133820729Y-85672951D01*
X133814755Y-85697834D01*
X133770553Y-85736574D01*
X133761659Y-85740527D01*
X133759368Y-85742242D01*
X133758638Y-85742631D01*
X133743280Y-85750014D01*
X133742495Y-85750353D01*
X133739646Y-85751089D01*
X133734677Y-85753669D01*
X133734672Y-85753671D01*
X133723466Y-85759490D01*
X133720777Y-85760835D01*
X133704485Y-85768667D01*
X133702182Y-85770501D01*
X133701435Y-85770928D01*
X133686435Y-85778717D01*
X133686241Y-85778806D01*
X133684815Y-85779197D01*
X133678965Y-85782347D01*
X133666695Y-85788953D01*
X133665385Y-85789646D01*
X133658995Y-85792964D01*
X133647265Y-85799055D01*
X133646136Y-85800012D01*
X133645948Y-85800126D01*
X133631076Y-85808133D01*
X133630646Y-85808340D01*
X133628499Y-85808983D01*
X133623995Y-85811544D01*
X133623991Y-85811546D01*
X133611641Y-85818569D01*
X133609717Y-85819634D01*
X133592754Y-85828768D01*
X133591063Y-85830245D01*
X133590661Y-85830498D01*
X133575314Y-85839226D01*
X133574451Y-85839672D01*
X133571525Y-85840652D01*
X133566753Y-85843574D01*
X133566752Y-85843574D01*
X133556187Y-85850042D01*
X133553432Y-85851668D01*
X133542780Y-85857725D01*
X133542776Y-85857728D01*
X133537947Y-85860474D01*
X133535668Y-85862560D01*
X133534877Y-85863089D01*
X133521019Y-85871574D01*
X133520726Y-85871735D01*
X133518887Y-85872392D01*
X133514959Y-85874906D01*
X133502164Y-85883095D01*
X133500488Y-85884144D01*
X133487691Y-85891978D01*
X133487686Y-85891982D01*
X133483721Y-85894409D01*
X133482326Y-85895771D01*
X133482039Y-85895974D01*
X133476204Y-85899708D01*
X133467487Y-85905287D01*
X133467219Y-85905442D01*
X133465509Y-85906089D01*
X133448841Y-85917201D01*
X133447366Y-85918165D01*
X133430564Y-85928918D01*
X133429279Y-85930224D01*
X133429024Y-85930412D01*
X133415588Y-85939369D01*
X133414974Y-85939742D01*
X133412456Y-85940778D01*
X133407894Y-85944009D01*
X133407891Y-85944011D01*
X133397289Y-85951521D01*
X133394984Y-85953105D01*
X133379651Y-85963327D01*
X133377777Y-85965304D01*
X133377195Y-85965754D01*
X133362092Y-85976452D01*
X133360108Y-85977763D01*
X133356108Y-85979636D01*
X133351700Y-85983086D01*
X133351698Y-85983087D01*
X133343776Y-85989287D01*
X133339985Y-85992111D01*
X133331861Y-85997865D01*
X133331858Y-85997867D01*
X133327327Y-86001077D01*
X133324380Y-86004369D01*
X133322556Y-86005894D01*
X133274277Y-86043677D01*
X133265163Y-86050810D01*
X133262501Y-86052893D01*
X133262080Y-86053193D01*
X133259985Y-86054237D01*
X133255848Y-86057639D01*
X133255846Y-86057640D01*
X133245151Y-86066434D01*
X133243317Y-86067907D01*
X133228277Y-86079677D01*
X133226802Y-86081491D01*
X133226417Y-86081837D01*
X133221940Y-86085519D01*
X133212826Y-86093013D01*
X133211617Y-86093935D01*
X133208346Y-86095729D01*
X133204164Y-86099455D01*
X133195732Y-86106967D01*
X133192753Y-86109516D01*
X133184142Y-86116596D01*
X133184134Y-86116604D01*
X133179841Y-86120134D01*
X133177561Y-86123082D01*
X133176463Y-86124134D01*
X133167889Y-86131773D01*
X133160359Y-86136790D01*
X133160433Y-86136883D01*
X133151705Y-86143825D01*
X133141657Y-86148650D01*
X133134696Y-86157355D01*
X133134693Y-86157357D01*
X133125459Y-86168904D01*
X133123148Y-86171633D01*
X133119374Y-86174995D01*
X133111610Y-86185899D01*
X133111118Y-86186590D01*
X133107793Y-86190994D01*
X133098003Y-86203237D01*
X133084382Y-86220269D01*
X133083152Y-86225618D01*
X133082281Y-86227090D01*
X133080594Y-86229459D01*
X133031439Y-86265891D01*
X132970256Y-86266473D01*
X132919206Y-86229312D01*
X132917861Y-86227416D01*
X132916996Y-86225949D01*
X132915774Y-86220593D01*
X132892430Y-86191298D01*
X132889108Y-86186882D01*
X132884004Y-86179688D01*
X132884003Y-86179686D01*
X132880759Y-86175114D01*
X132876980Y-86171747D01*
X132874703Y-86169052D01*
X132865573Y-86157594D01*
X132865572Y-86157593D01*
X132858625Y-86148875D01*
X132848584Y-86144032D01*
X132839871Y-86137076D01*
X132839912Y-86137025D01*
X132832314Y-86131953D01*
X132823670Y-86124252D01*
X132822574Y-86123201D01*
X132820298Y-86120248D01*
X132809880Y-86111682D01*
X132807228Y-86109501D01*
X132804273Y-86106972D01*
X132791787Y-86095848D01*
X132788522Y-86094050D01*
X132787315Y-86093128D01*
X132773725Y-86081954D01*
X132773334Y-86081602D01*
X132771864Y-86079787D01*
X132756698Y-86067917D01*
X132754895Y-86066472D01*
X132740153Y-86054351D01*
X132738066Y-86053306D01*
X132737638Y-86053001D01*
X132718970Y-86038392D01*
X132718969Y-86038391D01*
X132677575Y-86005996D01*
X132675759Y-86004476D01*
X132672819Y-86001181D01*
X132659988Y-85992092D01*
X132656271Y-85989323D01*
X132644033Y-85979746D01*
X132640036Y-85977865D01*
X132638053Y-85976555D01*
X132622931Y-85965843D01*
X132622370Y-85965409D01*
X132620498Y-85963427D01*
X132615849Y-85960328D01*
X132615847Y-85960326D01*
X132612241Y-85957922D01*
X132604997Y-85953093D01*
X132602718Y-85951526D01*
X132596069Y-85946816D01*
X132587690Y-85940881D01*
X132585173Y-85939841D01*
X132584552Y-85939463D01*
X132571121Y-85930509D01*
X132570866Y-85930321D01*
X132569586Y-85929015D01*
X132565860Y-85926630D01*
X132565850Y-85926623D01*
X132552701Y-85918208D01*
X132551153Y-85917197D01*
X132538325Y-85908645D01*
X132534640Y-85906188D01*
X132532929Y-85905536D01*
X132532658Y-85905381D01*
X132518114Y-85896072D01*
X132517823Y-85895866D01*
X132516431Y-85894502D01*
X132505074Y-85887549D01*
X132499546Y-85884164D01*
X132497876Y-85883119D01*
X132485183Y-85874996D01*
X132485181Y-85874995D01*
X132481264Y-85872488D01*
X132479430Y-85871829D01*
X132479110Y-85871653D01*
X132465289Y-85863191D01*
X132464484Y-85862653D01*
X132462209Y-85860562D01*
X132457346Y-85857797D01*
X132457342Y-85857794D01*
X132446560Y-85851663D01*
X132443806Y-85850037D01*
X132433370Y-85843648D01*
X132433363Y-85843645D01*
X132428627Y-85840745D01*
X132425704Y-85839760D01*
X132424847Y-85839317D01*
X132409496Y-85830588D01*
X132409088Y-85830331D01*
X132407403Y-85828853D01*
X132402692Y-85826316D01*
X132390325Y-85819656D01*
X132388331Y-85818552D01*
X132376162Y-85811633D01*
X132376156Y-85811630D01*
X132371657Y-85809072D01*
X132369512Y-85808425D01*
X132369076Y-85808215D01*
X132354202Y-85800206D01*
X132354021Y-85800097D01*
X132352894Y-85799138D01*
X132334610Y-85789644D01*
X132333340Y-85788972D01*
X132318637Y-85781055D01*
X132318628Y-85781051D01*
X132315343Y-85779282D01*
X132313917Y-85778888D01*
X132313719Y-85778797D01*
X132298729Y-85771014D01*
X132297975Y-85770582D01*
X132295675Y-85768744D01*
X132290508Y-85766260D01*
X132279235Y-85760840D01*
X132276512Y-85759478D01*
X132265446Y-85753732D01*
X132265442Y-85753731D01*
X132260513Y-85751171D01*
X132257658Y-85750428D01*
X132256878Y-85750091D01*
X132253861Y-85748641D01*
X132241505Y-85742701D01*
X132240800Y-85742325D01*
X132238504Y-85740600D01*
X132233385Y-85738325D01*
X132233380Y-85738322D01*
X132221722Y-85733141D01*
X132219098Y-85731928D01*
X132202670Y-85724030D01*
X132199873Y-85723393D01*
X132199115Y-85723093D01*
X132182240Y-85715593D01*
X132181440Y-85715198D01*
X132178988Y-85713473D01*
X132162149Y-85706613D01*
X132159353Y-85705421D01*
X132142927Y-85698121D01*
X132139987Y-85697543D01*
X132139133Y-85697235D01*
X132123653Y-85690928D01*
X132123436Y-85690827D01*
X132122138Y-85689945D01*
X132118483Y-85688524D01*
X132118473Y-85688519D01*
X132103093Y-85682538D01*
X132101623Y-85681953D01*
X132086485Y-85675786D01*
X132086477Y-85675783D01*
X132082851Y-85674306D01*
X132081298Y-85674051D01*
X132081084Y-85673980D01*
X132066358Y-85668253D01*
X132065965Y-85668079D01*
X132064154Y-85666906D01*
X132059427Y-85665187D01*
X132059418Y-85665183D01*
X132045776Y-85660222D01*
X132043734Y-85659454D01*
X132039413Y-85657774D01*
X132025732Y-85652454D01*
X132023599Y-85652139D01*
X132023198Y-85652013D01*
X132006572Y-85645968D01*
X132005318Y-85645457D01*
X132002251Y-85643631D01*
X131996931Y-85641921D01*
X131996920Y-85641916D01*
X131985881Y-85638368D01*
X131982346Y-85637158D01*
X131981108Y-85636708D01*
X131966395Y-85631358D01*
X131962859Y-85630915D01*
X131961551Y-85630548D01*
X131944858Y-85625183D01*
X131944627Y-85625096D01*
X131943241Y-85624301D01*
X131939441Y-85623147D01*
X131939437Y-85623146D01*
X131923676Y-85618362D01*
X131922136Y-85617880D01*
X131906721Y-85612925D01*
X131902935Y-85611708D01*
X131901340Y-85611570D01*
X131901108Y-85611511D01*
X131892886Y-85609015D01*
X131885816Y-85606868D01*
X131885595Y-85606789D01*
X131884179Y-85606008D01*
X131880329Y-85604908D01*
X131880326Y-85604907D01*
X131876644Y-85603855D01*
X131864535Y-85600396D01*
X131863072Y-85599965D01*
X131843704Y-85594085D01*
X131842094Y-85593971D01*
X131841855Y-85593915D01*
X131825548Y-85589256D01*
X131824285Y-85588843D01*
X131821123Y-85587249D01*
X131815686Y-85585914D01*
X131815684Y-85585913D01*
X131804380Y-85583137D01*
X131800824Y-85582193D01*
X131784431Y-85577509D01*
X131780894Y-85577317D01*
X131779604Y-85577051D01*
X131767959Y-85574191D01*
X131762668Y-85572892D01*
X131762432Y-85572822D01*
X131760962Y-85572111D01*
X131741031Y-85567565D01*
X131739559Y-85567216D01*
X131723863Y-85563361D01*
X131719938Y-85562397D01*
X131718309Y-85562370D01*
X131718054Y-85562325D01*
X131712291Y-85561010D01*
X131701443Y-85558535D01*
X131700437Y-85558263D01*
X131697512Y-85556969D01*
X131692022Y-85555909D01*
X131692020Y-85555909D01*
X131680033Y-85553596D01*
X131676819Y-85552920D01*
X131659602Y-85548993D01*
X131656401Y-85548993D01*
X131655356Y-85548834D01*
X131638804Y-85545639D01*
X131638452Y-85545554D01*
X131636658Y-85544803D01*
X131616984Y-85541410D01*
X131615153Y-85541075D01*
X131600396Y-85538227D01*
X131600386Y-85538226D01*
X131595837Y-85537348D01*
X131593896Y-85537413D01*
X131593544Y-85537369D01*
X131577375Y-85534581D01*
X131577203Y-85534543D01*
X131575908Y-85534022D01*
X131558854Y-85531329D01*
X131555530Y-85530804D01*
X131554153Y-85530577D01*
X131537321Y-85527675D01*
X131537315Y-85527674D01*
X131533821Y-85527072D01*
X131532428Y-85527146D01*
X131532230Y-85527125D01*
X131516246Y-85524602D01*
X131515008Y-85524358D01*
X131511758Y-85523185D01*
X131496767Y-85521376D01*
X131494506Y-85521103D01*
X131490945Y-85520607D01*
X131473966Y-85517926D01*
X131470516Y-85518160D01*
X131469277Y-85518058D01*
X131451108Y-85515865D01*
X131449950Y-85515680D01*
X131446730Y-85514646D01*
X131441144Y-85514173D01*
X131441141Y-85514172D01*
X131429292Y-85513168D01*
X131425792Y-85512809D01*
X131414107Y-85511399D01*
X131414105Y-85511399D01*
X131408587Y-85510733D01*
X131405235Y-85511084D01*
X131404038Y-85511028D01*
X131396437Y-85510384D01*
X131386306Y-85509525D01*
X131386090Y-85509496D01*
X131384614Y-85509048D01*
X131380767Y-85508783D01*
X131380762Y-85508782D01*
X131364226Y-85507642D01*
X131362676Y-85507523D01*
X131362582Y-85507515D01*
X131342394Y-85505804D01*
X131340862Y-85506020D01*
X131340638Y-85506015D01*
X131325082Y-85504942D01*
X131324815Y-85504911D01*
X131323192Y-85504448D01*
X131319045Y-85504234D01*
X131319040Y-85504233D01*
X131302944Y-85503401D01*
X131301244Y-85503298D01*
X131285369Y-85502203D01*
X131281223Y-85501917D01*
X131279557Y-85502178D01*
X131279289Y-85502177D01*
X131262566Y-85501312D01*
X131261446Y-85501210D01*
X131258242Y-85500416D01*
X131252652Y-85500321D01*
X131252650Y-85500321D01*
X131240611Y-85500117D01*
X131237178Y-85499999D01*
X131225309Y-85499385D01*
X131225306Y-85499385D01*
X131219753Y-85499098D01*
X131216501Y-85499665D01*
X131215374Y-85499690D01*
X131205277Y-85499519D01*
X131197717Y-85499390D01*
X131197462Y-85499373D01*
X131195839Y-85499000D01*
X131175548Y-85499000D01*
X131173870Y-85498986D01*
X131173848Y-85498986D01*
X131153750Y-85498645D01*
X131152122Y-85498987D01*
X131151856Y-85499000D01*
X131124941Y-85499000D01*
X131122886Y-85498930D01*
X131118757Y-85498175D01*
X131102725Y-85498898D01*
X131102707Y-85498899D01*
X131098246Y-85499000D01*
X131082340Y-85499000D01*
X131078252Y-85499932D01*
X131076173Y-85500096D01*
X131008819Y-85503134D01*
X130982888Y-85504304D01*
X130981002Y-85504323D01*
X130976989Y-85503768D01*
X130971418Y-85504262D01*
X130971411Y-85504262D01*
X130960714Y-85505211D01*
X130956434Y-85505497D01*
X130945860Y-85505974D01*
X130945857Y-85505975D01*
X130940305Y-85506225D01*
X130936398Y-85507304D01*
X130934520Y-85507536D01*
X130913183Y-85509429D01*
X130851132Y-85514933D01*
X130846367Y-85515240D01*
X130845471Y-85515276D01*
X130839887Y-85514869D01*
X130834353Y-85515724D01*
X130834349Y-85515724D01*
X130826908Y-85516873D01*
X130820550Y-85517645D01*
X130813210Y-85518296D01*
X130813199Y-85518298D01*
X130807668Y-85518789D01*
X130802382Y-85520499D01*
X130801333Y-85520712D01*
X130796716Y-85521538D01*
X130786197Y-85523163D01*
X130714119Y-85534297D01*
X130712638Y-85534470D01*
X130708923Y-85534346D01*
X130703430Y-85535418D01*
X130703426Y-85535418D01*
X130692305Y-85537588D01*
X130688465Y-85538259D01*
X130677408Y-85539967D01*
X130677406Y-85539968D01*
X130671921Y-85540815D01*
X130668465Y-85542185D01*
X130667029Y-85542520D01*
X130583418Y-85558835D01*
X130579489Y-85559490D01*
X130574240Y-85559620D01*
X130568816Y-85561010D01*
X130568813Y-85561010D01*
X130560543Y-85563129D01*
X130554956Y-85564389D01*
X130541266Y-85567060D01*
X130536473Y-85569183D01*
X130532607Y-85570286D01*
X130450440Y-85591337D01*
X130447773Y-85591932D01*
X130443131Y-85592283D01*
X130428575Y-85596809D01*
X130423781Y-85598168D01*
X130409164Y-85601912D01*
X130405021Y-85604043D01*
X130402394Y-85604949D01*
X130360804Y-85617880D01*
X130321396Y-85630133D01*
X130318727Y-85630872D01*
X130314100Y-85631459D01*
X130308845Y-85633390D01*
X130308842Y-85633391D01*
X130299816Y-85636708D01*
X130295065Y-85638319D01*
X130288355Y-85640406D01*
X130280684Y-85642791D01*
X130276654Y-85645130D01*
X130274053Y-85646178D01*
X130194930Y-85675257D01*
X130190571Y-85676732D01*
X130185182Y-85677753D01*
X130175805Y-85681866D01*
X130172666Y-85683242D01*
X130167062Y-85685498D01*
X130159613Y-85688236D01*
X130159607Y-85688239D01*
X130154394Y-85690155D01*
X130149804Y-85693139D01*
X130145562Y-85695130D01*
X130068537Y-85728913D01*
X130066829Y-85729592D01*
X130062902Y-85730513D01*
X130057875Y-85732982D01*
X130057874Y-85732982D01*
X130054444Y-85734667D01*
X130048215Y-85737726D01*
X130044348Y-85739522D01*
X130034604Y-85743795D01*
X130034600Y-85743798D01*
X130029514Y-85746028D01*
X130026274Y-85748429D01*
X130024633Y-85749306D01*
X129948397Y-85786743D01*
X129945483Y-85788068D01*
X129940770Y-85789445D01*
X129927855Y-85796673D01*
X129923171Y-85799131D01*
X129910061Y-85805569D01*
X129906259Y-85808648D01*
X129903461Y-85810323D01*
X129850978Y-85839695D01*
X129829263Y-85851848D01*
X129826792Y-85853131D01*
X129822370Y-85854672D01*
X129815878Y-85858753D01*
X129809508Y-85862757D01*
X129805170Y-85865332D01*
X129792066Y-85872665D01*
X129788596Y-85875798D01*
X129786240Y-85877382D01*
X129715013Y-85922153D01*
X129712268Y-85923767D01*
X129707745Y-85925619D01*
X129700818Y-85930509D01*
X129695649Y-85934158D01*
X129691239Y-85937097D01*
X129683556Y-85941926D01*
X129683553Y-85941928D01*
X129678849Y-85944885D01*
X129675397Y-85948337D01*
X129672818Y-85950273D01*
X129603361Y-85999301D01*
X129601527Y-86000506D01*
X129597626Y-86002319D01*
X129585091Y-86012069D01*
X129581413Y-86014794D01*
X129573119Y-86020648D01*
X129573114Y-86020652D01*
X129568574Y-86023857D01*
X129565699Y-86027058D01*
X129563977Y-86028490D01*
X129496518Y-86080957D01*
X129493579Y-86083112D01*
X129489080Y-86085519D01*
X129480490Y-86093013D01*
X129478252Y-86094965D01*
X129473953Y-86098507D01*
X129467094Y-86103842D01*
X129467089Y-86103847D01*
X129462711Y-86107252D01*
X129459483Y-86111199D01*
X129456746Y-86113725D01*
X129393324Y-86169052D01*
X129392926Y-86169399D01*
X129390763Y-86171170D01*
X129386753Y-86173586D01*
X129382725Y-86177479D01*
X129382723Y-86177480D01*
X129375826Y-86184145D01*
X129372110Y-86187557D01*
X129360793Y-86197429D01*
X129358041Y-86201210D01*
X129356078Y-86203227D01*
X129295683Y-86261585D01*
X129293602Y-86263475D01*
X129289702Y-86266106D01*
X129279361Y-86277177D01*
X129275822Y-86280776D01*
X129269026Y-86287343D01*
X129269023Y-86287346D01*
X129265033Y-86291202D01*
X129262467Y-86295133D01*
X129260559Y-86297305D01*
X129202745Y-86359200D01*
X129200817Y-86361139D01*
X129197106Y-86363925D01*
X129187248Y-86375609D01*
X129183949Y-86379324D01*
X129173644Y-86390356D01*
X129171313Y-86394362D01*
X129169591Y-86396535D01*
X129114295Y-86462072D01*
X129112266Y-86464334D01*
X129108576Y-86467420D01*
X129105115Y-86471989D01*
X129099539Y-86479349D01*
X129096294Y-86483405D01*
X129090351Y-86490449D01*
X129090348Y-86490453D01*
X129086765Y-86494700D01*
X129084563Y-86498965D01*
X129082782Y-86501468D01*
X129031966Y-86568545D01*
X129029709Y-86571354D01*
X129026005Y-86574820D01*
X129022883Y-86579458D01*
X129022879Y-86579463D01*
X129017924Y-86586825D01*
X129014721Y-86591308D01*
X129006101Y-86602687D01*
X129004014Y-86607311D01*
X129002085Y-86610359D01*
X128954396Y-86681211D01*
X128952894Y-86683296D01*
X128949736Y-86686558D01*
X128941753Y-86699780D01*
X128939134Y-86703886D01*
X128930600Y-86716565D01*
X128928967Y-86720799D01*
X128927693Y-86723067D01*
X128884260Y-86795002D01*
X128882744Y-86797345D01*
X128879666Y-86800867D01*
X128876957Y-86805919D01*
X128872482Y-86814262D01*
X128869989Y-86818638D01*
X128869978Y-86818657D01*
X128862219Y-86831508D01*
X128860755Y-86835941D01*
X128859500Y-86838465D01*
X128819357Y-86913308D01*
X128817747Y-86916107D01*
X128814720Y-86919970D01*
X128812344Y-86925037D01*
X128812338Y-86925046D01*
X128808438Y-86933363D01*
X128806053Y-86938112D01*
X128799160Y-86950963D01*
X128797862Y-86955691D01*
X128796568Y-86958673D01*
X128760504Y-87035564D01*
X128759656Y-87037219D01*
X128757306Y-87040501D01*
X128750985Y-87055644D01*
X128749275Y-87059504D01*
X128742400Y-87074163D01*
X128741544Y-87078097D01*
X128740885Y-87079844D01*
X128708418Y-87157629D01*
X128706538Y-87161822D01*
X128703630Y-87166456D01*
X128701792Y-87171745D01*
X128701791Y-87171748D01*
X128699140Y-87179378D01*
X128696987Y-87185016D01*
X128693921Y-87192362D01*
X128691781Y-87197489D01*
X128690851Y-87202871D01*
X128689436Y-87207308D01*
X128661689Y-87287166D01*
X128660705Y-87289736D01*
X128658435Y-87293795D01*
X128656867Y-87299172D01*
X128656865Y-87299176D01*
X128654164Y-87308435D01*
X128652648Y-87313187D01*
X128647697Y-87327435D01*
X128647186Y-87332056D01*
X128646488Y-87334753D01*
X128622624Y-87416575D01*
X128621855Y-87418928D01*
X128619859Y-87422943D01*
X128618554Y-87428388D01*
X128618552Y-87428393D01*
X128616233Y-87438067D01*
X128615003Y-87442702D01*
X128610695Y-87457474D01*
X128610428Y-87461948D01*
X128609919Y-87464416D01*
X128590270Y-87546397D01*
X128589225Y-87550287D01*
X128587161Y-87555128D01*
X128586175Y-87560639D01*
X128586174Y-87560643D01*
X128584679Y-87569003D01*
X128583501Y-87574642D01*
X128580254Y-87588189D01*
X128580196Y-87593442D01*
X128579585Y-87597482D01*
X128564650Y-87680980D01*
X128564158Y-87683293D01*
X128562625Y-87687424D01*
X128561904Y-87692968D01*
X128561903Y-87692972D01*
X128560602Y-87702979D01*
X128559882Y-87707643D01*
X128557150Y-87722916D01*
X128557358Y-87727319D01*
X128557128Y-87729687D01*
X128546252Y-87813287D01*
X128545835Y-87815853D01*
X128544461Y-87820205D01*
X128544015Y-87825783D01*
X128543233Y-87835559D01*
X128542721Y-87840436D01*
X128541472Y-87850034D01*
X128541472Y-87850041D01*
X128540756Y-87855543D01*
X128541188Y-87860082D01*
X128541061Y-87862705D01*
X128534240Y-87947973D01*
X128533885Y-87951203D01*
X128532658Y-87955972D01*
X128532513Y-87961574D01*
X128532513Y-87961575D01*
X128532277Y-87970698D01*
X128531995Y-87976031D01*
X128530833Y-87990559D01*
X128531541Y-87995426D01*
X128531552Y-87998738D01*
X128529584Y-88074817D01*
X128529420Y-88077719D01*
X128528477Y-88082365D01*
X128528626Y-88088097D01*
X128528867Y-88097428D01*
X128528867Y-88102540D01*
X128528481Y-88117456D01*
X128529416Y-88122103D01*
X128529581Y-88125045D01*
X128531548Y-88201123D01*
X128531536Y-88204390D01*
X128530819Y-88209263D01*
X128531276Y-88214977D01*
X128531994Y-88223956D01*
X128532276Y-88229286D01*
X128532653Y-88243849D01*
X128533871Y-88248615D01*
X128534230Y-88251901D01*
X128541048Y-88337136D01*
X128541173Y-88339738D01*
X128540733Y-88344280D01*
X128541455Y-88349830D01*
X128542720Y-88359553D01*
X128543231Y-88364422D01*
X128544447Y-88379616D01*
X128545811Y-88383962D01*
X128546234Y-88386575D01*
X128557107Y-88470161D01*
X128557335Y-88472509D01*
X128557119Y-88476907D01*
X128558104Y-88482412D01*
X128558104Y-88482419D01*
X128559879Y-88492345D01*
X128560597Y-88496996D01*
X128561884Y-88506883D01*
X128562602Y-88512398D01*
X128564128Y-88516531D01*
X128564625Y-88518873D01*
X128579562Y-88602387D01*
X128580163Y-88606378D01*
X128580212Y-88611637D01*
X128581515Y-88617073D01*
X128581516Y-88617082D01*
X128583504Y-88625376D01*
X128584683Y-88631013D01*
X128587130Y-88644696D01*
X128589182Y-88649532D01*
X128590234Y-88653451D01*
X128609888Y-88735456D01*
X128610386Y-88737876D01*
X128610645Y-88742355D01*
X128615008Y-88757313D01*
X128616233Y-88761931D01*
X128619817Y-88776883D01*
X128621803Y-88780896D01*
X128622581Y-88783280D01*
X128646444Y-88865095D01*
X128647134Y-88867769D01*
X128647638Y-88872396D01*
X128652653Y-88886831D01*
X128654161Y-88891554D01*
X128658385Y-88906034D01*
X128660648Y-88910099D01*
X128661633Y-88912674D01*
X128689403Y-88992596D01*
X128690789Y-88996947D01*
X128691712Y-89002345D01*
X128696984Y-89014975D01*
X128699132Y-89020600D01*
X128701746Y-89028124D01*
X128701751Y-89028135D01*
X128703572Y-89033375D01*
X128706467Y-89038006D01*
X128708373Y-89042263D01*
X128740817Y-89119994D01*
X128741473Y-89121735D01*
X128742324Y-89125675D01*
X128744700Y-89130741D01*
X128744703Y-89130750D01*
X128749273Y-89140494D01*
X128751001Y-89144394D01*
X128755096Y-89154205D01*
X128755098Y-89154209D01*
X128757237Y-89159333D01*
X128759578Y-89162614D01*
X128760430Y-89164280D01*
X128760499Y-89164425D01*
X128796500Y-89241183D01*
X128797783Y-89244144D01*
X128799075Y-89248879D01*
X128801723Y-89253816D01*
X128806051Y-89261886D01*
X128808437Y-89266636D01*
X128812284Y-89274838D01*
X128812287Y-89274842D01*
X128814644Y-89279868D01*
X128817660Y-89283732D01*
X128819290Y-89286568D01*
X128859426Y-89361399D01*
X128860669Y-89363900D01*
X128862126Y-89368339D01*
X128865021Y-89373134D01*
X128869990Y-89381364D01*
X128872463Y-89385705D01*
X128879581Y-89398975D01*
X128882652Y-89402501D01*
X128884166Y-89404843D01*
X128927627Y-89476825D01*
X128928871Y-89479044D01*
X128930500Y-89483287D01*
X128933626Y-89487932D01*
X128933627Y-89487933D01*
X128939131Y-89496110D01*
X128941743Y-89500204D01*
X128949643Y-89513289D01*
X128952793Y-89516554D01*
X128954302Y-89518650D01*
X129002001Y-89589518D01*
X129003912Y-89592540D01*
X129005993Y-89597171D01*
X129009374Y-89601634D01*
X129014718Y-89608688D01*
X129017925Y-89613176D01*
X129025905Y-89625032D01*
X129029605Y-89628507D01*
X129031863Y-89631319D01*
X129082692Y-89698413D01*
X129084449Y-89700884D01*
X129086649Y-89705163D01*
X129090264Y-89709447D01*
X129096298Y-89716598D01*
X129099532Y-89720641D01*
X129108468Y-89732437D01*
X129112149Y-89735526D01*
X129114183Y-89737795D01*
X129169509Y-89803368D01*
X129171193Y-89805496D01*
X129173522Y-89809513D01*
X129177349Y-89813610D01*
X129177351Y-89813613D01*
X129183942Y-89820670D01*
X129187243Y-89824386D01*
X129196990Y-89835938D01*
X129200696Y-89838730D01*
X129202646Y-89840693D01*
X129260466Y-89902595D01*
X129262340Y-89904730D01*
X129264904Y-89908673D01*
X129268926Y-89912559D01*
X129268929Y-89912563D01*
X129275802Y-89919204D01*
X129279352Y-89922813D01*
X129289579Y-89933763D01*
X129293472Y-89936399D01*
X129295578Y-89938313D01*
X129355970Y-89996669D01*
X129357908Y-89998662D01*
X129360658Y-90002454D01*
X129364876Y-90006134D01*
X129364882Y-90006140D01*
X129372110Y-90012445D01*
X129375824Y-90015855D01*
X129382624Y-90022426D01*
X129382630Y-90022431D01*
X129386624Y-90026290D01*
X129390623Y-90028709D01*
X129392822Y-90030512D01*
X129445743Y-90076677D01*
X129456655Y-90086196D01*
X129459345Y-90088680D01*
X129462570Y-90092638D01*
X129466989Y-90096075D01*
X129466990Y-90096076D01*
X129473928Y-90101472D01*
X129478228Y-90105015D01*
X129484760Y-90110714D01*
X129484765Y-90110717D01*
X129488945Y-90114364D01*
X129493439Y-90116779D01*
X129496420Y-90118966D01*
X129563867Y-90171426D01*
X129565556Y-90172832D01*
X129568428Y-90176040D01*
X129573000Y-90179268D01*
X129573004Y-90179271D01*
X129581401Y-90185198D01*
X129585064Y-90187912D01*
X129597484Y-90197572D01*
X129601383Y-90199393D01*
X129603248Y-90200619D01*
X129654325Y-90236673D01*
X129672694Y-90249639D01*
X129675247Y-90251558D01*
X129678697Y-90255020D01*
X129683435Y-90257998D01*
X129683436Y-90257999D01*
X129691249Y-90262910D01*
X129695652Y-90265845D01*
X129707599Y-90274278D01*
X129712109Y-90276133D01*
X129714881Y-90277764D01*
X129786128Y-90322548D01*
X129788440Y-90324104D01*
X129791909Y-90327247D01*
X129796797Y-90329983D01*
X129796802Y-90329986D01*
X129805168Y-90334668D01*
X129809508Y-90337244D01*
X129813139Y-90339526D01*
X129822218Y-90345233D01*
X129826637Y-90346781D01*
X129829144Y-90348085D01*
X129888777Y-90381457D01*
X129903333Y-90389603D01*
X129906094Y-90391257D01*
X129909901Y-90394352D01*
X129914933Y-90396823D01*
X129914936Y-90396825D01*
X129923164Y-90400866D01*
X129927864Y-90403332D01*
X129940614Y-90410467D01*
X129945313Y-90411848D01*
X129948277Y-90413197D01*
X130024493Y-90450625D01*
X130026111Y-90451491D01*
X130029350Y-90453900D01*
X130034478Y-90456149D01*
X130034481Y-90456151D01*
X130044357Y-90460483D01*
X130048226Y-90462281D01*
X130057750Y-90466958D01*
X130057757Y-90466960D01*
X130062741Y-90469408D01*
X130066659Y-90470334D01*
X130068395Y-90471025D01*
X130145454Y-90504823D01*
X130149637Y-90506788D01*
X130154226Y-90509783D01*
X130167065Y-90514502D01*
X130172642Y-90516747D01*
X130185018Y-90522175D01*
X130190400Y-90523205D01*
X130194844Y-90524712D01*
X130273911Y-90553770D01*
X130276483Y-90554807D01*
X130280513Y-90557155D01*
X130285863Y-90558819D01*
X130285864Y-90558819D01*
X130295040Y-90561673D01*
X130299789Y-90563282D01*
X130307271Y-90566031D01*
X130313932Y-90568479D01*
X130318552Y-90569073D01*
X130321262Y-90569825D01*
X130402254Y-90595008D01*
X130404855Y-90595907D01*
X130408991Y-90598043D01*
X130414412Y-90599432D01*
X130414413Y-90599432D01*
X130415904Y-90599814D01*
X130423747Y-90601823D01*
X130428568Y-90603189D01*
X130433756Y-90604802D01*
X130442960Y-90607664D01*
X130447598Y-90608023D01*
X130450313Y-90608630D01*
X130532473Y-90629679D01*
X130536288Y-90630769D01*
X130541090Y-90632906D01*
X130546589Y-90633979D01*
X130546593Y-90633980D01*
X130554945Y-90635609D01*
X130560553Y-90636872D01*
X130574066Y-90640335D01*
X130579306Y-90640474D01*
X130583293Y-90641141D01*
X130666838Y-90657442D01*
X130668295Y-90657782D01*
X130671744Y-90659157D01*
X130677278Y-90660012D01*
X130688463Y-90661740D01*
X130692302Y-90662411D01*
X130699570Y-90663829D01*
X130708747Y-90665619D01*
X130712455Y-90665502D01*
X130713956Y-90665678D01*
X130796589Y-90678443D01*
X130801291Y-90679286D01*
X130802168Y-90679465D01*
X130807489Y-90681196D01*
X130820540Y-90682354D01*
X130820574Y-90682357D01*
X130826923Y-90683128D01*
X130839710Y-90685103D01*
X130845247Y-90684709D01*
X130846321Y-90684753D01*
X130851000Y-90685056D01*
X130908038Y-90690115D01*
X130934374Y-90692452D01*
X130936219Y-90692680D01*
X130940126Y-90693766D01*
X130956460Y-90694503D01*
X130960699Y-90694787D01*
X130971273Y-90695725D01*
X130971276Y-90695725D01*
X130976811Y-90696216D01*
X130980823Y-90695667D01*
X130982736Y-90695688D01*
X131076020Y-90699897D01*
X131078069Y-90700059D01*
X131082161Y-90701000D01*
X131098246Y-90701000D01*
X131102707Y-90701101D01*
X131118578Y-90701817D01*
X131122705Y-90701069D01*
X131124781Y-90701000D01*
X131151681Y-90701000D01*
X131151943Y-90701013D01*
X131153571Y-90701358D01*
X131173868Y-90701014D01*
X131175546Y-90701000D01*
X131227660Y-90701000D01*
X131227660Y-90701358D01*
X131230620Y-90701964D01*
X131230536Y-90700344D01*
X131237171Y-90700001D01*
X131240604Y-90699883D01*
X131242861Y-90699845D01*
X131258063Y-90699587D01*
X131261269Y-90698798D01*
X131262392Y-90698697D01*
X131274666Y-90698062D01*
X131279105Y-90697832D01*
X131279379Y-90697831D01*
X131281044Y-90698095D01*
X131285177Y-90697810D01*
X131285197Y-90697810D01*
X131301286Y-90696700D01*
X131302962Y-90696598D01*
X131310352Y-90696216D01*
X131318881Y-90695775D01*
X131318885Y-90695775D01*
X131323013Y-90695561D01*
X131324630Y-90695103D01*
X131324898Y-90695072D01*
X131340462Y-90693998D01*
X131340687Y-90693993D01*
X131342216Y-90694211D01*
X131346061Y-90693885D01*
X131346068Y-90693885D01*
X131362580Y-90692485D01*
X131364131Y-90692365D01*
X131364233Y-90692358D01*
X131384436Y-90690965D01*
X131385912Y-90690519D01*
X131386144Y-90690488D01*
X131403887Y-90688985D01*
X131405055Y-90688931D01*
X131408409Y-90689288D01*
X131413968Y-90688617D01*
X131413975Y-90688617D01*
X131425759Y-90687194D01*
X131429258Y-90686834D01*
X131433577Y-90686468D01*
X131441021Y-90685838D01*
X131441024Y-90685837D01*
X131446552Y-90685369D01*
X131449768Y-90684343D01*
X131450950Y-90684154D01*
X131469100Y-90681964D01*
X131470339Y-90681862D01*
X131473789Y-90682102D01*
X131479317Y-90681229D01*
X131479320Y-90681229D01*
X131490934Y-90679395D01*
X131494509Y-90678897D01*
X131511581Y-90676837D01*
X131514839Y-90675669D01*
X131516070Y-90675426D01*
X131532061Y-90672901D01*
X131532251Y-90672880D01*
X131533644Y-90672958D01*
X131539505Y-90671948D01*
X131554105Y-90669431D01*
X131555480Y-90669204D01*
X131572224Y-90666560D01*
X131572227Y-90666559D01*
X131575731Y-90666006D01*
X131577028Y-90665486D01*
X131577201Y-90665448D01*
X131593370Y-90662660D01*
X131593715Y-90662617D01*
X131595662Y-90662686D01*
X131600229Y-90661805D01*
X131600234Y-90661804D01*
X131609409Y-90660033D01*
X131615162Y-90658923D01*
X131617055Y-90658576D01*
X131626085Y-90657020D01*
X131631912Y-90656015D01*
X131631913Y-90656015D01*
X131636482Y-90655227D01*
X131638274Y-90654480D01*
X131638621Y-90654396D01*
X131655204Y-90651196D01*
X131656227Y-90651040D01*
X131659427Y-90651046D01*
X131664888Y-90649800D01*
X131664891Y-90649800D01*
X131676764Y-90647092D01*
X131680013Y-90646408D01*
X131697337Y-90643065D01*
X131700269Y-90641774D01*
X131701284Y-90641500D01*
X131717876Y-90637715D01*
X131718131Y-90637670D01*
X131719764Y-90637646D01*
X131723690Y-90636682D01*
X131723700Y-90636680D01*
X131739560Y-90632785D01*
X131741154Y-90632407D01*
X131749300Y-90630549D01*
X131760787Y-90627929D01*
X131762256Y-90627222D01*
X131762493Y-90627152D01*
X131779414Y-90622995D01*
X131780721Y-90622726D01*
X131784259Y-90622541D01*
X131800830Y-90617806D01*
X131804408Y-90616855D01*
X131820949Y-90612793D01*
X131824111Y-90611206D01*
X131825378Y-90610792D01*
X131841687Y-90606133D01*
X131841920Y-90606078D01*
X131843533Y-90605967D01*
X131863030Y-90600048D01*
X131864544Y-90599603D01*
X131880150Y-90595144D01*
X131880164Y-90595139D01*
X131884007Y-90594041D01*
X131885419Y-90593264D01*
X131885665Y-90593176D01*
X131893675Y-90590745D01*
X131900939Y-90588541D01*
X131901169Y-90588483D01*
X131902764Y-90588347D01*
X131906558Y-90587127D01*
X131906564Y-90587126D01*
X131922195Y-90582102D01*
X131923712Y-90581627D01*
X131943069Y-90575751D01*
X131944456Y-90574959D01*
X131944684Y-90574873D01*
X131961374Y-90569508D01*
X131962686Y-90569140D01*
X131966226Y-90568704D01*
X131971488Y-90566790D01*
X131971490Y-90566790D01*
X131982359Y-90562838D01*
X131985892Y-90561628D01*
X131996792Y-90558124D01*
X132002081Y-90556424D01*
X132005147Y-90554606D01*
X132006411Y-90554092D01*
X132023020Y-90548052D01*
X132023437Y-90547922D01*
X132025566Y-90547611D01*
X132043776Y-90540530D01*
X132045753Y-90539786D01*
X132063986Y-90533155D01*
X132065791Y-90531990D01*
X132066190Y-90531814D01*
X132080910Y-90526089D01*
X132081135Y-90526014D01*
X132082686Y-90525762D01*
X132101673Y-90518027D01*
X132103060Y-90517475D01*
X132121971Y-90510120D01*
X132123270Y-90509240D01*
X132123484Y-90509141D01*
X132138971Y-90502831D01*
X132139821Y-90502524D01*
X132142763Y-90501952D01*
X132151238Y-90498185D01*
X132159332Y-90494588D01*
X132162186Y-90493373D01*
X132173675Y-90488692D01*
X132173676Y-90488691D01*
X132178822Y-90486595D01*
X132181277Y-90484875D01*
X132182085Y-90484476D01*
X132187091Y-90482251D01*
X132198965Y-90476974D01*
X132199703Y-90476682D01*
X132202508Y-90476048D01*
X132207559Y-90473619D01*
X132207563Y-90473618D01*
X132219067Y-90468087D01*
X132221744Y-90466849D01*
X132238341Y-90459473D01*
X132240639Y-90457752D01*
X132241356Y-90457371D01*
X132256715Y-90449987D01*
X132257502Y-90449648D01*
X132260354Y-90448911D01*
X132276557Y-90440498D01*
X132279247Y-90439154D01*
X132290507Y-90433741D01*
X132290512Y-90433738D01*
X132295514Y-90431333D01*
X132297817Y-90429500D01*
X132298561Y-90429074D01*
X132313565Y-90421283D01*
X132313759Y-90421194D01*
X132315185Y-90420803D01*
X132333363Y-90411015D01*
X132334562Y-90410381D01*
X132352735Y-90400945D01*
X132353869Y-90399984D01*
X132354034Y-90399885D01*
X132368932Y-90391862D01*
X132369348Y-90391661D01*
X132371501Y-90391017D01*
X132388343Y-90381440D01*
X132390313Y-90380349D01*
X132407245Y-90371232D01*
X132408936Y-90369754D01*
X132409333Y-90369504D01*
X132424700Y-90360767D01*
X132425540Y-90360333D01*
X132428475Y-90359349D01*
X132443830Y-90349948D01*
X132446584Y-90348322D01*
X132451850Y-90345328D01*
X132462053Y-90339526D01*
X132464332Y-90337439D01*
X132465116Y-90336915D01*
X132478976Y-90328430D01*
X132479276Y-90328265D01*
X132481113Y-90327608D01*
X132485031Y-90325100D01*
X132485039Y-90325096D01*
X132497842Y-90316901D01*
X132499466Y-90315884D01*
X132516278Y-90305591D01*
X132517671Y-90304230D01*
X132517959Y-90304027D01*
X132532502Y-90294719D01*
X132532781Y-90294559D01*
X132534492Y-90293911D01*
X132551201Y-90282772D01*
X132552748Y-90281762D01*
X132565701Y-90273472D01*
X132565703Y-90273471D01*
X132569435Y-90271082D01*
X132570719Y-90269777D01*
X132570970Y-90269592D01*
X132584415Y-90260629D01*
X132585029Y-90260257D01*
X132587544Y-90259222D01*
X132602708Y-90248481D01*
X132605013Y-90246897D01*
X132620349Y-90236673D01*
X132622223Y-90234696D01*
X132622801Y-90234249D01*
X132637917Y-90223542D01*
X132639892Y-90222238D01*
X132643892Y-90220364D01*
X132656224Y-90210713D01*
X132660015Y-90207889D01*
X132668139Y-90202135D01*
X132668142Y-90202133D01*
X132672673Y-90198923D01*
X132675620Y-90195631D01*
X132677444Y-90194106D01*
X132725723Y-90156323D01*
X132725724Y-90156322D01*
X132737495Y-90147110D01*
X132737921Y-90146806D01*
X132740015Y-90145763D01*
X132744265Y-90142269D01*
X132754849Y-90133566D01*
X132756704Y-90132077D01*
X132771723Y-90120323D01*
X132773198Y-90118509D01*
X132773581Y-90118164D01*
X132787180Y-90106981D01*
X132788384Y-90106063D01*
X132791653Y-90104271D01*
X132804258Y-90093041D01*
X132807238Y-90090490D01*
X132815865Y-90083397D01*
X132815867Y-90083395D01*
X132820159Y-90079866D01*
X132822438Y-90076918D01*
X132823545Y-90075858D01*
X132832109Y-90068228D01*
X132839641Y-90063210D01*
X132839567Y-90063117D01*
X132848295Y-90056175D01*
X132858343Y-90051350D01*
X132865305Y-90042645D01*
X132865306Y-90042644D01*
X132874539Y-90031098D01*
X132876851Y-90028367D01*
X132880625Y-90025005D01*
X132883964Y-90020316D01*
X132888880Y-90013413D01*
X132892207Y-90009006D01*
X132908657Y-89988436D01*
X132908658Y-89988435D01*
X132915618Y-89979731D01*
X132916850Y-89974373D01*
X132917703Y-89972932D01*
X132919307Y-89970678D01*
X132919384Y-89970570D01*
X132968525Y-89934120D01*
X133029707Y-89933516D01*
X133080786Y-89970678D01*
X133082137Y-89972582D01*
X133083005Y-89974055D01*
X133084226Y-89979407D01*
X133091174Y-89988126D01*
X133091175Y-89988128D01*
X133107574Y-90008708D01*
X133110896Y-90013123D01*
X133115998Y-90020316D01*
X133116004Y-90020322D01*
X133119241Y-90024886D01*
X133123020Y-90028253D01*
X133125296Y-90030947D01*
X133141375Y-90051125D01*
X133151416Y-90055968D01*
X133160129Y-90062924D01*
X133160089Y-90062974D01*
X133167685Y-90068045D01*
X133176321Y-90075738D01*
X133177424Y-90076796D01*
X133179702Y-90079752D01*
X133184029Y-90083309D01*
X133184033Y-90083314D01*
X133192772Y-90090499D01*
X133195727Y-90093028D01*
X133208213Y-90104152D01*
X133211478Y-90105950D01*
X133212685Y-90106872D01*
X133226275Y-90118046D01*
X133226666Y-90118398D01*
X133228136Y-90120213D01*
X133232354Y-90123514D01*
X133243295Y-90132077D01*
X133245105Y-90133528D01*
X133259847Y-90145649D01*
X133261935Y-90146694D01*
X133262361Y-90146998D01*
X133274135Y-90156212D01*
X133274136Y-90156213D01*
X133322438Y-90194014D01*
X133324235Y-90195517D01*
X133327181Y-90198820D01*
X133339965Y-90207875D01*
X133343757Y-90210698D01*
X133355967Y-90220254D01*
X133359959Y-90222133D01*
X133361959Y-90223455D01*
X133377064Y-90234154D01*
X133377633Y-90234594D01*
X133379502Y-90236573D01*
X133394988Y-90246897D01*
X133397229Y-90248437D01*
X133412310Y-90259119D01*
X133414826Y-90260159D01*
X133415448Y-90260537D01*
X133428879Y-90269491D01*
X133429134Y-90269679D01*
X133430414Y-90270985D01*
X133434141Y-90273370D01*
X133434146Y-90273374D01*
X133447278Y-90281778D01*
X133448827Y-90282790D01*
X133461672Y-90291354D01*
X133461679Y-90291358D01*
X133465360Y-90293812D01*
X133467072Y-90294464D01*
X133467346Y-90294622D01*
X133481881Y-90303924D01*
X133482176Y-90304133D01*
X133483569Y-90305498D01*
X133492931Y-90311230D01*
X133500536Y-90315886D01*
X133502195Y-90316924D01*
X133518736Y-90327511D01*
X133520570Y-90328170D01*
X133520869Y-90328335D01*
X133532433Y-90335415D01*
X133534723Y-90336817D01*
X133535518Y-90337349D01*
X133537792Y-90339438D01*
X133553453Y-90348344D01*
X133556167Y-90349946D01*
X133571372Y-90359255D01*
X133574298Y-90360241D01*
X133575160Y-90360687D01*
X133590496Y-90369406D01*
X133590909Y-90369666D01*
X133592597Y-90371147D01*
X133597171Y-90373610D01*
X133597179Y-90373615D01*
X133609686Y-90380349D01*
X133611640Y-90381430D01*
X133628344Y-90390928D01*
X133630488Y-90391574D01*
X133630915Y-90391780D01*
X133645807Y-90399799D01*
X133645983Y-90399905D01*
X133647107Y-90400862D01*
X133665368Y-90410344D01*
X133666637Y-90411015D01*
X133684657Y-90420718D01*
X133686083Y-90421112D01*
X133686288Y-90421206D01*
X133701262Y-90428981D01*
X133702020Y-90429415D01*
X133704324Y-90431256D01*
X133709371Y-90433683D01*
X133709372Y-90433683D01*
X133720753Y-90439155D01*
X133723474Y-90440515D01*
X133732797Y-90445355D01*
X133739487Y-90448829D01*
X133742337Y-90449570D01*
X133743139Y-90449917D01*
X133758502Y-90457303D01*
X133759197Y-90457674D01*
X133761496Y-90459400D01*
X133767979Y-90462281D01*
X133778267Y-90466854D01*
X133780949Y-90468094D01*
X133797330Y-90475970D01*
X133800131Y-90476608D01*
X133800884Y-90476906D01*
X133817757Y-90484405D01*
X133818558Y-90484801D01*
X133821012Y-90486527D01*
X133837851Y-90493387D01*
X133840647Y-90494579D01*
X133857073Y-90501879D01*
X133860013Y-90502457D01*
X133860867Y-90502765D01*
X133876347Y-90509072D01*
X133876564Y-90509173D01*
X133877862Y-90510055D01*
X133881517Y-90511476D01*
X133881527Y-90511481D01*
X133896907Y-90517462D01*
X133898377Y-90518047D01*
X133913516Y-90524215D01*
X133913532Y-90524220D01*
X133917149Y-90525694D01*
X133918695Y-90525947D01*
X133918927Y-90526025D01*
X133933642Y-90531748D01*
X133934044Y-90531926D01*
X133935846Y-90533093D01*
X133940555Y-90534805D01*
X133940570Y-90534812D01*
X133954220Y-90539775D01*
X133956145Y-90540498D01*
X133974268Y-90547546D01*
X133976401Y-90547861D01*
X133976811Y-90547990D01*
X133993426Y-90554032D01*
X133994679Y-90554541D01*
X133997749Y-90556369D01*
X134014125Y-90561632D01*
X134017623Y-90562830D01*
X134033605Y-90568642D01*
X134037141Y-90569085D01*
X134038449Y-90569452D01*
X134055139Y-90574816D01*
X134055373Y-90574904D01*
X134056759Y-90575699D01*
X134060561Y-90576853D01*
X134060566Y-90576855D01*
X134076297Y-90581630D01*
X134077837Y-90582112D01*
X134093275Y-90587075D01*
X134093292Y-90587079D01*
X134097065Y-90588292D01*
X134098659Y-90588430D01*
X134098892Y-90588489D01*
X134114182Y-90593131D01*
X134114404Y-90593210D01*
X134115821Y-90593992D01*
X134119678Y-90595094D01*
X134119692Y-90595099D01*
X134135466Y-90599606D01*
X134136980Y-90600051D01*
X134156296Y-90605915D01*
X134157909Y-90606029D01*
X134158133Y-90606082D01*
X134174462Y-90610747D01*
X134175712Y-90611156D01*
X134178877Y-90612751D01*
X134195633Y-90616866D01*
X134199161Y-90617803D01*
X134215569Y-90622492D01*
X134219107Y-90622684D01*
X134220414Y-90622953D01*
X134237321Y-90627105D01*
X134237570Y-90627179D01*
X134239038Y-90627889D01*
X134242978Y-90628788D01*
X134242993Y-90628792D01*
X134258910Y-90632422D01*
X134260446Y-90632785D01*
X134280062Y-90637603D01*
X134281697Y-90637630D01*
X134281927Y-90637671D01*
X134298550Y-90641462D01*
X134299561Y-90641735D01*
X134302488Y-90643031D01*
X134307982Y-90644091D01*
X134307991Y-90644094D01*
X134319987Y-90646409D01*
X134323242Y-90647094D01*
X134334978Y-90649771D01*
X134334982Y-90649771D01*
X134340399Y-90651007D01*
X134343602Y-90651007D01*
X134344634Y-90651164D01*
X134361206Y-90654363D01*
X134361545Y-90654445D01*
X134363342Y-90655197D01*
X134383016Y-90658590D01*
X134384847Y-90658925D01*
X134399604Y-90661773D01*
X134399614Y-90661774D01*
X134404163Y-90662652D01*
X134406104Y-90662587D01*
X134406456Y-90662631D01*
X134422625Y-90665419D01*
X134422797Y-90665457D01*
X134424092Y-90665978D01*
X134441146Y-90668671D01*
X134444470Y-90669196D01*
X134445847Y-90669423D01*
X134462679Y-90672325D01*
X134462685Y-90672326D01*
X134466179Y-90672928D01*
X134467572Y-90672854D01*
X134467770Y-90672875D01*
X134483754Y-90675398D01*
X134484992Y-90675642D01*
X134488242Y-90676815D01*
X134503233Y-90678624D01*
X134505494Y-90678897D01*
X134509055Y-90679393D01*
X134526034Y-90682074D01*
X134529478Y-90681840D01*
X134530733Y-90681944D01*
X134548899Y-90684137D01*
X134550059Y-90684323D01*
X134553270Y-90685353D01*
X134558850Y-90685826D01*
X134558851Y-90685826D01*
X134570676Y-90686828D01*
X134574182Y-90687187D01*
X134591413Y-90689267D01*
X134594766Y-90688917D01*
X134595962Y-90688972D01*
X134613694Y-90690475D01*
X134613913Y-90690504D01*
X134615386Y-90690952D01*
X134635935Y-90692369D01*
X134637274Y-90692473D01*
X134657606Y-90694196D01*
X134659139Y-90693980D01*
X134659362Y-90693985D01*
X134674923Y-90695058D01*
X134675186Y-90695089D01*
X134676809Y-90695552D01*
X134680955Y-90695766D01*
X134680960Y-90695767D01*
X134689958Y-90696232D01*
X134697085Y-90696601D01*
X134698719Y-90696699D01*
X134718777Y-90698083D01*
X134720443Y-90697822D01*
X134720711Y-90697823D01*
X134737434Y-90698688D01*
X134738554Y-90698790D01*
X134741758Y-90699584D01*
X134747348Y-90699679D01*
X134747350Y-90699679D01*
X134759388Y-90699883D01*
X134762820Y-90700001D01*
X134769261Y-90700334D01*
X134769218Y-90701171D01*
X134772012Y-90700966D01*
X134772161Y-90701000D01*
X134824452Y-90701000D01*
X134826130Y-90701014D01*
X134846250Y-90701355D01*
X134847878Y-90701013D01*
X134848144Y-90701000D01*
X134875059Y-90701000D01*
X134877114Y-90701070D01*
X134881243Y-90701825D01*
X134897293Y-90701101D01*
X134901754Y-90701000D01*
X134917660Y-90701000D01*
X134921748Y-90700068D01*
X134923827Y-90699904D01*
X134991181Y-90696866D01*
X135017112Y-90695696D01*
X135018998Y-90695677D01*
X135023011Y-90696232D01*
X135028582Y-90695738D01*
X135028589Y-90695738D01*
X135039286Y-90694789D01*
X135043566Y-90694503D01*
X135054140Y-90694026D01*
X135054143Y-90694025D01*
X135059695Y-90693775D01*
X135063602Y-90692696D01*
X135065480Y-90692464D01*
X135127279Y-90686982D01*
X135148866Y-90685067D01*
X135153632Y-90684760D01*
X135154529Y-90684724D01*
X135160114Y-90685131D01*
X135167746Y-90683952D01*
X135173090Y-90683127D01*
X135179451Y-90682354D01*
X135186804Y-90681702D01*
X135186808Y-90681701D01*
X135192332Y-90681211D01*
X135197611Y-90679504D01*
X135198694Y-90679284D01*
X135203304Y-90678460D01*
X135285863Y-90665706D01*
X135287367Y-90665530D01*
X135291077Y-90665654D01*
X135296570Y-90664582D01*
X135296574Y-90664582D01*
X135307695Y-90662412D01*
X135311535Y-90661741D01*
X135322592Y-90660033D01*
X135322594Y-90660032D01*
X135328079Y-90659185D01*
X135331535Y-90657815D01*
X135332971Y-90657480D01*
X135416594Y-90641162D01*
X135420510Y-90640510D01*
X135425760Y-90640380D01*
X135439444Y-90636874D01*
X135445048Y-90635611D01*
X135458735Y-90632940D01*
X135463527Y-90630818D01*
X135467417Y-90629708D01*
X135540102Y-90611086D01*
X135549547Y-90608666D01*
X135552229Y-90608068D01*
X135556869Y-90607717D01*
X135562211Y-90606056D01*
X135562217Y-90606055D01*
X135571422Y-90603193D01*
X135576239Y-90601828D01*
X135590836Y-90598088D01*
X135594971Y-90595961D01*
X135597614Y-90595050D01*
X135678604Y-90569867D01*
X135681273Y-90569128D01*
X135685900Y-90568541D01*
X135700204Y-90563284D01*
X135704947Y-90561677D01*
X135714007Y-90558860D01*
X135714012Y-90558858D01*
X135719315Y-90557209D01*
X135723343Y-90554872D01*
X135725948Y-90553823D01*
X135782352Y-90533093D01*
X135805050Y-90524751D01*
X135809436Y-90523267D01*
X135814818Y-90522247D01*
X135827340Y-90516755D01*
X135832949Y-90514497D01*
X135832952Y-90514496D01*
X135845607Y-90509845D01*
X135850197Y-90506861D01*
X135854447Y-90504866D01*
X135861257Y-90501879D01*
X135931463Y-90471087D01*
X135933171Y-90470408D01*
X135937098Y-90469487D01*
X135951785Y-90462274D01*
X135955652Y-90460478D01*
X135965396Y-90456205D01*
X135965400Y-90456202D01*
X135970486Y-90453972D01*
X135973726Y-90451571D01*
X135975367Y-90450694D01*
X136051603Y-90413257D01*
X136054517Y-90411932D01*
X136059230Y-90410555D01*
X136072145Y-90403327D01*
X136076834Y-90400866D01*
X136089939Y-90394431D01*
X136093741Y-90391352D01*
X136096539Y-90389677D01*
X136169022Y-90349112D01*
X136170737Y-90348152D01*
X136173208Y-90346869D01*
X136177630Y-90345328D01*
X136190493Y-90337242D01*
X136194832Y-90334667D01*
X136203088Y-90330047D01*
X136203089Y-90330046D01*
X136207934Y-90327335D01*
X136211404Y-90324202D01*
X136213760Y-90322618D01*
X136284987Y-90277847D01*
X136287732Y-90276233D01*
X136292255Y-90274381D01*
X136304355Y-90265839D01*
X136308761Y-90262903D01*
X136316444Y-90258074D01*
X136316447Y-90258072D01*
X136321151Y-90255115D01*
X136324603Y-90251663D01*
X136327182Y-90249727D01*
X136396624Y-90200710D01*
X136398473Y-90199495D01*
X136402374Y-90197682D01*
X136406792Y-90194246D01*
X136406795Y-90194244D01*
X136414906Y-90187935D01*
X136418594Y-90185202D01*
X136426883Y-90179351D01*
X136426889Y-90179345D01*
X136431426Y-90176143D01*
X136434299Y-90172945D01*
X136436021Y-90171512D01*
X136503470Y-90119052D01*
X136506420Y-90116889D01*
X136510920Y-90114481D01*
X136515138Y-90110801D01*
X136515143Y-90110798D01*
X136521762Y-90105024D01*
X136526060Y-90101482D01*
X136532902Y-90096160D01*
X136537289Y-90092748D01*
X136540519Y-90088799D01*
X136543250Y-90086279D01*
X136593542Y-90042406D01*
X136607076Y-90030600D01*
X136609237Y-90028829D01*
X136613247Y-90026414D01*
X136619558Y-90020316D01*
X136624174Y-90015855D01*
X136627891Y-90012442D01*
X136631830Y-90009006D01*
X136639207Y-90002571D01*
X136641959Y-89998790D01*
X136643922Y-89996773D01*
X136704317Y-89938415D01*
X136706398Y-89936525D01*
X136710298Y-89933894D01*
X136720643Y-89922818D01*
X136724178Y-89919224D01*
X136730971Y-89912660D01*
X136730974Y-89912656D01*
X136734967Y-89908798D01*
X136737536Y-89904862D01*
X136739436Y-89902700D01*
X136797277Y-89840775D01*
X136799176Y-89838865D01*
X136802894Y-89836075D01*
X136806507Y-89831793D01*
X136806511Y-89831789D01*
X136812741Y-89824405D01*
X136816057Y-89820670D01*
X136822563Y-89813705D01*
X136822564Y-89813703D01*
X136826356Y-89809644D01*
X136828687Y-89805637D01*
X136830402Y-89803473D01*
X136837072Y-89795568D01*
X136889048Y-89763287D01*
X136950073Y-89767722D01*
X136996836Y-89807179D01*
X137000000Y-89821567D01*
X137000000Y-90723364D01*
X136998906Y-90738040D01*
X136984721Y-90832672D01*
X136976116Y-90860731D01*
X136953923Y-90907107D01*
X136938028Y-90940320D01*
X136921572Y-90964626D01*
X136895880Y-90992542D01*
X136842562Y-91022555D01*
X136823035Y-91024500D01*
X133936879Y-91024500D01*
X133917566Y-91022598D01*
X133917350Y-91022555D01*
X133900000Y-91019104D01*
X133890437Y-91021006D01*
X133872876Y-91024499D01*
X133872868Y-91024500D01*
X133872865Y-91024500D01*
X133872860Y-91024501D01*
X133802070Y-91038582D01*
X133802068Y-91038583D01*
X133792505Y-91040485D01*
X133701376Y-91101376D01*
X133695957Y-91109486D01*
X133691424Y-91116270D01*
X133679113Y-91131272D01*
X133639381Y-91171004D01*
X133584864Y-91198781D01*
X133569377Y-91200000D01*
X127604861Y-91200000D01*
X127595157Y-91199523D01*
X127587623Y-91198781D01*
X127414612Y-91181741D01*
X127395582Y-91177955D01*
X127311113Y-91152332D01*
X127226647Y-91126710D01*
X127208717Y-91119283D01*
X127053031Y-91036067D01*
X127036894Y-91025285D01*
X126933363Y-90940320D01*
X126900427Y-90913290D01*
X126886710Y-90899573D01*
X126822972Y-90821908D01*
X126800500Y-90759103D01*
X126800500Y-84709278D01*
X126819407Y-84651087D01*
X126868907Y-84615123D01*
X126880184Y-84612181D01*
X126902447Y-84607752D01*
X126931860Y-84601902D01*
X126951173Y-84600000D01*
X131989704Y-84600000D01*
X132047895Y-84618907D01*
G37*
%TD.AperFunction*%
%TD*%
%TA.AperFunction,Conductor*%
%TO.N,GND1*%
G36*
X138045637Y-81094407D02*
G01*
X138059820Y-81106951D01*
X138420808Y-81493724D01*
X138446691Y-81549165D01*
X138435042Y-81609231D01*
X138409620Y-81633921D01*
X138410767Y-81635056D01*
X138391658Y-81654366D01*
X138396798Y-81664388D01*
X138724784Y-81992373D01*
X139339093Y-82606683D01*
X139350979Y-82612739D01*
X139354473Y-82612186D01*
X139414905Y-82621758D01*
X139439963Y-82639963D01*
X139496565Y-82696565D01*
X139503089Y-82703764D01*
X139616928Y-82842478D01*
X139627710Y-82858615D01*
X139709997Y-83012563D01*
X139717424Y-83030491D01*
X139768099Y-83197544D01*
X139771884Y-83216575D01*
X139788993Y-83390297D01*
X139788993Y-83409703D01*
X139771884Y-83583425D01*
X139768098Y-83602458D01*
X139743006Y-83685175D01*
X139738692Y-83683866D01*
X139729493Y-83714157D01*
X139698908Y-83742606D01*
X139693981Y-83745537D01*
X139078338Y-84361181D01*
X138750578Y-84688940D01*
X138745765Y-84698387D01*
X138702501Y-84741653D01*
X138686850Y-84748010D01*
X138598011Y-84775532D01*
X138579232Y-84779406D01*
X138405792Y-84797935D01*
X138386625Y-84798116D01*
X138289064Y-84789551D01*
X138212867Y-84782862D01*
X138194018Y-84779343D01*
X138026464Y-84730880D01*
X138008647Y-84723793D01*
X137853581Y-84643940D01*
X137837466Y-84633554D01*
X137696899Y-84522295D01*
X137689684Y-84515991D01*
X137633856Y-84462231D01*
X137605055Y-84408248D01*
X137604828Y-84374921D01*
X137609290Y-84347672D01*
X137603168Y-84335578D01*
X136993170Y-83725581D01*
X137563091Y-83725581D01*
X137563888Y-83730613D01*
X137889524Y-84056250D01*
X137899676Y-84061423D01*
X137905220Y-84055879D01*
X137961888Y-83914911D01*
X137964955Y-83903464D01*
X137980571Y-83793744D01*
X138007489Y-83738798D01*
X138061562Y-83710168D01*
X138068230Y-83709237D01*
X138080367Y-83707961D01*
X138235769Y-83672369D01*
X138246919Y-83668355D01*
X138304258Y-83639516D01*
X138364739Y-83630261D01*
X138419110Y-83658324D01*
X138446602Y-83712985D01*
X138440978Y-83763922D01*
X138389712Y-83895411D01*
X138386765Y-83906888D01*
X138365957Y-84064949D01*
X138365832Y-84076807D01*
X138383327Y-84235264D01*
X138386034Y-84246805D01*
X138440821Y-84396519D01*
X138445911Y-84406510D01*
X138456213Y-84414588D01*
X138456327Y-84414592D01*
X138463398Y-84410436D01*
X139078338Y-83795495D01*
X139406137Y-83467697D01*
X139411435Y-83457299D01*
X139403718Y-83449460D01*
X139339200Y-83415301D01*
X139328136Y-83411054D01*
X139173516Y-83372216D01*
X139161759Y-83370731D01*
X139002331Y-83369896D01*
X138990563Y-83371258D01*
X138835538Y-83408475D01*
X138824431Y-83412606D01*
X138774308Y-83438476D01*
X138713927Y-83448364D01*
X138659266Y-83420872D01*
X138631203Y-83366502D01*
X138637046Y-83313577D01*
X138686672Y-83190127D01*
X138689739Y-83178680D01*
X138705355Y-83068960D01*
X138732273Y-83014014D01*
X138786346Y-82985384D01*
X138793014Y-82984453D01*
X138805151Y-82983177D01*
X138960553Y-82947585D01*
X138971703Y-82943571D01*
X139049910Y-82904237D01*
X139057940Y-82896290D01*
X139052738Y-82886013D01*
X138735870Y-82569145D01*
X138723987Y-82563091D01*
X138718955Y-82563887D01*
X138337289Y-82945553D01*
X138000000Y-83282843D01*
X137612505Y-83670337D01*
X137569146Y-83713696D01*
X137563091Y-83725581D01*
X136993170Y-83725581D01*
X136992373Y-83724784D01*
X136661339Y-83393749D01*
X136649456Y-83387695D01*
X136648788Y-83387800D01*
X136648406Y-83388132D01*
X136592064Y-83411990D01*
X136532459Y-83398174D01*
X136514854Y-83384674D01*
X136505832Y-83375986D01*
X136477029Y-83322007D01*
X136475500Y-83304673D01*
X136475500Y-82651488D01*
X136494407Y-82593297D01*
X136543907Y-82557333D01*
X136605093Y-82557333D01*
X136621739Y-82564485D01*
X136653870Y-82581931D01*
X136664889Y-82586293D01*
X136819101Y-82626750D01*
X136830834Y-82628357D01*
X136990248Y-82630861D01*
X137002028Y-82629623D01*
X137157431Y-82594031D01*
X137168581Y-82590017D01*
X137225920Y-82561178D01*
X137286401Y-82551923D01*
X137340772Y-82579986D01*
X137368264Y-82634647D01*
X137362640Y-82685584D01*
X137311374Y-82817073D01*
X137308427Y-82828550D01*
X137295038Y-82930250D01*
X137268697Y-82985475D01*
X137214926Y-83014670D01*
X137205127Y-83015545D01*
X137205140Y-83015656D01*
X137187441Y-83017704D01*
X137032416Y-83054921D01*
X137021312Y-83059050D01*
X136950169Y-83095771D01*
X136942090Y-83103934D01*
X136947230Y-83113956D01*
X137264128Y-83430853D01*
X137276014Y-83436909D01*
X137281045Y-83436113D01*
X137662711Y-83054447D01*
X138000000Y-82717157D01*
X138387495Y-82329663D01*
X138430854Y-82286304D01*
X138436909Y-82274419D01*
X138436112Y-82269387D01*
X138110910Y-81944184D01*
X138099023Y-81938127D01*
X138098355Y-81938233D01*
X138095879Y-81940381D01*
X138094068Y-81943758D01*
X138036158Y-82092289D01*
X138033211Y-82103766D01*
X138019822Y-82205466D01*
X137993481Y-82260691D01*
X137939710Y-82289886D01*
X137929911Y-82290761D01*
X137929924Y-82290872D01*
X137912225Y-82292920D01*
X137757200Y-82330137D01*
X137746093Y-82334268D01*
X137695970Y-82360138D01*
X137635589Y-82370026D01*
X137580928Y-82342534D01*
X137552865Y-82288164D01*
X137558708Y-82235239D01*
X137608334Y-82111789D01*
X137611401Y-82100342D01*
X137634248Y-81939816D01*
X137634740Y-81933353D01*
X137634828Y-81924894D01*
X137634473Y-81918450D01*
X137614992Y-81757462D01*
X137612166Y-81745959D01*
X137555812Y-81596822D01*
X137553092Y-81591620D01*
X137544352Y-81584914D01*
X137543955Y-81584904D01*
X137537306Y-81588860D01*
X136991666Y-82134501D01*
X136937149Y-82162278D01*
X136876717Y-82152707D01*
X136851658Y-82134501D01*
X136708823Y-81991666D01*
X136681046Y-81937149D01*
X136690617Y-81876717D01*
X136708823Y-81851658D01*
X137249461Y-81311021D01*
X137254759Y-81300623D01*
X137247042Y-81292784D01*
X137188886Y-81261993D01*
X137146307Y-81218055D01*
X137137685Y-81157480D01*
X137166315Y-81103406D01*
X137221261Y-81076488D01*
X137235211Y-81075500D01*
X137987446Y-81075500D01*
X138045637Y-81094407D01*
G37*
%TD.AperFunction*%
%TA.AperFunction,Conductor*%
G36*
X137632106Y-75246655D02*
G01*
X137649352Y-75260205D01*
X137651834Y-75262155D01*
X137654126Y-75264012D01*
X137696570Y-75299461D01*
X137700960Y-75303357D01*
X137728892Y-75329669D01*
X137741005Y-75341079D01*
X137755437Y-75358138D01*
X137776064Y-75389008D01*
X137790847Y-75424696D01*
X137798098Y-75461150D01*
X137800000Y-75480464D01*
X137800000Y-78748827D01*
X137798098Y-78768140D01*
X137796475Y-78776299D01*
X137779554Y-78861371D01*
X137777853Y-78869921D01*
X137763071Y-78905608D01*
X137700000Y-79000000D01*
X137600000Y-79100000D01*
X137600000Y-80048827D01*
X137598098Y-80068140D01*
X137592697Y-80095294D01*
X137562801Y-80148678D01*
X137507236Y-80174295D01*
X137495599Y-80174981D01*
X136336879Y-80174981D01*
X136317566Y-80173079D01*
X136300000Y-80169585D01*
X136290437Y-80171487D01*
X136272876Y-80174980D01*
X136272868Y-80174981D01*
X136272865Y-80174981D01*
X136272860Y-80174982D01*
X136202070Y-80189063D01*
X136202068Y-80189064D01*
X136192505Y-80190966D01*
X136101376Y-80251857D01*
X136095957Y-80259967D01*
X136091424Y-80266751D01*
X136079113Y-80281753D01*
X135100436Y-81260430D01*
X135045920Y-81288206D01*
X134985488Y-81278635D01*
X134960429Y-81260429D01*
X134938442Y-81238442D01*
X134910665Y-81183925D01*
X134920236Y-81123493D01*
X134933838Y-81103366D01*
X134986212Y-81043327D01*
X134988679Y-81040656D01*
X134992638Y-81037430D01*
X135001472Y-81026072D01*
X135005015Y-81021772D01*
X135010714Y-81015240D01*
X135010717Y-81015235D01*
X135014364Y-81011055D01*
X135016779Y-81006561D01*
X135018974Y-81003570D01*
X135071419Y-80936141D01*
X135072832Y-80934444D01*
X135076040Y-80931572D01*
X135079268Y-80927000D01*
X135079271Y-80926996D01*
X135085198Y-80918599D01*
X135087912Y-80914936D01*
X135097572Y-80902516D01*
X135099393Y-80898617D01*
X135100623Y-80896746D01*
X135106395Y-80888570D01*
X135149642Y-80827302D01*
X135151558Y-80824753D01*
X135155020Y-80821303D01*
X135162910Y-80808751D01*
X135165845Y-80804348D01*
X135171074Y-80796940D01*
X135174278Y-80792401D01*
X135176133Y-80787891D01*
X135177764Y-80785119D01*
X135222548Y-80713872D01*
X135224104Y-80711560D01*
X135227247Y-80708091D01*
X135229983Y-80703203D01*
X135229986Y-80703198D01*
X135234668Y-80694832D01*
X135237244Y-80690492D01*
X135242272Y-80682493D01*
X135242273Y-80682492D01*
X135245233Y-80677782D01*
X135246781Y-80673363D01*
X135248089Y-80670848D01*
X135249656Y-80668049D01*
X135289604Y-80596665D01*
X135291257Y-80593906D01*
X135294352Y-80590099D01*
X135296877Y-80584958D01*
X135300866Y-80576836D01*
X135303335Y-80572130D01*
X135307758Y-80564227D01*
X135307758Y-80564226D01*
X135310467Y-80559386D01*
X135311848Y-80554687D01*
X135313197Y-80551723D01*
X135350625Y-80475507D01*
X135351491Y-80473889D01*
X135353900Y-80470650D01*
X135356151Y-80465519D01*
X135360483Y-80455643D01*
X135362281Y-80451774D01*
X135366958Y-80442250D01*
X135366960Y-80442243D01*
X135369408Y-80437259D01*
X135370334Y-80433341D01*
X135371025Y-80431605D01*
X135404823Y-80354546D01*
X135406788Y-80350363D01*
X135409783Y-80345774D01*
X135414502Y-80332935D01*
X135416747Y-80327358D01*
X135422175Y-80314982D01*
X135423205Y-80309600D01*
X135424714Y-80305149D01*
X135426607Y-80300000D01*
X135453771Y-80226088D01*
X135454807Y-80223517D01*
X135457155Y-80219487D01*
X135458819Y-80214136D01*
X135461673Y-80204960D01*
X135463282Y-80200211D01*
X135466562Y-80191284D01*
X135468479Y-80186068D01*
X135469073Y-80181448D01*
X135469825Y-80178738D01*
X135495008Y-80097746D01*
X135495907Y-80095145D01*
X135498043Y-80091009D01*
X135501823Y-80076253D01*
X135503189Y-80071432D01*
X135506014Y-80062346D01*
X135507664Y-80057040D01*
X135508023Y-80052402D01*
X135508630Y-80049686D01*
X135508850Y-80048827D01*
X135529679Y-79967527D01*
X135530769Y-79963712D01*
X135532906Y-79958910D01*
X135535609Y-79945055D01*
X135536875Y-79939436D01*
X135538957Y-79931312D01*
X135540335Y-79925934D01*
X135540474Y-79920694D01*
X135541141Y-79916707D01*
X135557442Y-79833162D01*
X135557782Y-79831705D01*
X135559157Y-79828256D01*
X135561740Y-79811537D01*
X135562411Y-79807698D01*
X135564553Y-79796716D01*
X135565619Y-79791253D01*
X135565502Y-79787545D01*
X135565678Y-79786044D01*
X135578443Y-79703411D01*
X135579286Y-79698709D01*
X135579465Y-79697832D01*
X135581196Y-79692511D01*
X135582357Y-79679425D01*
X135583128Y-79673077D01*
X135585103Y-79660290D01*
X135584709Y-79654753D01*
X135584753Y-79653679D01*
X135585056Y-79649000D01*
X135592451Y-79565632D01*
X135592680Y-79563781D01*
X135593766Y-79559874D01*
X135594503Y-79543540D01*
X135594787Y-79539301D01*
X135595725Y-79528727D01*
X135595725Y-79528724D01*
X135596216Y-79523189D01*
X135595667Y-79519177D01*
X135595688Y-79517263D01*
X135599896Y-79423987D01*
X135600059Y-79421931D01*
X135601000Y-79417839D01*
X135601000Y-79401754D01*
X135601101Y-79397292D01*
X135601566Y-79386979D01*
X135601817Y-79381422D01*
X135601069Y-79377295D01*
X135601000Y-79375219D01*
X135601000Y-79348319D01*
X135601013Y-79348057D01*
X135601358Y-79346429D01*
X135601014Y-79326130D01*
X135601000Y-79324454D01*
X135601000Y-79272340D01*
X135601357Y-79272340D01*
X135601963Y-79269379D01*
X135600344Y-79269463D01*
X135600001Y-79262829D01*
X135599883Y-79259395D01*
X135599681Y-79247496D01*
X135599587Y-79241937D01*
X135598798Y-79238730D01*
X135598696Y-79237603D01*
X135598688Y-79237434D01*
X135597832Y-79220897D01*
X135597831Y-79220622D01*
X135598095Y-79218956D01*
X135597810Y-79214822D01*
X135597810Y-79214812D01*
X135596700Y-79198714D01*
X135596598Y-79197024D01*
X135595775Y-79181124D01*
X135595561Y-79176988D01*
X135595101Y-79175365D01*
X135595071Y-79175108D01*
X135593997Y-79159523D01*
X135593993Y-79159319D01*
X135594211Y-79157784D01*
X135592485Y-79137419D01*
X135592365Y-79135869D01*
X135591230Y-79119414D01*
X135590965Y-79115564D01*
X135590517Y-79114082D01*
X135590488Y-79113861D01*
X135588984Y-79096112D01*
X135588931Y-79094953D01*
X135589289Y-79091591D01*
X135588602Y-79085893D01*
X135587194Y-79074236D01*
X135586833Y-79070729D01*
X135585837Y-79058977D01*
X135585369Y-79053448D01*
X135584344Y-79050235D01*
X135584156Y-79049056D01*
X135581965Y-79030903D01*
X135581863Y-79029656D01*
X135582102Y-79026211D01*
X135579396Y-79009071D01*
X135578899Y-79005502D01*
X135577502Y-78993928D01*
X135576837Y-78988419D01*
X135575671Y-78985167D01*
X135575424Y-78983913D01*
X135572902Y-78967944D01*
X135572881Y-78967746D01*
X135572958Y-78966356D01*
X135569431Y-78945895D01*
X135569204Y-78944520D01*
X135566560Y-78927775D01*
X135566559Y-78927770D01*
X135566006Y-78924269D01*
X135565487Y-78922972D01*
X135565446Y-78922790D01*
X135565417Y-78922621D01*
X135562660Y-78906630D01*
X135562617Y-78906285D01*
X135562686Y-78904339D01*
X135558919Y-78884815D01*
X135558566Y-78882882D01*
X135556016Y-78868095D01*
X135555227Y-78863518D01*
X135554479Y-78861723D01*
X135554394Y-78861371D01*
X135554361Y-78861197D01*
X135551197Y-78844801D01*
X135551040Y-78843772D01*
X135551046Y-78840573D01*
X135547089Y-78823224D01*
X135546411Y-78819998D01*
X135544121Y-78808132D01*
X135544119Y-78808125D01*
X135543065Y-78802664D01*
X135541775Y-78799736D01*
X135541499Y-78798713D01*
X135537715Y-78782120D01*
X135537670Y-78781867D01*
X135537646Y-78780236D01*
X135536682Y-78776313D01*
X135536680Y-78776299D01*
X135532785Y-78760440D01*
X135532407Y-78758846D01*
X135528825Y-78743142D01*
X135527929Y-78739213D01*
X135527222Y-78737744D01*
X135527152Y-78737507D01*
X135522995Y-78720586D01*
X135522726Y-78719279D01*
X135522541Y-78715741D01*
X135517806Y-78699170D01*
X135516853Y-78695583D01*
X135514119Y-78684450D01*
X135512793Y-78679051D01*
X135511207Y-78675891D01*
X135510789Y-78674611D01*
X135506134Y-78658315D01*
X135506078Y-78658076D01*
X135505967Y-78656467D01*
X135500043Y-78636951D01*
X135499591Y-78635418D01*
X135495141Y-78619842D01*
X135495140Y-78619838D01*
X135494041Y-78615993D01*
X135493264Y-78614578D01*
X135493179Y-78614341D01*
X135488540Y-78599060D01*
X135488483Y-78598833D01*
X135488347Y-78597236D01*
X135482120Y-78577863D01*
X135481638Y-78576324D01*
X135476904Y-78560729D01*
X135475751Y-78556930D01*
X135474960Y-78555546D01*
X135474872Y-78555312D01*
X135469501Y-78538600D01*
X135469139Y-78537310D01*
X135468703Y-78533773D01*
X135462840Y-78517650D01*
X135461628Y-78514111D01*
X135458125Y-78503211D01*
X135458125Y-78503210D01*
X135456424Y-78497919D01*
X135454601Y-78494846D01*
X135454092Y-78493591D01*
X135448052Y-78476982D01*
X135447922Y-78476566D01*
X135447611Y-78474435D01*
X135445784Y-78469736D01*
X135440541Y-78456254D01*
X135439769Y-78454204D01*
X135434870Y-78440731D01*
X135433155Y-78436014D01*
X135431985Y-78434201D01*
X135431813Y-78433812D01*
X135426086Y-78419084D01*
X135426015Y-78418870D01*
X135425762Y-78417315D01*
X135424284Y-78413687D01*
X135424281Y-78413678D01*
X135418040Y-78398361D01*
X135417482Y-78396961D01*
X135410120Y-78378029D01*
X135409237Y-78376725D01*
X135409139Y-78376514D01*
X135402826Y-78361019D01*
X135402525Y-78360184D01*
X135401952Y-78357237D01*
X135399622Y-78351995D01*
X135394578Y-78340645D01*
X135393361Y-78337787D01*
X135388690Y-78326321D01*
X135386595Y-78321178D01*
X135384873Y-78318721D01*
X135384477Y-78317918D01*
X135379104Y-78305830D01*
X135376976Y-78301040D01*
X135376681Y-78300296D01*
X135376048Y-78297491D01*
X135368069Y-78280895D01*
X135366852Y-78278262D01*
X135361730Y-78266738D01*
X135359473Y-78261659D01*
X135357758Y-78259368D01*
X135357369Y-78258638D01*
X135349986Y-78243280D01*
X135349647Y-78242495D01*
X135348911Y-78239646D01*
X135346331Y-78234677D01*
X135346329Y-78234672D01*
X135340510Y-78223466D01*
X135339165Y-78220777D01*
X135331333Y-78204485D01*
X135329499Y-78202182D01*
X135329072Y-78201435D01*
X135321283Y-78186435D01*
X135321194Y-78186241D01*
X135320803Y-78184815D01*
X135317653Y-78178965D01*
X135311047Y-78166695D01*
X135310354Y-78165385D01*
X135307036Y-78158995D01*
X135300945Y-78147265D01*
X135299988Y-78146136D01*
X135299874Y-78145948D01*
X135291867Y-78131076D01*
X135291660Y-78130646D01*
X135291017Y-78128499D01*
X135281425Y-78111631D01*
X135280343Y-78109675D01*
X135271232Y-78092754D01*
X135269755Y-78091063D01*
X135269502Y-78090661D01*
X135260774Y-78075314D01*
X135260328Y-78074451D01*
X135259348Y-78071525D01*
X135249958Y-78056187D01*
X135248332Y-78053432D01*
X135242275Y-78042780D01*
X135242272Y-78042776D01*
X135239526Y-78037947D01*
X135237440Y-78035668D01*
X135236911Y-78034877D01*
X135228426Y-78021019D01*
X135228265Y-78020726D01*
X135227608Y-78018887D01*
X135216904Y-78002163D01*
X135215856Y-78000488D01*
X135208022Y-77987691D01*
X135208018Y-77987686D01*
X135205591Y-77983721D01*
X135204229Y-77982326D01*
X135204023Y-77982035D01*
X135194713Y-77967487D01*
X135194558Y-77967219D01*
X135193911Y-77965509D01*
X135182799Y-77948841D01*
X135181835Y-77947366D01*
X135171082Y-77930564D01*
X135169776Y-77929279D01*
X135169588Y-77929024D01*
X135160631Y-77915588D01*
X135160258Y-77914974D01*
X135159222Y-77912456D01*
X135148474Y-77897282D01*
X135146895Y-77894984D01*
X135136673Y-77879651D01*
X135134696Y-77877777D01*
X135134246Y-77877195D01*
X135134151Y-77877060D01*
X135123548Y-77862092D01*
X135122237Y-77860108D01*
X135120364Y-77856108D01*
X135110713Y-77843776D01*
X135107889Y-77839985D01*
X135102135Y-77831861D01*
X135102133Y-77831858D01*
X135098923Y-77827327D01*
X135095631Y-77824380D01*
X135094106Y-77822556D01*
X135056323Y-77774277D01*
X135056323Y-77774276D01*
X135056319Y-77774272D01*
X135047110Y-77762504D01*
X135046805Y-77762076D01*
X135045763Y-77759985D01*
X135042271Y-77755737D01*
X135033566Y-77745151D01*
X135032076Y-77743295D01*
X135020323Y-77728277D01*
X135018509Y-77726802D01*
X135018159Y-77726413D01*
X135006987Y-77712826D01*
X135006065Y-77711617D01*
X135004271Y-77708346D01*
X134993033Y-77695732D01*
X134990484Y-77692753D01*
X134983404Y-77684142D01*
X134983396Y-77684134D01*
X134979866Y-77679841D01*
X134976918Y-77677561D01*
X134975866Y-77676463D01*
X134968227Y-77667889D01*
X134963210Y-77660359D01*
X134963117Y-77660433D01*
X134956175Y-77651705D01*
X134951350Y-77641657D01*
X134942645Y-77634696D01*
X134942643Y-77634693D01*
X134931096Y-77625459D01*
X134928367Y-77623148D01*
X134925005Y-77619374D01*
X134913408Y-77611117D01*
X134909006Y-77607793D01*
X134888439Y-77591346D01*
X134879731Y-77584382D01*
X134874015Y-77583068D01*
X134869236Y-77579665D01*
X134858254Y-77577778D01*
X134858248Y-77577775D01*
X134832295Y-77573315D01*
X134826878Y-77572228D01*
X134818302Y-77570256D01*
X134818300Y-77570256D01*
X134812839Y-77569000D01*
X134807775Y-77569000D01*
X134804282Y-77568502D01*
X134778858Y-77564132D01*
X134768142Y-77567194D01*
X134757004Y-77567797D01*
X134757001Y-77567733D01*
X134747954Y-77569000D01*
X133967795Y-77569000D01*
X133909604Y-77550093D01*
X133873640Y-77500593D01*
X133869100Y-77462232D01*
X133869106Y-77462161D01*
X133864211Y-77453421D01*
X133011086Y-76600296D01*
X132999203Y-76594242D01*
X132994172Y-76595038D01*
X132137194Y-77452016D01*
X132126826Y-77472366D01*
X132120081Y-77514947D01*
X132076815Y-77558210D01*
X132031872Y-77569000D01*
X131252311Y-77569000D01*
X131243352Y-77567737D01*
X131243345Y-77567856D01*
X131232217Y-77567234D01*
X131221502Y-77564152D01*
X131210512Y-77566021D01*
X131210509Y-77566021D01*
X131195933Y-77568500D01*
X131192394Y-77569000D01*
X131187340Y-77569000D01*
X131180920Y-77570465D01*
X131173469Y-77572164D01*
X131168050Y-77573242D01*
X131142091Y-77577657D01*
X131142087Y-77577659D01*
X131131096Y-77579528D01*
X131126313Y-77582921D01*
X131120593Y-77584226D01*
X131111872Y-77591176D01*
X131111871Y-77591176D01*
X131091298Y-77607570D01*
X131086882Y-77610892D01*
X131079688Y-77615996D01*
X131075114Y-77619241D01*
X131071747Y-77623020D01*
X131069053Y-77625296D01*
X131048875Y-77641375D01*
X131044032Y-77651416D01*
X131037076Y-77660129D01*
X131037025Y-77660088D01*
X131031953Y-77667686D01*
X131024252Y-77676330D01*
X131023201Y-77677426D01*
X131020248Y-77679702D01*
X131014036Y-77687257D01*
X131009501Y-77692772D01*
X131006972Y-77695727D01*
X130995848Y-77708213D01*
X130994050Y-77711478D01*
X130993128Y-77712685D01*
X130981954Y-77726275D01*
X130981602Y-77726666D01*
X130979787Y-77728136D01*
X130976486Y-77732354D01*
X130967923Y-77743295D01*
X130966472Y-77745105D01*
X130954351Y-77759847D01*
X130953305Y-77761937D01*
X130953005Y-77762357D01*
X130943790Y-77774133D01*
X130943787Y-77774136D01*
X130905991Y-77822432D01*
X130904478Y-77824240D01*
X130901181Y-77827181D01*
X130892092Y-77840012D01*
X130889323Y-77843729D01*
X130879746Y-77855967D01*
X130877865Y-77859964D01*
X130876555Y-77861947D01*
X130865843Y-77877069D01*
X130865409Y-77877630D01*
X130863427Y-77879502D01*
X130860328Y-77884151D01*
X130860326Y-77884153D01*
X130857922Y-77887759D01*
X130853106Y-77894984D01*
X130851528Y-77897280D01*
X130840881Y-77912310D01*
X130839841Y-77914827D01*
X130839463Y-77915448D01*
X130830509Y-77928879D01*
X130830321Y-77929134D01*
X130829015Y-77930414D01*
X130826630Y-77934140D01*
X130826623Y-77934150D01*
X130818208Y-77947299D01*
X130817201Y-77948841D01*
X130806188Y-77965360D01*
X130805536Y-77967071D01*
X130805377Y-77967348D01*
X130796072Y-77981886D01*
X130795866Y-77982177D01*
X130794502Y-77983569D01*
X130788256Y-77993771D01*
X130784164Y-78000454D01*
X130783119Y-78002124D01*
X130774996Y-78014817D01*
X130772488Y-78018736D01*
X130771829Y-78020570D01*
X130771653Y-78020890D01*
X130763543Y-78034136D01*
X130763191Y-78034711D01*
X130762653Y-78035516D01*
X130760562Y-78037791D01*
X130757797Y-78042654D01*
X130757794Y-78042658D01*
X130751663Y-78053440D01*
X130750037Y-78056194D01*
X130743648Y-78066630D01*
X130743645Y-78066637D01*
X130740745Y-78071373D01*
X130739760Y-78074296D01*
X130739317Y-78075153D01*
X130730588Y-78090504D01*
X130730331Y-78090912D01*
X130728853Y-78092597D01*
X130726393Y-78097166D01*
X130726392Y-78097167D01*
X130719656Y-78109675D01*
X130718552Y-78111669D01*
X130711633Y-78123838D01*
X130711630Y-78123844D01*
X130709072Y-78128343D01*
X130708425Y-78130488D01*
X130708215Y-78130924D01*
X130700206Y-78145798D01*
X130700097Y-78145978D01*
X130699138Y-78147106D01*
X130689605Y-78165465D01*
X130688989Y-78166630D01*
X130679282Y-78184657D01*
X130678888Y-78186082D01*
X130678799Y-78186276D01*
X130671015Y-78201269D01*
X130670582Y-78202025D01*
X130668744Y-78204325D01*
X130666319Y-78209368D01*
X130666319Y-78209369D01*
X130660840Y-78220765D01*
X130659478Y-78223488D01*
X130653732Y-78234554D01*
X130651171Y-78239487D01*
X130650428Y-78242342D01*
X130650091Y-78243122D01*
X130642701Y-78258495D01*
X130642325Y-78259200D01*
X130640600Y-78261496D01*
X130638325Y-78266615D01*
X130638322Y-78266620D01*
X130633141Y-78278278D01*
X130631928Y-78280902D01*
X130624030Y-78297330D01*
X130623392Y-78300131D01*
X130623094Y-78300884D01*
X130615595Y-78317757D01*
X130615199Y-78318558D01*
X130613473Y-78321012D01*
X130606613Y-78337851D01*
X130605422Y-78340645D01*
X130598121Y-78357073D01*
X130597543Y-78360013D01*
X130597235Y-78360867D01*
X130590928Y-78376347D01*
X130590827Y-78376564D01*
X130589945Y-78377862D01*
X130588524Y-78381517D01*
X130588519Y-78381527D01*
X130582538Y-78396907D01*
X130581953Y-78398377D01*
X130575786Y-78413515D01*
X130575783Y-78413523D01*
X130574306Y-78417149D01*
X130574051Y-78418702D01*
X130573980Y-78418916D01*
X130573913Y-78419090D01*
X130568256Y-78433636D01*
X130568079Y-78434035D01*
X130566906Y-78435846D01*
X130565187Y-78440573D01*
X130565183Y-78440582D01*
X130560222Y-78454224D01*
X130559459Y-78456254D01*
X130552454Y-78474268D01*
X130552139Y-78476401D01*
X130552013Y-78476802D01*
X130551948Y-78476982D01*
X130545972Y-78493417D01*
X130545457Y-78494682D01*
X130543631Y-78497749D01*
X130541921Y-78503069D01*
X130541916Y-78503080D01*
X130538368Y-78514119D01*
X130537159Y-78517650D01*
X130531358Y-78533605D01*
X130530915Y-78537141D01*
X130530548Y-78538449D01*
X130525183Y-78555142D01*
X130525096Y-78555373D01*
X130524301Y-78556759D01*
X130523147Y-78560559D01*
X130523146Y-78560563D01*
X130518362Y-78576324D01*
X130517880Y-78577863D01*
X130511708Y-78597065D01*
X130511570Y-78598658D01*
X130511511Y-78598892D01*
X130506869Y-78614181D01*
X130506789Y-78614405D01*
X130506008Y-78615821D01*
X130500396Y-78635465D01*
X130499965Y-78636928D01*
X130494085Y-78656296D01*
X130493971Y-78657907D01*
X130493918Y-78658133D01*
X130489257Y-78674449D01*
X130488843Y-78675715D01*
X130487249Y-78678877D01*
X130485914Y-78684314D01*
X130485913Y-78684316D01*
X130483137Y-78695620D01*
X130482195Y-78699170D01*
X130477509Y-78715569D01*
X130477317Y-78719106D01*
X130477051Y-78720396D01*
X130474191Y-78732041D01*
X130472892Y-78737332D01*
X130472822Y-78737568D01*
X130472111Y-78739038D01*
X130467565Y-78758969D01*
X130467216Y-78760440D01*
X130462397Y-78780062D01*
X130462370Y-78781691D01*
X130462324Y-78781949D01*
X130458535Y-78798557D01*
X130458263Y-78799563D01*
X130456969Y-78802488D01*
X130455909Y-78807978D01*
X130455909Y-78807980D01*
X130453596Y-78819967D01*
X130452920Y-78823181D01*
X130448993Y-78840398D01*
X130448993Y-78843599D01*
X130448833Y-78844648D01*
X130445639Y-78861197D01*
X130445554Y-78861548D01*
X130444803Y-78863342D01*
X130441410Y-78883016D01*
X130441075Y-78884847D01*
X130438227Y-78899604D01*
X130438226Y-78899614D01*
X130437348Y-78904163D01*
X130437413Y-78906104D01*
X130437369Y-78906456D01*
X130434582Y-78922621D01*
X130434543Y-78922797D01*
X130434022Y-78924092D01*
X130431329Y-78941146D01*
X130430804Y-78944470D01*
X130430577Y-78945847D01*
X130427072Y-78966179D01*
X130427146Y-78967572D01*
X130427125Y-78967770D01*
X130424602Y-78983754D01*
X130424358Y-78984992D01*
X130423185Y-78988242D01*
X130421766Y-79000000D01*
X130421103Y-79005494D01*
X130420607Y-79009055D01*
X130417926Y-79026034D01*
X130418160Y-79029484D01*
X130418058Y-79030723D01*
X130415867Y-79048881D01*
X130415680Y-79050050D01*
X130414646Y-79053270D01*
X130414173Y-79058856D01*
X130414172Y-79058859D01*
X130413168Y-79070708D01*
X130412809Y-79074208D01*
X130412806Y-79074236D01*
X130410733Y-79091413D01*
X130411084Y-79094765D01*
X130411028Y-79095965D01*
X130409525Y-79113694D01*
X130409496Y-79113910D01*
X130409048Y-79115386D01*
X130408783Y-79119233D01*
X130408782Y-79119238D01*
X130407642Y-79135774D01*
X130407523Y-79137323D01*
X130405804Y-79157606D01*
X130406020Y-79159138D01*
X130406015Y-79159362D01*
X130406004Y-79159532D01*
X130404943Y-79174912D01*
X130404911Y-79175185D01*
X130404448Y-79176808D01*
X130404234Y-79180955D01*
X130404233Y-79180960D01*
X130403401Y-79197056D01*
X130403301Y-79198714D01*
X130401917Y-79218777D01*
X130402178Y-79220443D01*
X130402177Y-79220711D01*
X130401312Y-79237434D01*
X130401210Y-79238554D01*
X130400416Y-79241758D01*
X130400321Y-79247348D01*
X130400321Y-79247350D01*
X130400117Y-79259389D01*
X130399999Y-79262822D01*
X130399417Y-79274083D01*
X130399098Y-79280247D01*
X130399665Y-79283499D01*
X130399690Y-79284637D01*
X130399390Y-79302283D01*
X130399373Y-79302538D01*
X130399000Y-79304161D01*
X130399000Y-79324452D01*
X130398986Y-79326130D01*
X130398645Y-79346250D01*
X130398987Y-79347878D01*
X130399000Y-79348144D01*
X130399000Y-79375059D01*
X130398930Y-79377114D01*
X130398175Y-79381243D01*
X130398428Y-79386842D01*
X130398899Y-79397293D01*
X130399000Y-79401754D01*
X130399000Y-79417660D01*
X130399932Y-79421748D01*
X130400096Y-79423832D01*
X130404304Y-79517112D01*
X130404323Y-79518998D01*
X130403768Y-79523011D01*
X130404262Y-79528582D01*
X130404262Y-79528589D01*
X130405211Y-79539286D01*
X130405497Y-79543566D01*
X130405499Y-79543594D01*
X130406225Y-79559695D01*
X130407304Y-79563602D01*
X130407536Y-79565483D01*
X130414933Y-79648866D01*
X130415240Y-79653632D01*
X130415276Y-79654529D01*
X130414869Y-79660114D01*
X130415724Y-79665649D01*
X130416873Y-79673090D01*
X130417646Y-79679451D01*
X130418789Y-79692332D01*
X130420496Y-79697611D01*
X130420716Y-79698694D01*
X130421540Y-79703305D01*
X130425921Y-79731665D01*
X130416120Y-79792060D01*
X130372690Y-79835159D01*
X130312222Y-79844500D01*
X130267819Y-79825323D01*
X130202841Y-79775464D01*
X130056762Y-79714956D01*
X129900000Y-79694318D01*
X129743238Y-79714956D01*
X129597159Y-79775464D01*
X129584767Y-79784973D01*
X129527093Y-79805397D01*
X129468427Y-79788020D01*
X129431179Y-79739479D01*
X129425500Y-79706431D01*
X129425500Y-78375834D01*
X129444407Y-78317643D01*
X129454496Y-78305830D01*
X131339864Y-76420462D01*
X131394381Y-76392685D01*
X131454813Y-76402256D01*
X131498078Y-76445521D01*
X131506133Y-76467355D01*
X131560465Y-76693662D01*
X131562859Y-76701030D01*
X131650719Y-76913144D01*
X131654238Y-76920050D01*
X131758706Y-77090523D01*
X131768392Y-77098796D01*
X131776578Y-77094212D01*
X132929996Y-75940794D01*
X132984513Y-75913017D01*
X133044945Y-75922588D01*
X133070004Y-75940794D01*
X134222016Y-77092806D01*
X134233365Y-77098588D01*
X134240256Y-77092217D01*
X134345762Y-76920050D01*
X134349281Y-76913144D01*
X134437141Y-76701030D01*
X134439535Y-76693662D01*
X134493134Y-76470406D01*
X134494345Y-76462763D01*
X134512358Y-76233875D01*
X134512358Y-76226125D01*
X134494345Y-75997237D01*
X134493134Y-75989594D01*
X134439535Y-75766338D01*
X134437141Y-75758970D01*
X134349281Y-75546856D01*
X134345762Y-75539950D01*
X134245432Y-75376228D01*
X134231148Y-75316733D01*
X134254563Y-75260205D01*
X134306732Y-75228235D01*
X134329843Y-75225500D01*
X137570942Y-75225500D01*
X137632106Y-75246655D01*
G37*
%TD.AperFunction*%
%TD*%
%TA.AperFunction,Conductor*%
%TO.N,GND3*%
G36*
X131154356Y-91818907D02*
G01*
X131190320Y-91868407D01*
X131194774Y-91896533D01*
X131194318Y-91900000D01*
X131214956Y-92056762D01*
X131275464Y-92202841D01*
X131371718Y-92328282D01*
X131497159Y-92424536D01*
X131643238Y-92485044D01*
X131800000Y-92505682D01*
X131806434Y-92504835D01*
X131806435Y-92504835D01*
X131848800Y-92499258D01*
X131908961Y-92510409D01*
X131931725Y-92527407D01*
X132418255Y-93013937D01*
X132431420Y-93030240D01*
X132432733Y-93032274D01*
X132432736Y-93032278D01*
X132437175Y-93039152D01*
X132462332Y-93058985D01*
X132466737Y-93062899D01*
X132466738Y-93062898D01*
X132469869Y-93065551D01*
X132472746Y-93068428D01*
X132487601Y-93079044D01*
X132491312Y-93081830D01*
X132528811Y-93111392D01*
X132536118Y-93113958D01*
X132537364Y-93114605D01*
X132543669Y-93119111D01*
X132587781Y-93132303D01*
X132589403Y-93132788D01*
X132593839Y-93134229D01*
X132633033Y-93147993D01*
X132633036Y-93147994D01*
X132638906Y-93150055D01*
X132644044Y-93150500D01*
X132646180Y-93150500D01*
X132647919Y-93150575D01*
X132649262Y-93150689D01*
X132655463Y-93152543D01*
X132663638Y-93152222D01*
X132663639Y-93152222D01*
X132705538Y-93150576D01*
X132709424Y-93150500D01*
X139405940Y-93150500D01*
X139426776Y-93152718D01*
X139428058Y-93152994D01*
X139437149Y-93154951D01*
X139468959Y-93151186D01*
X139474851Y-93150839D01*
X139474851Y-93150836D01*
X139478918Y-93150500D01*
X139483003Y-93150500D01*
X139487029Y-93149830D01*
X139487040Y-93149829D01*
X139501007Y-93147504D01*
X139505614Y-93146848D01*
X139528577Y-93144130D01*
X139544900Y-93142198D01*
X139544901Y-93142198D01*
X139553026Y-93141236D01*
X139560010Y-93137882D01*
X139561342Y-93137461D01*
X139568991Y-93136188D01*
X139611048Y-93113495D01*
X139615171Y-93111395D01*
X139652605Y-93093420D01*
X139652609Y-93093418D01*
X139658214Y-93090726D01*
X139662162Y-93087408D01*
X139663670Y-93085900D01*
X139664959Y-93084718D01*
X139665985Y-93083852D01*
X139671682Y-93080778D01*
X139677233Y-93074773D01*
X139677238Y-93074769D01*
X139705697Y-93043982D01*
X139708391Y-93041179D01*
X139895219Y-92854351D01*
X139949736Y-92826574D01*
X139978144Y-92826202D01*
X140020509Y-92831779D01*
X140020510Y-92831779D01*
X140026944Y-92832626D01*
X140183706Y-92811988D01*
X140329785Y-92751480D01*
X140455226Y-92655226D01*
X140551480Y-92529785D01*
X140606637Y-92396625D01*
X140646374Y-92350100D01*
X140698101Y-92335511D01*
X140725500Y-92335511D01*
X140783691Y-92354418D01*
X140819655Y-92403918D01*
X140824500Y-92434511D01*
X140824500Y-93827133D01*
X140840485Y-93907495D01*
X140901376Y-93998624D01*
X140992505Y-94059515D01*
X141002068Y-94061417D01*
X141002070Y-94061418D01*
X141090438Y-94078995D01*
X141100000Y-94080897D01*
X141109562Y-94078995D01*
X141197930Y-94061418D01*
X141197932Y-94061417D01*
X141207495Y-94059515D01*
X141298624Y-93998624D01*
X141359515Y-93907495D01*
X141375500Y-93827133D01*
X141375500Y-92434511D01*
X141394407Y-92376320D01*
X141443907Y-92340356D01*
X141474500Y-92335511D01*
X143595139Y-92335511D01*
X143604843Y-92335988D01*
X143785388Y-92353770D01*
X143804418Y-92357556D01*
X143866277Y-92376320D01*
X143973353Y-92408801D01*
X143991283Y-92416228D01*
X144146969Y-92499444D01*
X144163106Y-92510226D01*
X144193213Y-92534934D01*
X144299573Y-92622221D01*
X144313290Y-92635938D01*
X144377028Y-92713603D01*
X144399500Y-92776408D01*
X144399500Y-96894614D01*
X144377028Y-96957419D01*
X144313290Y-97035084D01*
X144299573Y-97048801D01*
X144218163Y-97115613D01*
X144163106Y-97160796D01*
X144146969Y-97171578D01*
X143991283Y-97254794D01*
X143973353Y-97262221D01*
X143888886Y-97287844D01*
X143804418Y-97313466D01*
X143785388Y-97317252D01*
X143604843Y-97335034D01*
X143595139Y-97335511D01*
X127604861Y-97335511D01*
X127595157Y-97335034D01*
X127414612Y-97317252D01*
X127395582Y-97313466D01*
X127311114Y-97287844D01*
X127226647Y-97262221D01*
X127208717Y-97254794D01*
X127053031Y-97171578D01*
X127036894Y-97160796D01*
X126981837Y-97115613D01*
X126900427Y-97048801D01*
X126886710Y-97035084D01*
X126822972Y-96957419D01*
X126800500Y-96894614D01*
X126800500Y-92240897D01*
X126822972Y-92178092D01*
X126886710Y-92100427D01*
X126900427Y-92086710D01*
X126998244Y-92006434D01*
X127036894Y-91974715D01*
X127053031Y-91963933D01*
X127208717Y-91880717D01*
X127226647Y-91873290D01*
X127311114Y-91847667D01*
X127395582Y-91822045D01*
X127414612Y-91818259D01*
X127595157Y-91800477D01*
X127604861Y-91800000D01*
X131096165Y-91800000D01*
X131154356Y-91818907D01*
G37*
%TD.AperFunction*%
%TD*%
M02*
