%TF.GenerationSoftware,KiCad,Pcbnew,(6.0.5)*%
%TF.CreationDate,2023-11-22T15:12:11+07:00*%
%TF.ProjectId,lidar,6c696461-722e-46b6-9963-61645f706362,rev?*%
%TF.SameCoordinates,Original*%
%TF.FileFunction,Legend,Top*%
%TF.FilePolarity,Positive*%
%FSLAX46Y46*%
G04 Gerber Fmt 4.6, Leading zero omitted, Abs format (unit mm)*
G04 Created by KiCad (PCBNEW (6.0.5)) date 2023-11-22 15:12:11*
%MOMM*%
%LPD*%
G01*
G04 APERTURE LIST*
%ADD10C,0.125000*%
%ADD11C,0.098425*%
%ADD12C,0.150000*%
%ADD13C,0.120000*%
%ADD14C,0.127000*%
%ADD15C,0.200000*%
G04 APERTURE END LIST*
D10*
%TO.C,C21*%
X139178571Y-76178571D02*
X139154761Y-76202380D01*
X139083333Y-76226190D01*
X139035714Y-76226190D01*
X138964285Y-76202380D01*
X138916666Y-76154761D01*
X138892857Y-76107142D01*
X138869047Y-76011904D01*
X138869047Y-75940476D01*
X138892857Y-75845238D01*
X138916666Y-75797619D01*
X138964285Y-75750000D01*
X139035714Y-75726190D01*
X139083333Y-75726190D01*
X139154761Y-75750000D01*
X139178571Y-75773809D01*
X139369047Y-75773809D02*
X139392857Y-75750000D01*
X139440476Y-75726190D01*
X139559523Y-75726190D01*
X139607142Y-75750000D01*
X139630952Y-75773809D01*
X139654761Y-75821428D01*
X139654761Y-75869047D01*
X139630952Y-75940476D01*
X139345238Y-76226190D01*
X139654761Y-76226190D01*
X140130952Y-76226190D02*
X139845238Y-76226190D01*
X139988095Y-76226190D02*
X139988095Y-75726190D01*
X139940476Y-75797619D01*
X139892857Y-75845238D01*
X139845238Y-75869047D01*
%TO.C,C27*%
X135098983Y-87053553D02*
X135098983Y-87087225D01*
X135065311Y-87154568D01*
X135031640Y-87188240D01*
X134964296Y-87221912D01*
X134896953Y-87221912D01*
X134846445Y-87205076D01*
X134762266Y-87154568D01*
X134711758Y-87104061D01*
X134661250Y-87019881D01*
X134644415Y-86969374D01*
X134644415Y-86902030D01*
X134678086Y-86834687D01*
X134711758Y-86801015D01*
X134779102Y-86767343D01*
X134812773Y-86767343D01*
X134947460Y-86632656D02*
X134947460Y-86598984D01*
X134964296Y-86548477D01*
X135048476Y-86464297D01*
X135098983Y-86447461D01*
X135132655Y-86447461D01*
X135183163Y-86464297D01*
X135216834Y-86497969D01*
X135250506Y-86565312D01*
X135250506Y-86969374D01*
X135469373Y-86750507D01*
X135233670Y-86279103D02*
X135469373Y-86043400D01*
X135671403Y-86548477D01*
%TO.C,C19*%
X129878571Y-91178571D02*
X129854761Y-91202380D01*
X129783333Y-91226190D01*
X129735714Y-91226190D01*
X129664285Y-91202380D01*
X129616666Y-91154761D01*
X129592857Y-91107142D01*
X129569047Y-91011904D01*
X129569047Y-90940476D01*
X129592857Y-90845238D01*
X129616666Y-90797619D01*
X129664285Y-90750000D01*
X129735714Y-90726190D01*
X129783333Y-90726190D01*
X129854761Y-90750000D01*
X129878571Y-90773809D01*
X130354761Y-91226190D02*
X130069047Y-91226190D01*
X130211904Y-91226190D02*
X130211904Y-90726190D01*
X130164285Y-90797619D01*
X130116666Y-90845238D01*
X130069047Y-90869047D01*
X130592857Y-91226190D02*
X130688095Y-91226190D01*
X130735714Y-91202380D01*
X130759523Y-91178571D01*
X130807142Y-91107142D01*
X130830952Y-91011904D01*
X130830952Y-90821428D01*
X130807142Y-90773809D01*
X130783333Y-90750000D01*
X130735714Y-90726190D01*
X130640476Y-90726190D01*
X130592857Y-90750000D01*
X130569047Y-90773809D01*
X130545238Y-90821428D01*
X130545238Y-90940476D01*
X130569047Y-90988095D01*
X130592857Y-91011904D01*
X130640476Y-91035714D01*
X130735714Y-91035714D01*
X130783333Y-91011904D01*
X130807142Y-90988095D01*
X130830952Y-90940476D01*
%TO.C,C14*%
X141978571Y-78778571D02*
X141954761Y-78802380D01*
X141883333Y-78826190D01*
X141835714Y-78826190D01*
X141764285Y-78802380D01*
X141716666Y-78754761D01*
X141692857Y-78707142D01*
X141669047Y-78611904D01*
X141669047Y-78540476D01*
X141692857Y-78445238D01*
X141716666Y-78397619D01*
X141764285Y-78350000D01*
X141835714Y-78326190D01*
X141883333Y-78326190D01*
X141954761Y-78350000D01*
X141978571Y-78373809D01*
X142454761Y-78826190D02*
X142169047Y-78826190D01*
X142311904Y-78826190D02*
X142311904Y-78326190D01*
X142264285Y-78397619D01*
X142216666Y-78445238D01*
X142169047Y-78469047D01*
X142883333Y-78492857D02*
X142883333Y-78826190D01*
X142764285Y-78302380D02*
X142645238Y-78659523D01*
X142954761Y-78659523D01*
%TO.C,C25*%
X134178571Y-92421428D02*
X134202380Y-92445238D01*
X134226190Y-92516666D01*
X134226190Y-92564285D01*
X134202380Y-92635714D01*
X134154761Y-92683333D01*
X134107142Y-92707142D01*
X134011904Y-92730952D01*
X133940476Y-92730952D01*
X133845238Y-92707142D01*
X133797619Y-92683333D01*
X133750000Y-92635714D01*
X133726190Y-92564285D01*
X133726190Y-92516666D01*
X133750000Y-92445238D01*
X133773809Y-92421428D01*
X133773809Y-92230952D02*
X133750000Y-92207142D01*
X133726190Y-92159523D01*
X133726190Y-92040476D01*
X133750000Y-91992857D01*
X133773809Y-91969047D01*
X133821428Y-91945238D01*
X133869047Y-91945238D01*
X133940476Y-91969047D01*
X134226190Y-92254761D01*
X134226190Y-91945238D01*
X133726190Y-91492857D02*
X133726190Y-91730952D01*
X133964285Y-91754761D01*
X133940476Y-91730952D01*
X133916666Y-91683333D01*
X133916666Y-91564285D01*
X133940476Y-91516666D01*
X133964285Y-91492857D01*
X134011904Y-91469047D01*
X134130952Y-91469047D01*
X134178571Y-91492857D01*
X134202380Y-91516666D01*
X134226190Y-91564285D01*
X134226190Y-91683333D01*
X134202380Y-91730952D01*
X134178571Y-91754761D01*
%TO.C,C7*%
X139867343Y-88885194D02*
X139867343Y-88918866D01*
X139833671Y-88986209D01*
X139800000Y-89019881D01*
X139732656Y-89053553D01*
X139665312Y-89053553D01*
X139614805Y-89036717D01*
X139530625Y-88986209D01*
X139480118Y-88935702D01*
X139429610Y-88851522D01*
X139412774Y-88801015D01*
X139412774Y-88733671D01*
X139446446Y-88666328D01*
X139480118Y-88632656D01*
X139547461Y-88598984D01*
X139581133Y-88598984D01*
X139665312Y-88447461D02*
X139901015Y-88211759D01*
X140103045Y-88716835D01*
%TO.C,C23*%
X138778571Y-92278571D02*
X138754761Y-92302380D01*
X138683333Y-92326190D01*
X138635714Y-92326190D01*
X138564285Y-92302380D01*
X138516666Y-92254761D01*
X138492857Y-92207142D01*
X138469047Y-92111904D01*
X138469047Y-92040476D01*
X138492857Y-91945238D01*
X138516666Y-91897619D01*
X138564285Y-91850000D01*
X138635714Y-91826190D01*
X138683333Y-91826190D01*
X138754761Y-91850000D01*
X138778571Y-91873809D01*
X138969047Y-91873809D02*
X138992857Y-91850000D01*
X139040476Y-91826190D01*
X139159523Y-91826190D01*
X139207142Y-91850000D01*
X139230952Y-91873809D01*
X139254761Y-91921428D01*
X139254761Y-91969047D01*
X139230952Y-92040476D01*
X138945238Y-92326190D01*
X139254761Y-92326190D01*
X139421428Y-91826190D02*
X139730952Y-91826190D01*
X139564285Y-92016666D01*
X139635714Y-92016666D01*
X139683333Y-92040476D01*
X139707142Y-92064285D01*
X139730952Y-92111904D01*
X139730952Y-92230952D01*
X139707142Y-92278571D01*
X139683333Y-92302380D01*
X139635714Y-92326190D01*
X139492857Y-92326190D01*
X139445238Y-92302380D01*
X139421428Y-92278571D01*
%TO.C,C28*%
X136098983Y-86053553D02*
X136098983Y-86087225D01*
X136065311Y-86154568D01*
X136031640Y-86188240D01*
X135964296Y-86221912D01*
X135896953Y-86221912D01*
X135846445Y-86205076D01*
X135762266Y-86154568D01*
X135711758Y-86104061D01*
X135661250Y-86019881D01*
X135644415Y-85969374D01*
X135644415Y-85902030D01*
X135678086Y-85834687D01*
X135711758Y-85801015D01*
X135779102Y-85767343D01*
X135812773Y-85767343D01*
X135947460Y-85632656D02*
X135947460Y-85598984D01*
X135964296Y-85548477D01*
X136048476Y-85464297D01*
X136098983Y-85447461D01*
X136132655Y-85447461D01*
X136183163Y-85464297D01*
X136216834Y-85497969D01*
X136250506Y-85565312D01*
X136250506Y-85969374D01*
X136469373Y-85750507D01*
X136469373Y-85346446D02*
X136418865Y-85363282D01*
X136385193Y-85363282D01*
X136334686Y-85346446D01*
X136317850Y-85329610D01*
X136301014Y-85279103D01*
X136301014Y-85245431D01*
X136317850Y-85194923D01*
X136385193Y-85127580D01*
X136435701Y-85110744D01*
X136469373Y-85110744D01*
X136519880Y-85127580D01*
X136536716Y-85144416D01*
X136553552Y-85194923D01*
X136553552Y-85228595D01*
X136536716Y-85279103D01*
X136469373Y-85346446D01*
X136452537Y-85396954D01*
X136452537Y-85430625D01*
X136469373Y-85481133D01*
X136536716Y-85548477D01*
X136587224Y-85565312D01*
X136620895Y-85565312D01*
X136671403Y-85548477D01*
X136738747Y-85481133D01*
X136755582Y-85430625D01*
X136755582Y-85396954D01*
X136738747Y-85346446D01*
X136671403Y-85279103D01*
X136620895Y-85262267D01*
X136587224Y-85262267D01*
X136536716Y-85279103D01*
%TO.C,R12*%
X142832656Y-83187225D02*
X142546446Y-83136717D01*
X142630625Y-83389255D02*
X142277072Y-83035702D01*
X142411759Y-82901015D01*
X142462267Y-82884179D01*
X142495938Y-82884179D01*
X142546446Y-82901015D01*
X142596954Y-82951522D01*
X142613790Y-83002030D01*
X142613790Y-83035702D01*
X142596954Y-83086209D01*
X142462267Y-83220896D01*
X143169374Y-82850507D02*
X142967343Y-83052538D01*
X143068358Y-82951522D02*
X142714805Y-82597969D01*
X142731641Y-82682148D01*
X142731641Y-82749492D01*
X142714805Y-82800000D01*
X142984179Y-82395938D02*
X142984179Y-82362267D01*
X143001015Y-82311759D01*
X143085194Y-82227580D01*
X143135702Y-82210744D01*
X143169374Y-82210744D01*
X143219881Y-82227580D01*
X143253553Y-82261251D01*
X143287225Y-82328595D01*
X143287225Y-82732656D01*
X143506091Y-82513790D01*
%TO.C,C30*%
X141953553Y-86701014D02*
X141987225Y-86701014D01*
X142054568Y-86734686D01*
X142088240Y-86768357D01*
X142121912Y-86835701D01*
X142121912Y-86903044D01*
X142105076Y-86953552D01*
X142054568Y-87037731D01*
X142004061Y-87088239D01*
X141919881Y-87138747D01*
X141869374Y-87155582D01*
X141802030Y-87155582D01*
X141734687Y-87121911D01*
X141701015Y-87088239D01*
X141667343Y-87020895D01*
X141667343Y-86987224D01*
X141515820Y-86903044D02*
X141296954Y-86684178D01*
X141549492Y-86667342D01*
X141498984Y-86616834D01*
X141482148Y-86566327D01*
X141482148Y-86532655D01*
X141498984Y-86482147D01*
X141583164Y-86397968D01*
X141633671Y-86381132D01*
X141667343Y-86381132D01*
X141717851Y-86397968D01*
X141818866Y-86498983D01*
X141835702Y-86549491D01*
X141835702Y-86583163D01*
X141078087Y-86465311D02*
X141044416Y-86431640D01*
X141027580Y-86381132D01*
X141027580Y-86347460D01*
X141044416Y-86296953D01*
X141094923Y-86212773D01*
X141179103Y-86128594D01*
X141263282Y-86078086D01*
X141313790Y-86061250D01*
X141347461Y-86061250D01*
X141397969Y-86078086D01*
X141431641Y-86111758D01*
X141448477Y-86162266D01*
X141448477Y-86195937D01*
X141431641Y-86246445D01*
X141381133Y-86330624D01*
X141296954Y-86414804D01*
X141212774Y-86465311D01*
X141162267Y-86482147D01*
X141128595Y-86482147D01*
X141078087Y-86465311D01*
%TO.C,C17*%
X135464670Y-76456496D02*
X135464670Y-76490168D01*
X135430998Y-76557511D01*
X135397327Y-76591183D01*
X135329983Y-76624855D01*
X135262640Y-76624855D01*
X135212132Y-76608019D01*
X135127953Y-76557511D01*
X135077445Y-76507004D01*
X135026937Y-76422824D01*
X135010102Y-76372317D01*
X135010102Y-76304973D01*
X135043773Y-76237630D01*
X135077445Y-76203958D01*
X135144789Y-76170286D01*
X135178460Y-76170286D01*
X135835060Y-76153450D02*
X135633029Y-76355481D01*
X135734044Y-76254465D02*
X135380491Y-75900912D01*
X135397327Y-75985091D01*
X135397327Y-76052435D01*
X135380491Y-76102943D01*
X135599357Y-75682046D02*
X135835060Y-75446343D01*
X136037090Y-75951420D01*
%TO.C,R11*%
X142132655Y-85587225D02*
X141846445Y-85536717D01*
X141930624Y-85789255D02*
X141577071Y-85435702D01*
X141711758Y-85301015D01*
X141762266Y-85284179D01*
X141795937Y-85284179D01*
X141846445Y-85301015D01*
X141896953Y-85351522D01*
X141913789Y-85402030D01*
X141913789Y-85435702D01*
X141896953Y-85486209D01*
X141762266Y-85620896D01*
X142469373Y-85250507D02*
X142267342Y-85452538D01*
X142368357Y-85351522D02*
X142014804Y-84997969D01*
X142031640Y-85082148D01*
X142031640Y-85149492D01*
X142014804Y-85200000D01*
X142806090Y-84913790D02*
X142604060Y-85115820D01*
X142705075Y-85014805D02*
X142351521Y-84661251D01*
X142368357Y-84745431D01*
X142368357Y-84812774D01*
X142351521Y-84863282D01*
%TO.C,C8*%
X139167343Y-89485194D02*
X139167343Y-89518866D01*
X139133671Y-89586209D01*
X139100000Y-89619881D01*
X139032656Y-89653553D01*
X138965312Y-89653553D01*
X138914805Y-89636717D01*
X138830625Y-89586209D01*
X138780118Y-89535702D01*
X138729610Y-89451522D01*
X138712774Y-89401015D01*
X138712774Y-89333671D01*
X138746446Y-89266328D01*
X138780118Y-89232656D01*
X138847461Y-89198984D01*
X138881133Y-89198984D01*
X139201015Y-89114805D02*
X139150507Y-89131641D01*
X139116835Y-89131641D01*
X139066328Y-89114805D01*
X139049492Y-89097969D01*
X139032656Y-89047461D01*
X139032656Y-89013790D01*
X139049492Y-88963282D01*
X139116835Y-88895938D01*
X139167343Y-88879103D01*
X139201015Y-88879103D01*
X139251522Y-88895938D01*
X139268358Y-88912774D01*
X139285194Y-88963282D01*
X139285194Y-88996954D01*
X139268358Y-89047461D01*
X139201015Y-89114805D01*
X139184179Y-89165312D01*
X139184179Y-89198984D01*
X139201015Y-89249492D01*
X139268358Y-89316835D01*
X139318866Y-89333671D01*
X139352538Y-89333671D01*
X139403045Y-89316835D01*
X139470389Y-89249492D01*
X139487225Y-89198984D01*
X139487225Y-89165312D01*
X139470389Y-89114805D01*
X139403045Y-89047461D01*
X139352538Y-89030625D01*
X139318866Y-89030625D01*
X139268358Y-89047461D01*
%TO.C,C18*%
X129878571Y-90178571D02*
X129854761Y-90202380D01*
X129783333Y-90226190D01*
X129735714Y-90226190D01*
X129664285Y-90202380D01*
X129616666Y-90154761D01*
X129592857Y-90107142D01*
X129569047Y-90011904D01*
X129569047Y-89940476D01*
X129592857Y-89845238D01*
X129616666Y-89797619D01*
X129664285Y-89750000D01*
X129735714Y-89726190D01*
X129783333Y-89726190D01*
X129854761Y-89750000D01*
X129878571Y-89773809D01*
X130354761Y-90226190D02*
X130069047Y-90226190D01*
X130211904Y-90226190D02*
X130211904Y-89726190D01*
X130164285Y-89797619D01*
X130116666Y-89845238D01*
X130069047Y-89869047D01*
X130640476Y-89940476D02*
X130592857Y-89916666D01*
X130569047Y-89892857D01*
X130545238Y-89845238D01*
X130545238Y-89821428D01*
X130569047Y-89773809D01*
X130592857Y-89750000D01*
X130640476Y-89726190D01*
X130735714Y-89726190D01*
X130783333Y-89750000D01*
X130807142Y-89773809D01*
X130830952Y-89821428D01*
X130830952Y-89845238D01*
X130807142Y-89892857D01*
X130783333Y-89916666D01*
X130735714Y-89940476D01*
X130640476Y-89940476D01*
X130592857Y-89964285D01*
X130569047Y-89988095D01*
X130545238Y-90035714D01*
X130545238Y-90130952D01*
X130569047Y-90178571D01*
X130592857Y-90202380D01*
X130640476Y-90226190D01*
X130735714Y-90226190D01*
X130783333Y-90202380D01*
X130807142Y-90178571D01*
X130830952Y-90130952D01*
X130830952Y-90035714D01*
X130807142Y-89988095D01*
X130783333Y-89964285D01*
X130735714Y-89940476D01*
%TO.C,C15*%
X135878571Y-78978571D02*
X135854761Y-79002380D01*
X135783333Y-79026190D01*
X135735714Y-79026190D01*
X135664285Y-79002380D01*
X135616666Y-78954761D01*
X135592857Y-78907142D01*
X135569047Y-78811904D01*
X135569047Y-78740476D01*
X135592857Y-78645238D01*
X135616666Y-78597619D01*
X135664285Y-78550000D01*
X135735714Y-78526190D01*
X135783333Y-78526190D01*
X135854761Y-78550000D01*
X135878571Y-78573809D01*
X136354761Y-79026190D02*
X136069047Y-79026190D01*
X136211904Y-79026190D02*
X136211904Y-78526190D01*
X136164285Y-78597619D01*
X136116666Y-78645238D01*
X136069047Y-78669047D01*
X136807142Y-78526190D02*
X136569047Y-78526190D01*
X136545238Y-78764285D01*
X136569047Y-78740476D01*
X136616666Y-78716666D01*
X136735714Y-78716666D01*
X136783333Y-78740476D01*
X136807142Y-78764285D01*
X136830952Y-78811904D01*
X136830952Y-78930952D01*
X136807142Y-78978571D01*
X136783333Y-79002380D01*
X136735714Y-79026190D01*
X136616666Y-79026190D01*
X136569047Y-79002380D01*
X136545238Y-78978571D01*
D11*
%TO.C,FB7*%
X142771915Y-89371878D02*
X142640682Y-89371878D01*
X142640682Y-89578102D02*
X142640682Y-89184401D01*
X142828158Y-89184401D01*
X143109373Y-89371878D02*
X143165616Y-89390626D01*
X143184364Y-89409373D01*
X143203112Y-89446869D01*
X143203112Y-89503112D01*
X143184364Y-89540607D01*
X143165616Y-89559355D01*
X143128121Y-89578102D01*
X142978140Y-89578102D01*
X142978140Y-89184401D01*
X143109373Y-89184401D01*
X143146869Y-89203149D01*
X143165616Y-89221897D01*
X143184364Y-89259392D01*
X143184364Y-89296887D01*
X143165616Y-89334383D01*
X143146869Y-89353130D01*
X143109373Y-89371878D01*
X142978140Y-89371878D01*
X143334345Y-89184401D02*
X143596813Y-89184401D01*
X143428084Y-89578102D01*
%TO.C,FB5*%
X142712105Y-87851875D02*
X142804901Y-87944671D01*
X142950724Y-87798849D02*
X142672335Y-88077237D01*
X142539769Y-87944671D01*
X142473486Y-87613256D02*
X142446973Y-87560230D01*
X142446973Y-87533716D01*
X142460230Y-87493947D01*
X142500000Y-87454177D01*
X142539769Y-87440920D01*
X142566283Y-87440920D01*
X142606052Y-87454177D01*
X142712105Y-87560230D01*
X142433716Y-87838618D01*
X142340920Y-87745822D01*
X142327664Y-87706052D01*
X142327664Y-87679539D01*
X142340920Y-87639769D01*
X142367433Y-87613256D01*
X142407203Y-87599999D01*
X142433716Y-87599999D01*
X142473486Y-87613256D01*
X142566283Y-87706052D01*
X142022762Y-87427664D02*
X142155328Y-87560230D01*
X142301150Y-87440920D01*
X142274637Y-87440920D01*
X142234867Y-87427664D01*
X142168584Y-87361381D01*
X142155328Y-87321611D01*
X142155328Y-87295098D01*
X142168584Y-87255328D01*
X142234867Y-87189045D01*
X142274637Y-87175788D01*
X142301150Y-87175788D01*
X142340920Y-87189045D01*
X142407203Y-87255328D01*
X142420460Y-87295098D01*
X142420460Y-87321611D01*
D10*
%TO.C,R17*%
X132278571Y-83726190D02*
X132111904Y-83488095D01*
X131992857Y-83726190D02*
X131992857Y-83226190D01*
X132183333Y-83226190D01*
X132230952Y-83250000D01*
X132254761Y-83273809D01*
X132278571Y-83321428D01*
X132278571Y-83392857D01*
X132254761Y-83440476D01*
X132230952Y-83464285D01*
X132183333Y-83488095D01*
X131992857Y-83488095D01*
X132754761Y-83726190D02*
X132469047Y-83726190D01*
X132611904Y-83726190D02*
X132611904Y-83226190D01*
X132564285Y-83297619D01*
X132516666Y-83345238D01*
X132469047Y-83369047D01*
X132921428Y-83226190D02*
X133254761Y-83226190D01*
X133040476Y-83726190D01*
D11*
%TO.C,FB4*%
X136871915Y-91551878D02*
X136740682Y-91551878D01*
X136740682Y-91758102D02*
X136740682Y-91364401D01*
X136928158Y-91364401D01*
X137209373Y-91551878D02*
X137265616Y-91570626D01*
X137284364Y-91589373D01*
X137303112Y-91626869D01*
X137303112Y-91683112D01*
X137284364Y-91720607D01*
X137265616Y-91739355D01*
X137228121Y-91758102D01*
X137078140Y-91758102D01*
X137078140Y-91364401D01*
X137209373Y-91364401D01*
X137246869Y-91383149D01*
X137265616Y-91401897D01*
X137284364Y-91439392D01*
X137284364Y-91476887D01*
X137265616Y-91514383D01*
X137246869Y-91533130D01*
X137209373Y-91551878D01*
X137078140Y-91551878D01*
X137640570Y-91495635D02*
X137640570Y-91758102D01*
X137546831Y-91345654D02*
X137453093Y-91626869D01*
X137696813Y-91626869D01*
D10*
%TO.C,C20*%
X134598984Y-85553553D02*
X134598984Y-85587225D01*
X134565312Y-85654568D01*
X134531641Y-85688240D01*
X134464297Y-85721912D01*
X134396954Y-85721912D01*
X134346446Y-85705076D01*
X134262267Y-85654568D01*
X134211759Y-85604061D01*
X134161251Y-85519881D01*
X134144416Y-85469374D01*
X134144416Y-85402030D01*
X134178087Y-85334687D01*
X134211759Y-85301015D01*
X134279103Y-85267343D01*
X134312774Y-85267343D01*
X134447461Y-85132656D02*
X134447461Y-85098984D01*
X134464297Y-85048477D01*
X134548477Y-84964297D01*
X134598984Y-84947461D01*
X134632656Y-84947461D01*
X134683164Y-84964297D01*
X134716835Y-84997969D01*
X134750507Y-85065312D01*
X134750507Y-85469374D01*
X134969374Y-85250507D01*
X134834687Y-84678087D02*
X134868358Y-84644416D01*
X134918866Y-84627580D01*
X134952538Y-84627580D01*
X135003045Y-84644416D01*
X135087225Y-84694923D01*
X135171404Y-84779103D01*
X135221912Y-84863282D01*
X135238748Y-84913790D01*
X135238748Y-84947461D01*
X135221912Y-84997969D01*
X135188240Y-85031641D01*
X135137732Y-85048477D01*
X135104061Y-85048477D01*
X135053553Y-85031641D01*
X134969374Y-84981133D01*
X134885194Y-84896954D01*
X134834687Y-84812774D01*
X134817851Y-84762267D01*
X134817851Y-84728595D01*
X134834687Y-84678087D01*
D12*
%TO.C,U1*%
X134160746Y-80570582D02*
X134733166Y-81143002D01*
X134834181Y-81176674D01*
X134901525Y-81176674D01*
X135002540Y-81143002D01*
X135137227Y-81008315D01*
X135170899Y-80907300D01*
X135170899Y-80839956D01*
X135137227Y-80738941D01*
X134564807Y-80166521D01*
X135979021Y-80166521D02*
X135574960Y-80570582D01*
X135776990Y-80368552D02*
X135069884Y-79661445D01*
X135103555Y-79829804D01*
X135103555Y-79964491D01*
X135069884Y-80065506D01*
D10*
%TO.C,C26*%
X134978571Y-92421428D02*
X135002380Y-92445238D01*
X135026190Y-92516666D01*
X135026190Y-92564285D01*
X135002380Y-92635714D01*
X134954761Y-92683333D01*
X134907142Y-92707142D01*
X134811904Y-92730952D01*
X134740476Y-92730952D01*
X134645238Y-92707142D01*
X134597619Y-92683333D01*
X134550000Y-92635714D01*
X134526190Y-92564285D01*
X134526190Y-92516666D01*
X134550000Y-92445238D01*
X134573809Y-92421428D01*
X134573809Y-92230952D02*
X134550000Y-92207142D01*
X134526190Y-92159523D01*
X134526190Y-92040476D01*
X134550000Y-91992857D01*
X134573809Y-91969047D01*
X134621428Y-91945238D01*
X134669047Y-91945238D01*
X134740476Y-91969047D01*
X135026190Y-92254761D01*
X135026190Y-91945238D01*
X134526190Y-91516666D02*
X134526190Y-91611904D01*
X134550000Y-91659523D01*
X134573809Y-91683333D01*
X134645238Y-91730952D01*
X134740476Y-91754761D01*
X134930952Y-91754761D01*
X134978571Y-91730952D01*
X135002380Y-91707142D01*
X135026190Y-91659523D01*
X135026190Y-91564285D01*
X135002380Y-91516666D01*
X134978571Y-91492857D01*
X134930952Y-91469047D01*
X134811904Y-91469047D01*
X134764285Y-91492857D01*
X134740476Y-91516666D01*
X134716666Y-91564285D01*
X134716666Y-91659523D01*
X134740476Y-91707142D01*
X134764285Y-91730952D01*
X134811904Y-91754761D01*
%TO.C,C13*%
X135878571Y-78278571D02*
X135854761Y-78302380D01*
X135783333Y-78326190D01*
X135735714Y-78326190D01*
X135664285Y-78302380D01*
X135616666Y-78254761D01*
X135592857Y-78207142D01*
X135569047Y-78111904D01*
X135569047Y-78040476D01*
X135592857Y-77945238D01*
X135616666Y-77897619D01*
X135664285Y-77850000D01*
X135735714Y-77826190D01*
X135783333Y-77826190D01*
X135854761Y-77850000D01*
X135878571Y-77873809D01*
X136354761Y-78326190D02*
X136069047Y-78326190D01*
X136211904Y-78326190D02*
X136211904Y-77826190D01*
X136164285Y-77897619D01*
X136116666Y-77945238D01*
X136069047Y-77969047D01*
X136521428Y-77826190D02*
X136830952Y-77826190D01*
X136664285Y-78016666D01*
X136735714Y-78016666D01*
X136783333Y-78040476D01*
X136807142Y-78064285D01*
X136830952Y-78111904D01*
X136830952Y-78230952D01*
X136807142Y-78278571D01*
X136783333Y-78302380D01*
X136735714Y-78326190D01*
X136592857Y-78326190D01*
X136545238Y-78302380D01*
X136521428Y-78278571D01*
D11*
%TO.C,FB2*%
X141571915Y-89471878D02*
X141440682Y-89471878D01*
X141440682Y-89678102D02*
X141440682Y-89284401D01*
X141628158Y-89284401D01*
X141909373Y-89471878D02*
X141965616Y-89490626D01*
X141984364Y-89509373D01*
X142003112Y-89546869D01*
X142003112Y-89603112D01*
X141984364Y-89640607D01*
X141965616Y-89659355D01*
X141928121Y-89678102D01*
X141778140Y-89678102D01*
X141778140Y-89284401D01*
X141909373Y-89284401D01*
X141946869Y-89303149D01*
X141965616Y-89321897D01*
X141984364Y-89359392D01*
X141984364Y-89396887D01*
X141965616Y-89434383D01*
X141946869Y-89453130D01*
X141909373Y-89471878D01*
X141778140Y-89471878D01*
X142153093Y-89321897D02*
X142171841Y-89303149D01*
X142209336Y-89284401D01*
X142303074Y-89284401D01*
X142340570Y-89303149D01*
X142359317Y-89321897D01*
X142378065Y-89359392D01*
X142378065Y-89396887D01*
X142359317Y-89453130D01*
X142134345Y-89678102D01*
X142378065Y-89678102D01*
%TO.C,FB3*%
X135871915Y-73471878D02*
X135740682Y-73471878D01*
X135740682Y-73678102D02*
X135740682Y-73284401D01*
X135928158Y-73284401D01*
X136209373Y-73471878D02*
X136265616Y-73490626D01*
X136284364Y-73509373D01*
X136303112Y-73546869D01*
X136303112Y-73603112D01*
X136284364Y-73640607D01*
X136265616Y-73659355D01*
X136228121Y-73678102D01*
X136078140Y-73678102D01*
X136078140Y-73284401D01*
X136209373Y-73284401D01*
X136246869Y-73303149D01*
X136265616Y-73321897D01*
X136284364Y-73359392D01*
X136284364Y-73396887D01*
X136265616Y-73434383D01*
X136246869Y-73453130D01*
X136209373Y-73471878D01*
X136078140Y-73471878D01*
X136434345Y-73284401D02*
X136678065Y-73284401D01*
X136546831Y-73434383D01*
X136603074Y-73434383D01*
X136640570Y-73453130D01*
X136659317Y-73471878D01*
X136678065Y-73509373D01*
X136678065Y-73603112D01*
X136659317Y-73640607D01*
X136640570Y-73659355D01*
X136603074Y-73678102D01*
X136490588Y-73678102D01*
X136453093Y-73659355D01*
X136434345Y-73640607D01*
%TO.C,FB6*%
X138371915Y-73471878D02*
X138240682Y-73471878D01*
X138240682Y-73678102D02*
X138240682Y-73284401D01*
X138428158Y-73284401D01*
X138709373Y-73471878D02*
X138765616Y-73490626D01*
X138784364Y-73509373D01*
X138803112Y-73546869D01*
X138803112Y-73603112D01*
X138784364Y-73640607D01*
X138765616Y-73659355D01*
X138728121Y-73678102D01*
X138578140Y-73678102D01*
X138578140Y-73284401D01*
X138709373Y-73284401D01*
X138746869Y-73303149D01*
X138765616Y-73321897D01*
X138784364Y-73359392D01*
X138784364Y-73396887D01*
X138765616Y-73434383D01*
X138746869Y-73453130D01*
X138709373Y-73471878D01*
X138578140Y-73471878D01*
X139140570Y-73284401D02*
X139065579Y-73284401D01*
X139028084Y-73303149D01*
X139009336Y-73321897D01*
X138971841Y-73378140D01*
X138953093Y-73453130D01*
X138953093Y-73603112D01*
X138971841Y-73640607D01*
X138990588Y-73659355D01*
X139028084Y-73678102D01*
X139103074Y-73678102D01*
X139140570Y-73659355D01*
X139159317Y-73640607D01*
X139178065Y-73603112D01*
X139178065Y-73509373D01*
X139159317Y-73471878D01*
X139140570Y-73453130D01*
X139103074Y-73434383D01*
X139028084Y-73434383D01*
X138990588Y-73453130D01*
X138971841Y-73471878D01*
X138953093Y-73509373D01*
%TO.C,FB1*%
X140371878Y-77428084D02*
X140371878Y-77559317D01*
X140578102Y-77559317D02*
X140184401Y-77559317D01*
X140184401Y-77371841D01*
X140371878Y-77090626D02*
X140390626Y-77034383D01*
X140409373Y-77015635D01*
X140446869Y-76996887D01*
X140503112Y-76996887D01*
X140540607Y-77015635D01*
X140559355Y-77034383D01*
X140578102Y-77071878D01*
X140578102Y-77221859D01*
X140184401Y-77221859D01*
X140184401Y-77090626D01*
X140203149Y-77053130D01*
X140221897Y-77034383D01*
X140259392Y-77015635D01*
X140296887Y-77015635D01*
X140334383Y-77034383D01*
X140353130Y-77053130D01*
X140371878Y-77090626D01*
X140371878Y-77221859D01*
X140578102Y-76621934D02*
X140578102Y-76846906D01*
X140578102Y-76734420D02*
X140184401Y-76734420D01*
X140240644Y-76771915D01*
X140278140Y-76809411D01*
X140296887Y-76846906D01*
D10*
%TO.C,C37*%
X142578571Y-95078571D02*
X142554761Y-95102380D01*
X142483333Y-95126190D01*
X142435714Y-95126190D01*
X142364285Y-95102380D01*
X142316666Y-95054761D01*
X142292857Y-95007142D01*
X142269047Y-94911904D01*
X142269047Y-94840476D01*
X142292857Y-94745238D01*
X142316666Y-94697619D01*
X142364285Y-94650000D01*
X142435714Y-94626190D01*
X142483333Y-94626190D01*
X142554761Y-94650000D01*
X142578571Y-94673809D01*
X142745238Y-94626190D02*
X143054761Y-94626190D01*
X142888095Y-94816666D01*
X142959523Y-94816666D01*
X143007142Y-94840476D01*
X143030952Y-94864285D01*
X143054761Y-94911904D01*
X143054761Y-95030952D01*
X143030952Y-95078571D01*
X143007142Y-95102380D01*
X142959523Y-95126190D01*
X142816666Y-95126190D01*
X142769047Y-95102380D01*
X142745238Y-95078571D01*
X143221428Y-94626190D02*
X143554761Y-94626190D01*
X143340476Y-95126190D01*
%TO.C,R15*%
X132278571Y-81526190D02*
X132111904Y-81288095D01*
X131992857Y-81526190D02*
X131992857Y-81026190D01*
X132183333Y-81026190D01*
X132230952Y-81050000D01*
X132254761Y-81073809D01*
X132278571Y-81121428D01*
X132278571Y-81192857D01*
X132254761Y-81240476D01*
X132230952Y-81264285D01*
X132183333Y-81288095D01*
X131992857Y-81288095D01*
X132754761Y-81526190D02*
X132469047Y-81526190D01*
X132611904Y-81526190D02*
X132611904Y-81026190D01*
X132564285Y-81097619D01*
X132516666Y-81145238D01*
X132469047Y-81169047D01*
X133207142Y-81026190D02*
X132969047Y-81026190D01*
X132945238Y-81264285D01*
X132969047Y-81240476D01*
X133016666Y-81216666D01*
X133135714Y-81216666D01*
X133183333Y-81240476D01*
X133207142Y-81264285D01*
X133230952Y-81311904D01*
X133230952Y-81430952D01*
X133207142Y-81478571D01*
X133183333Y-81502380D01*
X133135714Y-81526190D01*
X133016666Y-81526190D01*
X132969047Y-81502380D01*
X132945238Y-81478571D01*
%TO.C,C22*%
X138978571Y-75578571D02*
X138954761Y-75602380D01*
X138883333Y-75626190D01*
X138835714Y-75626190D01*
X138764285Y-75602380D01*
X138716666Y-75554761D01*
X138692857Y-75507142D01*
X138669047Y-75411904D01*
X138669047Y-75340476D01*
X138692857Y-75245238D01*
X138716666Y-75197619D01*
X138764285Y-75150000D01*
X138835714Y-75126190D01*
X138883333Y-75126190D01*
X138954761Y-75150000D01*
X138978571Y-75173809D01*
X139169047Y-75173809D02*
X139192857Y-75150000D01*
X139240476Y-75126190D01*
X139359523Y-75126190D01*
X139407142Y-75150000D01*
X139430952Y-75173809D01*
X139454761Y-75221428D01*
X139454761Y-75269047D01*
X139430952Y-75340476D01*
X139145238Y-75626190D01*
X139454761Y-75626190D01*
X139645238Y-75173809D02*
X139669047Y-75150000D01*
X139716666Y-75126190D01*
X139835714Y-75126190D01*
X139883333Y-75150000D01*
X139907142Y-75173809D01*
X139930952Y-75221428D01*
X139930952Y-75269047D01*
X139907142Y-75340476D01*
X139621428Y-75626190D01*
X139930952Y-75626190D01*
%TO.C,C29*%
X140853553Y-85701015D02*
X140887225Y-85701015D01*
X140954568Y-85734687D01*
X140988240Y-85768358D01*
X141021912Y-85835702D01*
X141021912Y-85903045D01*
X141005076Y-85953553D01*
X140954568Y-86037732D01*
X140904061Y-86088240D01*
X140819881Y-86138748D01*
X140769374Y-86155583D01*
X140702030Y-86155583D01*
X140634687Y-86121912D01*
X140601015Y-86088240D01*
X140567343Y-86020896D01*
X140567343Y-85987225D01*
X140432656Y-85852538D02*
X140398984Y-85852538D01*
X140348477Y-85835702D01*
X140264297Y-85751522D01*
X140247461Y-85701015D01*
X140247461Y-85667343D01*
X140264297Y-85616835D01*
X140297969Y-85583164D01*
X140365312Y-85549492D01*
X140769374Y-85549492D01*
X140550507Y-85330625D01*
X140382148Y-85162267D02*
X140314805Y-85094923D01*
X140264297Y-85078087D01*
X140230625Y-85078087D01*
X140146446Y-85094923D01*
X140062267Y-85145431D01*
X139927580Y-85280118D01*
X139910744Y-85330625D01*
X139910744Y-85364297D01*
X139927580Y-85414805D01*
X139994923Y-85482148D01*
X140045431Y-85498984D01*
X140079103Y-85498984D01*
X140129610Y-85482148D01*
X140213790Y-85397969D01*
X140230625Y-85347461D01*
X140230625Y-85313790D01*
X140213790Y-85263282D01*
X140146446Y-85195938D01*
X140095938Y-85179103D01*
X140062267Y-85179103D01*
X140011759Y-85195938D01*
%TO.C,R16*%
X132278571Y-82626190D02*
X132111904Y-82388095D01*
X131992857Y-82626190D02*
X131992857Y-82126190D01*
X132183333Y-82126190D01*
X132230952Y-82150000D01*
X132254761Y-82173809D01*
X132278571Y-82221428D01*
X132278571Y-82292857D01*
X132254761Y-82340476D01*
X132230952Y-82364285D01*
X132183333Y-82388095D01*
X131992857Y-82388095D01*
X132754761Y-82626190D02*
X132469047Y-82626190D01*
X132611904Y-82626190D02*
X132611904Y-82126190D01*
X132564285Y-82197619D01*
X132516666Y-82245238D01*
X132469047Y-82269047D01*
X133183333Y-82126190D02*
X133088095Y-82126190D01*
X133040476Y-82150000D01*
X133016666Y-82173809D01*
X132969047Y-82245238D01*
X132945238Y-82340476D01*
X132945238Y-82530952D01*
X132969047Y-82578571D01*
X132992857Y-82602380D01*
X133040476Y-82626190D01*
X133135714Y-82626190D01*
X133183333Y-82602380D01*
X133207142Y-82578571D01*
X133230952Y-82530952D01*
X133230952Y-82411904D01*
X133207142Y-82364285D01*
X133183333Y-82340476D01*
X133135714Y-82316666D01*
X133040476Y-82316666D01*
X132992857Y-82340476D01*
X132969047Y-82364285D01*
X132945238Y-82411904D01*
%TO.C,J1*%
X135933333Y-92126190D02*
X135933333Y-92483333D01*
X135909523Y-92554761D01*
X135861904Y-92602380D01*
X135790476Y-92626190D01*
X135742857Y-92626190D01*
X136433333Y-92626190D02*
X136147619Y-92626190D01*
X136290476Y-92626190D02*
X136290476Y-92126190D01*
X136242857Y-92197619D01*
X136195238Y-92245238D01*
X136147619Y-92269047D01*
%TO.C,C24*%
X140078571Y-89578571D02*
X140054761Y-89602380D01*
X139983333Y-89626190D01*
X139935714Y-89626190D01*
X139864285Y-89602380D01*
X139816666Y-89554761D01*
X139792857Y-89507142D01*
X139769047Y-89411904D01*
X139769047Y-89340476D01*
X139792857Y-89245238D01*
X139816666Y-89197619D01*
X139864285Y-89150000D01*
X139935714Y-89126190D01*
X139983333Y-89126190D01*
X140054761Y-89150000D01*
X140078571Y-89173809D01*
X140269047Y-89173809D02*
X140292857Y-89150000D01*
X140340476Y-89126190D01*
X140459523Y-89126190D01*
X140507142Y-89150000D01*
X140530952Y-89173809D01*
X140554761Y-89221428D01*
X140554761Y-89269047D01*
X140530952Y-89340476D01*
X140245238Y-89626190D01*
X140554761Y-89626190D01*
X140983333Y-89292857D02*
X140983333Y-89626190D01*
X140864285Y-89102380D02*
X140745238Y-89459523D01*
X141054761Y-89459523D01*
%TO.C,C16*%
X141978571Y-79878571D02*
X141954761Y-79902380D01*
X141883333Y-79926190D01*
X141835714Y-79926190D01*
X141764285Y-79902380D01*
X141716666Y-79854761D01*
X141692857Y-79807142D01*
X141669047Y-79711904D01*
X141669047Y-79640476D01*
X141692857Y-79545238D01*
X141716666Y-79497619D01*
X141764285Y-79450000D01*
X141835714Y-79426190D01*
X141883333Y-79426190D01*
X141954761Y-79450000D01*
X141978571Y-79473809D01*
X142454761Y-79926190D02*
X142169047Y-79926190D01*
X142311904Y-79926190D02*
X142311904Y-79426190D01*
X142264285Y-79497619D01*
X142216666Y-79545238D01*
X142169047Y-79569047D01*
X142883333Y-79426190D02*
X142788095Y-79426190D01*
X142740476Y-79450000D01*
X142716666Y-79473809D01*
X142669047Y-79545238D01*
X142645238Y-79640476D01*
X142645238Y-79830952D01*
X142669047Y-79878571D01*
X142692857Y-79902380D01*
X142740476Y-79926190D01*
X142835714Y-79926190D01*
X142883333Y-79902380D01*
X142907142Y-79878571D01*
X142930952Y-79830952D01*
X142930952Y-79711904D01*
X142907142Y-79664285D01*
X142883333Y-79640476D01*
X142835714Y-79616666D01*
X142740476Y-79616666D01*
X142692857Y-79640476D01*
X142669047Y-79664285D01*
X142645238Y-79711904D01*
%TO.C,C38*%
X143578571Y-93021428D02*
X143602380Y-93045238D01*
X143626190Y-93116666D01*
X143626190Y-93164285D01*
X143602380Y-93235714D01*
X143554761Y-93283333D01*
X143507142Y-93307142D01*
X143411904Y-93330952D01*
X143340476Y-93330952D01*
X143245238Y-93307142D01*
X143197619Y-93283333D01*
X143150000Y-93235714D01*
X143126190Y-93164285D01*
X143126190Y-93116666D01*
X143150000Y-93045238D01*
X143173809Y-93021428D01*
X143126190Y-92854761D02*
X143126190Y-92545238D01*
X143316666Y-92711904D01*
X143316666Y-92640476D01*
X143340476Y-92592857D01*
X143364285Y-92569047D01*
X143411904Y-92545238D01*
X143530952Y-92545238D01*
X143578571Y-92569047D01*
X143602380Y-92592857D01*
X143626190Y-92640476D01*
X143626190Y-92783333D01*
X143602380Y-92830952D01*
X143578571Y-92854761D01*
X143340476Y-92259523D02*
X143316666Y-92307142D01*
X143292857Y-92330952D01*
X143245238Y-92354761D01*
X143221428Y-92354761D01*
X143173809Y-92330952D01*
X143150000Y-92307142D01*
X143126190Y-92259523D01*
X143126190Y-92164285D01*
X143150000Y-92116666D01*
X143173809Y-92092857D01*
X143221428Y-92069047D01*
X143245238Y-92069047D01*
X143292857Y-92092857D01*
X143316666Y-92116666D01*
X143340476Y-92164285D01*
X143340476Y-92259523D01*
X143364285Y-92307142D01*
X143388095Y-92330952D01*
X143435714Y-92354761D01*
X143530952Y-92354761D01*
X143578571Y-92330952D01*
X143602380Y-92307142D01*
X143626190Y-92259523D01*
X143626190Y-92164285D01*
X143602380Y-92116666D01*
X143578571Y-92092857D01*
X143530952Y-92069047D01*
X143435714Y-92069047D01*
X143388095Y-92092857D01*
X143364285Y-92116666D01*
X143340476Y-92164285D01*
D13*
%TO.C,C21*%
X137907836Y-76340000D02*
X137692164Y-76340000D01*
X137907836Y-77060000D02*
X137692164Y-77060000D01*
%TO.C,C27*%
X135914593Y-88137910D02*
X135762090Y-87985407D01*
X136423710Y-87628793D02*
X136271207Y-87476290D01*
%TO.C,C19*%
X132107836Y-90640000D02*
X131892164Y-90640000D01*
X132107836Y-91360000D02*
X131892164Y-91360000D01*
%TO.C,C14*%
X140472164Y-79060000D02*
X140687836Y-79060000D01*
X140472164Y-78340000D02*
X140687836Y-78340000D01*
%TO.C,C25*%
X133860000Y-90392164D02*
X133860000Y-90607836D01*
X133140000Y-90392164D02*
X133140000Y-90607836D01*
%TO.C,C7*%
X138978307Y-87569190D02*
X139130810Y-87721693D01*
X138469190Y-88078307D02*
X138621693Y-88230810D01*
%TO.C,C23*%
X139607836Y-91560000D02*
X139392164Y-91560000D01*
X139607836Y-90840000D02*
X139392164Y-90840000D01*
%TO.C,C28*%
X136469190Y-87278307D02*
X136621693Y-87430810D01*
X136978307Y-86769190D02*
X137130810Y-86921693D01*
%TO.C,R12*%
X141977341Y-82039940D02*
X141760060Y-81822659D01*
X141439940Y-82577341D02*
X141222659Y-82360060D01*
%TO.C,C30*%
X139869190Y-87021693D02*
X140021693Y-86869190D01*
X140378307Y-87530810D02*
X140530810Y-87378307D01*
%TO.C,R11*%
X141560060Y-84977341D02*
X141777341Y-84760060D01*
X141022659Y-84439940D02*
X141239940Y-84222659D01*
%TO.C,C8*%
X138388310Y-88435893D02*
X138235807Y-88283390D01*
X137879193Y-88945010D02*
X137726690Y-88792507D01*
%TO.C,C18*%
X131892164Y-90360000D02*
X132107836Y-90360000D01*
X131892164Y-89640000D02*
X132107836Y-89640000D01*
%TO.C,C15*%
X137927836Y-78340000D02*
X137712164Y-78340000D01*
X137927836Y-79060000D02*
X137712164Y-79060000D01*
D14*
%TO.C,FB7*%
X142880000Y-91230000D02*
X142880000Y-90170000D01*
X141720000Y-91230000D02*
X141720000Y-90170000D01*
%TO.C,FB5*%
X140715111Y-88035355D02*
X141464645Y-88784889D01*
X141535355Y-87215111D02*
X142284889Y-87964645D01*
D13*
%TO.C,R17*%
X130621359Y-83880000D02*
X130928641Y-83880000D01*
X130621359Y-83120000D02*
X130928641Y-83120000D01*
D14*
%TO.C,FB4*%
X136770000Y-91280000D02*
X137830000Y-91280000D01*
X136770000Y-90120000D02*
X137830000Y-90120000D01*
D13*
%TO.C,C20*%
X133730810Y-86478307D02*
X133578307Y-86630810D01*
X133221693Y-85969190D02*
X133069190Y-86121693D01*
D14*
%TO.C,U1*%
X141181981Y-83353553D02*
X140969848Y-83141421D01*
X134818019Y-82646447D02*
X135030152Y-82434315D01*
X138353553Y-86181981D02*
X138565685Y-85969848D01*
X141181981Y-83353553D02*
X140969848Y-83565685D01*
X137646447Y-79818019D02*
X137434315Y-80030152D01*
X134818019Y-82646447D02*
X135030152Y-82858579D01*
X138353553Y-86181981D02*
X138141421Y-85969848D01*
X137646447Y-79818019D02*
X137858579Y-80030152D01*
D15*
X134815489Y-83668216D02*
G75*
G03*
X134815489Y-83668216I-100000J0D01*
G01*
D13*
%TO.C,C26*%
X134860000Y-90607836D02*
X134860000Y-90392164D01*
X134140000Y-90607836D02*
X134140000Y-90392164D01*
%TO.C,C13*%
X137692164Y-78060000D02*
X137907836Y-78060000D01*
X137692164Y-77340000D02*
X137907836Y-77340000D01*
D14*
%TO.C,FB2*%
X141680000Y-91230000D02*
X141680000Y-90170000D01*
X140520000Y-91230000D02*
X140520000Y-90170000D01*
%TO.C,FB3*%
X135670000Y-75080000D02*
X136730000Y-75080000D01*
X135670000Y-73920000D02*
X136730000Y-73920000D01*
%TO.C,FB6*%
X139230000Y-73920000D02*
X138170000Y-73920000D01*
X139230000Y-75080000D02*
X138170000Y-75080000D01*
%TO.C,FB1*%
X139980000Y-77730000D02*
X139980000Y-76670000D01*
X138820000Y-77730000D02*
X138820000Y-76670000D01*
D13*
%TO.C,C37*%
X142340000Y-93592164D02*
X142340000Y-93807836D01*
X143060000Y-93592164D02*
X143060000Y-93807836D01*
%TO.C,R15*%
X130646359Y-80920000D02*
X130953641Y-80920000D01*
X130646359Y-81680000D02*
X130953641Y-81680000D01*
%TO.C,C22*%
X137692164Y-75340000D02*
X137907836Y-75340000D01*
X137692164Y-76060000D02*
X137907836Y-76060000D01*
%TO.C,C29*%
X139830810Y-86678307D02*
X139678307Y-86830810D01*
X139321693Y-86169190D02*
X139169190Y-86321693D01*
%TO.C,R16*%
X130621359Y-82780000D02*
X130928641Y-82780000D01*
X130621359Y-82020000D02*
X130928641Y-82020000D01*
%TO.C,J1*%
X141100000Y-93115000D02*
X141785000Y-93115000D01*
X138310000Y-95110000D02*
X138310000Y-97110000D01*
X140310000Y-97110000D02*
X139890000Y-97110000D01*
X133310000Y-97110000D02*
X132890000Y-97110000D01*
X141785000Y-93115000D02*
X141785000Y-93800000D01*
X131600000Y-94268215D02*
X131600000Y-95110000D01*
X136890000Y-97110000D02*
X136890000Y-95110000D01*
X136310000Y-97110000D02*
X135890000Y-97110000D01*
X136600000Y-94268215D02*
X136600000Y-95110000D01*
X134310000Y-95110000D02*
X134310000Y-97110000D01*
X137890000Y-97110000D02*
X137890000Y-95110000D01*
X131310000Y-97110000D02*
X130890000Y-97110000D01*
X138600000Y-94268215D02*
X138600000Y-95110000D01*
X137310000Y-95110000D02*
X137310000Y-97110000D01*
X137310000Y-97110000D02*
X136890000Y-97110000D01*
X141010000Y-95110000D02*
X141010000Y-97110000D01*
X130310000Y-97110000D02*
X129890000Y-97110000D01*
X137600000Y-94268215D02*
X137600000Y-95110000D01*
X136310000Y-95110000D02*
X136310000Y-97110000D01*
X131890000Y-97110000D02*
X131890000Y-95110000D01*
X133600000Y-94268215D02*
X133600000Y-95110000D01*
X130600000Y-94268215D02*
X130600000Y-95110000D01*
X135890000Y-97110000D02*
X135890000Y-95110000D01*
X132890000Y-97110000D02*
X132890000Y-95110000D01*
X135310000Y-97110000D02*
X134890000Y-97110000D01*
X141310000Y-97110000D02*
X140890000Y-97110000D01*
X135600000Y-94268215D02*
X135600000Y-95110000D01*
X134600000Y-94268215D02*
X134600000Y-95110000D01*
X130890000Y-97110000D02*
X130890000Y-95110000D01*
X141660000Y-94485000D02*
X141660000Y-95110000D01*
X132600000Y-94268215D02*
X132600000Y-95110000D01*
X133310000Y-95110000D02*
X133310000Y-97110000D01*
X139890000Y-97110000D02*
X139890000Y-95110000D01*
X141660000Y-95110000D02*
X129540000Y-95110000D01*
X140310000Y-95110000D02*
X140310000Y-97110000D01*
X134890000Y-97110000D02*
X134890000Y-95110000D01*
X129540000Y-95110000D02*
X129540000Y-94194493D01*
X139310000Y-95110000D02*
X139310000Y-97110000D01*
X134310000Y-97110000D02*
X133890000Y-97110000D01*
X141250000Y-95110000D02*
X141250000Y-97110000D01*
X133890000Y-97110000D02*
X133890000Y-95110000D01*
X141130000Y-95110000D02*
X141130000Y-97110000D01*
X141310000Y-95110000D02*
X141310000Y-97110000D01*
X129890000Y-97110000D02*
X129890000Y-95110000D01*
X138310000Y-97110000D02*
X137890000Y-97110000D01*
X139310000Y-97110000D02*
X138890000Y-97110000D01*
X140890000Y-97110000D02*
X140890000Y-95110000D01*
X132310000Y-95110000D02*
X132310000Y-97110000D01*
X140600000Y-94485000D02*
X140600000Y-95110000D01*
X131310000Y-95110000D02*
X131310000Y-97110000D01*
X138890000Y-97110000D02*
X138890000Y-95110000D01*
X139600000Y-94268215D02*
X139600000Y-95110000D01*
X135310000Y-95110000D02*
X135310000Y-97110000D01*
X132310000Y-97110000D02*
X131890000Y-97110000D01*
X130310000Y-95110000D02*
X130310000Y-97110000D01*
%TO.C,C24*%
X139392164Y-89840000D02*
X139607836Y-89840000D01*
X139392164Y-90560000D02*
X139607836Y-90560000D01*
%TO.C,C16*%
X140687836Y-79340000D02*
X140472164Y-79340000D01*
X140687836Y-80060000D02*
X140472164Y-80060000D01*
%TO.C,C38*%
X141692164Y-91840000D02*
X141907836Y-91840000D01*
X141692164Y-92560000D02*
X141907836Y-92560000D01*
%TD*%
M02*
