M48
; DRILL file {KiCad (6.0.5)} date Wed Nov 29 10:09:20 2023
; FORMAT={-:-/ absolute / inch / decimal}
; #@! TF.CreationDate,2023-11-29T10:09:20+07:00
; #@! TF.GenerationSoftware,Kicad,Pcbnew,(6.0.5)
; #@! TF.FileFunction,Plated,1,4,PTH
FMAT,2
INCH
; #@! TA.AperFunction,Plated,PTH,ViaDrill
T1C0.0118
; #@! TA.AperFunction,Plated,PTH,ComponentDrill
T2C0.0118
; #@! TA.AperFunction,Plated,PTH,ViaDrill
T3C0.0157
; #@! TA.AperFunction,Plated,PTH,ComponentDrill
T4C0.0394
%
G90
G05
T1
X5.0945Y-3.374
X5.0945Y-3.5591
X5.1417Y-3.5787
X5.185Y-3.3189
X5.2165Y-3.3307
X5.2205Y-3.374
X5.3937Y-3.2559
X5.4274Y-3.2241
X5.43Y-3.3102
X5.4724Y-3.2717
X5.5039Y-3.5039
X5.5384Y-3.4724
X5.5504Y-3.5031
X5.5748Y-3.3858
X5.5984Y-3.2835
X5.6024Y-3.4213
X5.6102Y-3.3465
X5.6378Y-3.5551
T2
X5.3906Y-3.2253
X5.4045Y-3.2963
X5.4331Y-3.2677
X5.4616Y-3.2392
X5.4755Y-3.3102
T3
X5.1142Y-3.1614
X5.189Y-3.6181
X5.2441Y-3.622
X5.2564Y-3.3456
X5.437Y-3.624
X5.5129Y-3.631
X5.5157Y-3.689
X5.5197Y-2.9291
X5.5197Y-2.9764
X5.5512Y-3.0512
X5.5945Y-3.1811
X5.6201Y-3.2224
T4
X5.1862Y-3.4685
X5.2362Y-3.0012
X5.2362Y-3.1012
X5.2862Y-3.4685
T0
M30
