%FSLAX45Y45*%
G04 Gerber Fmt 4.5, Leading zero omitted, Abs format (unit mm)*
G04 Created by KiCad (PCBNEW (6.0.5)) date 2023-11-22 15:12:08*
%MOMM*%
%LPD*%
G01*
G04 APERTURE LIST*
%TA.AperFunction,Profile*%
%ADD10C,0.100000*%
%TD*%
%ADD11C,0.200000*%
%ADD12C,0.030000*%
%ADD13C,0.040000*%
%ADD14C,0.050000*%
%ADD15C,0.100000*%
G04 APERTURE END LIST*
D10*
X12870000Y-7320000D02*
X14370000Y-7320000D01*
X14370000Y-7320000D02*
X14370000Y-9520000D01*
X14370000Y-9520000D02*
X12870000Y-9520000D01*
X12870000Y-9520000D02*
X12870000Y-7320000D01*
D11*
D12*
X12925000Y-8555000D02*
X12955000Y-8585000D01*
X12955000Y-8555000D02*
X12925000Y-8585000D01*
X12925000Y-9025000D02*
X12955000Y-9055000D01*
X12955000Y-9025000D02*
X12925000Y-9055000D01*
X13045000Y-9075000D02*
X13075000Y-9105000D01*
X13075000Y-9075000D02*
X13045000Y-9105000D01*
X13155000Y-8415000D02*
X13185000Y-8445000D01*
X13185000Y-8415000D02*
X13155000Y-8445000D01*
X13235000Y-8445000D02*
X13265000Y-8475000D01*
X13265000Y-8445000D02*
X13235000Y-8475000D01*
X13245000Y-8555000D02*
X13275000Y-8585000D01*
X13275000Y-8555000D02*
X13245000Y-8585000D01*
X13685000Y-8255000D02*
X13715000Y-8285000D01*
X13715000Y-8255000D02*
X13685000Y-8285000D01*
X13770627Y-8174135D02*
X13800627Y-8204135D01*
X13800627Y-8174135D02*
X13770627Y-8204135D01*
X13777166Y-8392834D02*
X13807166Y-8422834D01*
X13807166Y-8392834D02*
X13777166Y-8422834D01*
X13885000Y-8295000D02*
X13915000Y-8325000D01*
X13915000Y-8295000D02*
X13885000Y-8325000D01*
X13965000Y-8885000D02*
X13995000Y-8915000D01*
X13995000Y-8885000D02*
X13965000Y-8915000D01*
X14052450Y-8805000D02*
X14082450Y-8835000D01*
X14082450Y-8805000D02*
X14052450Y-8835000D01*
X14082912Y-8882912D02*
X14112912Y-8912912D01*
X14112912Y-8882912D02*
X14082912Y-8912912D01*
X14145000Y-8585000D02*
X14175000Y-8615000D01*
X14175000Y-8585000D02*
X14145000Y-8615000D01*
X14205000Y-8325000D02*
X14235000Y-8355000D01*
X14235000Y-8325000D02*
X14205000Y-8355000D01*
X14215000Y-8675000D02*
X14245000Y-8705000D01*
X14245000Y-8675000D02*
X14215000Y-8705000D01*
X14235000Y-8485000D02*
X14265000Y-8515000D01*
X14265000Y-8485000D02*
X14235000Y-8515000D01*
X14305000Y-9165000D02*
X14335000Y-9195000D01*
X14335000Y-9165000D02*
X14305000Y-9195000D01*
X13707166Y-8192166D02*
G75*
G03*
X13707166Y-8192166I-15000J0D01*
G01*
X13742522Y-8372478D02*
G75*
G03*
X13742522Y-8372478I-15000J0D01*
G01*
X13815000Y-8300000D02*
G75*
G03*
X13815000Y-8300000I-15000J0D01*
G01*
X13887478Y-8227522D02*
G75*
G03*
X13887478Y-8227522I-15000J0D01*
G01*
X13922834Y-8407834D02*
G75*
G03*
X13922834Y-8407834I-15000J0D01*
G01*
D13*
X12990000Y-8010000D02*
X12990000Y-8050000D01*
X12970000Y-8030000D02*
X13010000Y-8030000D01*
X13180000Y-9170000D02*
X13180000Y-9210000D01*
X13160000Y-9190000D02*
X13200000Y-9190000D01*
X13320000Y-9180000D02*
X13320000Y-9220000D01*
X13300000Y-9200000D02*
X13340000Y-9200000D01*
X13351300Y-8477900D02*
X13351300Y-8517900D01*
X13331300Y-8497900D02*
X13371300Y-8497900D01*
X13810000Y-9185050D02*
X13810000Y-9225050D01*
X13790000Y-9205050D02*
X13830000Y-9205050D01*
X14002694Y-9202694D02*
X14002694Y-9242694D01*
X13982694Y-9222694D02*
X14022694Y-9222694D01*
X14020000Y-7420000D02*
X14020000Y-7460000D01*
X14000000Y-7440000D02*
X14040000Y-7440000D01*
X14020000Y-7540000D02*
X14020000Y-7580000D01*
X14000000Y-7560000D02*
X14040000Y-7560000D01*
X14100000Y-7730000D02*
X14100000Y-7770000D01*
X14080000Y-7750000D02*
X14120000Y-7750000D01*
X14210000Y-8060000D02*
X14210000Y-8100000D01*
X14190000Y-8080000D02*
X14230000Y-8080000D01*
X14275000Y-8165000D02*
X14275000Y-8205000D01*
X14255000Y-8185000D02*
X14295000Y-8185000D01*
D14*
X13027678Y-9397678D02*
X13027678Y-9362322D01*
X12992322Y-9362322D01*
X12992322Y-9397678D01*
X13027678Y-9397678D01*
X13127678Y-9397678D02*
X13127678Y-9362322D01*
X13092322Y-9362322D01*
X13092322Y-9397678D01*
X13127678Y-9397678D01*
X13227678Y-9397678D02*
X13227678Y-9362322D01*
X13192322Y-9362322D01*
X13192322Y-9397678D01*
X13227678Y-9397678D01*
X13327678Y-9397678D02*
X13327678Y-9362322D01*
X13292322Y-9362322D01*
X13292322Y-9397678D01*
X13327678Y-9397678D01*
X13427678Y-9397678D02*
X13427678Y-9362322D01*
X13392322Y-9362322D01*
X13392322Y-9397678D01*
X13427678Y-9397678D01*
X13527678Y-9397678D02*
X13527678Y-9362322D01*
X13492322Y-9362322D01*
X13492322Y-9397678D01*
X13527678Y-9397678D01*
X13627678Y-9397678D02*
X13627678Y-9362322D01*
X13592322Y-9362322D01*
X13592322Y-9397678D01*
X13627678Y-9397678D01*
X13727678Y-9397678D02*
X13727678Y-9362322D01*
X13692322Y-9362322D01*
X13692322Y-9397678D01*
X13727678Y-9397678D01*
X13827678Y-9397678D02*
X13827678Y-9362322D01*
X13792322Y-9362322D01*
X13792322Y-9397678D01*
X13827678Y-9397678D01*
X13927678Y-9397678D02*
X13927678Y-9362322D01*
X13892322Y-9362322D01*
X13892322Y-9397678D01*
X13927678Y-9397678D01*
X14027678Y-9397678D02*
X14027678Y-9362322D01*
X13992322Y-9362322D01*
X13992322Y-9397678D01*
X14027678Y-9397678D01*
X14127678Y-9397678D02*
X14127678Y-9362322D01*
X14092322Y-9362322D01*
X14092322Y-9397678D01*
X14127678Y-9397678D01*
D15*
X13173000Y-8860000D02*
X13223000Y-8810000D01*
X13173000Y-8760000D01*
X13123000Y-8810000D01*
X13173000Y-8860000D01*
X13300000Y-7673000D02*
X13350000Y-7623000D01*
X13300000Y-7573000D01*
X13250000Y-7623000D01*
X13300000Y-7673000D01*
X13300000Y-7927000D02*
X13350000Y-7877000D01*
X13300000Y-7827000D01*
X13250000Y-7877000D01*
X13300000Y-7927000D01*
X13427000Y-8860000D02*
X13477000Y-8810000D01*
X13427000Y-8760000D01*
X13377000Y-8810000D01*
X13427000Y-8860000D01*
D11*
X13122619Y-9835476D02*
X13122619Y-9635476D01*
X13170238Y-9635476D01*
X13198809Y-9645000D01*
X13217857Y-9664048D01*
X13227381Y-9683095D01*
X13236905Y-9721190D01*
X13236905Y-9749762D01*
X13227381Y-9787857D01*
X13217857Y-9806905D01*
X13198809Y-9825952D01*
X13170238Y-9835476D01*
X13122619Y-9835476D01*
X13322619Y-9835476D02*
X13322619Y-9702143D01*
X13322619Y-9740238D02*
X13332143Y-9721190D01*
X13341667Y-9711667D01*
X13360714Y-9702143D01*
X13379762Y-9702143D01*
X13446428Y-9835476D02*
X13446428Y-9702143D01*
X13446428Y-9635476D02*
X13436905Y-9645000D01*
X13446428Y-9654524D01*
X13455952Y-9645000D01*
X13446428Y-9635476D01*
X13446428Y-9654524D01*
X13570238Y-9835476D02*
X13551190Y-9825952D01*
X13541667Y-9806905D01*
X13541667Y-9635476D01*
X13675000Y-9835476D02*
X13655952Y-9825952D01*
X13646428Y-9806905D01*
X13646428Y-9635476D01*
X13903571Y-9835476D02*
X13903571Y-9635476D01*
X13970238Y-9778333D01*
X14036905Y-9635476D01*
X14036905Y-9835476D01*
X14217857Y-9835476D02*
X14217857Y-9730714D01*
X14208333Y-9711667D01*
X14189286Y-9702143D01*
X14151190Y-9702143D01*
X14132143Y-9711667D01*
X14217857Y-9825952D02*
X14198809Y-9835476D01*
X14151190Y-9835476D01*
X14132143Y-9825952D01*
X14122619Y-9806905D01*
X14122619Y-9787857D01*
X14132143Y-9768810D01*
X14151190Y-9759286D01*
X14198809Y-9759286D01*
X14217857Y-9749762D01*
X14313095Y-9702143D02*
X14313095Y-9902143D01*
X14313095Y-9711667D02*
X14332143Y-9702143D01*
X14370238Y-9702143D01*
X14389286Y-9711667D01*
X14398809Y-9721190D01*
X14408333Y-9740238D01*
X14408333Y-9797381D01*
X14398809Y-9816429D01*
X14389286Y-9825952D01*
X14370238Y-9835476D01*
X14332143Y-9835476D01*
X14313095Y-9825952D01*
X14494048Y-9816429D02*
X14503571Y-9825952D01*
X14494048Y-9835476D01*
X14484524Y-9825952D01*
X14494048Y-9816429D01*
X14494048Y-9835476D01*
X14494048Y-9711667D02*
X14503571Y-9721190D01*
X14494048Y-9730714D01*
X14484524Y-9721190D01*
X14494048Y-9711667D01*
X14494048Y-9730714D01*
D12*
X12835000Y-10150000D02*
X12865000Y-10180000D01*
X12865000Y-10150000D02*
X12835000Y-10180000D01*
D11*
X13160714Y-10055476D02*
X13179762Y-10055476D01*
X13198809Y-10065000D01*
X13208333Y-10074524D01*
X13217857Y-10093571D01*
X13227381Y-10131667D01*
X13227381Y-10179286D01*
X13217857Y-10217381D01*
X13208333Y-10236429D01*
X13198809Y-10245952D01*
X13179762Y-10255476D01*
X13160714Y-10255476D01*
X13141667Y-10245952D01*
X13132143Y-10236429D01*
X13122619Y-10217381D01*
X13113095Y-10179286D01*
X13113095Y-10131667D01*
X13122619Y-10093571D01*
X13132143Y-10074524D01*
X13141667Y-10065000D01*
X13160714Y-10055476D01*
X13313095Y-10236429D02*
X13322619Y-10245952D01*
X13313095Y-10255476D01*
X13303571Y-10245952D01*
X13313095Y-10236429D01*
X13313095Y-10255476D01*
X13389286Y-10055476D02*
X13513095Y-10055476D01*
X13446428Y-10131667D01*
X13475000Y-10131667D01*
X13494048Y-10141190D01*
X13503571Y-10150714D01*
X13513095Y-10169762D01*
X13513095Y-10217381D01*
X13503571Y-10236429D01*
X13494048Y-10245952D01*
X13475000Y-10255476D01*
X13417857Y-10255476D01*
X13398809Y-10245952D01*
X13389286Y-10236429D01*
X13636905Y-10055476D02*
X13655952Y-10055476D01*
X13675000Y-10065000D01*
X13684524Y-10074524D01*
X13694048Y-10093571D01*
X13703571Y-10131667D01*
X13703571Y-10179286D01*
X13694048Y-10217381D01*
X13684524Y-10236429D01*
X13675000Y-10245952D01*
X13655952Y-10255476D01*
X13636905Y-10255476D01*
X13617857Y-10245952D01*
X13608333Y-10236429D01*
X13598809Y-10217381D01*
X13589286Y-10179286D01*
X13589286Y-10131667D01*
X13598809Y-10093571D01*
X13608333Y-10074524D01*
X13617857Y-10065000D01*
X13636905Y-10055476D01*
X13827381Y-10055476D02*
X13846428Y-10055476D01*
X13865476Y-10065000D01*
X13875000Y-10074524D01*
X13884524Y-10093571D01*
X13894048Y-10131667D01*
X13894048Y-10179286D01*
X13884524Y-10217381D01*
X13875000Y-10236429D01*
X13865476Y-10245952D01*
X13846428Y-10255476D01*
X13827381Y-10255476D01*
X13808333Y-10245952D01*
X13798809Y-10236429D01*
X13789286Y-10217381D01*
X13779762Y-10179286D01*
X13779762Y-10131667D01*
X13789286Y-10093571D01*
X13798809Y-10074524D01*
X13808333Y-10065000D01*
X13827381Y-10055476D01*
X13979762Y-10255476D02*
X13979762Y-10122143D01*
X13979762Y-10141190D02*
X13989286Y-10131667D01*
X14008333Y-10122143D01*
X14036905Y-10122143D01*
X14055952Y-10131667D01*
X14065476Y-10150714D01*
X14065476Y-10255476D01*
X14065476Y-10150714D02*
X14075000Y-10131667D01*
X14094048Y-10122143D01*
X14122619Y-10122143D01*
X14141667Y-10131667D01*
X14151190Y-10150714D01*
X14151190Y-10255476D01*
X14246428Y-10255476D02*
X14246428Y-10122143D01*
X14246428Y-10141190D02*
X14255952Y-10131667D01*
X14275000Y-10122143D01*
X14303571Y-10122143D01*
X14322619Y-10131667D01*
X14332143Y-10150714D01*
X14332143Y-10255476D01*
X14332143Y-10150714D02*
X14341667Y-10131667D01*
X14360714Y-10122143D01*
X14389286Y-10122143D01*
X14408333Y-10131667D01*
X14417857Y-10150714D01*
X14417857Y-10255476D01*
X14808333Y-10045952D02*
X14636905Y-10303095D01*
X15065476Y-10055476D02*
X15084524Y-10055476D01*
X15103571Y-10065000D01*
X15113095Y-10074524D01*
X15122619Y-10093571D01*
X15132143Y-10131667D01*
X15132143Y-10179286D01*
X15122619Y-10217381D01*
X15113095Y-10236429D01*
X15103571Y-10245952D01*
X15084524Y-10255476D01*
X15065476Y-10255476D01*
X15046428Y-10245952D01*
X15036905Y-10236429D01*
X15027381Y-10217381D01*
X15017857Y-10179286D01*
X15017857Y-10131667D01*
X15027381Y-10093571D01*
X15036905Y-10074524D01*
X15046428Y-10065000D01*
X15065476Y-10055476D01*
X15217857Y-10236429D02*
X15227381Y-10245952D01*
X15217857Y-10255476D01*
X15208333Y-10245952D01*
X15217857Y-10236429D01*
X15217857Y-10255476D01*
X15351190Y-10055476D02*
X15370238Y-10055476D01*
X15389286Y-10065000D01*
X15398809Y-10074524D01*
X15408333Y-10093571D01*
X15417857Y-10131667D01*
X15417857Y-10179286D01*
X15408333Y-10217381D01*
X15398809Y-10236429D01*
X15389286Y-10245952D01*
X15370238Y-10255476D01*
X15351190Y-10255476D01*
X15332143Y-10245952D01*
X15322619Y-10236429D01*
X15313095Y-10217381D01*
X15303571Y-10179286D01*
X15303571Y-10131667D01*
X15313095Y-10093571D01*
X15322619Y-10074524D01*
X15332143Y-10065000D01*
X15351190Y-10055476D01*
X15608333Y-10255476D02*
X15494048Y-10255476D01*
X15551190Y-10255476D02*
X15551190Y-10055476D01*
X15532143Y-10084048D01*
X15513095Y-10103095D01*
X15494048Y-10112619D01*
X15798809Y-10255476D02*
X15684524Y-10255476D01*
X15741667Y-10255476D02*
X15741667Y-10055476D01*
X15722619Y-10084048D01*
X15703571Y-10103095D01*
X15684524Y-10112619D01*
X15913095Y-10141190D02*
X15894048Y-10131667D01*
X15884524Y-10122143D01*
X15875000Y-10103095D01*
X15875000Y-10093571D01*
X15884524Y-10074524D01*
X15894048Y-10065000D01*
X15913095Y-10055476D01*
X15951190Y-10055476D01*
X15970238Y-10065000D01*
X15979762Y-10074524D01*
X15989286Y-10093571D01*
X15989286Y-10103095D01*
X15979762Y-10122143D01*
X15970238Y-10131667D01*
X15951190Y-10141190D01*
X15913095Y-10141190D01*
X15894048Y-10150714D01*
X15884524Y-10160238D01*
X15875000Y-10179286D01*
X15875000Y-10217381D01*
X15884524Y-10236429D01*
X15894048Y-10245952D01*
X15913095Y-10255476D01*
X15951190Y-10255476D01*
X15970238Y-10245952D01*
X15979762Y-10236429D01*
X15989286Y-10217381D01*
X15989286Y-10179286D01*
X15979762Y-10160238D01*
X15970238Y-10150714D01*
X15951190Y-10141190D01*
X16065476Y-10055476D02*
X16065476Y-10093571D01*
X16141667Y-10055476D02*
X16141667Y-10093571D01*
X16436905Y-10331667D02*
X16427381Y-10322143D01*
X16408333Y-10293571D01*
X16398809Y-10274524D01*
X16389286Y-10245952D01*
X16379762Y-10198333D01*
X16379762Y-10160238D01*
X16389286Y-10112619D01*
X16398809Y-10084048D01*
X16408333Y-10065000D01*
X16427381Y-10036429D01*
X16436905Y-10026905D01*
X16617857Y-10255476D02*
X16503571Y-10255476D01*
X16560714Y-10255476D02*
X16560714Y-10055476D01*
X16541667Y-10084048D01*
X16522619Y-10103095D01*
X16503571Y-10112619D01*
X16732143Y-10141190D02*
X16713095Y-10131667D01*
X16703571Y-10122143D01*
X16694048Y-10103095D01*
X16694048Y-10093571D01*
X16703571Y-10074524D01*
X16713095Y-10065000D01*
X16732143Y-10055476D01*
X16770238Y-10055476D01*
X16789286Y-10065000D01*
X16798810Y-10074524D01*
X16808333Y-10093571D01*
X16808333Y-10103095D01*
X16798810Y-10122143D01*
X16789286Y-10131667D01*
X16770238Y-10141190D01*
X16732143Y-10141190D01*
X16713095Y-10150714D01*
X16703571Y-10160238D01*
X16694048Y-10179286D01*
X16694048Y-10217381D01*
X16703571Y-10236429D01*
X16713095Y-10245952D01*
X16732143Y-10255476D01*
X16770238Y-10255476D01*
X16789286Y-10245952D01*
X16798810Y-10236429D01*
X16808333Y-10217381D01*
X16808333Y-10179286D01*
X16798810Y-10160238D01*
X16789286Y-10150714D01*
X16770238Y-10141190D01*
X17046429Y-10255476D02*
X17046429Y-10055476D01*
X17132143Y-10255476D02*
X17132143Y-10150714D01*
X17122619Y-10131667D01*
X17103571Y-10122143D01*
X17075000Y-10122143D01*
X17055952Y-10131667D01*
X17046429Y-10141190D01*
X17255952Y-10255476D02*
X17236905Y-10245952D01*
X17227381Y-10236429D01*
X17217857Y-10217381D01*
X17217857Y-10160238D01*
X17227381Y-10141190D01*
X17236905Y-10131667D01*
X17255952Y-10122143D01*
X17284524Y-10122143D01*
X17303571Y-10131667D01*
X17313095Y-10141190D01*
X17322619Y-10160238D01*
X17322619Y-10217381D01*
X17313095Y-10236429D01*
X17303571Y-10245952D01*
X17284524Y-10255476D01*
X17255952Y-10255476D01*
X17436905Y-10255476D02*
X17417857Y-10245952D01*
X17408333Y-10226905D01*
X17408333Y-10055476D01*
X17589286Y-10245952D02*
X17570238Y-10255476D01*
X17532143Y-10255476D01*
X17513095Y-10245952D01*
X17503571Y-10226905D01*
X17503571Y-10150714D01*
X17513095Y-10131667D01*
X17532143Y-10122143D01*
X17570238Y-10122143D01*
X17589286Y-10131667D01*
X17598810Y-10150714D01*
X17598810Y-10169762D01*
X17503571Y-10188810D01*
X17675000Y-10245952D02*
X17694048Y-10255476D01*
X17732143Y-10255476D01*
X17751190Y-10245952D01*
X17760714Y-10226905D01*
X17760714Y-10217381D01*
X17751190Y-10198333D01*
X17732143Y-10188810D01*
X17703571Y-10188810D01*
X17684524Y-10179286D01*
X17675000Y-10160238D01*
X17675000Y-10150714D01*
X17684524Y-10131667D01*
X17703571Y-10122143D01*
X17732143Y-10122143D01*
X17751190Y-10131667D01*
X17827381Y-10331667D02*
X17836905Y-10322143D01*
X17855952Y-10293571D01*
X17865476Y-10274524D01*
X17875000Y-10245952D01*
X17884524Y-10198333D01*
X17884524Y-10160238D01*
X17875000Y-10112619D01*
X17865476Y-10084048D01*
X17855952Y-10065000D01*
X17836905Y-10036429D01*
X17827381Y-10026905D01*
D12*
X12865000Y-10429000D02*
G75*
G03*
X12865000Y-10429000I-15000J0D01*
G01*
D11*
X13160714Y-10319476D02*
X13179762Y-10319476D01*
X13198809Y-10329000D01*
X13208333Y-10338524D01*
X13217857Y-10357571D01*
X13227381Y-10395667D01*
X13227381Y-10443286D01*
X13217857Y-10481381D01*
X13208333Y-10500429D01*
X13198809Y-10509952D01*
X13179762Y-10519476D01*
X13160714Y-10519476D01*
X13141667Y-10509952D01*
X13132143Y-10500429D01*
X13122619Y-10481381D01*
X13113095Y-10443286D01*
X13113095Y-10395667D01*
X13122619Y-10357571D01*
X13132143Y-10338524D01*
X13141667Y-10329000D01*
X13160714Y-10319476D01*
X13313095Y-10500429D02*
X13322619Y-10509952D01*
X13313095Y-10519476D01*
X13303571Y-10509952D01*
X13313095Y-10500429D01*
X13313095Y-10519476D01*
X13389286Y-10319476D02*
X13513095Y-10319476D01*
X13446428Y-10395667D01*
X13475000Y-10395667D01*
X13494048Y-10405190D01*
X13503571Y-10414714D01*
X13513095Y-10433762D01*
X13513095Y-10481381D01*
X13503571Y-10500429D01*
X13494048Y-10509952D01*
X13475000Y-10519476D01*
X13417857Y-10519476D01*
X13398809Y-10509952D01*
X13389286Y-10500429D01*
X13636905Y-10319476D02*
X13655952Y-10319476D01*
X13675000Y-10329000D01*
X13684524Y-10338524D01*
X13694048Y-10357571D01*
X13703571Y-10395667D01*
X13703571Y-10443286D01*
X13694048Y-10481381D01*
X13684524Y-10500429D01*
X13675000Y-10509952D01*
X13655952Y-10519476D01*
X13636905Y-10519476D01*
X13617857Y-10509952D01*
X13608333Y-10500429D01*
X13598809Y-10481381D01*
X13589286Y-10443286D01*
X13589286Y-10395667D01*
X13598809Y-10357571D01*
X13608333Y-10338524D01*
X13617857Y-10329000D01*
X13636905Y-10319476D01*
X13827381Y-10319476D02*
X13846428Y-10319476D01*
X13865476Y-10329000D01*
X13875000Y-10338524D01*
X13884524Y-10357571D01*
X13894048Y-10395667D01*
X13894048Y-10443286D01*
X13884524Y-10481381D01*
X13875000Y-10500429D01*
X13865476Y-10509952D01*
X13846428Y-10519476D01*
X13827381Y-10519476D01*
X13808333Y-10509952D01*
X13798809Y-10500429D01*
X13789286Y-10481381D01*
X13779762Y-10443286D01*
X13779762Y-10395667D01*
X13789286Y-10357571D01*
X13798809Y-10338524D01*
X13808333Y-10329000D01*
X13827381Y-10319476D01*
X13979762Y-10519476D02*
X13979762Y-10386143D01*
X13979762Y-10405190D02*
X13989286Y-10395667D01*
X14008333Y-10386143D01*
X14036905Y-10386143D01*
X14055952Y-10395667D01*
X14065476Y-10414714D01*
X14065476Y-10519476D01*
X14065476Y-10414714D02*
X14075000Y-10395667D01*
X14094048Y-10386143D01*
X14122619Y-10386143D01*
X14141667Y-10395667D01*
X14151190Y-10414714D01*
X14151190Y-10519476D01*
X14246428Y-10519476D02*
X14246428Y-10386143D01*
X14246428Y-10405190D02*
X14255952Y-10395667D01*
X14275000Y-10386143D01*
X14303571Y-10386143D01*
X14322619Y-10395667D01*
X14332143Y-10414714D01*
X14332143Y-10519476D01*
X14332143Y-10414714D02*
X14341667Y-10395667D01*
X14360714Y-10386143D01*
X14389286Y-10386143D01*
X14408333Y-10395667D01*
X14417857Y-10414714D01*
X14417857Y-10519476D01*
X14808333Y-10309952D02*
X14636905Y-10567095D01*
X15065476Y-10319476D02*
X15084524Y-10319476D01*
X15103571Y-10329000D01*
X15113095Y-10338524D01*
X15122619Y-10357571D01*
X15132143Y-10395667D01*
X15132143Y-10443286D01*
X15122619Y-10481381D01*
X15113095Y-10500429D01*
X15103571Y-10509952D01*
X15084524Y-10519476D01*
X15065476Y-10519476D01*
X15046428Y-10509952D01*
X15036905Y-10500429D01*
X15027381Y-10481381D01*
X15017857Y-10443286D01*
X15017857Y-10395667D01*
X15027381Y-10357571D01*
X15036905Y-10338524D01*
X15046428Y-10329000D01*
X15065476Y-10319476D01*
X15217857Y-10500429D02*
X15227381Y-10509952D01*
X15217857Y-10519476D01*
X15208333Y-10509952D01*
X15217857Y-10500429D01*
X15217857Y-10519476D01*
X15351190Y-10319476D02*
X15370238Y-10319476D01*
X15389286Y-10329000D01*
X15398809Y-10338524D01*
X15408333Y-10357571D01*
X15417857Y-10395667D01*
X15417857Y-10443286D01*
X15408333Y-10481381D01*
X15398809Y-10500429D01*
X15389286Y-10509952D01*
X15370238Y-10519476D01*
X15351190Y-10519476D01*
X15332143Y-10509952D01*
X15322619Y-10500429D01*
X15313095Y-10481381D01*
X15303571Y-10443286D01*
X15303571Y-10395667D01*
X15313095Y-10357571D01*
X15322619Y-10338524D01*
X15332143Y-10329000D01*
X15351190Y-10319476D01*
X15608333Y-10519476D02*
X15494048Y-10519476D01*
X15551190Y-10519476D02*
X15551190Y-10319476D01*
X15532143Y-10348048D01*
X15513095Y-10367095D01*
X15494048Y-10376619D01*
X15798809Y-10519476D02*
X15684524Y-10519476D01*
X15741667Y-10519476D02*
X15741667Y-10319476D01*
X15722619Y-10348048D01*
X15703571Y-10367095D01*
X15684524Y-10376619D01*
X15913095Y-10405190D02*
X15894048Y-10395667D01*
X15884524Y-10386143D01*
X15875000Y-10367095D01*
X15875000Y-10357571D01*
X15884524Y-10338524D01*
X15894048Y-10329000D01*
X15913095Y-10319476D01*
X15951190Y-10319476D01*
X15970238Y-10329000D01*
X15979762Y-10338524D01*
X15989286Y-10357571D01*
X15989286Y-10367095D01*
X15979762Y-10386143D01*
X15970238Y-10395667D01*
X15951190Y-10405190D01*
X15913095Y-10405190D01*
X15894048Y-10414714D01*
X15884524Y-10424238D01*
X15875000Y-10443286D01*
X15875000Y-10481381D01*
X15884524Y-10500429D01*
X15894048Y-10509952D01*
X15913095Y-10519476D01*
X15951190Y-10519476D01*
X15970238Y-10509952D01*
X15979762Y-10500429D01*
X15989286Y-10481381D01*
X15989286Y-10443286D01*
X15979762Y-10424238D01*
X15970238Y-10414714D01*
X15951190Y-10405190D01*
X16065476Y-10319476D02*
X16065476Y-10357571D01*
X16141667Y-10319476D02*
X16141667Y-10357571D01*
X16436905Y-10595667D02*
X16427381Y-10586143D01*
X16408333Y-10557571D01*
X16398809Y-10538524D01*
X16389286Y-10509952D01*
X16379762Y-10462333D01*
X16379762Y-10424238D01*
X16389286Y-10376619D01*
X16398809Y-10348048D01*
X16408333Y-10329000D01*
X16427381Y-10300429D01*
X16436905Y-10290905D01*
X16608333Y-10319476D02*
X16513095Y-10319476D01*
X16503571Y-10414714D01*
X16513095Y-10405190D01*
X16532143Y-10395667D01*
X16579762Y-10395667D01*
X16598809Y-10405190D01*
X16608333Y-10414714D01*
X16617857Y-10433762D01*
X16617857Y-10481381D01*
X16608333Y-10500429D01*
X16598809Y-10509952D01*
X16579762Y-10519476D01*
X16532143Y-10519476D01*
X16513095Y-10509952D01*
X16503571Y-10500429D01*
X16855952Y-10519476D02*
X16855952Y-10319476D01*
X16941667Y-10519476D02*
X16941667Y-10414714D01*
X16932143Y-10395667D01*
X16913095Y-10386143D01*
X16884524Y-10386143D01*
X16865476Y-10395667D01*
X16855952Y-10405190D01*
X17065476Y-10519476D02*
X17046429Y-10509952D01*
X17036905Y-10500429D01*
X17027381Y-10481381D01*
X17027381Y-10424238D01*
X17036905Y-10405190D01*
X17046429Y-10395667D01*
X17065476Y-10386143D01*
X17094048Y-10386143D01*
X17113095Y-10395667D01*
X17122619Y-10405190D01*
X17132143Y-10424238D01*
X17132143Y-10481381D01*
X17122619Y-10500429D01*
X17113095Y-10509952D01*
X17094048Y-10519476D01*
X17065476Y-10519476D01*
X17246429Y-10519476D02*
X17227381Y-10509952D01*
X17217857Y-10490905D01*
X17217857Y-10319476D01*
X17398810Y-10509952D02*
X17379762Y-10519476D01*
X17341667Y-10519476D01*
X17322619Y-10509952D01*
X17313095Y-10490905D01*
X17313095Y-10414714D01*
X17322619Y-10395667D01*
X17341667Y-10386143D01*
X17379762Y-10386143D01*
X17398810Y-10395667D01*
X17408333Y-10414714D01*
X17408333Y-10433762D01*
X17313095Y-10452810D01*
X17484524Y-10509952D02*
X17503571Y-10519476D01*
X17541667Y-10519476D01*
X17560714Y-10509952D01*
X17570238Y-10490905D01*
X17570238Y-10481381D01*
X17560714Y-10462333D01*
X17541667Y-10452810D01*
X17513095Y-10452810D01*
X17494048Y-10443286D01*
X17484524Y-10424238D01*
X17484524Y-10414714D01*
X17494048Y-10395667D01*
X17513095Y-10386143D01*
X17541667Y-10386143D01*
X17560714Y-10395667D01*
X17636905Y-10595667D02*
X17646429Y-10586143D01*
X17665476Y-10557571D01*
X17675000Y-10538524D01*
X17684524Y-10509952D01*
X17694048Y-10462333D01*
X17694048Y-10424238D01*
X17684524Y-10376619D01*
X17675000Y-10348048D01*
X17665476Y-10329000D01*
X17646429Y-10300429D01*
X17636905Y-10290905D01*
D13*
X12845000Y-10673000D02*
X12845000Y-10713000D01*
X12825000Y-10693000D02*
X12865000Y-10693000D01*
D11*
X13160714Y-10583476D02*
X13179762Y-10583476D01*
X13198809Y-10593000D01*
X13208333Y-10602524D01*
X13217857Y-10621571D01*
X13227381Y-10659667D01*
X13227381Y-10707286D01*
X13217857Y-10745381D01*
X13208333Y-10764429D01*
X13198809Y-10773952D01*
X13179762Y-10783476D01*
X13160714Y-10783476D01*
X13141667Y-10773952D01*
X13132143Y-10764429D01*
X13122619Y-10745381D01*
X13113095Y-10707286D01*
X13113095Y-10659667D01*
X13122619Y-10621571D01*
X13132143Y-10602524D01*
X13141667Y-10593000D01*
X13160714Y-10583476D01*
X13313095Y-10764429D02*
X13322619Y-10773952D01*
X13313095Y-10783476D01*
X13303571Y-10773952D01*
X13313095Y-10764429D01*
X13313095Y-10783476D01*
X13494048Y-10650143D02*
X13494048Y-10783476D01*
X13446428Y-10573952D02*
X13398809Y-10716810D01*
X13522619Y-10716810D01*
X13636905Y-10583476D02*
X13655952Y-10583476D01*
X13675000Y-10593000D01*
X13684524Y-10602524D01*
X13694048Y-10621571D01*
X13703571Y-10659667D01*
X13703571Y-10707286D01*
X13694048Y-10745381D01*
X13684524Y-10764429D01*
X13675000Y-10773952D01*
X13655952Y-10783476D01*
X13636905Y-10783476D01*
X13617857Y-10773952D01*
X13608333Y-10764429D01*
X13598809Y-10745381D01*
X13589286Y-10707286D01*
X13589286Y-10659667D01*
X13598809Y-10621571D01*
X13608333Y-10602524D01*
X13617857Y-10593000D01*
X13636905Y-10583476D01*
X13827381Y-10583476D02*
X13846428Y-10583476D01*
X13865476Y-10593000D01*
X13875000Y-10602524D01*
X13884524Y-10621571D01*
X13894048Y-10659667D01*
X13894048Y-10707286D01*
X13884524Y-10745381D01*
X13875000Y-10764429D01*
X13865476Y-10773952D01*
X13846428Y-10783476D01*
X13827381Y-10783476D01*
X13808333Y-10773952D01*
X13798809Y-10764429D01*
X13789286Y-10745381D01*
X13779762Y-10707286D01*
X13779762Y-10659667D01*
X13789286Y-10621571D01*
X13798809Y-10602524D01*
X13808333Y-10593000D01*
X13827381Y-10583476D01*
X13979762Y-10783476D02*
X13979762Y-10650143D01*
X13979762Y-10669190D02*
X13989286Y-10659667D01*
X14008333Y-10650143D01*
X14036905Y-10650143D01*
X14055952Y-10659667D01*
X14065476Y-10678714D01*
X14065476Y-10783476D01*
X14065476Y-10678714D02*
X14075000Y-10659667D01*
X14094048Y-10650143D01*
X14122619Y-10650143D01*
X14141667Y-10659667D01*
X14151190Y-10678714D01*
X14151190Y-10783476D01*
X14246428Y-10783476D02*
X14246428Y-10650143D01*
X14246428Y-10669190D02*
X14255952Y-10659667D01*
X14275000Y-10650143D01*
X14303571Y-10650143D01*
X14322619Y-10659667D01*
X14332143Y-10678714D01*
X14332143Y-10783476D01*
X14332143Y-10678714D02*
X14341667Y-10659667D01*
X14360714Y-10650143D01*
X14389286Y-10650143D01*
X14408333Y-10659667D01*
X14417857Y-10678714D01*
X14417857Y-10783476D01*
X14808333Y-10573952D02*
X14636905Y-10831095D01*
X15065476Y-10583476D02*
X15084524Y-10583476D01*
X15103571Y-10593000D01*
X15113095Y-10602524D01*
X15122619Y-10621571D01*
X15132143Y-10659667D01*
X15132143Y-10707286D01*
X15122619Y-10745381D01*
X15113095Y-10764429D01*
X15103571Y-10773952D01*
X15084524Y-10783476D01*
X15065476Y-10783476D01*
X15046428Y-10773952D01*
X15036905Y-10764429D01*
X15027381Y-10745381D01*
X15017857Y-10707286D01*
X15017857Y-10659667D01*
X15027381Y-10621571D01*
X15036905Y-10602524D01*
X15046428Y-10593000D01*
X15065476Y-10583476D01*
X15217857Y-10764429D02*
X15227381Y-10773952D01*
X15217857Y-10783476D01*
X15208333Y-10773952D01*
X15217857Y-10764429D01*
X15217857Y-10783476D01*
X15351190Y-10583476D02*
X15370238Y-10583476D01*
X15389286Y-10593000D01*
X15398809Y-10602524D01*
X15408333Y-10621571D01*
X15417857Y-10659667D01*
X15417857Y-10707286D01*
X15408333Y-10745381D01*
X15398809Y-10764429D01*
X15389286Y-10773952D01*
X15370238Y-10783476D01*
X15351190Y-10783476D01*
X15332143Y-10773952D01*
X15322619Y-10764429D01*
X15313095Y-10745381D01*
X15303571Y-10707286D01*
X15303571Y-10659667D01*
X15313095Y-10621571D01*
X15322619Y-10602524D01*
X15332143Y-10593000D01*
X15351190Y-10583476D01*
X15608333Y-10783476D02*
X15494048Y-10783476D01*
X15551190Y-10783476D02*
X15551190Y-10583476D01*
X15532143Y-10612048D01*
X15513095Y-10631095D01*
X15494048Y-10640619D01*
X15789286Y-10583476D02*
X15694048Y-10583476D01*
X15684524Y-10678714D01*
X15694048Y-10669190D01*
X15713095Y-10659667D01*
X15760714Y-10659667D01*
X15779762Y-10669190D01*
X15789286Y-10678714D01*
X15798809Y-10697762D01*
X15798809Y-10745381D01*
X15789286Y-10764429D01*
X15779762Y-10773952D01*
X15760714Y-10783476D01*
X15713095Y-10783476D01*
X15694048Y-10773952D01*
X15684524Y-10764429D01*
X15865476Y-10583476D02*
X15998809Y-10583476D01*
X15913095Y-10783476D01*
X16065476Y-10583476D02*
X16065476Y-10621571D01*
X16141667Y-10583476D02*
X16141667Y-10621571D01*
X16436905Y-10859667D02*
X16427381Y-10850143D01*
X16408333Y-10821571D01*
X16398809Y-10802524D01*
X16389286Y-10773952D01*
X16379762Y-10726333D01*
X16379762Y-10688238D01*
X16389286Y-10640619D01*
X16398809Y-10612048D01*
X16408333Y-10593000D01*
X16427381Y-10564429D01*
X16436905Y-10554905D01*
X16617857Y-10783476D02*
X16503571Y-10783476D01*
X16560714Y-10783476D02*
X16560714Y-10583476D01*
X16541667Y-10612048D01*
X16522619Y-10631095D01*
X16503571Y-10640619D01*
X16808333Y-10783476D02*
X16694048Y-10783476D01*
X16751190Y-10783476D02*
X16751190Y-10583476D01*
X16732143Y-10612048D01*
X16713095Y-10631095D01*
X16694048Y-10640619D01*
X17046429Y-10783476D02*
X17046429Y-10583476D01*
X17132143Y-10783476D02*
X17132143Y-10678714D01*
X17122619Y-10659667D01*
X17103571Y-10650143D01*
X17075000Y-10650143D01*
X17055952Y-10659667D01*
X17046429Y-10669190D01*
X17255952Y-10783476D02*
X17236905Y-10773952D01*
X17227381Y-10764429D01*
X17217857Y-10745381D01*
X17217857Y-10688238D01*
X17227381Y-10669190D01*
X17236905Y-10659667D01*
X17255952Y-10650143D01*
X17284524Y-10650143D01*
X17303571Y-10659667D01*
X17313095Y-10669190D01*
X17322619Y-10688238D01*
X17322619Y-10745381D01*
X17313095Y-10764429D01*
X17303571Y-10773952D01*
X17284524Y-10783476D01*
X17255952Y-10783476D01*
X17436905Y-10783476D02*
X17417857Y-10773952D01*
X17408333Y-10754905D01*
X17408333Y-10583476D01*
X17589286Y-10773952D02*
X17570238Y-10783476D01*
X17532143Y-10783476D01*
X17513095Y-10773952D01*
X17503571Y-10754905D01*
X17503571Y-10678714D01*
X17513095Y-10659667D01*
X17532143Y-10650143D01*
X17570238Y-10650143D01*
X17589286Y-10659667D01*
X17598810Y-10678714D01*
X17598810Y-10697762D01*
X17503571Y-10716810D01*
X17675000Y-10773952D02*
X17694048Y-10783476D01*
X17732143Y-10783476D01*
X17751190Y-10773952D01*
X17760714Y-10754905D01*
X17760714Y-10745381D01*
X17751190Y-10726333D01*
X17732143Y-10716810D01*
X17703571Y-10716810D01*
X17684524Y-10707286D01*
X17675000Y-10688238D01*
X17675000Y-10678714D01*
X17684524Y-10659667D01*
X17703571Y-10650143D01*
X17732143Y-10650143D01*
X17751190Y-10659667D01*
X17827381Y-10859667D02*
X17836905Y-10850143D01*
X17855952Y-10821571D01*
X17865476Y-10802524D01*
X17875000Y-10773952D01*
X17884524Y-10726333D01*
X17884524Y-10688238D01*
X17875000Y-10640619D01*
X17865476Y-10612048D01*
X17855952Y-10593000D01*
X17836905Y-10564429D01*
X17827381Y-10554905D01*
D14*
X12857678Y-10974678D02*
X12857678Y-10939322D01*
X12822322Y-10939322D01*
X12822322Y-10974678D01*
X12857678Y-10974678D01*
D11*
X13160714Y-10847476D02*
X13179762Y-10847476D01*
X13198809Y-10857000D01*
X13208333Y-10866524D01*
X13217857Y-10885571D01*
X13227381Y-10923667D01*
X13227381Y-10971286D01*
X13217857Y-11009381D01*
X13208333Y-11028429D01*
X13198809Y-11037952D01*
X13179762Y-11047476D01*
X13160714Y-11047476D01*
X13141667Y-11037952D01*
X13132143Y-11028429D01*
X13122619Y-11009381D01*
X13113095Y-10971286D01*
X13113095Y-10923667D01*
X13122619Y-10885571D01*
X13132143Y-10866524D01*
X13141667Y-10857000D01*
X13160714Y-10847476D01*
X13313095Y-11028429D02*
X13322619Y-11037952D01*
X13313095Y-11047476D01*
X13303571Y-11037952D01*
X13313095Y-11028429D01*
X13313095Y-11047476D01*
X13503571Y-10847476D02*
X13408333Y-10847476D01*
X13398809Y-10942714D01*
X13408333Y-10933190D01*
X13427381Y-10923667D01*
X13475000Y-10923667D01*
X13494048Y-10933190D01*
X13503571Y-10942714D01*
X13513095Y-10961762D01*
X13513095Y-11009381D01*
X13503571Y-11028429D01*
X13494048Y-11037952D01*
X13475000Y-11047476D01*
X13427381Y-11047476D01*
X13408333Y-11037952D01*
X13398809Y-11028429D01*
X13636905Y-10847476D02*
X13655952Y-10847476D01*
X13675000Y-10857000D01*
X13684524Y-10866524D01*
X13694048Y-10885571D01*
X13703571Y-10923667D01*
X13703571Y-10971286D01*
X13694048Y-11009381D01*
X13684524Y-11028429D01*
X13675000Y-11037952D01*
X13655952Y-11047476D01*
X13636905Y-11047476D01*
X13617857Y-11037952D01*
X13608333Y-11028429D01*
X13598809Y-11009381D01*
X13589286Y-10971286D01*
X13589286Y-10923667D01*
X13598809Y-10885571D01*
X13608333Y-10866524D01*
X13617857Y-10857000D01*
X13636905Y-10847476D01*
X13827381Y-10847476D02*
X13846428Y-10847476D01*
X13865476Y-10857000D01*
X13875000Y-10866524D01*
X13884524Y-10885571D01*
X13894048Y-10923667D01*
X13894048Y-10971286D01*
X13884524Y-11009381D01*
X13875000Y-11028429D01*
X13865476Y-11037952D01*
X13846428Y-11047476D01*
X13827381Y-11047476D01*
X13808333Y-11037952D01*
X13798809Y-11028429D01*
X13789286Y-11009381D01*
X13779762Y-10971286D01*
X13779762Y-10923667D01*
X13789286Y-10885571D01*
X13798809Y-10866524D01*
X13808333Y-10857000D01*
X13827381Y-10847476D01*
X13979762Y-11047476D02*
X13979762Y-10914143D01*
X13979762Y-10933190D02*
X13989286Y-10923667D01*
X14008333Y-10914143D01*
X14036905Y-10914143D01*
X14055952Y-10923667D01*
X14065476Y-10942714D01*
X14065476Y-11047476D01*
X14065476Y-10942714D02*
X14075000Y-10923667D01*
X14094048Y-10914143D01*
X14122619Y-10914143D01*
X14141667Y-10923667D01*
X14151190Y-10942714D01*
X14151190Y-11047476D01*
X14246428Y-11047476D02*
X14246428Y-10914143D01*
X14246428Y-10933190D02*
X14255952Y-10923667D01*
X14275000Y-10914143D01*
X14303571Y-10914143D01*
X14322619Y-10923667D01*
X14332143Y-10942714D01*
X14332143Y-11047476D01*
X14332143Y-10942714D02*
X14341667Y-10923667D01*
X14360714Y-10914143D01*
X14389286Y-10914143D01*
X14408333Y-10923667D01*
X14417857Y-10942714D01*
X14417857Y-11047476D01*
X14808333Y-10837952D02*
X14636905Y-11095095D01*
X15065476Y-10847476D02*
X15084524Y-10847476D01*
X15103571Y-10857000D01*
X15113095Y-10866524D01*
X15122619Y-10885571D01*
X15132143Y-10923667D01*
X15132143Y-10971286D01*
X15122619Y-11009381D01*
X15113095Y-11028429D01*
X15103571Y-11037952D01*
X15084524Y-11047476D01*
X15065476Y-11047476D01*
X15046428Y-11037952D01*
X15036905Y-11028429D01*
X15027381Y-11009381D01*
X15017857Y-10971286D01*
X15017857Y-10923667D01*
X15027381Y-10885571D01*
X15036905Y-10866524D01*
X15046428Y-10857000D01*
X15065476Y-10847476D01*
X15217857Y-11028429D02*
X15227381Y-11037952D01*
X15217857Y-11047476D01*
X15208333Y-11037952D01*
X15217857Y-11028429D01*
X15217857Y-11047476D01*
X15351190Y-10847476D02*
X15370238Y-10847476D01*
X15389286Y-10857000D01*
X15398809Y-10866524D01*
X15408333Y-10885571D01*
X15417857Y-10923667D01*
X15417857Y-10971286D01*
X15408333Y-11009381D01*
X15398809Y-11028429D01*
X15389286Y-11037952D01*
X15370238Y-11047476D01*
X15351190Y-11047476D01*
X15332143Y-11037952D01*
X15322619Y-11028429D01*
X15313095Y-11009381D01*
X15303571Y-10971286D01*
X15303571Y-10923667D01*
X15313095Y-10885571D01*
X15322619Y-10866524D01*
X15332143Y-10857000D01*
X15351190Y-10847476D01*
X15608333Y-11047476D02*
X15494048Y-11047476D01*
X15551190Y-11047476D02*
X15551190Y-10847476D01*
X15532143Y-10876048D01*
X15513095Y-10895095D01*
X15494048Y-10904619D01*
X15703571Y-11047476D02*
X15741667Y-11047476D01*
X15760714Y-11037952D01*
X15770238Y-11028429D01*
X15789286Y-10999857D01*
X15798809Y-10961762D01*
X15798809Y-10885571D01*
X15789286Y-10866524D01*
X15779762Y-10857000D01*
X15760714Y-10847476D01*
X15722619Y-10847476D01*
X15703571Y-10857000D01*
X15694048Y-10866524D01*
X15684524Y-10885571D01*
X15684524Y-10933190D01*
X15694048Y-10952238D01*
X15703571Y-10961762D01*
X15722619Y-10971286D01*
X15760714Y-10971286D01*
X15779762Y-10961762D01*
X15789286Y-10952238D01*
X15798809Y-10933190D01*
X15865476Y-10847476D02*
X15998809Y-10847476D01*
X15913095Y-11047476D01*
X16065476Y-10847476D02*
X16065476Y-10885571D01*
X16141667Y-10847476D02*
X16141667Y-10885571D01*
X16436905Y-11123667D02*
X16427381Y-11114143D01*
X16408333Y-11085571D01*
X16398809Y-11066524D01*
X16389286Y-11037952D01*
X16379762Y-10990333D01*
X16379762Y-10952238D01*
X16389286Y-10904619D01*
X16398809Y-10876048D01*
X16408333Y-10857000D01*
X16427381Y-10828429D01*
X16436905Y-10818905D01*
X16617857Y-11047476D02*
X16503571Y-11047476D01*
X16560714Y-11047476D02*
X16560714Y-10847476D01*
X16541667Y-10876048D01*
X16522619Y-10895095D01*
X16503571Y-10904619D01*
X16694048Y-10866524D02*
X16703571Y-10857000D01*
X16722619Y-10847476D01*
X16770238Y-10847476D01*
X16789286Y-10857000D01*
X16798810Y-10866524D01*
X16808333Y-10885571D01*
X16808333Y-10904619D01*
X16798810Y-10933190D01*
X16684524Y-11047476D01*
X16808333Y-11047476D01*
X17046429Y-11047476D02*
X17046429Y-10847476D01*
X17132143Y-11047476D02*
X17132143Y-10942714D01*
X17122619Y-10923667D01*
X17103571Y-10914143D01*
X17075000Y-10914143D01*
X17055952Y-10923667D01*
X17046429Y-10933190D01*
X17255952Y-11047476D02*
X17236905Y-11037952D01*
X17227381Y-11028429D01*
X17217857Y-11009381D01*
X17217857Y-10952238D01*
X17227381Y-10933190D01*
X17236905Y-10923667D01*
X17255952Y-10914143D01*
X17284524Y-10914143D01*
X17303571Y-10923667D01*
X17313095Y-10933190D01*
X17322619Y-10952238D01*
X17322619Y-11009381D01*
X17313095Y-11028429D01*
X17303571Y-11037952D01*
X17284524Y-11047476D01*
X17255952Y-11047476D01*
X17436905Y-11047476D02*
X17417857Y-11037952D01*
X17408333Y-11018905D01*
X17408333Y-10847476D01*
X17589286Y-11037952D02*
X17570238Y-11047476D01*
X17532143Y-11047476D01*
X17513095Y-11037952D01*
X17503571Y-11018905D01*
X17503571Y-10942714D01*
X17513095Y-10923667D01*
X17532143Y-10914143D01*
X17570238Y-10914143D01*
X17589286Y-10923667D01*
X17598810Y-10942714D01*
X17598810Y-10961762D01*
X17503571Y-10980810D01*
X17675000Y-11037952D02*
X17694048Y-11047476D01*
X17732143Y-11047476D01*
X17751190Y-11037952D01*
X17760714Y-11018905D01*
X17760714Y-11009381D01*
X17751190Y-10990333D01*
X17732143Y-10980810D01*
X17703571Y-10980810D01*
X17684524Y-10971286D01*
X17675000Y-10952238D01*
X17675000Y-10942714D01*
X17684524Y-10923667D01*
X17703571Y-10914143D01*
X17732143Y-10914143D01*
X17751190Y-10923667D01*
X17827381Y-11123667D02*
X17836905Y-11114143D01*
X17855952Y-11085571D01*
X17865476Y-11066524D01*
X17875000Y-11037952D01*
X17884524Y-10990333D01*
X17884524Y-10952238D01*
X17875000Y-10904619D01*
X17865476Y-10876048D01*
X17855952Y-10857000D01*
X17836905Y-10828429D01*
X17827381Y-10818905D01*
D15*
X12815000Y-11271000D02*
X12865000Y-11221000D01*
X12815000Y-11171000D01*
X12765000Y-11221000D01*
X12815000Y-11271000D01*
D11*
X13227381Y-11311476D02*
X13113095Y-11311476D01*
X13170238Y-11311476D02*
X13170238Y-11111476D01*
X13151190Y-11140048D01*
X13132143Y-11159095D01*
X13113095Y-11168619D01*
X13313095Y-11292428D02*
X13322619Y-11301952D01*
X13313095Y-11311476D01*
X13303571Y-11301952D01*
X13313095Y-11292428D01*
X13313095Y-11311476D01*
X13446428Y-11111476D02*
X13465476Y-11111476D01*
X13484524Y-11121000D01*
X13494048Y-11130524D01*
X13503571Y-11149571D01*
X13513095Y-11187667D01*
X13513095Y-11235286D01*
X13503571Y-11273381D01*
X13494048Y-11292428D01*
X13484524Y-11301952D01*
X13465476Y-11311476D01*
X13446428Y-11311476D01*
X13427381Y-11301952D01*
X13417857Y-11292428D01*
X13408333Y-11273381D01*
X13398809Y-11235286D01*
X13398809Y-11187667D01*
X13408333Y-11149571D01*
X13417857Y-11130524D01*
X13427381Y-11121000D01*
X13446428Y-11111476D01*
X13636905Y-11111476D02*
X13655952Y-11111476D01*
X13675000Y-11121000D01*
X13684524Y-11130524D01*
X13694048Y-11149571D01*
X13703571Y-11187667D01*
X13703571Y-11235286D01*
X13694048Y-11273381D01*
X13684524Y-11292428D01*
X13675000Y-11301952D01*
X13655952Y-11311476D01*
X13636905Y-11311476D01*
X13617857Y-11301952D01*
X13608333Y-11292428D01*
X13598809Y-11273381D01*
X13589286Y-11235286D01*
X13589286Y-11187667D01*
X13598809Y-11149571D01*
X13608333Y-11130524D01*
X13617857Y-11121000D01*
X13636905Y-11111476D01*
X13827381Y-11111476D02*
X13846428Y-11111476D01*
X13865476Y-11121000D01*
X13875000Y-11130524D01*
X13884524Y-11149571D01*
X13894048Y-11187667D01*
X13894048Y-11235286D01*
X13884524Y-11273381D01*
X13875000Y-11292428D01*
X13865476Y-11301952D01*
X13846428Y-11311476D01*
X13827381Y-11311476D01*
X13808333Y-11301952D01*
X13798809Y-11292428D01*
X13789286Y-11273381D01*
X13779762Y-11235286D01*
X13779762Y-11187667D01*
X13789286Y-11149571D01*
X13798809Y-11130524D01*
X13808333Y-11121000D01*
X13827381Y-11111476D01*
X13979762Y-11311476D02*
X13979762Y-11178143D01*
X13979762Y-11197190D02*
X13989286Y-11187667D01*
X14008333Y-11178143D01*
X14036905Y-11178143D01*
X14055952Y-11187667D01*
X14065476Y-11206714D01*
X14065476Y-11311476D01*
X14065476Y-11206714D02*
X14075000Y-11187667D01*
X14094048Y-11178143D01*
X14122619Y-11178143D01*
X14141667Y-11187667D01*
X14151190Y-11206714D01*
X14151190Y-11311476D01*
X14246428Y-11311476D02*
X14246428Y-11178143D01*
X14246428Y-11197190D02*
X14255952Y-11187667D01*
X14275000Y-11178143D01*
X14303571Y-11178143D01*
X14322619Y-11187667D01*
X14332143Y-11206714D01*
X14332143Y-11311476D01*
X14332143Y-11206714D02*
X14341667Y-11187667D01*
X14360714Y-11178143D01*
X14389286Y-11178143D01*
X14408333Y-11187667D01*
X14417857Y-11206714D01*
X14417857Y-11311476D01*
X14808333Y-11101952D02*
X14636905Y-11359095D01*
X15065476Y-11111476D02*
X15084524Y-11111476D01*
X15103571Y-11121000D01*
X15113095Y-11130524D01*
X15122619Y-11149571D01*
X15132143Y-11187667D01*
X15132143Y-11235286D01*
X15122619Y-11273381D01*
X15113095Y-11292428D01*
X15103571Y-11301952D01*
X15084524Y-11311476D01*
X15065476Y-11311476D01*
X15046428Y-11301952D01*
X15036905Y-11292428D01*
X15027381Y-11273381D01*
X15017857Y-11235286D01*
X15017857Y-11187667D01*
X15027381Y-11149571D01*
X15036905Y-11130524D01*
X15046428Y-11121000D01*
X15065476Y-11111476D01*
X15217857Y-11292428D02*
X15227381Y-11301952D01*
X15217857Y-11311476D01*
X15208333Y-11301952D01*
X15217857Y-11292428D01*
X15217857Y-11311476D01*
X15351190Y-11111476D02*
X15370238Y-11111476D01*
X15389286Y-11121000D01*
X15398809Y-11130524D01*
X15408333Y-11149571D01*
X15417857Y-11187667D01*
X15417857Y-11235286D01*
X15408333Y-11273381D01*
X15398809Y-11292428D01*
X15389286Y-11301952D01*
X15370238Y-11311476D01*
X15351190Y-11311476D01*
X15332143Y-11301952D01*
X15322619Y-11292428D01*
X15313095Y-11273381D01*
X15303571Y-11235286D01*
X15303571Y-11187667D01*
X15313095Y-11149571D01*
X15322619Y-11130524D01*
X15332143Y-11121000D01*
X15351190Y-11111476D01*
X15484524Y-11111476D02*
X15608333Y-11111476D01*
X15541667Y-11187667D01*
X15570238Y-11187667D01*
X15589286Y-11197190D01*
X15598809Y-11206714D01*
X15608333Y-11225762D01*
X15608333Y-11273381D01*
X15598809Y-11292428D01*
X15589286Y-11301952D01*
X15570238Y-11311476D01*
X15513095Y-11311476D01*
X15494048Y-11301952D01*
X15484524Y-11292428D01*
X15703571Y-11311476D02*
X15741667Y-11311476D01*
X15760714Y-11301952D01*
X15770238Y-11292428D01*
X15789286Y-11263857D01*
X15798809Y-11225762D01*
X15798809Y-11149571D01*
X15789286Y-11130524D01*
X15779762Y-11121000D01*
X15760714Y-11111476D01*
X15722619Y-11111476D01*
X15703571Y-11121000D01*
X15694048Y-11130524D01*
X15684524Y-11149571D01*
X15684524Y-11197190D01*
X15694048Y-11216238D01*
X15703571Y-11225762D01*
X15722619Y-11235286D01*
X15760714Y-11235286D01*
X15779762Y-11225762D01*
X15789286Y-11216238D01*
X15798809Y-11197190D01*
X15970238Y-11178143D02*
X15970238Y-11311476D01*
X15922619Y-11101952D02*
X15875000Y-11244809D01*
X15998809Y-11244809D01*
X16065476Y-11111476D02*
X16065476Y-11149571D01*
X16141667Y-11111476D02*
X16141667Y-11149571D01*
X16436905Y-11387667D02*
X16427381Y-11378143D01*
X16408333Y-11349571D01*
X16398809Y-11330524D01*
X16389286Y-11301952D01*
X16379762Y-11254333D01*
X16379762Y-11216238D01*
X16389286Y-11168619D01*
X16398809Y-11140048D01*
X16408333Y-11121000D01*
X16427381Y-11092429D01*
X16436905Y-11082905D01*
X16598809Y-11178143D02*
X16598809Y-11311476D01*
X16551190Y-11101952D02*
X16503571Y-11244809D01*
X16627381Y-11244809D01*
X16855952Y-11311476D02*
X16855952Y-11111476D01*
X16941667Y-11311476D02*
X16941667Y-11206714D01*
X16932143Y-11187667D01*
X16913095Y-11178143D01*
X16884524Y-11178143D01*
X16865476Y-11187667D01*
X16855952Y-11197190D01*
X17065476Y-11311476D02*
X17046429Y-11301952D01*
X17036905Y-11292428D01*
X17027381Y-11273381D01*
X17027381Y-11216238D01*
X17036905Y-11197190D01*
X17046429Y-11187667D01*
X17065476Y-11178143D01*
X17094048Y-11178143D01*
X17113095Y-11187667D01*
X17122619Y-11197190D01*
X17132143Y-11216238D01*
X17132143Y-11273381D01*
X17122619Y-11292428D01*
X17113095Y-11301952D01*
X17094048Y-11311476D01*
X17065476Y-11311476D01*
X17246429Y-11311476D02*
X17227381Y-11301952D01*
X17217857Y-11282905D01*
X17217857Y-11111476D01*
X17398810Y-11301952D02*
X17379762Y-11311476D01*
X17341667Y-11311476D01*
X17322619Y-11301952D01*
X17313095Y-11282905D01*
X17313095Y-11206714D01*
X17322619Y-11187667D01*
X17341667Y-11178143D01*
X17379762Y-11178143D01*
X17398810Y-11187667D01*
X17408333Y-11206714D01*
X17408333Y-11225762D01*
X17313095Y-11244809D01*
X17484524Y-11301952D02*
X17503571Y-11311476D01*
X17541667Y-11311476D01*
X17560714Y-11301952D01*
X17570238Y-11282905D01*
X17570238Y-11273381D01*
X17560714Y-11254333D01*
X17541667Y-11244809D01*
X17513095Y-11244809D01*
X17494048Y-11235286D01*
X17484524Y-11216238D01*
X17484524Y-11206714D01*
X17494048Y-11187667D01*
X17513095Y-11178143D01*
X17541667Y-11178143D01*
X17560714Y-11187667D01*
X17636905Y-11387667D02*
X17646429Y-11378143D01*
X17665476Y-11349571D01*
X17675000Y-11330524D01*
X17684524Y-11301952D01*
X17694048Y-11254333D01*
X17694048Y-11216238D01*
X17684524Y-11168619D01*
X17675000Y-11140048D01*
X17665476Y-11121000D01*
X17646429Y-11092429D01*
X17636905Y-11082905D01*
M02*
