%FSLAX45Y45*%
G04 Gerber Fmt 4.5, Leading zero omitted, Abs format (unit mm)*
G04 Created by KiCad (PCBNEW (6.0.5)) date 2023-11-22 15:12:08*
%MOMM*%
%LPD*%
G01*
G04 APERTURE LIST*
%TA.AperFunction,Profile*%
%ADD10C,0.100000*%
%TD*%
%ADD11C,0.200000*%
G04 APERTURE END LIST*
D10*
X12870000Y-7320000D02*
X14370000Y-7320000D01*
X14370000Y-7320000D02*
X14370000Y-9520000D01*
X14370000Y-9520000D02*
X12870000Y-9520000D01*
X12870000Y-9520000D02*
X12870000Y-7320000D01*
D11*
X13122619Y-9835476D02*
X13122619Y-9635476D01*
X13170238Y-9635476D01*
X13198809Y-9645000D01*
X13217857Y-9664048D01*
X13227381Y-9683095D01*
X13236905Y-9721190D01*
X13236905Y-9749762D01*
X13227381Y-9787857D01*
X13217857Y-9806905D01*
X13198809Y-9825952D01*
X13170238Y-9835476D01*
X13122619Y-9835476D01*
X13322619Y-9835476D02*
X13322619Y-9702143D01*
X13322619Y-9740238D02*
X13332143Y-9721190D01*
X13341667Y-9711667D01*
X13360714Y-9702143D01*
X13379762Y-9702143D01*
X13446428Y-9835476D02*
X13446428Y-9702143D01*
X13446428Y-9635476D02*
X13436905Y-9645000D01*
X13446428Y-9654524D01*
X13455952Y-9645000D01*
X13446428Y-9635476D01*
X13446428Y-9654524D01*
X13570238Y-9835476D02*
X13551190Y-9825952D01*
X13541667Y-9806905D01*
X13541667Y-9635476D01*
X13675000Y-9835476D02*
X13655952Y-9825952D01*
X13646428Y-9806905D01*
X13646428Y-9635476D01*
X13903571Y-9835476D02*
X13903571Y-9635476D01*
X13970238Y-9778333D01*
X14036905Y-9635476D01*
X14036905Y-9835476D01*
X14217857Y-9835476D02*
X14217857Y-9730714D01*
X14208333Y-9711667D01*
X14189286Y-9702143D01*
X14151190Y-9702143D01*
X14132143Y-9711667D01*
X14217857Y-9825952D02*
X14198809Y-9835476D01*
X14151190Y-9835476D01*
X14132143Y-9825952D01*
X14122619Y-9806905D01*
X14122619Y-9787857D01*
X14132143Y-9768810D01*
X14151190Y-9759286D01*
X14198809Y-9759286D01*
X14217857Y-9749762D01*
X14313095Y-9702143D02*
X14313095Y-9902143D01*
X14313095Y-9711667D02*
X14332143Y-9702143D01*
X14370238Y-9702143D01*
X14389286Y-9711667D01*
X14398809Y-9721190D01*
X14408333Y-9740238D01*
X14408333Y-9797381D01*
X14398809Y-9816429D01*
X14389286Y-9825952D01*
X14370238Y-9835476D01*
X14332143Y-9835476D01*
X14313095Y-9825952D01*
X14494048Y-9816429D02*
X14503571Y-9825952D01*
X14494048Y-9835476D01*
X14484524Y-9825952D01*
X14494048Y-9816429D01*
X14494048Y-9835476D01*
X14494048Y-9711667D02*
X14503571Y-9721190D01*
X14494048Y-9730714D01*
X14484524Y-9721190D01*
X14494048Y-9711667D01*
X14494048Y-9730714D01*
M02*
