%TF.GenerationSoftware,KiCad,Pcbnew,(6.0.5)*%
%TF.CreationDate,2023-11-22T15:12:11+07:00*%
%TF.ProjectId,lidar,6c696461-722e-46b6-9963-61645f706362,rev?*%
%TF.SameCoordinates,Original*%
%TF.FileFunction,Copper,L1,Top*%
%TF.FilePolarity,Positive*%
%FSLAX46Y46*%
G04 Gerber Fmt 4.6, Leading zero omitted, Abs format (unit mm)*
G04 Created by KiCad (PCBNEW (6.0.5)) date 2023-11-22 15:12:11*
%MOMM*%
%LPD*%
G01*
G04 APERTURE LIST*
G04 Aperture macros list*
%AMRoundRect*
0 Rectangle with rounded corners*
0 $1 Rounding radius*
0 $2 $3 $4 $5 $6 $7 $8 $9 X,Y pos of 4 corners*
0 Add a 4 corners polygon primitive as box body*
4,1,4,$2,$3,$4,$5,$6,$7,$8,$9,$2,$3,0*
0 Add four circle primitives for the rounded corners*
1,1,$1+$1,$2,$3*
1,1,$1+$1,$4,$5*
1,1,$1+$1,$6,$7*
1,1,$1+$1,$8,$9*
0 Add four rect primitives between the rounded corners*
20,1,$1+$1,$2,$3,$4,$5,0*
20,1,$1+$1,$4,$5,$6,$7,0*
20,1,$1+$1,$6,$7,$8,$9,0*
20,1,$1+$1,$8,$9,$2,$3,0*%
%AMRotRect*
0 Rectangle, with rotation*
0 The origin of the aperture is its center*
0 $1 length*
0 $2 width*
0 $3 Rotation angle, in degrees counterclockwise*
0 Add horizontal line*
21,1,$1,$2,0,0,$3*%
G04 Aperture macros list end*
%TA.AperFunction,SMDPad,CuDef*%
%ADD10RoundRect,0.140000X0.140000X0.170000X-0.140000X0.170000X-0.140000X-0.170000X0.140000X-0.170000X0*%
%TD*%
%TA.AperFunction,SMDPad,CuDef*%
%ADD11RoundRect,0.140000X0.219203X0.021213X0.021213X0.219203X-0.219203X-0.021213X-0.021213X-0.219203X0*%
%TD*%
%TA.AperFunction,SMDPad,CuDef*%
%ADD12RoundRect,0.140000X-0.140000X-0.170000X0.140000X-0.170000X0.140000X0.170000X-0.140000X0.170000X0*%
%TD*%
%TA.AperFunction,SMDPad,CuDef*%
%ADD13RoundRect,0.140000X-0.170000X0.140000X-0.170000X-0.140000X0.170000X-0.140000X0.170000X0.140000X0*%
%TD*%
%TA.AperFunction,SMDPad,CuDef*%
%ADD14RoundRect,0.140000X-0.219203X-0.021213X-0.021213X-0.219203X0.219203X0.021213X0.021213X0.219203X0*%
%TD*%
%TA.AperFunction,SMDPad,CuDef*%
%ADD15RoundRect,0.135000X0.226274X0.035355X0.035355X0.226274X-0.226274X-0.035355X-0.035355X-0.226274X0*%
%TD*%
%TA.AperFunction,SMDPad,CuDef*%
%ADD16RoundRect,0.140000X0.021213X-0.219203X0.219203X-0.021213X-0.021213X0.219203X-0.219203X0.021213X0*%
%TD*%
%TA.AperFunction,SMDPad,CuDef*%
%ADD17RoundRect,0.100000X0.021213X0.162635X-0.162635X-0.021213X-0.021213X-0.162635X0.162635X0.021213X0*%
%TD*%
%TA.AperFunction,SMDPad,CuDef*%
%ADD18RoundRect,0.135000X0.035355X-0.226274X0.226274X-0.035355X-0.035355X0.226274X-0.226274X0.035355X0*%
%TD*%
%TA.AperFunction,SMDPad,CuDef*%
%ADD19R,0.600000X0.490000*%
%TD*%
%TA.AperFunction,SMDPad,CuDef*%
%ADD20RotRect,0.490000X0.600000X135.000000*%
%TD*%
%TA.AperFunction,SMDPad,CuDef*%
%ADD21RoundRect,0.135000X-0.135000X-0.185000X0.135000X-0.185000X0.135000X0.185000X-0.135000X0.185000X0*%
%TD*%
%TA.AperFunction,SMDPad,CuDef*%
%ADD22R,0.490000X0.600000*%
%TD*%
%TA.AperFunction,SMDPad,CuDef*%
%ADD23RoundRect,0.140000X-0.021213X0.219203X-0.219203X0.021213X0.021213X-0.219203X0.219203X-0.021213X0*%
%TD*%
%TA.AperFunction,SMDPad,CuDef*%
%ADD24RoundRect,0.002400X-0.127279X-0.293591X0.293591X0.127279X0.127279X0.293591X-0.293591X-0.127279X0*%
%TD*%
%TA.AperFunction,SMDPad,CuDef*%
%ADD25RoundRect,0.002400X0.127279X-0.293591X0.293591X-0.127279X-0.127279X0.293591X-0.293591X0.127279X0*%
%TD*%
%TA.AperFunction,SMDPad,CuDef*%
%ADD26RotRect,2.550000X3.550000X45.000000*%
%TD*%
%TA.AperFunction,ComponentPad*%
%ADD27C,0.400000*%
%TD*%
%TA.AperFunction,SMDPad,CuDef*%
%ADD28RoundRect,0.140000X0.170000X-0.140000X0.170000X0.140000X-0.170000X0.140000X-0.170000X-0.140000X0*%
%TD*%
%TA.AperFunction,ComponentPad*%
%ADD29R,0.850000X0.850000*%
%TD*%
%TA.AperFunction,ComponentPad*%
%ADD30O,0.850000X0.850000*%
%TD*%
%TA.AperFunction,ComponentPad*%
%ADD31C,2.000000*%
%TD*%
%TA.AperFunction,ViaPad*%
%ADD32C,0.400000*%
%TD*%
%TA.AperFunction,ViaPad*%
%ADD33C,0.800000*%
%TD*%
%TA.AperFunction,Conductor*%
%ADD34C,0.250000*%
%TD*%
%TA.AperFunction,Conductor*%
%ADD35C,0.300000*%
%TD*%
%TA.AperFunction,Conductor*%
%ADD36C,0.800000*%
%TD*%
%TA.AperFunction,Conductor*%
%ADD37C,0.600000*%
%TD*%
%TA.AperFunction,Conductor*%
%ADD38C,0.400000*%
%TD*%
%TA.AperFunction,Conductor*%
%ADD39C,0.200000*%
%TD*%
%TA.AperFunction,Conductor*%
%ADD40C,0.239800*%
%TD*%
%TA.AperFunction,Conductor*%
%ADD41C,0.150000*%
%TD*%
G04 APERTURE END LIST*
D10*
%TO.P,C21,1*%
%TO.N,/AVDD_DUT_3P3V*%
X138280000Y-76700000D03*
%TO.P,C21,2*%
%TO.N,GND1*%
X137320000Y-76700000D03*
%TD*%
D11*
%TO.P,C27,1*%
%TO.N,/IOVDD_DUT*%
X136432311Y-88146511D03*
%TO.P,C27,2*%
%TO.N,GND*%
X135753489Y-87467689D03*
%TD*%
D10*
%TO.P,C19,1*%
%TO.N,GND2*%
X132480000Y-91000000D03*
%TO.P,C19,2*%
%TO.N,/VDD_LED*%
X131520000Y-91000000D03*
%TD*%
D12*
%TO.P,C14,1*%
%TO.N,Net-(C14-Pad1)*%
X140100000Y-78700000D03*
%TO.P,C14,2*%
%TO.N,GND*%
X141060000Y-78700000D03*
%TD*%
D13*
%TO.P,C25,1*%
%TO.N,/VDD_LED*%
X133500000Y-90020000D03*
%TO.P,C25,2*%
%TO.N,GND2*%
X133500000Y-90980000D03*
%TD*%
D14*
%TO.P,C7,1*%
%TO.N,/IOVDD_DUT*%
X138460589Y-87560589D03*
%TO.P,C7,2*%
%TO.N,GND*%
X139139411Y-88239411D03*
%TD*%
D10*
%TO.P,C23,1*%
%TO.N,/VDD_3P3*%
X139980000Y-91200000D03*
%TO.P,C23,2*%
%TO.N,GND3*%
X139020000Y-91200000D03*
%TD*%
D14*
%TO.P,C28,1*%
%TO.N,GND*%
X136460589Y-86760589D03*
%TO.P,C28,2*%
%TO.N,/IOVDD_DUT*%
X137139411Y-87439411D03*
%TD*%
D15*
%TO.P,R12,1*%
%TO.N,/SDA_S*%
X141960624Y-82560624D03*
%TO.P,R12,2*%
%TO.N,/IOVDD_DUT*%
X141239376Y-81839376D03*
%TD*%
D16*
%TO.P,C30,1*%
%TO.N,GND2*%
X139860589Y-87539411D03*
%TO.P,C30,2*%
%TO.N,/IOVDD_DUT*%
X140539411Y-86860589D03*
%TD*%
D17*
%TO.P,C17,1*%
%TO.N,GND1*%
X134660589Y-77008040D03*
%TO.P,C17,2*%
%TO.N,Net-(U1-Pad24)*%
X134208041Y-77460588D03*
%TD*%
D18*
%TO.P,R11,1*%
%TO.N,/SCL_S*%
X141039376Y-84960624D03*
%TO.P,R11,2*%
%TO.N,/IOVDD_DUT*%
X141760624Y-84239376D03*
%TD*%
D11*
%TO.P,C8,1*%
%TO.N,GND*%
X138396911Y-88953611D03*
%TO.P,C8,2*%
%TO.N,/IOVDD_DUT*%
X137718089Y-88274789D03*
%TD*%
D12*
%TO.P,C18,1*%
%TO.N,/VDD_LED*%
X131520000Y-90000000D03*
%TO.P,C18,2*%
%TO.N,GND2*%
X132480000Y-90000000D03*
%TD*%
D10*
%TO.P,C15,1*%
%TO.N,Net-(C13-Pad2)*%
X138300000Y-78700000D03*
%TO.P,C15,2*%
%TO.N,GND1*%
X137340000Y-78700000D03*
%TD*%
D19*
%TO.P,FB7,1*%
%TO.N,/VDD_3P3*%
X142300000Y-90245000D03*
%TO.P,FB7,2*%
%TO.N,/VDD_EXT_3P3*%
X142300000Y-91155000D03*
%TD*%
D20*
%TO.P,FB5,1*%
%TO.N,/VDD_3P3*%
X141821734Y-88321734D03*
%TO.P,FB5,2*%
%TO.N,/IOVDD_DUT*%
X141178266Y-87678266D03*
%TD*%
D21*
%TO.P,R17,1*%
%TO.N,GND1*%
X130265000Y-83500000D03*
%TO.P,R17,2*%
%TO.N,Net-(R17-Pad2)*%
X131285000Y-83500000D03*
%TD*%
D22*
%TO.P,FB4,1*%
%TO.N,GND3*%
X137755000Y-90700000D03*
%TO.P,FB4,2*%
%TO.N,GND2*%
X136845000Y-90700000D03*
%TD*%
D23*
%TO.P,C20,1*%
%TO.N,GND2*%
X133739411Y-85960589D03*
%TO.P,C20,2*%
%TO.N,/VDD_LED*%
X133060589Y-86639411D03*
%TD*%
D24*
%TO.P,U1,1,A1*%
%TO.N,Net-(R16-Pad2)*%
X135419060Y-83106066D03*
%TO.P,U1,2,A2*%
%TO.N,Net-(R17-Pad2)*%
X135772614Y-83459619D03*
%TO.P,U1,3,IOVSS*%
%TO.N,GND*%
X136126167Y-83813173D03*
%TO.P,U1,4,TX2*%
X136479720Y-84166726D03*
%TO.P,U1,5,TX1*%
X136833274Y-84520280D03*
%TO.P,U1,6,VSSL*%
%TO.N,GND2*%
X137186827Y-84873833D03*
%TO.P,U1,7,TX0*%
%TO.N,Net-(D1-PadC)*%
X137540381Y-85227386D03*
%TO.P,U1,8,IOVSS*%
%TO.N,GND*%
X137893934Y-85580940D03*
D25*
%TO.P,U1,9,IOVDD*%
%TO.N,/IOVDD_DUT*%
X138813173Y-85580940D03*
%TO.P,U1,10,IOVDD*%
X139166726Y-85227386D03*
%TO.P,U1,11,GP1*%
%TO.N,/GP1*%
X139520280Y-84873833D03*
%TO.P,U1,12,GP2*%
%TO.N,/GP2*%
X139873833Y-84520280D03*
%TO.P,U1,13,SCL_S*%
%TO.N,/SCL_S*%
X140227386Y-84166726D03*
%TO.P,U1,14,SDA_S*%
%TO.N,/SDA_S*%
X140580940Y-83813173D03*
D24*
%TO.P,U1,15,SCL_M*%
%TO.N,unconnected-(U1-Pad15)*%
X140580940Y-82893934D03*
%TO.P,U1,16,SDA_M*%
%TO.N,unconnected-(U1-Pad16)*%
X140227386Y-82540381D03*
%TO.P,U1,17,~{RST_MS}*%
%TO.N,/VSYNC_RST*%
X139873833Y-82186827D03*
%TO.P,U1,18,REG_MODE*%
%TO.N,/IOVDD_DUT*%
X139520280Y-81833274D03*
%TO.P,U1,19,DVDD*%
%TO.N,Net-(C14-Pad1)*%
X139166726Y-81479720D03*
%TO.P,U1,20,AVDD3*%
%TO.N,/AVDD_DUT_3P3V*%
X138813173Y-81126167D03*
%TO.P,U1,21,AVDD*%
%TO.N,Net-(C13-Pad2)*%
X138459619Y-80772614D03*
%TO.P,U1,22*%
%TO.N,N/C*%
X138106066Y-80419060D03*
D25*
%TO.P,U1,23,AVSS*%
%TO.N,GND1*%
X137186827Y-80419060D03*
%TO.P,U1,24,INM*%
%TO.N,Net-(U1-Pad24)*%
X136833274Y-80772614D03*
%TO.P,U1,25,INP*%
%TO.N,Net-(D2-Pad2)*%
X136479720Y-81126167D03*
%TO.P,U1,26,AVSS*%
%TO.N,GND1*%
X136126167Y-81479720D03*
%TO.P,U1,27,AVSS*%
X135772614Y-81833274D03*
%TO.P,U1,28,A0*%
%TO.N,Net-(R15-Pad2)*%
X135419060Y-82186827D03*
D26*
%TO.P,U1,29,AVSS*%
%TO.N,GND1*%
X138000000Y-83000000D03*
D27*
%TO.P,U1,30,AVSS*%
X137275216Y-83724784D03*
%TO.P,U1,31,AVSS*%
X138000000Y-83000000D03*
%TO.P,U1,32,AVSS*%
X138724784Y-82275216D03*
%TO.P,U1,33,AVSS*%
X136921662Y-81921662D03*
%TO.P,U1,34,AVSS*%
X139078338Y-84078338D03*
%TD*%
D28*
%TO.P,C26,1*%
%TO.N,GND2*%
X134500000Y-90980000D03*
%TO.P,C26,2*%
%TO.N,/VDD_LED*%
X134500000Y-90020000D03*
%TD*%
D12*
%TO.P,C13,1*%
%TO.N,GND1*%
X137320000Y-77700000D03*
%TO.P,C13,2*%
%TO.N,Net-(C13-Pad2)*%
X138280000Y-77700000D03*
%TD*%
D19*
%TO.P,FB2,1*%
%TO.N,/VDD_3P3*%
X141100000Y-90245000D03*
%TO.P,FB2,2*%
%TO.N,/VDD_LED*%
X141100000Y-91155000D03*
%TD*%
D22*
%TO.P,FB3,1*%
%TO.N,GND3*%
X136655000Y-74500000D03*
%TO.P,FB3,2*%
%TO.N,GND1*%
X135745000Y-74500000D03*
%TD*%
%TO.P,FB6,1*%
%TO.N,GND3*%
X138245000Y-74500000D03*
%TO.P,FB6,2*%
%TO.N,GND*%
X139155000Y-74500000D03*
%TD*%
D19*
%TO.P,FB1,1*%
%TO.N,/VDD_3P3*%
X139400000Y-76745000D03*
%TO.P,FB1,2*%
%TO.N,/AVDD_DUT_3P3V*%
X139400000Y-77655000D03*
%TD*%
D13*
%TO.P,C37,1*%
%TO.N,/VDD_EXT_3P3*%
X142700000Y-93220000D03*
%TO.P,C37,2*%
%TO.N,GND3*%
X142700000Y-94180000D03*
%TD*%
D21*
%TO.P,R15,1*%
%TO.N,GND1*%
X130290000Y-81300000D03*
%TO.P,R15,2*%
%TO.N,Net-(R15-Pad2)*%
X131310000Y-81300000D03*
%TD*%
D12*
%TO.P,C22,1*%
%TO.N,GND1*%
X137320000Y-75700000D03*
%TO.P,C22,2*%
%TO.N,/AVDD_DUT_3P3V*%
X138280000Y-75700000D03*
%TD*%
D23*
%TO.P,C29,1*%
%TO.N,/IOVDD_DUT*%
X139839411Y-86160589D03*
%TO.P,C29,2*%
%TO.N,GND2*%
X139160589Y-86839411D03*
%TD*%
D21*
%TO.P,R16,1*%
%TO.N,GND1*%
X130265000Y-82400000D03*
%TO.P,R16,2*%
%TO.N,Net-(R16-Pad2)*%
X131285000Y-82400000D03*
%TD*%
D29*
%TO.P,J1,1,Pin_1*%
%TO.N,/SCL_S*%
X141100000Y-93800000D03*
D30*
%TO.P,J1,2,Pin_2*%
%TO.N,GND3*%
X140100000Y-93800000D03*
%TO.P,J1,3,Pin_3*%
X139100000Y-93800000D03*
%TO.P,J1,4,Pin_4*%
%TO.N,/GP1*%
X138100000Y-93800000D03*
%TO.P,J1,5,Pin_5*%
%TO.N,GND3*%
X137100000Y-93800000D03*
%TO.P,J1,6,Pin_6*%
%TO.N,/VDD_EXT_3P3*%
X136100000Y-93800000D03*
%TO.P,J1,7,Pin_7*%
%TO.N,/VSYNC_RST*%
X135100000Y-93800000D03*
%TO.P,J1,8,Pin_8*%
%TO.N,GND3*%
X134100000Y-93800000D03*
%TO.P,J1,9,Pin_9*%
%TO.N,/GP2*%
X133100000Y-93800000D03*
%TO.P,J1,10,Pin_10*%
%TO.N,GND3*%
X132100000Y-93800000D03*
%TO.P,J1,11,Pin_11*%
X131100000Y-93800000D03*
%TO.P,J1,12,Pin_12*%
%TO.N,/SDA_S*%
X130100000Y-93800000D03*
%TD*%
D12*
%TO.P,C24,1*%
%TO.N,GND3*%
X139020000Y-90200000D03*
%TO.P,C24,2*%
%TO.N,/VDD_3P3*%
X139980000Y-90200000D03*
%TD*%
D10*
%TO.P,C16,1*%
%TO.N,GND*%
X141060000Y-79700000D03*
%TO.P,C16,2*%
%TO.N,Net-(C14-Pad1)*%
X140100000Y-79700000D03*
%TD*%
D12*
%TO.P,C38,1*%
%TO.N,GND3*%
X141320000Y-92200000D03*
%TO.P,C38,2*%
%TO.N,/VDD_EXT_3P3*%
X142280000Y-92200000D03*
%TD*%
D31*
%TO.P,D2,1*%
%TO.N,GND1*%
X133000000Y-76230000D03*
%TO.P,D2,2*%
%TO.N,Net-(D2-Pad2)*%
X133000000Y-78770000D03*
%TD*%
%TO.P,D1,A*%
%TO.N,/VDD_LED*%
X131730000Y-88100000D03*
%TO.P,D1,C*%
%TO.N,Net-(D1-PadC)*%
X134270000Y-88100000D03*
%TD*%
D32*
%TO.N,GND1*%
X139000000Y-83100000D03*
X137000000Y-82700000D03*
X137921662Y-84078338D03*
X137856274Y-81891352D03*
%TO.N,GND3*%
X143200000Y-91800000D03*
D33*
X140200000Y-74400000D03*
D32*
%TO.N,GND*%
X130600000Y-90900000D03*
D33*
X140200000Y-75600000D03*
D32*
X129400000Y-90400000D03*
X131700000Y-84300000D03*
D33*
X141000000Y-77500000D03*
D32*
X129400000Y-85700000D03*
X139800000Y-89000000D03*
X132600000Y-85700000D03*
D33*
%TO.N,/VDD_LED*%
X140026944Y-92226944D03*
X131800000Y-91900000D03*
D32*
%TO.N,GND2*%
X140979122Y-88979122D03*
D33*
X133513000Y-84979000D03*
%TO.N,/IOVDD_DUT*%
X142750000Y-81850000D03*
D32*
X140674500Y-88200000D03*
%TO.N,/SCL_S*%
X142500000Y-85000000D03*
%TO.N,/SDA_S*%
X132500000Y-84600000D03*
X142200000Y-83400000D03*
D33*
%TO.N,/GP1*%
X138100000Y-92050500D03*
D32*
X142300000Y-86900000D03*
%TO.N,/GP2*%
X141600000Y-86000000D03*
D33*
X133200000Y-92000000D03*
%TO.N,/VSYNC_RST*%
X142100000Y-80800000D03*
X129900000Y-80300000D03*
%TD*%
D34*
%TO.N,/AVDD_DUT_3P3V*%
X139235000Y-77655000D02*
X138280000Y-76700000D01*
X139450000Y-77705000D02*
X139450000Y-80489800D01*
X139116000Y-80823700D02*
X138813500Y-81126200D01*
X139400000Y-77655000D02*
X139450000Y-77705000D01*
X139400000Y-77655000D02*
X139235000Y-77655000D01*
X138813500Y-81126200D02*
X138813200Y-81126200D01*
X138280000Y-76700000D02*
X138280000Y-75700000D01*
X139450000Y-80489800D02*
X139116000Y-80823700D01*
%TO.N,GND1*%
X133000000Y-76230000D02*
X134730000Y-74500000D01*
D35*
X134100000Y-80000000D02*
X134300000Y-80200000D01*
D36*
X138000000Y-83000000D02*
X136939000Y-81939000D01*
D37*
X136921662Y-81921662D02*
X137856274Y-81891352D01*
D34*
X136600000Y-78700000D02*
X136100000Y-79200000D01*
D36*
X138000000Y-83000000D02*
X139061000Y-84061000D01*
D38*
X131180000Y-80300000D02*
X134400000Y-80300000D01*
D34*
X137320000Y-78700000D02*
X137320000Y-77700000D01*
D36*
X138000000Y-83000000D02*
X137292554Y-83707446D01*
D38*
X130290000Y-81190000D02*
X131180000Y-80300000D01*
D36*
X138000000Y-83000000D02*
X138707446Y-82292554D01*
D35*
X135772614Y-81833274D02*
X134439340Y-80500000D01*
D37*
X137856274Y-81891352D02*
X138371230Y-81921662D01*
D36*
X137300000Y-83000000D02*
X137000000Y-82700000D01*
D35*
X134500000Y-80400000D02*
X134300000Y-80400000D01*
D34*
X137320000Y-75700000D02*
X137300000Y-75720000D01*
D38*
X134400000Y-80300000D02*
X134500000Y-80400000D01*
D37*
X137921662Y-84078338D02*
X137628770Y-84078338D01*
D35*
X136126167Y-81479721D02*
X135952944Y-81652944D01*
X134582739Y-79900000D02*
X134200000Y-79900000D01*
D34*
X135772600Y-81833300D02*
X135773000Y-81833300D01*
X138724800Y-82116300D02*
X138724800Y-82275200D01*
X137340000Y-78700000D02*
X137320000Y-78700000D01*
X138725000Y-82275200D02*
X138725000Y-82116100D01*
D38*
X130290000Y-81300000D02*
X130290000Y-81190000D01*
D35*
X136126167Y-81479720D02*
X136126167Y-81479721D01*
X135952944Y-81652944D02*
X135788430Y-81817458D01*
D34*
X137300000Y-76680000D02*
X137320000Y-76700000D01*
X138725000Y-82116100D02*
X138724800Y-82116300D01*
X134730000Y-74500000D02*
X135745000Y-74500000D01*
X136100000Y-79200000D02*
X136100000Y-79332233D01*
X137320000Y-77700000D02*
X137320000Y-76700000D01*
X137340000Y-78700000D02*
X136600000Y-78700000D01*
X136100000Y-79332233D02*
X137186827Y-80419060D01*
D36*
X138000000Y-83000000D02*
X137300000Y-83000000D01*
D35*
X134200000Y-79900000D02*
X134100000Y-80000000D01*
X136126167Y-81443428D02*
X134582739Y-79900000D01*
D37*
X138371230Y-81921662D02*
X138724784Y-82275216D01*
D34*
X136922000Y-81921700D02*
X136921700Y-81921700D01*
X133450000Y-76680000D02*
X133000000Y-76230000D01*
X137300000Y-75720000D02*
X137300000Y-76680000D01*
D37*
X139078338Y-84078338D02*
X137921662Y-84078338D01*
D35*
X136126167Y-81479720D02*
X136126167Y-81443428D01*
X135952944Y-81652944D02*
X134700000Y-80400000D01*
D37*
X137628770Y-84078338D02*
X137275216Y-83724784D01*
D36*
X137000000Y-82700000D02*
X135700000Y-81400000D01*
D35*
X134700000Y-80400000D02*
X134500000Y-80400000D01*
X134300000Y-80200000D02*
X134700000Y-80200000D01*
D34*
%TO.N,/VDD_3P3*%
X141100000Y-90245000D02*
X140935000Y-90245000D01*
X140935000Y-90245000D02*
X139980000Y-91200000D01*
D38*
X141100000Y-90245000D02*
X141100000Y-90121734D01*
X141100000Y-90121734D02*
X141821734Y-89400000D01*
X142300000Y-89878266D02*
X141821734Y-89400000D01*
X141821734Y-89400000D02*
X141821734Y-88321734D01*
D34*
X143500000Y-86643700D02*
X143500000Y-78745000D01*
D38*
X141100000Y-90245000D02*
X141075000Y-90220000D01*
D34*
X139980000Y-91200000D02*
X139980000Y-90200000D01*
D38*
X142300000Y-90245000D02*
X142300000Y-89878266D01*
D34*
X141822000Y-88321700D02*
X143500000Y-86643700D01*
X143500000Y-78745000D02*
X141500000Y-76745000D01*
X141500000Y-76745000D02*
X139400000Y-76745000D01*
%TO.N,GND3*%
X140900000Y-92500978D02*
X140900000Y-92500000D01*
X140200000Y-74400000D02*
X139600000Y-73800000D01*
X138245000Y-74255000D02*
X138245000Y-74500000D01*
D37*
X137755000Y-90700000D02*
X138520000Y-90700000D01*
D34*
X140900000Y-92500000D02*
X141200000Y-92200000D01*
D37*
X138520000Y-90700000D02*
X139020000Y-90200000D01*
D34*
X140100000Y-93300978D02*
X140900000Y-92500978D01*
X140100000Y-93800000D02*
X140100000Y-93300978D01*
X143334520Y-91934520D02*
X143334520Y-93865480D01*
X143200000Y-91800000D02*
X143334520Y-91934520D01*
X143020000Y-94180000D02*
X142700000Y-94180000D01*
X141200000Y-92200000D02*
X141320000Y-92200000D01*
D37*
X139020000Y-91200000D02*
X138520000Y-90700000D01*
D34*
X143334520Y-93865480D02*
X143020000Y-94180000D01*
D38*
X136655000Y-74500000D02*
X138245000Y-74500000D01*
D34*
X139600000Y-73800000D02*
X138700000Y-73800000D01*
X138700000Y-73800000D02*
X138245000Y-74255000D01*
%TO.N,GND*%
X136829800Y-84516800D02*
X136829800Y-84516700D01*
X139600000Y-75600000D02*
X140200000Y-75600000D01*
X136829800Y-84516700D02*
X136829600Y-84516700D01*
X139155000Y-74500000D02*
X139155000Y-75155000D01*
X138425000Y-88953600D02*
X138782000Y-88596500D01*
X138782300Y-88596500D02*
X139139400Y-88239400D01*
X136126100Y-83813300D02*
X136126100Y-83813400D01*
X135753500Y-87467600D02*
X135753000Y-87467500D01*
X139139411Y-88339411D02*
X139800000Y-89000000D01*
X136480000Y-84166700D02*
X136480000Y-84167000D01*
X138782000Y-88596500D02*
X138782300Y-88596500D01*
D39*
X136377419Y-88953611D02*
X138396911Y-88953611D01*
D34*
X139155000Y-75155000D02*
X139600000Y-75600000D01*
X137893900Y-85581200D02*
X137501000Y-85974100D01*
X136461000Y-86760600D02*
X136146000Y-87074900D01*
X136305500Y-83992600D02*
X136305600Y-83992600D01*
X139139411Y-88239411D02*
X139139411Y-88339411D01*
D39*
X135753489Y-88329681D02*
X136377419Y-88953611D01*
D34*
X136126100Y-83813400D02*
X136126000Y-83813300D01*
X141000000Y-77500000D02*
X141000000Y-78640000D01*
X136714000Y-86760600D02*
X137501000Y-85974100D01*
X136485000Y-84171900D02*
X136305500Y-83992600D01*
X138397000Y-88953600D02*
X138396900Y-88953600D01*
X135753000Y-87467500D02*
X135753000Y-87467700D01*
X141060000Y-79257000D02*
X141060000Y-78700000D01*
X141000000Y-78640000D02*
X141060000Y-78700000D01*
X141060000Y-79700000D02*
X141060000Y-79257000D01*
X137893900Y-85580900D02*
X137893900Y-85581200D01*
X136485000Y-84171900D02*
X136659000Y-84346100D01*
X136833300Y-84520300D02*
X136829800Y-84516800D01*
X138782000Y-88596500D02*
X139139000Y-88239400D01*
X136305500Y-83992600D02*
X136126100Y-83813400D01*
X135754000Y-87467700D02*
X135753500Y-87467600D01*
X138397000Y-88953600D02*
X138425000Y-88953600D01*
X136829600Y-84516700D02*
X136659000Y-84346100D01*
D39*
X135753489Y-87467689D02*
X135753489Y-88329681D01*
D34*
X136480000Y-84167000D02*
X136485000Y-84171900D01*
X136126200Y-83813200D02*
X136126100Y-83813300D01*
X136146000Y-87074900D02*
X136461000Y-86760600D01*
X136460600Y-86760600D02*
X136461000Y-86760600D01*
X135753500Y-87467600D02*
X135753500Y-87467700D01*
X136461000Y-86760600D02*
X136714000Y-86760600D01*
X136305600Y-83992600D02*
X136479700Y-84166700D01*
X136146000Y-87074900D02*
X135753000Y-87467500D01*
%TO.N,/VDD_LED*%
X132839300Y-86861200D02*
X132396000Y-87304700D01*
X131520000Y-91620000D02*
X131800000Y-91900000D01*
D35*
X140028056Y-92226944D02*
X141100000Y-91155000D01*
D34*
X131730000Y-87970000D02*
X132396000Y-87304700D01*
X131520000Y-88310000D02*
X131730000Y-88100000D01*
X131520000Y-91000000D02*
X131520000Y-90000000D01*
X133060600Y-86639900D02*
X133060600Y-86639400D01*
X133500000Y-89870000D02*
X131730000Y-88100000D01*
X132396000Y-87304700D02*
X133061000Y-86639600D01*
X133061000Y-86639400D02*
X132839300Y-86861200D01*
X131520000Y-90000000D02*
X131520000Y-88310000D01*
X134500000Y-90020000D02*
X133500000Y-90020000D01*
X133500000Y-90020000D02*
X133500000Y-89870000D01*
X131730000Y-88100000D02*
X131730000Y-87970000D01*
X133061000Y-86639600D02*
X133061000Y-86639400D01*
X132839300Y-86861200D02*
X133060600Y-86639900D01*
X131520000Y-91000000D02*
X131520000Y-91620000D01*
D35*
X140026944Y-92226944D02*
X140028056Y-92226944D01*
D34*
%TO.N,GND2*%
X135384000Y-90700000D02*
X136845000Y-90700000D01*
X133739000Y-85960400D02*
X133739000Y-85960600D01*
X138687590Y-89565480D02*
X138415480Y-89837590D01*
X140734520Y-89565480D02*
X138687590Y-89565480D01*
X137186800Y-84873800D02*
X137187000Y-84873800D01*
X132480000Y-91000000D02*
X133480000Y-91000000D01*
X139160600Y-86839400D02*
X139161000Y-86839400D01*
X140600000Y-89000000D02*
X140100000Y-88500000D01*
X140979122Y-88979122D02*
X140979122Y-89320878D01*
X134100000Y-85600000D02*
X136461000Y-85600000D01*
X137462410Y-89837590D02*
X136900000Y-90400000D01*
X139861000Y-87539400D02*
X139861000Y-87539000D01*
X133920000Y-85780300D02*
X134100000Y-85600000D01*
X134500000Y-90980000D02*
X135104000Y-90980000D01*
X140979122Y-88979122D02*
X140958244Y-89000000D01*
X137187000Y-84873800D02*
X137187000Y-84874100D01*
X137187000Y-84874100D02*
X136824000Y-85236900D01*
X138415480Y-89837590D02*
X137462410Y-89837590D01*
X132480000Y-90000000D02*
X132480000Y-91000000D01*
X133739400Y-85960600D02*
X133739000Y-85960600D01*
X136824000Y-85236900D02*
X137187000Y-84873800D01*
X139860600Y-87539400D02*
X139861000Y-87539400D01*
X133513000Y-84979000D02*
X133513000Y-85734100D01*
X133500000Y-90980000D02*
X134500000Y-90980000D01*
X139861000Y-87539000D02*
X139161000Y-86839400D01*
X140979122Y-89320878D02*
X140734520Y-89565480D01*
X133920000Y-85780300D02*
X133739000Y-85960400D01*
X136461000Y-85600000D02*
X136824000Y-85236900D01*
X134500000Y-90980000D02*
X135104000Y-90980000D01*
X135104000Y-90980000D02*
X135384000Y-90700000D01*
X140958244Y-89000000D02*
X140600000Y-89000000D01*
X133513000Y-85734100D02*
X133739000Y-85960600D01*
X140100000Y-87778822D02*
X139860589Y-87539411D01*
X140100000Y-88500000D02*
X140100000Y-87778822D01*
X139861000Y-87539000D02*
X139861000Y-87539400D01*
X133739000Y-85960600D02*
X133920000Y-85780300D01*
X133480000Y-91000000D02*
X133500000Y-90980000D01*
%TO.N,/IOVDD_DUT*%
X138813000Y-85580900D02*
X138813000Y-85580800D01*
D35*
X142739376Y-81839376D02*
X141239376Y-81839376D01*
X142750000Y-83650000D02*
X142750000Y-81850000D01*
X142160624Y-84239376D02*
X142750000Y-83650000D01*
D34*
X138432289Y-87560589D02*
X137718089Y-88274789D01*
X138813200Y-85580900D02*
X138813000Y-85580900D01*
X139167000Y-85227400D02*
X139839000Y-85900100D01*
D40*
X139061900Y-85121800D02*
X139061900Y-85122600D01*
D39*
X141810741Y-80100000D02*
X142389259Y-80100000D01*
D34*
X137139400Y-87439400D02*
X137139000Y-87439400D01*
X138813000Y-85580800D02*
X139167000Y-85227400D01*
X139062000Y-85121800D02*
X139062000Y-85122300D01*
D39*
X142799511Y-80510252D02*
X142799511Y-81800489D01*
D40*
X139062000Y-85121800D02*
X139062000Y-85122300D01*
D34*
X141178000Y-87499400D02*
X140539000Y-86860600D01*
X141178000Y-87678300D02*
X141178000Y-87499400D01*
D40*
X139062000Y-85122300D02*
X139062000Y-85122600D01*
D34*
X139166700Y-85227400D02*
X139061900Y-85122600D01*
X137139000Y-87439400D02*
X137139000Y-87254700D01*
X139061900Y-85121800D02*
X139061900Y-85122300D01*
D39*
X140978073Y-80375481D02*
X141535260Y-80375481D01*
D34*
X137139000Y-87254700D02*
X138813000Y-85580900D01*
X136432000Y-88146500D02*
X137139000Y-87439400D01*
X139061900Y-85122300D02*
X139167000Y-85227400D01*
D35*
X141760624Y-84239376D02*
X142160624Y-84239376D01*
D34*
X137718089Y-88274789D02*
X136560589Y-88274789D01*
D39*
X139520280Y-81833274D02*
X140978073Y-80375481D01*
D34*
X139062000Y-85122300D02*
X139167000Y-85227400D01*
D39*
X141535260Y-80375481D02*
X141810741Y-80100000D01*
D34*
X138460589Y-87560589D02*
X138432289Y-87560589D01*
D38*
X140674500Y-88182032D02*
X141178266Y-87678266D01*
D34*
X139167000Y-85227400D02*
X139062000Y-85122600D01*
X136432300Y-88146500D02*
X136432000Y-88146500D01*
D38*
X140674500Y-88200000D02*
X140674500Y-88182032D01*
D35*
X142750000Y-81850000D02*
X142739376Y-81839376D01*
D34*
X139839000Y-86160600D02*
X140539000Y-86860600D01*
X139839400Y-86160600D02*
X139839000Y-86160600D01*
X139839000Y-85900100D02*
X139839000Y-86160600D01*
X138813000Y-85580900D02*
X138813000Y-85580800D01*
X136560589Y-88274789D02*
X136432311Y-88146511D01*
D39*
X142799511Y-81800489D02*
X142750000Y-81850000D01*
X142389259Y-80100000D02*
X142799511Y-80510252D01*
D38*
%TO.N,/VDD_EXT_3P3*%
X141749022Y-94800000D02*
X136700000Y-94800000D01*
X142300000Y-92180000D02*
X142280000Y-92200000D01*
X141990480Y-94558542D02*
X141749022Y-94800000D01*
X142300000Y-91255000D02*
X142300000Y-92180000D01*
X142700000Y-93220000D02*
X142480000Y-93220000D01*
X142280000Y-92800000D02*
X142700000Y-93220000D01*
X136700000Y-94800000D02*
X136100000Y-94200000D01*
X142480000Y-93220000D02*
X141990480Y-93709520D01*
X142280000Y-92200000D02*
X142280000Y-92800000D01*
X136100000Y-94200000D02*
X136100000Y-93800000D01*
X141990480Y-93709520D02*
X141990480Y-94558542D01*
D35*
%TO.N,/SCL_S*%
X141078752Y-85000000D02*
X141039376Y-84960624D01*
D34*
X141039400Y-84960600D02*
X141039000Y-84960600D01*
X140227400Y-84166700D02*
X140227200Y-84166700D01*
X140227200Y-84166700D02*
X140227000Y-84166900D01*
X141039000Y-84960600D02*
X141021000Y-84960600D01*
D41*
X142475500Y-85000000D02*
X141078752Y-85000000D01*
X141021000Y-84960600D02*
X140227000Y-84166900D01*
D34*
%TO.N,/SDA_S*%
X141960600Y-82560600D02*
X141961000Y-82560600D01*
D41*
X142200000Y-83400000D02*
X142200000Y-82800000D01*
D34*
X140581000Y-83813200D02*
X140580900Y-83813200D01*
X141648000Y-82873700D02*
X141961000Y-82560900D01*
D41*
X129675001Y-90924999D02*
X130100000Y-90500000D01*
X130100000Y-93800000D02*
X129675001Y-93375001D01*
D34*
X141961000Y-82560900D02*
X141961000Y-82560600D01*
D41*
X130600000Y-85600000D02*
X131500000Y-85600000D01*
X131500000Y-85600000D02*
X132500000Y-84600000D01*
D34*
X140708000Y-83813200D02*
X141648000Y-82873700D01*
D41*
X142200000Y-82800000D02*
X141960624Y-82560624D01*
X130100000Y-86100000D02*
X130600000Y-85600000D01*
X130100000Y-90500000D02*
X130100000Y-86100000D01*
D34*
X141961000Y-82560600D02*
X141648000Y-82873700D01*
X140581000Y-83813200D02*
X140708000Y-83813200D01*
D41*
X129675001Y-93375001D02*
X129675001Y-90924999D01*
D34*
%TO.N,/GP1*%
X139520280Y-84873833D02*
X139520280Y-84944895D01*
X139537673Y-84962255D02*
X141475418Y-86900000D01*
X139520280Y-84944895D02*
X139537673Y-84962255D01*
X138100000Y-92050500D02*
X138100000Y-93800000D01*
X141475418Y-86900000D02*
X142200000Y-86900000D01*
%TO.N,/GP2*%
X140140790Y-84787237D02*
X140140790Y-84902817D01*
X133100000Y-92100000D02*
X133200000Y-92000000D01*
X133100000Y-93800000D02*
X133100000Y-92100000D01*
X141237973Y-86000000D02*
X141600000Y-86000000D01*
X140140790Y-84902817D02*
X141237973Y-86000000D01*
X139873833Y-84520280D02*
X140140790Y-84787237D01*
%TO.N,/VSYNC_RST*%
X135100000Y-93859970D02*
X135100000Y-93800000D01*
X141260660Y-80800000D02*
X139873833Y-82186827D01*
D41*
X128900000Y-93659970D02*
X129789541Y-94549511D01*
X134410459Y-94549511D02*
X135100000Y-93859970D01*
X129789541Y-94549511D02*
X134410459Y-94549511D01*
X128900000Y-81300000D02*
X128900000Y-93659970D01*
X129900000Y-80300000D02*
X128900000Y-81300000D01*
D34*
X142100000Y-80800000D02*
X141260660Y-80800000D01*
%TO.N,Net-(D1-PadC)*%
X137129000Y-85638400D02*
X137540000Y-85227400D01*
X137540000Y-85227400D02*
X137540400Y-85227400D01*
X134270000Y-88100000D02*
X134270000Y-86730000D01*
X136718000Y-86049500D02*
X137129000Y-85638400D01*
X134950000Y-86049500D02*
X136718000Y-86049500D01*
X134270000Y-86730000D02*
X134950000Y-86049500D01*
%TO.N,Net-(D2-Pad2)*%
X136480000Y-81126200D02*
X135302000Y-79948100D01*
X133000000Y-78770000D02*
X134124000Y-78770000D01*
X134124000Y-78770000D02*
X135302000Y-79948100D01*
X135302000Y-79948100D02*
X136480000Y-81125800D01*
X136479700Y-81126200D02*
X136480000Y-81126200D01*
X136480000Y-81125800D02*
X136480000Y-81126200D01*
D35*
%TO.N,Net-(R15-Pad2)*%
X134532233Y-81300000D02*
X131310000Y-81300000D01*
X135419060Y-82186827D02*
X134532233Y-81300000D01*
D34*
%TO.N,Net-(R16-Pad2)*%
X135419000Y-83106100D02*
X135419100Y-83106100D01*
X131285000Y-82400000D02*
X134700000Y-82400000D01*
X134700000Y-82400000D02*
X135406000Y-83106100D01*
X135406000Y-83106100D02*
X135419000Y-83106100D01*
%TO.N,Net-(R17-Pad2)*%
X135505624Y-83726576D02*
X135772600Y-83459600D01*
X134726576Y-83726576D02*
X135505624Y-83726576D01*
X131285000Y-83500000D02*
X134500000Y-83500000D01*
X134500000Y-83500000D02*
X134726576Y-83726576D01*
%TO.N,Net-(C13-Pad2)*%
X138459600Y-80772600D02*
X138729800Y-80502400D01*
X138300000Y-78700000D02*
X138300000Y-77720000D01*
X138729800Y-80502400D02*
X138730000Y-80502400D01*
X139000000Y-80232200D02*
X138730000Y-80502400D01*
X139000000Y-79300000D02*
X139000000Y-80232200D01*
X138400000Y-78700000D02*
X139000000Y-79300000D01*
X138300000Y-77720000D02*
X138280000Y-77700000D01*
X138300000Y-78700000D02*
X138400000Y-78700000D01*
%TO.N,Net-(C14-Pad1)*%
X140100000Y-80546446D02*
X140100000Y-79700000D01*
X139166726Y-81479720D02*
X140100000Y-80546446D01*
X140100000Y-78700000D02*
X140100000Y-79700000D01*
%TO.N,Net-(U1-Pad24)*%
X134208041Y-77460588D02*
X134208041Y-77460589D01*
X134773726Y-78026274D02*
X134773726Y-78713026D01*
X135700000Y-79639340D02*
X136833274Y-80772614D01*
X134773726Y-78713026D02*
X135700000Y-79639300D01*
X134208041Y-77460589D02*
X134773726Y-78026274D01*
X135700000Y-79639300D02*
X135700000Y-79639340D01*
%TD*%
%TA.AperFunction,Conductor*%
%TO.N,GND*%
G36*
X130554593Y-88377844D02*
G01*
X130570454Y-88411666D01*
X130592395Y-88498058D01*
X130593511Y-88502452D01*
X130685883Y-88702821D01*
X130813222Y-88883002D01*
X130971264Y-89036961D01*
X130975037Y-89039482D01*
X131150501Y-89156723D01*
X131188381Y-89204773D01*
X131194500Y-89239039D01*
X131194500Y-89492952D01*
X131175593Y-89551143D01*
X131165504Y-89562956D01*
X131096776Y-89631684D01*
X131093116Y-89639532D01*
X131093115Y-89639534D01*
X131071339Y-89686233D01*
X131046028Y-89740513D01*
X131039500Y-89790099D01*
X131039501Y-90209900D01*
X131039924Y-90213110D01*
X131039924Y-90213117D01*
X131044783Y-90250029D01*
X131046028Y-90259487D01*
X131049231Y-90266355D01*
X131092113Y-90358316D01*
X131096776Y-90368316D01*
X131158456Y-90429996D01*
X131186233Y-90484513D01*
X131176662Y-90544945D01*
X131158456Y-90570004D01*
X131096776Y-90631684D01*
X131093116Y-90639532D01*
X131093115Y-90639534D01*
X131052621Y-90726375D01*
X131046028Y-90740513D01*
X131039500Y-90790099D01*
X131039501Y-90962613D01*
X131039501Y-91101000D01*
X131020594Y-91159190D01*
X130971094Y-91195154D01*
X130940501Y-91200000D01*
X130049501Y-91200000D01*
X129991310Y-91181093D01*
X129955346Y-91131593D01*
X129950501Y-91101000D01*
X129950501Y-91080123D01*
X129969408Y-91021932D01*
X129979497Y-91010119D01*
X130268731Y-90720885D01*
X130283733Y-90708574D01*
X130290514Y-90704043D01*
X130298624Y-90698624D01*
X130314744Y-90674500D01*
X130359515Y-90607495D01*
X130380897Y-90500000D01*
X130377402Y-90482429D01*
X130375500Y-90463116D01*
X130375500Y-88436035D01*
X130394407Y-88377844D01*
X130443907Y-88341880D01*
X130505093Y-88341880D01*
X130554593Y-88377844D01*
G37*
%TD.AperFunction*%
%TA.AperFunction,Conductor*%
G36*
X136137171Y-83661323D02*
G01*
X136162230Y-83679530D01*
X136387796Y-83905097D01*
X136479720Y-83997020D01*
X136966917Y-84484217D01*
X136994694Y-84538733D01*
X136985123Y-84599165D01*
X136966917Y-84624224D01*
X136925500Y-84665641D01*
X136870983Y-84693418D01*
X136856780Y-84691169D01*
X136827445Y-84695815D01*
X136357873Y-85165386D01*
X136343882Y-85192844D01*
X136339509Y-85220448D01*
X136296243Y-85263711D01*
X136251301Y-85274500D01*
X134188741Y-85274500D01*
X134130550Y-85255593D01*
X134094586Y-85206093D01*
X134094586Y-85148214D01*
X134093881Y-85148025D01*
X134094586Y-85145394D01*
X134094586Y-85144907D01*
X134095062Y-85143616D01*
X134095560Y-85141759D01*
X134098044Y-85135762D01*
X134116486Y-84995684D01*
X134117835Y-84985434D01*
X134118682Y-84979000D01*
X134098239Y-84823719D01*
X135998262Y-84823719D01*
X135999058Y-84828749D01*
X136023817Y-84853508D01*
X136027778Y-84857061D01*
X136069787Y-84890837D01*
X136074113Y-84893501D01*
X136106499Y-84925887D01*
X136109163Y-84930213D01*
X136142939Y-84972222D01*
X136146492Y-84976183D01*
X136165993Y-84995684D01*
X136177876Y-85001738D01*
X136182907Y-85000942D01*
X136652480Y-84531368D01*
X136658536Y-84519482D01*
X136657740Y-84514452D01*
X136490806Y-84347518D01*
X136478923Y-84341464D01*
X136473892Y-84342260D01*
X136004319Y-84811832D01*
X135998262Y-84823719D01*
X134098239Y-84823719D01*
X134098044Y-84822238D01*
X134037536Y-84676159D01*
X133941282Y-84550718D01*
X133836304Y-84470166D01*
X135644709Y-84470166D01*
X135645505Y-84475196D01*
X135670264Y-84499955D01*
X135674225Y-84503508D01*
X135716238Y-84537288D01*
X135720563Y-84539951D01*
X135752942Y-84572330D01*
X135755605Y-84576655D01*
X135789385Y-84618668D01*
X135792938Y-84622629D01*
X135812439Y-84642130D01*
X135824322Y-84648184D01*
X135829353Y-84647388D01*
X136298926Y-84177814D01*
X136304982Y-84165928D01*
X136304186Y-84160897D01*
X136218090Y-84074801D01*
X136137254Y-83993966D01*
X136125370Y-83987911D01*
X136120338Y-83988708D01*
X135650766Y-84458279D01*
X135644709Y-84470166D01*
X133836304Y-84470166D01*
X133815841Y-84454464D01*
X133669762Y-84393956D01*
X133513000Y-84373318D01*
X133356238Y-84393956D01*
X133210159Y-84454464D01*
X133084718Y-84550718D01*
X133080764Y-84555871D01*
X133078294Y-84558341D01*
X133023777Y-84586118D01*
X132963345Y-84576547D01*
X132920080Y-84533282D01*
X132910509Y-84503822D01*
X132906124Y-84476134D01*
X132906124Y-84476133D01*
X132904905Y-84468438D01*
X132856439Y-84373318D01*
X132847969Y-84356694D01*
X132847968Y-84356692D01*
X132844433Y-84349755D01*
X132750245Y-84255567D01*
X132743308Y-84252032D01*
X132743306Y-84252031D01*
X132638502Y-84198631D01*
X132638501Y-84198631D01*
X132631562Y-84195095D01*
X132623869Y-84193876D01*
X132623867Y-84193876D01*
X132507697Y-84175477D01*
X132500000Y-84174258D01*
X132492303Y-84175477D01*
X132376133Y-84193876D01*
X132376131Y-84193876D01*
X132368438Y-84195095D01*
X132361499Y-84198631D01*
X132361498Y-84198631D01*
X132256694Y-84252031D01*
X132256692Y-84252032D01*
X132249755Y-84255567D01*
X132155567Y-84349755D01*
X132152032Y-84356692D01*
X132152031Y-84356694D01*
X132143561Y-84373318D01*
X132095095Y-84468438D01*
X132093876Y-84476131D01*
X132093876Y-84476133D01*
X132077955Y-84576655D01*
X132074258Y-84600000D01*
X132073532Y-84599885D01*
X132056570Y-84652090D01*
X132046481Y-84663903D01*
X131414880Y-85295504D01*
X131360363Y-85323281D01*
X131344876Y-85324500D01*
X130636885Y-85324500D01*
X130617572Y-85322598D01*
X130609563Y-85321005D01*
X130609562Y-85321005D01*
X130600000Y-85319103D01*
X130572868Y-85324500D01*
X130572867Y-85324500D01*
X130537442Y-85331547D01*
X130502070Y-85338582D01*
X130502068Y-85338583D01*
X130492505Y-85340485D01*
X130452697Y-85367084D01*
X130424378Y-85386006D01*
X130424377Y-85386007D01*
X130401376Y-85401376D01*
X130395957Y-85409486D01*
X130391426Y-85416267D01*
X130379115Y-85431269D01*
X129931269Y-85879115D01*
X129916267Y-85891426D01*
X129901376Y-85901376D01*
X129886007Y-85924377D01*
X129886006Y-85924378D01*
X129876935Y-85937954D01*
X129840485Y-85992505D01*
X129838583Y-86002068D01*
X129838582Y-86002070D01*
X129830671Y-86041841D01*
X129829745Y-86046498D01*
X129819103Y-86100000D01*
X129822184Y-86115486D01*
X129822598Y-86117569D01*
X129824500Y-86136884D01*
X129824500Y-90344876D01*
X129805593Y-90403067D01*
X129795504Y-90414880D01*
X129506270Y-90704114D01*
X129491268Y-90716425D01*
X129476377Y-90726375D01*
X129461008Y-90749376D01*
X129461007Y-90749377D01*
X129454233Y-90759515D01*
X129415486Y-90817504D01*
X129399501Y-90897866D01*
X129394104Y-90924999D01*
X129396006Y-90934560D01*
X129397599Y-90942568D01*
X129399501Y-90961883D01*
X129399501Y-91060130D01*
X129380594Y-91118321D01*
X129331094Y-91154285D01*
X129276845Y-91156262D01*
X129250839Y-91149862D01*
X129198855Y-91117597D01*
X129175763Y-91060937D01*
X129175500Y-91053731D01*
X129175500Y-85140776D01*
X129194407Y-85082585D01*
X129200590Y-85074911D01*
X129564024Y-84667087D01*
X129564390Y-84666678D01*
X129565325Y-84665641D01*
X129571196Y-84659126D01*
X129571835Y-84658423D01*
X129578844Y-84650815D01*
X129579146Y-84650489D01*
X130136574Y-84052024D01*
X130190070Y-84022330D01*
X130209017Y-84020500D01*
X130439316Y-84020500D01*
X130488173Y-84014068D01*
X130495042Y-84010865D01*
X130587554Y-83967726D01*
X130587556Y-83967725D01*
X130595404Y-83964065D01*
X130679065Y-83880404D01*
X130685277Y-83867081D01*
X130727005Y-83822336D01*
X130787067Y-83810662D01*
X130842519Y-83836521D01*
X130864722Y-83867080D01*
X130870935Y-83880404D01*
X130954596Y-83964065D01*
X130962444Y-83967725D01*
X130962446Y-83967726D01*
X131054958Y-84010865D01*
X131061827Y-84014068D01*
X131110684Y-84020500D01*
X131459316Y-84020500D01*
X131508173Y-84014068D01*
X131515042Y-84010865D01*
X131607554Y-83967726D01*
X131607556Y-83967725D01*
X131615404Y-83964065D01*
X131699065Y-83880404D01*
X131702724Y-83872557D01*
X131706114Y-83867716D01*
X131754979Y-83830894D01*
X131787210Y-83825500D01*
X134324166Y-83825500D01*
X134382357Y-83844407D01*
X134394170Y-83854496D01*
X134483307Y-83943633D01*
X134489141Y-83950000D01*
X134514121Y-83979770D01*
X134538710Y-83993966D01*
X134547781Y-83999203D01*
X134555065Y-84003844D01*
X134586892Y-84026130D01*
X134595260Y-84028372D01*
X134600547Y-84030838D01*
X134606032Y-84032834D01*
X134613531Y-84037164D01*
X134622057Y-84038667D01*
X134622059Y-84038668D01*
X134651792Y-84043910D01*
X134660226Y-84045780D01*
X134697769Y-84055840D01*
X134736484Y-84052453D01*
X134745113Y-84052076D01*
X135258862Y-84052076D01*
X135317053Y-84070983D01*
X135348984Y-84110099D01*
X135395600Y-84212624D01*
X135402054Y-84223104D01*
X135435832Y-84265115D01*
X135439385Y-84269076D01*
X135458886Y-84288577D01*
X135470769Y-84294631D01*
X135475800Y-84293835D01*
X135945376Y-83824259D01*
X135951431Y-83812375D01*
X135950837Y-83808626D01*
X135960409Y-83748194D01*
X135978614Y-83723137D01*
X136022222Y-83679529D01*
X136076739Y-83651752D01*
X136137171Y-83661323D01*
G37*
%TD.AperFunction*%
%TA.AperFunction,Conductor*%
G36*
X133045528Y-88296995D02*
G01*
X133089353Y-88339691D01*
X133097691Y-88361414D01*
X133133511Y-88502452D01*
X133225883Y-88702821D01*
X133353222Y-88883002D01*
X133511264Y-89036961D01*
X133694717Y-89159540D01*
X133897436Y-89246635D01*
X133933927Y-89254892D01*
X134108206Y-89294328D01*
X134108211Y-89294329D01*
X134112632Y-89295329D01*
X134222865Y-89299660D01*
X134328565Y-89303813D01*
X134328566Y-89303813D01*
X134333098Y-89303991D01*
X134551452Y-89272331D01*
X134555751Y-89270872D01*
X134555754Y-89270871D01*
X134756078Y-89202870D01*
X134760379Y-89201410D01*
X134764344Y-89199190D01*
X134948925Y-89095819D01*
X134952884Y-89093602D01*
X135122518Y-88952518D01*
X135263602Y-88782884D01*
X135355272Y-88619196D01*
X135369192Y-88594340D01*
X135369193Y-88594338D01*
X135371410Y-88590379D01*
X135402749Y-88498058D01*
X135440871Y-88385754D01*
X135440872Y-88385751D01*
X135441951Y-88382573D01*
X135442331Y-88381452D01*
X135443058Y-88381699D01*
X135473030Y-88332788D01*
X135529558Y-88309372D01*
X135561948Y-88312177D01*
X135644380Y-88333343D01*
X135656646Y-88334892D01*
X135807906Y-88334892D01*
X135820175Y-88333342D01*
X135830287Y-88330746D01*
X135891352Y-88334588D01*
X135933449Y-88366369D01*
X135942146Y-88377704D01*
X135942157Y-88377716D01*
X135944124Y-88380280D01*
X136198542Y-88634697D01*
X136238221Y-88665145D01*
X136274145Y-88678220D01*
X136342922Y-88703253D01*
X136342925Y-88703254D01*
X136351059Y-88706214D01*
X136471137Y-88706214D01*
X136479271Y-88703254D01*
X136479274Y-88703253D01*
X136548051Y-88678220D01*
X136583975Y-88665145D01*
X136589980Y-88660537D01*
X136589982Y-88660536D01*
X136621079Y-88636673D01*
X136623653Y-88634698D01*
X136629066Y-88629285D01*
X136683583Y-88601508D01*
X136699070Y-88600289D01*
X137280626Y-88600289D01*
X137338817Y-88619196D01*
X137350629Y-88629285D01*
X137420042Y-88698697D01*
X137484320Y-88762975D01*
X137486882Y-88764941D01*
X137498236Y-88773654D01*
X137532889Y-88824081D01*
X137533854Y-88876813D01*
X137531258Y-88886925D01*
X137529708Y-88899194D01*
X137529708Y-89050454D01*
X137531257Y-89062721D01*
X137555346Y-89156537D01*
X137551504Y-89217602D01*
X137524335Y-89250443D01*
X137475194Y-89283204D01*
X137475192Y-89283205D01*
X137300000Y-89400000D01*
X137000000Y-89600000D01*
X137000000Y-89835301D01*
X136994282Y-89845392D01*
X136669170Y-90170504D01*
X136614653Y-90198281D01*
X136599166Y-90199500D01*
X136580252Y-90199500D01*
X136554005Y-90204721D01*
X136531334Y-90209230D01*
X136531332Y-90209231D01*
X136521769Y-90211133D01*
X136455448Y-90255448D01*
X136411133Y-90321769D01*
X136410096Y-90321076D01*
X136376931Y-90359910D01*
X136325201Y-90374500D01*
X135402534Y-90374500D01*
X135393905Y-90374123D01*
X135380818Y-90372978D01*
X135355193Y-90370736D01*
X135346826Y-90372978D01*
X135317651Y-90380796D01*
X135309216Y-90382666D01*
X135279483Y-90387908D01*
X135279481Y-90387909D01*
X135270955Y-90389412D01*
X135263456Y-90393742D01*
X135257971Y-90395738D01*
X135252684Y-90398204D01*
X135244316Y-90400446D01*
X135223703Y-90414880D01*
X135212489Y-90422732D01*
X135205208Y-90427371D01*
X135171545Y-90446806D01*
X135161145Y-90459200D01*
X135146569Y-90476571D01*
X135140735Y-90482939D01*
X135037611Y-90586063D01*
X134983094Y-90613840D01*
X134922662Y-90604269D01*
X134897603Y-90586063D01*
X134881544Y-90570004D01*
X134853767Y-90515487D01*
X134863338Y-90455055D01*
X134881544Y-90429996D01*
X134953224Y-90358316D01*
X134959201Y-90345500D01*
X135000769Y-90256356D01*
X135003972Y-90249487D01*
X135010500Y-90199901D01*
X135010499Y-89840100D01*
X135009868Y-89835301D01*
X135004961Y-89798025D01*
X135004961Y-89798024D01*
X135003972Y-89790513D01*
X134980657Y-89740513D01*
X134956885Y-89689534D01*
X134956884Y-89689532D01*
X134953224Y-89681684D01*
X134868316Y-89596776D01*
X134860468Y-89593116D01*
X134860466Y-89593115D01*
X134766356Y-89549231D01*
X134759487Y-89546028D01*
X134709901Y-89539500D01*
X134500033Y-89539500D01*
X134290100Y-89539501D01*
X134286890Y-89539924D01*
X134286883Y-89539924D01*
X134248025Y-89545039D01*
X134248024Y-89545039D01*
X134240513Y-89546028D01*
X134204539Y-89562803D01*
X134139534Y-89593115D01*
X134139532Y-89593116D01*
X134131684Y-89596776D01*
X134070004Y-89658456D01*
X134015487Y-89686233D01*
X133955055Y-89676662D01*
X133929996Y-89658456D01*
X133868316Y-89596776D01*
X133860468Y-89593116D01*
X133860466Y-89593115D01*
X133766356Y-89549231D01*
X133759487Y-89546028D01*
X133709901Y-89539500D01*
X133670834Y-89539500D01*
X133612643Y-89520593D01*
X133600830Y-89510504D01*
X132830300Y-88739974D01*
X132802523Y-88685457D01*
X132813928Y-88621595D01*
X132829190Y-88594343D01*
X132831410Y-88590379D01*
X132862749Y-88498058D01*
X132900871Y-88385754D01*
X132900872Y-88385751D01*
X132902331Y-88381452D01*
X132903763Y-88371575D01*
X132930826Y-88316700D01*
X132984976Y-88288213D01*
X133045528Y-88296995D01*
G37*
%TD.AperFunction*%
%TA.AperFunction,Conductor*%
G36*
X132871029Y-84939728D02*
G01*
X132906993Y-84989228D01*
X132910991Y-85006899D01*
X132927956Y-85135762D01*
X132930440Y-85141759D01*
X132933114Y-85148214D01*
X132988464Y-85281841D01*
X133084718Y-85407282D01*
X133089871Y-85411236D01*
X133148767Y-85456428D01*
X133183423Y-85506852D01*
X133187500Y-85534970D01*
X133187500Y-85715330D01*
X133187114Y-85724067D01*
X133184469Y-85753914D01*
X133184469Y-85753917D01*
X133183705Y-85762543D01*
X133191167Y-85790516D01*
X133191964Y-85793503D01*
X133189338Y-85852876D01*
X133182670Y-85871197D01*
X133182669Y-85871200D01*
X133179708Y-85879337D01*
X133179708Y-85980708D01*
X133160801Y-86038899D01*
X133111301Y-86074863D01*
X133080708Y-86079708D01*
X132979337Y-86079708D01*
X132971203Y-86082668D01*
X132971200Y-86082669D01*
X132897315Y-86109561D01*
X132866499Y-86120777D01*
X132860492Y-86125387D01*
X132860491Y-86125387D01*
X132829389Y-86149252D01*
X132829382Y-86149258D01*
X132826820Y-86151224D01*
X132572403Y-86405642D01*
X132541955Y-86445321D01*
X132539366Y-86452435D01*
X132503847Y-86550022D01*
X132503846Y-86550025D01*
X132500886Y-86558159D01*
X132500886Y-86678237D01*
X132501965Y-86681203D01*
X132493878Y-86738730D01*
X132474918Y-86765316D01*
X132278596Y-86961727D01*
X132224086Y-86989517D01*
X132171893Y-86983691D01*
X132072421Y-86944006D01*
X131856024Y-86900962D01*
X131747347Y-86899539D01*
X131639946Y-86898133D01*
X131639941Y-86898133D01*
X131635406Y-86898074D01*
X131630933Y-86898843D01*
X131630928Y-86898843D01*
X131422435Y-86934668D01*
X131422429Y-86934670D01*
X131417957Y-86935438D01*
X131318154Y-86972257D01*
X131215220Y-87010231D01*
X131215217Y-87010232D01*
X131210957Y-87011804D01*
X131207054Y-87014126D01*
X131207052Y-87014127D01*
X131142090Y-87052776D01*
X131021341Y-87124614D01*
X131017926Y-87127609D01*
X131017923Y-87127611D01*
X130975775Y-87164574D01*
X130855457Y-87270090D01*
X130852649Y-87273652D01*
X130740399Y-87416042D01*
X130718863Y-87443360D01*
X130716749Y-87447378D01*
X130671346Y-87533675D01*
X130616131Y-87638620D01*
X130614789Y-87642944D01*
X130614785Y-87642952D01*
X130569047Y-87790255D01*
X130533734Y-87840222D01*
X130475796Y-87859890D01*
X130417363Y-87841746D01*
X130380754Y-87792721D01*
X130375500Y-87760898D01*
X130375500Y-86255124D01*
X130394407Y-86196933D01*
X130404496Y-86185120D01*
X130685120Y-85904496D01*
X130739637Y-85876719D01*
X130755124Y-85875500D01*
X131463116Y-85875500D01*
X131482429Y-85877402D01*
X131500000Y-85880897D01*
X131527132Y-85875500D01*
X131527133Y-85875500D01*
X131569162Y-85867140D01*
X131597930Y-85861418D01*
X131597932Y-85861417D01*
X131607495Y-85859515D01*
X131666678Y-85819970D01*
X131675622Y-85813994D01*
X131675623Y-85813993D01*
X131675710Y-85813935D01*
X131690518Y-85804041D01*
X131690520Y-85804039D01*
X131698624Y-85798624D01*
X131704039Y-85790520D01*
X131704043Y-85790516D01*
X131708578Y-85783729D01*
X131720888Y-85768728D01*
X132436097Y-85053519D01*
X132490614Y-85025742D01*
X132496884Y-85025248D01*
X132500000Y-85025742D01*
X132507697Y-85024523D01*
X132623867Y-85006124D01*
X132623869Y-85006124D01*
X132631562Y-85004905D01*
X132669776Y-84985434D01*
X132743302Y-84947971D01*
X132743304Y-84947970D01*
X132750245Y-84944433D01*
X132755096Y-84939582D01*
X132812838Y-84920821D01*
X132871029Y-84939728D01*
G37*
%TD.AperFunction*%
%TA.AperFunction,Conductor*%
G36*
X135616352Y-86393907D02*
G01*
X135652316Y-86443407D01*
X135652316Y-86504593D01*
X135644916Y-86521693D01*
X135637104Y-86535904D01*
X135632553Y-86547397D01*
X135628266Y-86564095D01*
X135595482Y-86615756D01*
X135556995Y-86635366D01*
X135540297Y-86639653D01*
X135528804Y-86644204D01*
X135395217Y-86717643D01*
X135388520Y-86722270D01*
X135381881Y-86733104D01*
X135382131Y-86736281D01*
X135383820Y-86738809D01*
X135742403Y-87097392D01*
X135754286Y-87103446D01*
X135759317Y-87102650D01*
X136390585Y-86471383D01*
X136445102Y-86443606D01*
X136505534Y-86453177D01*
X136530593Y-86471383D01*
X136749796Y-86690586D01*
X136777573Y-86745103D01*
X136768002Y-86805535D01*
X136749796Y-86830594D01*
X135823494Y-87756896D01*
X135768977Y-87784673D01*
X135708545Y-87775102D01*
X135683486Y-87756896D01*
X135028802Y-87102213D01*
X135016919Y-87096159D01*
X134988257Y-87100698D01*
X134987958Y-87098810D01*
X134973950Y-87103979D01*
X134917231Y-87088783D01*
X134821193Y-87028188D01*
X134821187Y-87028185D01*
X134817350Y-87025764D01*
X134683233Y-86972257D01*
X134636191Y-86933133D01*
X134621130Y-86873830D01*
X134643803Y-86817001D01*
X134649889Y-86810327D01*
X134781979Y-86678140D01*
X135055896Y-86404022D01*
X135110401Y-86376225D01*
X135125924Y-86375000D01*
X135558161Y-86375000D01*
X135616352Y-86393907D01*
G37*
%TD.AperFunction*%
%TA.AperFunction,Conductor*%
G36*
X137938879Y-85463032D02*
G01*
X137963938Y-85481238D01*
X137993636Y-85510936D01*
X138021413Y-85565453D01*
X138011842Y-85625885D01*
X137993636Y-85650944D01*
X137418530Y-86226049D01*
X137412476Y-86237932D01*
X137413272Y-86242963D01*
X137438031Y-86267722D01*
X137441992Y-86271276D01*
X137478048Y-86300265D01*
X137511551Y-86351463D01*
X137508563Y-86412575D01*
X137486014Y-86447428D01*
X137432604Y-86500831D01*
X137378086Y-86528605D01*
X137317654Y-86519030D01*
X137275850Y-86478516D01*
X137210639Y-86359897D01*
X137204915Y-86351615D01*
X137185530Y-86328920D01*
X137182903Y-86326077D01*
X137112310Y-86255484D01*
X137084533Y-86200967D01*
X137094104Y-86140535D01*
X137112301Y-86115486D01*
X137115533Y-86112253D01*
X137139205Y-86088576D01*
X137193717Y-86060791D01*
X137221207Y-86065143D01*
X137243567Y-86061602D01*
X137823930Y-85481238D01*
X137878447Y-85453461D01*
X137938879Y-85463032D01*
G37*
%TD.AperFunction*%
%TD*%
%TA.AperFunction,Conductor*%
%TO.N,GND1*%
G36*
X138735789Y-83459798D02*
G01*
X138760848Y-83478004D01*
X139415363Y-84132519D01*
X139432955Y-84167045D01*
X139166687Y-84433313D01*
X139149141Y-84428733D01*
X139132519Y-84415362D01*
X138795495Y-84078338D01*
X138478005Y-83760847D01*
X138450228Y-83706330D01*
X138459799Y-83645898D01*
X138478005Y-83620839D01*
X138620840Y-83478004D01*
X138675357Y-83450227D01*
X138735789Y-83459798D01*
G37*
%TD.AperFunction*%
%TA.AperFunction,Conductor*%
G36*
X135910854Y-73401719D02*
G01*
X136008119Y-73417124D01*
X136037577Y-73426696D01*
X136121142Y-73469275D01*
X136146201Y-73487480D01*
X136191584Y-73532863D01*
X136219361Y-73587380D01*
X136209790Y-73647812D01*
X136166525Y-73691077D01*
X136106093Y-73700648D01*
X136098676Y-73699181D01*
X136094036Y-73698078D01*
X136040748Y-73692289D01*
X136035414Y-73692000D01*
X136005680Y-73692000D01*
X135992995Y-73696122D01*
X135990000Y-73700243D01*
X135990000Y-75292319D01*
X135994122Y-75305004D01*
X135998243Y-75307999D01*
X136035411Y-75307999D01*
X136040751Y-75307710D01*
X136094035Y-75301922D01*
X136106020Y-75299073D01*
X136229855Y-75252649D01*
X136242108Y-75245941D01*
X136347256Y-75167137D01*
X136357137Y-75157256D01*
X136435943Y-75052105D01*
X136436025Y-75051955D01*
X136436128Y-75051858D01*
X136440172Y-75046462D01*
X136441109Y-75047164D01*
X136480555Y-75009995D01*
X136522861Y-75000500D01*
X136566741Y-75000500D01*
X136624932Y-75019407D01*
X136660896Y-75068907D01*
X136660896Y-75130093D01*
X136651955Y-75149895D01*
X136583738Y-75265244D01*
X136578832Y-75276582D01*
X136536301Y-75422971D01*
X136534838Y-75430982D01*
X136537805Y-75443339D01*
X136540227Y-75445407D01*
X136543210Y-75446000D01*
X137475000Y-75446000D01*
X137533191Y-75464907D01*
X137569155Y-75514407D01*
X137574000Y-75545000D01*
X137574000Y-77826320D01*
X137587642Y-77868307D01*
X137589153Y-77870386D01*
X137594000Y-77900985D01*
X137594000Y-79495991D01*
X137595155Y-79499546D01*
X137600000Y-79530139D01*
X137600000Y-79705099D01*
X137581093Y-79763290D01*
X137531593Y-79799254D01*
X137470407Y-79799254D01*
X137430996Y-79775103D01*
X137388171Y-79732278D01*
X137384210Y-79728725D01*
X137342199Y-79694947D01*
X137331719Y-79688493D01*
X137210692Y-79633464D01*
X137197292Y-79629546D01*
X137166219Y-79625096D01*
X137111297Y-79598130D01*
X137082714Y-79544031D01*
X137085632Y-79497985D01*
X137086000Y-79496789D01*
X137086000Y-78969680D01*
X137081878Y-78956995D01*
X137077757Y-78954000D01*
X136569141Y-78954000D01*
X136556456Y-78958122D01*
X136554583Y-78960698D01*
X136554226Y-78963720D01*
X136554494Y-78967135D01*
X136556301Y-78977029D01*
X136598832Y-79123418D01*
X136603738Y-79134756D01*
X136680741Y-79264962D01*
X136688311Y-79274721D01*
X136795279Y-79381689D01*
X136805038Y-79389259D01*
X136919896Y-79457185D01*
X136960359Y-79503081D01*
X136966117Y-79563995D01*
X136934971Y-79616660D01*
X136910478Y-79632521D01*
X136787376Y-79688493D01*
X136776896Y-79694947D01*
X136734885Y-79728725D01*
X136730924Y-79732278D01*
X136711423Y-79751779D01*
X136705369Y-79763662D01*
X136706165Y-79768693D01*
X137286529Y-80349056D01*
X137314306Y-80403573D01*
X137304735Y-80464005D01*
X137286529Y-80489064D01*
X137256831Y-80518762D01*
X137202314Y-80546539D01*
X137141882Y-80536968D01*
X137116823Y-80518762D01*
X136541718Y-79943656D01*
X136529835Y-79937602D01*
X136518152Y-79939452D01*
X136457720Y-79929880D01*
X136432663Y-79911675D01*
X135969737Y-79448750D01*
X135963509Y-79440634D01*
X135963094Y-79440982D01*
X135957523Y-79434344D01*
X135953194Y-79426845D01*
X135923435Y-79401874D01*
X135917067Y-79396040D01*
X135128222Y-78607196D01*
X135100445Y-78552679D01*
X135099226Y-78537192D01*
X135099226Y-78044796D01*
X135099603Y-78036167D01*
X135102234Y-78006096D01*
X135102989Y-77997467D01*
X135093946Y-77963720D01*
X136534226Y-77963720D01*
X136534494Y-77967135D01*
X136536301Y-77977029D01*
X136578832Y-78123418D01*
X136583740Y-78134760D01*
X136602520Y-78166516D01*
X136615867Y-78226228D01*
X136605191Y-78259085D01*
X136606212Y-78259527D01*
X136598833Y-78276579D01*
X136556301Y-78422971D01*
X136554838Y-78430982D01*
X136557805Y-78443339D01*
X136560227Y-78445407D01*
X136563210Y-78446000D01*
X137050320Y-78446000D01*
X137063005Y-78441878D01*
X137066000Y-78437757D01*
X137066000Y-77969680D01*
X137061878Y-77956995D01*
X137057757Y-77954000D01*
X136549141Y-77954000D01*
X136536456Y-77958122D01*
X136534583Y-77960698D01*
X136534226Y-77963720D01*
X135093946Y-77963720D01*
X135092931Y-77959931D01*
X135091063Y-77951505D01*
X135088919Y-77939347D01*
X135084314Y-77913229D01*
X135079981Y-77905724D01*
X135077988Y-77900247D01*
X135075521Y-77894956D01*
X135073279Y-77886590D01*
X135050990Y-77854758D01*
X135046354Y-77847480D01*
X135031250Y-77821318D01*
X135031249Y-77821316D01*
X135026920Y-77813819D01*
X135013004Y-77802142D01*
X134980581Y-77750254D01*
X134984849Y-77689218D01*
X134998282Y-77671547D01*
X134995672Y-77669753D01*
X135012108Y-77645838D01*
X135012061Y-77644044D01*
X135009172Y-77639465D01*
X134447750Y-77078044D01*
X134419973Y-77023527D01*
X134422299Y-77008838D01*
X134948464Y-77008838D01*
X134949260Y-77013869D01*
X135288745Y-77353354D01*
X135300632Y-77359411D01*
X135302404Y-77359131D01*
X135306568Y-77355667D01*
X135350360Y-77298598D01*
X135356792Y-77287457D01*
X135413090Y-77151544D01*
X135416421Y-77139111D01*
X135435622Y-76993261D01*
X135435622Y-76980393D01*
X135433427Y-76963720D01*
X136534226Y-76963720D01*
X136534494Y-76967135D01*
X136536301Y-76977029D01*
X136578832Y-77123418D01*
X136583741Y-77134762D01*
X136592519Y-77149605D01*
X136605867Y-77209317D01*
X136592519Y-77250395D01*
X136583741Y-77265238D01*
X136578832Y-77276582D01*
X136536301Y-77422971D01*
X136534838Y-77430982D01*
X136537805Y-77443339D01*
X136540227Y-77445407D01*
X136543210Y-77446000D01*
X137050320Y-77446000D01*
X137063005Y-77441878D01*
X137066000Y-77437757D01*
X137066000Y-76969680D01*
X137061878Y-76956995D01*
X137057757Y-76954000D01*
X136549141Y-76954000D01*
X136536456Y-76958122D01*
X136534583Y-76960698D01*
X136534226Y-76963720D01*
X135433427Y-76963720D01*
X135416421Y-76834543D01*
X135413090Y-76822110D01*
X135356793Y-76686199D01*
X135350359Y-76675055D01*
X135327801Y-76645656D01*
X135316807Y-76638101D01*
X135315013Y-76638148D01*
X135310434Y-76641037D01*
X134954520Y-76996952D01*
X134948464Y-77008838D01*
X134422299Y-77008838D01*
X134429544Y-76963095D01*
X134447750Y-76938036D01*
X134660589Y-76725197D01*
X135024327Y-76361460D01*
X135030381Y-76349577D01*
X135030101Y-76347804D01*
X135026637Y-76343640D01*
X134993574Y-76318270D01*
X134982430Y-76311836D01*
X134846519Y-76255539D01*
X134834086Y-76252208D01*
X134688236Y-76233007D01*
X134675368Y-76233007D01*
X134617998Y-76240560D01*
X134557837Y-76229410D01*
X134515720Y-76185028D01*
X134506381Y-76150174D01*
X134494345Y-75997237D01*
X134493134Y-75989594D01*
X134486922Y-75963720D01*
X136534226Y-75963720D01*
X136534494Y-75967135D01*
X136536301Y-75977029D01*
X136578832Y-76123418D01*
X136583741Y-76134762D01*
X136592519Y-76149605D01*
X136605867Y-76209317D01*
X136592519Y-76250395D01*
X136583741Y-76265238D01*
X136578832Y-76276582D01*
X136536301Y-76422971D01*
X136534838Y-76430982D01*
X136537805Y-76443339D01*
X136540227Y-76445407D01*
X136543210Y-76446000D01*
X137050320Y-76446000D01*
X137063005Y-76441878D01*
X137066000Y-76437757D01*
X137066000Y-75969680D01*
X137061878Y-75956995D01*
X137057757Y-75954000D01*
X136549141Y-75954000D01*
X136536456Y-75958122D01*
X136534583Y-75960698D01*
X136534226Y-75963720D01*
X134486922Y-75963720D01*
X134439535Y-75766338D01*
X134437141Y-75758970D01*
X134349281Y-75546856D01*
X134345762Y-75539950D01*
X134241294Y-75369477D01*
X134231608Y-75361204D01*
X134223422Y-75365788D01*
X133370296Y-76218914D01*
X133364242Y-76230797D01*
X133365038Y-76235828D01*
X134045719Y-76916509D01*
X134073496Y-76971026D01*
X134063925Y-77031458D01*
X134045719Y-77056517D01*
X133826517Y-77275719D01*
X133772000Y-77303496D01*
X133711568Y-77293925D01*
X133686509Y-77275719D01*
X133011086Y-76600296D01*
X132999203Y-76594242D01*
X132994172Y-76595038D01*
X132137194Y-77452016D01*
X132131412Y-77463365D01*
X132137783Y-77470256D01*
X132309950Y-77575762D01*
X132316859Y-77579282D01*
X132332746Y-77585863D01*
X132379271Y-77625601D01*
X132393553Y-77685096D01*
X132370137Y-77741623D01*
X132345476Y-77762407D01*
X132291341Y-77794614D01*
X132287926Y-77797609D01*
X132287923Y-77797611D01*
X132189873Y-77883599D01*
X132125457Y-77940090D01*
X132122649Y-77943652D01*
X131994916Y-78105682D01*
X131988863Y-78113360D01*
X131986749Y-78117378D01*
X131902989Y-78276579D01*
X131886131Y-78308620D01*
X131878294Y-78333859D01*
X131836743Y-78467677D01*
X131820703Y-78519333D01*
X131794770Y-78738440D01*
X131809200Y-78958604D01*
X131810316Y-78962997D01*
X131810316Y-78962999D01*
X131851058Y-79123418D01*
X131863511Y-79172452D01*
X131955883Y-79372821D01*
X132083222Y-79553002D01*
X132241264Y-79706961D01*
X132424717Y-79829540D01*
X132627436Y-79916635D01*
X132705165Y-79934223D01*
X132838206Y-79964328D01*
X132838211Y-79964329D01*
X132842632Y-79965329D01*
X132952865Y-79969660D01*
X133058565Y-79973813D01*
X133058566Y-79973813D01*
X133063098Y-79973991D01*
X133281452Y-79942331D01*
X133285751Y-79940872D01*
X133285754Y-79940871D01*
X133486078Y-79872870D01*
X133490379Y-79871410D01*
X133496890Y-79867764D01*
X133662347Y-79775103D01*
X133682884Y-79763602D01*
X133852518Y-79622518D01*
X133993602Y-79452884D01*
X134036363Y-79376529D01*
X134056395Y-79340760D01*
X134101325Y-79299228D01*
X134162086Y-79292036D01*
X134212778Y-79319133D01*
X135051692Y-80158117D01*
X135051715Y-80158140D01*
X135051729Y-80158160D01*
X135069462Y-80175888D01*
X135618541Y-80725014D01*
X135646315Y-80779529D01*
X135641964Y-80806995D01*
X135645505Y-80829353D01*
X136115080Y-81298927D01*
X136126966Y-81304983D01*
X136130712Y-81304390D01*
X136191144Y-81313962D01*
X136216202Y-81332167D01*
X136288323Y-81404288D01*
X136307507Y-81414063D01*
X136332565Y-81432268D01*
X136477658Y-81577361D01*
X136527832Y-81610886D01*
X136606999Y-81626633D01*
X136686167Y-81610886D01*
X136736340Y-81577361D01*
X136766453Y-81547248D01*
X136820968Y-81519472D01*
X136881400Y-81529043D01*
X136906459Y-81547249D01*
X138027098Y-82667888D01*
X138038981Y-82673942D01*
X138044012Y-82673146D01*
X138387495Y-82329663D01*
X138724784Y-81992373D01*
X138778966Y-81938191D01*
X138796098Y-81929462D01*
X138800000Y-81950000D01*
X138800000Y-82000000D01*
X139041421Y-82241421D01*
X138724784Y-82558059D01*
X138337289Y-82945553D01*
X138332114Y-82950728D01*
X138326058Y-82962614D01*
X138330253Y-82989102D01*
X138324205Y-83027286D01*
X138326854Y-83044012D01*
X138600333Y-83317491D01*
X138628110Y-83372008D01*
X138618539Y-83432440D01*
X138600333Y-83457499D01*
X138457499Y-83600333D01*
X138402982Y-83628110D01*
X138342550Y-83618539D01*
X138317491Y-83600333D01*
X138049270Y-83332112D01*
X138037387Y-83326058D01*
X138010898Y-83330253D01*
X137972714Y-83324205D01*
X137955988Y-83326854D01*
X137612505Y-83670337D01*
X137275216Y-84007627D01*
X137221034Y-84061809D01*
X137219071Y-84062809D01*
X136932133Y-83786498D01*
X136938191Y-83778967D01*
X137275216Y-83441941D01*
X137662711Y-83054447D01*
X137667886Y-83049272D01*
X137673942Y-83037386D01*
X137673146Y-83032356D01*
X136734051Y-82093261D01*
X136722168Y-82087207D01*
X136717137Y-82088003D01*
X136710945Y-82094195D01*
X136656428Y-82121972D01*
X136595996Y-82112401D01*
X136570938Y-82094195D01*
X136137255Y-81660513D01*
X136125370Y-81654458D01*
X136120339Y-81655254D01*
X135821759Y-81953835D01*
X135767242Y-81981613D01*
X135706810Y-81972042D01*
X135681751Y-81953836D01*
X135627675Y-81899760D01*
X135599897Y-81845241D01*
X135597079Y-81827445D01*
X135127508Y-81357873D01*
X135098625Y-81343156D01*
X135074027Y-81339260D01*
X135048970Y-81321055D01*
X134905791Y-81177876D01*
X135291156Y-81177876D01*
X135291952Y-81182907D01*
X135761526Y-81652480D01*
X135773412Y-81658536D01*
X135778442Y-81657740D01*
X135945373Y-81490808D01*
X135951429Y-81478922D01*
X135950633Y-81473892D01*
X135481061Y-81004319D01*
X135469174Y-80998262D01*
X135464144Y-80999058D01*
X135439385Y-81023817D01*
X135435832Y-81027778D01*
X135402056Y-81069787D01*
X135399394Y-81074110D01*
X135367004Y-81106501D01*
X135362681Y-81109163D01*
X135320672Y-81142939D01*
X135316711Y-81146492D01*
X135297210Y-81165993D01*
X135291156Y-81177876D01*
X134905791Y-81177876D01*
X134813978Y-81086063D01*
X134800813Y-81069760D01*
X134799500Y-81067726D01*
X134799497Y-81067722D01*
X134795058Y-81060848D01*
X134769901Y-81041015D01*
X134765496Y-81037101D01*
X134765495Y-81037102D01*
X134762364Y-81034449D01*
X134759487Y-81031572D01*
X134744632Y-81020956D01*
X134740914Y-81018165D01*
X134709847Y-80993673D01*
X134709846Y-80993673D01*
X134703422Y-80988608D01*
X134696115Y-80986042D01*
X134694870Y-80985395D01*
X134688564Y-80980889D01*
X134677614Y-80977614D01*
X134500000Y-80800000D01*
X131563343Y-80800000D01*
X131540043Y-80789135D01*
X131540040Y-80789134D01*
X131533173Y-80785932D01*
X131484316Y-80779500D01*
X131135684Y-80779500D01*
X131086827Y-80785932D01*
X131079968Y-80789131D01*
X131072689Y-80791252D01*
X131072106Y-80789251D01*
X131021693Y-80795439D01*
X130968180Y-80765774D01*
X130955374Y-80748654D01*
X130940281Y-80723133D01*
X130932704Y-80713364D01*
X130826636Y-80607296D01*
X130816867Y-80599719D01*
X130687759Y-80523365D01*
X130676414Y-80518455D01*
X130565899Y-80486347D01*
X130515293Y-80451955D01*
X130494568Y-80394387D01*
X130495366Y-80378356D01*
X130499224Y-80349056D01*
X130505682Y-80300000D01*
X130485044Y-80143238D01*
X130424536Y-79997159D01*
X130328282Y-79871718D01*
X130202841Y-79775464D01*
X130056762Y-79714956D01*
X129900000Y-79694318D01*
X129743238Y-79714956D01*
X129597159Y-79775464D01*
X129471718Y-79871718D01*
X129375464Y-79997159D01*
X129314956Y-80143238D01*
X129294318Y-80300000D01*
X129295165Y-80306433D01*
X129295165Y-80306434D01*
X129313082Y-80442525D01*
X129301932Y-80502686D01*
X129284933Y-80525451D01*
X129069504Y-80740880D01*
X129014987Y-80768657D01*
X128954555Y-80759086D01*
X128911290Y-80715821D01*
X128900500Y-80670876D01*
X128900500Y-76233875D01*
X131487642Y-76233875D01*
X131505655Y-76462763D01*
X131506866Y-76470406D01*
X131560465Y-76693662D01*
X131562859Y-76701030D01*
X131650719Y-76913144D01*
X131654238Y-76920050D01*
X131758706Y-77090523D01*
X131768392Y-77098796D01*
X131776578Y-77094212D01*
X132629704Y-76241086D01*
X132635758Y-76229203D01*
X132634962Y-76224172D01*
X131777984Y-75367194D01*
X131766635Y-75361412D01*
X131759744Y-75367783D01*
X131654238Y-75539950D01*
X131650719Y-75546856D01*
X131562859Y-75758970D01*
X131560465Y-75766338D01*
X131506866Y-75989594D01*
X131505655Y-75997237D01*
X131487642Y-76226125D01*
X131487642Y-76233875D01*
X128900500Y-76233875D01*
X128900500Y-74998392D01*
X132131204Y-74998392D01*
X132135788Y-75006578D01*
X132988914Y-75859704D01*
X133000797Y-75865758D01*
X133005828Y-75864962D01*
X133862806Y-75007984D01*
X133868588Y-74996635D01*
X133862217Y-74989744D01*
X133690050Y-74884238D01*
X133683144Y-74880719D01*
X133597902Y-74845411D01*
X134992001Y-74845411D01*
X134992290Y-74850751D01*
X134998078Y-74904035D01*
X135000927Y-74916020D01*
X135047351Y-75039855D01*
X135054059Y-75052108D01*
X135132863Y-75157256D01*
X135142744Y-75167137D01*
X135247892Y-75245941D01*
X135260145Y-75252649D01*
X135383978Y-75299072D01*
X135395967Y-75301923D01*
X135449252Y-75307711D01*
X135454586Y-75308000D01*
X135484320Y-75308000D01*
X135497005Y-75303878D01*
X135500000Y-75299757D01*
X135500000Y-74760680D01*
X135495878Y-74747995D01*
X135491757Y-74745000D01*
X135007681Y-74745000D01*
X134994996Y-74749122D01*
X134992001Y-74753243D01*
X134992001Y-74845411D01*
X133597902Y-74845411D01*
X133471030Y-74792859D01*
X133463662Y-74790465D01*
X133240406Y-74736866D01*
X133232763Y-74735655D01*
X133003875Y-74717642D01*
X132996125Y-74717642D01*
X132767237Y-74735655D01*
X132759594Y-74736866D01*
X132536338Y-74790465D01*
X132528970Y-74792859D01*
X132316856Y-74880719D01*
X132309950Y-74884238D01*
X132139477Y-74988706D01*
X132131204Y-74998392D01*
X128900500Y-74998392D01*
X128900500Y-74309491D01*
X128913314Y-74260777D01*
X128913353Y-74260708D01*
X128924884Y-74244401D01*
X128929309Y-74239320D01*
X134992000Y-74239320D01*
X134996122Y-74252005D01*
X135000243Y-74255000D01*
X135484320Y-74255000D01*
X135497005Y-74250878D01*
X135500000Y-74246757D01*
X135500000Y-73707681D01*
X135495878Y-73694996D01*
X135491757Y-73692001D01*
X135454589Y-73692001D01*
X135449249Y-73692290D01*
X135395965Y-73698078D01*
X135383980Y-73700927D01*
X135260145Y-73747351D01*
X135247892Y-73754059D01*
X135142744Y-73832863D01*
X135132863Y-73842744D01*
X135054059Y-73947892D01*
X135047351Y-73960145D01*
X135000928Y-74083978D01*
X134998077Y-74095967D01*
X134992289Y-74149252D01*
X134992000Y-74154586D01*
X134992000Y-74239320D01*
X128929309Y-74239320D01*
X129047821Y-74103249D01*
X129062876Y-74089220D01*
X129069829Y-74083978D01*
X129212333Y-73976538D01*
X129229959Y-73965927D01*
X129404189Y-73884376D01*
X129413736Y-73880500D01*
X130636991Y-73456502D01*
X130644897Y-73454126D01*
X130794315Y-73415935D01*
X130810582Y-73413195D01*
X130958299Y-73400844D01*
X130966548Y-73400500D01*
X135895367Y-73400500D01*
X135910854Y-73401719D01*
G37*
%TD.AperFunction*%
%TA.AperFunction,Conductor*%
G36*
X130503191Y-81064907D02*
G01*
X130539155Y-81114407D01*
X130544000Y-81145000D01*
X130544000Y-82109666D01*
X130525093Y-82167857D01*
X130519000Y-82176243D01*
X130519000Y-83655000D01*
X130500093Y-83713191D01*
X130450593Y-83749155D01*
X130420000Y-83754000D01*
X130110000Y-83754000D01*
X130051809Y-83735093D01*
X130015845Y-83685593D01*
X130011000Y-83655000D01*
X130011000Y-82669680D01*
X130006878Y-82656995D01*
X130002757Y-82654000D01*
X129502999Y-82654000D01*
X129490314Y-82658122D01*
X129488442Y-82660698D01*
X129488084Y-82663720D01*
X129489471Y-82681344D01*
X129491280Y-82691246D01*
X129533455Y-82836414D01*
X129538362Y-82847753D01*
X129569027Y-82899605D01*
X129582374Y-82959317D01*
X129569027Y-83000395D01*
X129535194Y-83057604D01*
X129532620Y-83056081D01*
X129500120Y-83092876D01*
X129440396Y-83106169D01*
X129384265Y-83081818D01*
X129366265Y-83060744D01*
X129362261Y-83054447D01*
X129190962Y-82785094D01*
X129175500Y-82731967D01*
X129175500Y-82130369D01*
X129488549Y-82130369D01*
X129491663Y-82143339D01*
X129494083Y-82145406D01*
X129497071Y-82146000D01*
X129995320Y-82146000D01*
X130008005Y-82141878D01*
X130011000Y-82137757D01*
X130011000Y-81569680D01*
X130006878Y-81556995D01*
X130002757Y-81554000D01*
X129527999Y-81554000D01*
X129515314Y-81558122D01*
X129513442Y-81560698D01*
X129513084Y-81563720D01*
X129514471Y-81581344D01*
X129516280Y-81591246D01*
X129558455Y-81736414D01*
X129563364Y-81747757D01*
X129581527Y-81778470D01*
X129594874Y-81838182D01*
X129581527Y-81879259D01*
X129538362Y-81952247D01*
X129533455Y-81963586D01*
X129491280Y-82108754D01*
X129489471Y-82118656D01*
X129488549Y-82130369D01*
X129175500Y-82130369D01*
X129175500Y-81455124D01*
X129194407Y-81396933D01*
X129204496Y-81385120D01*
X129514620Y-81074996D01*
X129569137Y-81047219D01*
X129584624Y-81046000D01*
X130445000Y-81046000D01*
X130503191Y-81064907D01*
G37*
%TD.AperFunction*%
%TD*%
%TA.AperFunction,Conductor*%
%TO.N,GND3*%
G36*
X137616800Y-91526907D02*
G01*
X137652764Y-91576407D01*
X137652764Y-91637593D01*
X137637151Y-91667266D01*
X137575464Y-91747659D01*
X137514956Y-91893738D01*
X137494318Y-92050500D01*
X137514956Y-92207262D01*
X137575464Y-92353341D01*
X137671718Y-92478782D01*
X137698646Y-92499444D01*
X137735767Y-92527928D01*
X137770423Y-92578352D01*
X137774500Y-92606470D01*
X137774500Y-92942503D01*
X137755593Y-93000694D01*
X137706093Y-93036658D01*
X137644907Y-93036658D01*
X137617309Y-93022595D01*
X137573267Y-92990596D01*
X137564336Y-92985440D01*
X137394639Y-92909886D01*
X137384830Y-92906699D01*
X137369338Y-92903406D01*
X137356250Y-92904782D01*
X137354000Y-92913179D01*
X137354000Y-93955000D01*
X137335093Y-94013191D01*
X137285593Y-94049155D01*
X137255000Y-94054000D01*
X136945000Y-94054000D01*
X136886809Y-94035093D01*
X136850845Y-93985593D01*
X136846000Y-93955000D01*
X136846000Y-92915826D01*
X136841933Y-92903310D01*
X136833254Y-92902855D01*
X136815170Y-92906699D01*
X136805361Y-92909886D01*
X136635671Y-92985437D01*
X136626732Y-92990598D01*
X136476465Y-93099773D01*
X136468785Y-93106688D01*
X136405140Y-93177373D01*
X136352152Y-93207966D01*
X136307451Y-93207146D01*
X136184762Y-93176328D01*
X136184759Y-93176328D01*
X136178972Y-93174874D01*
X136103276Y-93174478D01*
X136033545Y-93174113D01*
X136033543Y-93174113D01*
X136027579Y-93174082D01*
X136021776Y-93175475D01*
X136021777Y-93175475D01*
X135889856Y-93207146D01*
X135880367Y-93209424D01*
X135870434Y-93214551D01*
X135751141Y-93276122D01*
X135751139Y-93276124D01*
X135745835Y-93278861D01*
X135725307Y-93296769D01*
X135664860Y-93349500D01*
X135608581Y-93373505D01*
X135548939Y-93359845D01*
X135533923Y-93348815D01*
X135475507Y-93296769D01*
X135459603Y-93282599D01*
X135325805Y-93211757D01*
X135320017Y-93210303D01*
X135320014Y-93210302D01*
X135199395Y-93180004D01*
X135178972Y-93174874D01*
X135103276Y-93174478D01*
X135033545Y-93174113D01*
X135033543Y-93174113D01*
X135027579Y-93174082D01*
X135021776Y-93175475D01*
X135021777Y-93175475D01*
X134891058Y-93206857D01*
X134830061Y-93202056D01*
X134794375Y-93176835D01*
X134731215Y-93106687D01*
X134723540Y-93099777D01*
X134573261Y-92990593D01*
X134564336Y-92985440D01*
X134394639Y-92909886D01*
X134384830Y-92906699D01*
X134369338Y-92903406D01*
X134356250Y-92904782D01*
X134354000Y-92913179D01*
X134354000Y-93955000D01*
X134335093Y-94013191D01*
X134285593Y-94049155D01*
X134255000Y-94054000D01*
X133945000Y-94054000D01*
X133886809Y-94035093D01*
X133850845Y-93985593D01*
X133846000Y-93955000D01*
X133846000Y-92915826D01*
X133841933Y-92903310D01*
X133833254Y-92902855D01*
X133815170Y-92906699D01*
X133805361Y-92909886D01*
X133635671Y-92985437D01*
X133626737Y-92990596D01*
X133582691Y-93022597D01*
X133524500Y-93041504D01*
X133466309Y-93022597D01*
X133430345Y-92973097D01*
X133425500Y-92942504D01*
X133425500Y-92622722D01*
X133444407Y-92564531D01*
X133486612Y-92531259D01*
X133496844Y-92527021D01*
X133496850Y-92527018D01*
X133502841Y-92524536D01*
X133628282Y-92428282D01*
X133724536Y-92302841D01*
X133785044Y-92156762D01*
X133802316Y-92025569D01*
X133804835Y-92006434D01*
X133805682Y-92000000D01*
X133794086Y-91911921D01*
X133805236Y-91851762D01*
X133849618Y-91809644D01*
X133892239Y-91800000D01*
X137500000Y-91800000D01*
X137501644Y-91508000D01*
X137558609Y-91508000D01*
X137616800Y-91526907D01*
G37*
%TD.AperFunction*%
%TA.AperFunction,Conductor*%
G36*
X131154356Y-91818907D02*
G01*
X131190320Y-91868407D01*
X131194774Y-91896533D01*
X131194318Y-91900000D01*
X131214956Y-92056762D01*
X131275464Y-92202841D01*
X131371718Y-92328282D01*
X131497159Y-92424536D01*
X131643238Y-92485044D01*
X131800000Y-92505682D01*
X131956762Y-92485044D01*
X132102841Y-92424536D01*
X132228282Y-92328282D01*
X132324536Y-92202841D01*
X132385044Y-92056762D01*
X132405682Y-91900000D01*
X132405344Y-91897433D01*
X132423742Y-91840809D01*
X132473242Y-91804845D01*
X132503835Y-91800000D01*
X132507761Y-91800000D01*
X132565952Y-91818907D01*
X132601916Y-91868407D01*
X132605914Y-91911920D01*
X132594318Y-92000000D01*
X132595165Y-92006434D01*
X132597684Y-92025569D01*
X132614956Y-92156762D01*
X132675464Y-92302841D01*
X132691032Y-92323129D01*
X132754042Y-92405246D01*
X132774500Y-92465513D01*
X132774500Y-92942503D01*
X132755593Y-93000694D01*
X132706093Y-93036658D01*
X132644907Y-93036658D01*
X132617309Y-93022595D01*
X132573267Y-92990596D01*
X132564336Y-92985440D01*
X132394639Y-92909886D01*
X132384830Y-92906699D01*
X132369338Y-92903406D01*
X132356250Y-92904782D01*
X132354000Y-92913179D01*
X132354000Y-93955000D01*
X132335093Y-94013191D01*
X132285593Y-94049155D01*
X132255000Y-94054000D01*
X130945000Y-94054000D01*
X130886809Y-94035093D01*
X130850845Y-93985593D01*
X130846000Y-93955000D01*
X130846000Y-93530320D01*
X131354000Y-93530320D01*
X131358122Y-93543005D01*
X131362243Y-93546000D01*
X131830320Y-93546000D01*
X131843005Y-93541878D01*
X131846000Y-93537757D01*
X131846000Y-92915826D01*
X131841933Y-92903310D01*
X131833254Y-92902855D01*
X131815170Y-92906699D01*
X131805361Y-92909886D01*
X131640267Y-92983391D01*
X131579417Y-92989787D01*
X131559733Y-92983391D01*
X131394639Y-92909886D01*
X131384830Y-92906699D01*
X131369338Y-92903406D01*
X131356250Y-92904782D01*
X131354000Y-92913179D01*
X131354000Y-93530320D01*
X130846000Y-93530320D01*
X130846000Y-92915826D01*
X130841933Y-92903310D01*
X130833254Y-92902855D01*
X130815170Y-92906699D01*
X130805361Y-92909886D01*
X130635671Y-92985437D01*
X130626732Y-92990598D01*
X130476465Y-93099773D01*
X130468785Y-93106688D01*
X130405140Y-93177373D01*
X130352152Y-93207966D01*
X130307451Y-93207146D01*
X130184762Y-93176328D01*
X130184759Y-93176328D01*
X130178972Y-93174874D01*
X130048983Y-93174194D01*
X129990892Y-93154982D01*
X129955188Y-93105295D01*
X129950501Y-93075195D01*
X129950501Y-91899000D01*
X129969408Y-91840809D01*
X130018908Y-91804845D01*
X130049501Y-91800000D01*
X131096165Y-91800000D01*
X131154356Y-91818907D01*
G37*
%TD.AperFunction*%
%TA.AperFunction,Conductor*%
G36*
X139233191Y-89964907D02*
G01*
X139269155Y-90014407D01*
X139274000Y-90045000D01*
X139274000Y-91995993D01*
X139277691Y-92007354D01*
X139288293Y-92007520D01*
X139300000Y-92004119D01*
X139300000Y-92335511D01*
X139435555Y-92335511D01*
X139441900Y-92383706D01*
X139502408Y-92529785D01*
X139598662Y-92655226D01*
X139724103Y-92751480D01*
X139730100Y-92753964D01*
X139737622Y-92757080D01*
X139784148Y-92796816D01*
X139798432Y-92856310D01*
X139775018Y-92912839D01*
X139740004Y-92938985D01*
X139640267Y-92983391D01*
X139579417Y-92989787D01*
X139559733Y-92983391D01*
X139394639Y-92909886D01*
X139384830Y-92906699D01*
X139369338Y-92903406D01*
X139356250Y-92904782D01*
X139354000Y-92913179D01*
X139354000Y-93530320D01*
X139358122Y-93543005D01*
X139362243Y-93546000D01*
X140255000Y-93546000D01*
X140313191Y-93564907D01*
X140349155Y-93614407D01*
X140354000Y-93645000D01*
X140354000Y-93955000D01*
X140335093Y-94013191D01*
X140285593Y-94049155D01*
X140255000Y-94054000D01*
X138945000Y-94054000D01*
X138886809Y-94035093D01*
X138850845Y-93985593D01*
X138846000Y-93955000D01*
X138846000Y-92915826D01*
X138841933Y-92903310D01*
X138833254Y-92902855D01*
X138815170Y-92906699D01*
X138805361Y-92909886D01*
X138635671Y-92985437D01*
X138626737Y-92990596D01*
X138582691Y-93022597D01*
X138524500Y-93041504D01*
X138466309Y-93022597D01*
X138430345Y-92973097D01*
X138425500Y-92942504D01*
X138425500Y-92606470D01*
X138444407Y-92548279D01*
X138464233Y-92527928D01*
X138501355Y-92499444D01*
X138528282Y-92478782D01*
X138624536Y-92353341D01*
X138685044Y-92207262D01*
X138700227Y-92091934D01*
X138726568Y-92036709D01*
X138740736Y-92029017D01*
X138738857Y-92026595D01*
X138762464Y-92008283D01*
X138766000Y-91996791D01*
X138766000Y-90045000D01*
X138784907Y-89986809D01*
X138834407Y-89950845D01*
X138865000Y-89946000D01*
X139175000Y-89946000D01*
X139233191Y-89964907D01*
G37*
%TD.AperFunction*%
%TD*%
M02*
