%TF.GenerationSoftware,KiCad,Pcbnew,(6.0.5)*%
%TF.CreationDate,2023-11-22T15:14:02+07:00*%
%TF.ProjectId,view_base,76696577-5f62-4617-9365-2e6b69636164,rev?*%
%TF.SameCoordinates,Original*%
%TF.FileFunction,Other,User*%
%FSLAX46Y46*%
G04 Gerber Fmt 4.6, Leading zero omitted, Abs format (unit mm)*
G04 Created by KiCad (PCBNEW (6.0.5)) date 2023-11-22 15:14:02*
%MOMM*%
%LPD*%
G01*
G04 APERTURE LIST*
%ADD10C,0.050000*%
G04 APERTURE END LIST*
D10*
%TO.C,H3*%
X106625400Y-91122500D02*
G75*
G03*
X106625400Y-91122500I-1500000J0D01*
G01*
%TO.C,H1*%
X106625400Y-108877500D02*
G75*
G03*
X106625400Y-108877500I-1500000J0D01*
G01*
%TO.C,H2*%
X91249100Y-100000000D02*
G75*
G03*
X91249100Y-100000000I-1500000J0D01*
G01*
%TO.C,H4*%
X102000000Y-129800000D02*
G75*
G03*
X102000000Y-129800000I-2000000J0D01*
G01*
%TO.C,H5*%
X72200000Y-100000000D02*
G75*
G03*
X72200000Y-100000000I-2000000J0D01*
G01*
%TO.C,H6*%
X102000000Y-70200000D02*
G75*
G03*
X102000000Y-70200000I-2000000J0D01*
G01*
%TO.C,H7*%
X131800000Y-100000000D02*
G75*
G03*
X131800000Y-100000000I-2000000J0D01*
G01*
%TO.C,R1*%
X95980000Y-133730000D02*
X93020000Y-133730000D01*
X93020000Y-133730000D02*
X93020000Y-132270000D01*
X95980000Y-132270000D02*
X95980000Y-133730000D01*
X93020000Y-132270000D02*
X95980000Y-132270000D01*
%TO.C,R2*%
X106980000Y-133730000D02*
X104020000Y-133730000D01*
X106980000Y-132270000D02*
X106980000Y-133730000D01*
X104020000Y-133730000D02*
X104020000Y-132270000D01*
X104020000Y-132270000D02*
X106980000Y-132270000D01*
%TO.C,U2*%
X74460000Y-137040000D02*
X74460000Y-128810000D01*
X82690000Y-128810000D02*
X74460000Y-128810000D01*
X82690000Y-137040000D02*
X74460000Y-137040000D01*
X82690000Y-137040000D02*
X82690000Y-128810000D01*
%TO.C,C11*%
X93730000Y-131480000D02*
X92270000Y-131480000D01*
X92270000Y-131480000D02*
X92270000Y-128520000D01*
X93730000Y-128520000D02*
X93730000Y-131480000D01*
X92270000Y-128520000D02*
X93730000Y-128520000D01*
%TO.C,C13*%
X120020000Y-124200000D02*
X120020000Y-120800000D01*
X121980000Y-124200000D02*
X120020000Y-124200000D01*
X121980000Y-120800000D02*
X121980000Y-124200000D01*
X120020000Y-120800000D02*
X121980000Y-120800000D01*
%TO.C,C14*%
X122270000Y-121020000D02*
X123730000Y-121020000D01*
X123730000Y-123980000D02*
X122270000Y-123980000D01*
X122270000Y-123980000D02*
X122270000Y-121020000D01*
X123730000Y-121020000D02*
X123730000Y-123980000D01*
%TO.C,C15*%
X125020000Y-125270000D02*
X127980000Y-125270000D01*
X127980000Y-125270000D02*
X127980000Y-126730000D01*
X125020000Y-126730000D02*
X125020000Y-125270000D01*
X127980000Y-126730000D02*
X125020000Y-126730000D01*
%TO.C,C17*%
X128520000Y-116770000D02*
X131480000Y-116770000D01*
X131480000Y-118230000D02*
X128520000Y-118230000D01*
X131480000Y-116770000D02*
X131480000Y-118230000D01*
X128520000Y-118230000D02*
X128520000Y-116770000D01*
%TO.C,U6*%
X119100000Y-131900000D02*
X119100000Y-139100000D01*
X127900000Y-139100000D02*
X127900000Y-131900000D01*
X119100000Y-139100000D02*
X127900000Y-139100000D01*
X127900000Y-131900000D02*
X119100000Y-131900000D01*
%TO.C,U3*%
X84800000Y-128300000D02*
X84800000Y-138700000D01*
X92200000Y-138700000D02*
X92200000Y-128300000D01*
X84800000Y-138700000D02*
X92200000Y-138700000D01*
X92200000Y-128300000D02*
X84800000Y-128300000D01*
%TO.C,U5*%
X130120000Y-119880000D02*
X125880000Y-119880000D01*
X125880000Y-119880000D02*
X125880000Y-124120000D01*
X130120000Y-124120000D02*
X130120000Y-119880000D01*
X125880000Y-124120000D02*
X130120000Y-124120000D01*
%TO.C,C21*%
X128480000Y-116770000D02*
X128480000Y-118230000D01*
X128480000Y-118230000D02*
X125520000Y-118230000D01*
X125520000Y-118230000D02*
X125520000Y-116770000D01*
X125520000Y-116770000D02*
X128480000Y-116770000D01*
%TO.C,U1*%
X103700000Y-102700000D02*
X103700000Y-97300000D01*
X96300000Y-102700000D02*
X103700000Y-102700000D01*
X103700000Y-97300000D02*
X96300000Y-97300000D01*
X96300000Y-97300000D02*
X96300000Y-102700000D01*
%TO.C,C20*%
X100520000Y-102770000D02*
X103480000Y-102770000D01*
X100520000Y-104230000D02*
X100520000Y-102770000D01*
X103480000Y-104230000D02*
X100520000Y-104230000D01*
X103480000Y-102770000D02*
X103480000Y-104230000D01*
%TO.C,R7*%
X128270000Y-135980000D02*
X128270000Y-133020000D01*
X129730000Y-135980000D02*
X128270000Y-135980000D01*
X128270000Y-133020000D02*
X129730000Y-133020000D01*
X129730000Y-133020000D02*
X129730000Y-135980000D01*
%TO.C,R8*%
X131230000Y-133020000D02*
X131230000Y-135980000D01*
X129770000Y-133020000D02*
X131230000Y-133020000D01*
X129770000Y-135980000D02*
X129770000Y-133020000D01*
X131230000Y-135980000D02*
X129770000Y-135980000D01*
%TO.C,R12*%
X135770000Y-135980000D02*
X135770000Y-133020000D01*
X137230000Y-135980000D02*
X135770000Y-135980000D01*
X137230000Y-133020000D02*
X137230000Y-135980000D01*
X135770000Y-133020000D02*
X137230000Y-133020000D01*
%TO.C,R9*%
X131270000Y-133020000D02*
X132730000Y-133020000D01*
X132730000Y-133020000D02*
X132730000Y-135980000D01*
X132730000Y-135980000D02*
X131270000Y-135980000D01*
X131270000Y-135980000D02*
X131270000Y-133020000D01*
%TO.C,R10*%
X132770000Y-133020000D02*
X134230000Y-133020000D01*
X132770000Y-135980000D02*
X132770000Y-133020000D01*
X134230000Y-133020000D02*
X134230000Y-135980000D01*
X134230000Y-135980000D02*
X132770000Y-135980000D01*
%TO.C,R11*%
X135730000Y-133020000D02*
X135730000Y-135980000D01*
X135730000Y-135980000D02*
X134270000Y-135980000D01*
X134270000Y-135980000D02*
X134270000Y-133020000D01*
X134270000Y-133020000D02*
X135730000Y-133020000D01*
%TO.C,C10*%
X118980000Y-135300000D02*
X117020000Y-135300000D01*
X117020000Y-135300000D02*
X117020000Y-131900000D01*
X117020000Y-131900000D02*
X118980000Y-131900000D01*
X118980000Y-131900000D02*
X118980000Y-135300000D01*
%TO.C,C9*%
X117270000Y-135620000D02*
X118730000Y-135620000D01*
X118730000Y-135620000D02*
X118730000Y-138580000D01*
X117270000Y-138580000D02*
X117270000Y-135620000D01*
X118730000Y-138580000D02*
X117270000Y-138580000D01*
%TO.C,H8*%
X137000000Y-100000000D02*
G75*
G03*
X137000000Y-100000000I-2000000J0D01*
G01*
%TO.C,H9*%
X67000000Y-100000000D02*
G75*
G03*
X67000000Y-100000000I-2000000J0D01*
G01*
%TO.C,R3*%
X67917500Y-135695000D02*
X70877500Y-135695000D01*
X70877500Y-137155000D02*
X67917500Y-137155000D01*
X67917500Y-137155000D02*
X67917500Y-135695000D01*
X70877500Y-135695000D02*
X70877500Y-137155000D01*
%TO.C,J6*%
X68400000Y-107240000D02*
X64800000Y-107240000D01*
X64800000Y-126090000D02*
X68400000Y-126090000D01*
X68400000Y-126090000D02*
X68400000Y-107240000D01*
X64800000Y-107240000D02*
X64800000Y-126090000D01*
%TO.C,C1*%
X72870000Y-137580000D02*
X72870000Y-134620000D01*
X74330000Y-134620000D02*
X74330000Y-137580000D01*
X72870000Y-134620000D02*
X74330000Y-134620000D01*
X74330000Y-137580000D02*
X72870000Y-137580000D01*
%TO.C,C4*%
X75780000Y-139130000D02*
X72820000Y-139130000D01*
X72820000Y-139130000D02*
X72820000Y-137670000D01*
X75780000Y-137670000D02*
X75780000Y-139130000D01*
X72820000Y-137670000D02*
X75780000Y-137670000D01*
%TO.C,C2*%
X76230000Y-125720000D02*
X76230000Y-128680000D01*
X76230000Y-128680000D02*
X74770000Y-128680000D01*
X74770000Y-125720000D02*
X76230000Y-125720000D01*
X74770000Y-128680000D02*
X74770000Y-125720000D01*
%TO.C,J5*%
X60400000Y-137900000D02*
X64000000Y-137900000D01*
X64000000Y-126700000D02*
X60400000Y-126700000D01*
X60400000Y-126700000D02*
X60400000Y-137900000D01*
X64000000Y-137900000D02*
X64000000Y-126700000D01*
%TO.C,C12*%
X79230000Y-140080000D02*
X77770000Y-140080000D01*
X77770000Y-140080000D02*
X77770000Y-137120000D01*
X79230000Y-137120000D02*
X79230000Y-140080000D01*
X77770000Y-137120000D02*
X79230000Y-137120000D01*
%TO.C,C5*%
X109070000Y-136195000D02*
X110530000Y-136195000D01*
X110530000Y-136195000D02*
X110530000Y-139155000D01*
X109070000Y-139155000D02*
X109070000Y-136195000D01*
X110530000Y-139155000D02*
X109070000Y-139155000D01*
%TO.C,R4*%
X67917500Y-128595000D02*
X70877500Y-128595000D01*
X70877500Y-130055000D02*
X67917500Y-130055000D01*
X70877500Y-128595000D02*
X70877500Y-130055000D01*
X67917500Y-130055000D02*
X67917500Y-128595000D01*
%TO.C,C16*%
X84330000Y-129620000D02*
X84330000Y-132580000D01*
X84330000Y-132580000D02*
X82870000Y-132580000D01*
X82870000Y-132580000D02*
X82870000Y-129620000D01*
X82870000Y-129620000D02*
X84330000Y-129620000D01*
%TO.C,C8*%
X77430000Y-137120000D02*
X77430000Y-140080000D01*
X77430000Y-140080000D02*
X75970000Y-140080000D01*
X75970000Y-140080000D02*
X75970000Y-137120000D01*
X75970000Y-137120000D02*
X77430000Y-137120000D01*
%TO.C,C3*%
X108930000Y-139155000D02*
X107470000Y-139155000D01*
X107470000Y-139155000D02*
X107470000Y-136195000D01*
X107470000Y-136195000D02*
X108930000Y-136195000D01*
X108930000Y-136195000D02*
X108930000Y-139155000D01*
%TO.C,C7*%
X84330000Y-126520000D02*
X84330000Y-129480000D01*
X82870000Y-129480000D02*
X82870000Y-126520000D01*
X84330000Y-129480000D02*
X82870000Y-129480000D01*
X82870000Y-126520000D02*
X84330000Y-126520000D01*
%TO.C,U4*%
X67685000Y-135325000D02*
X67685000Y-130325000D01*
X67685000Y-130325000D02*
X71185000Y-130325000D01*
X71185000Y-130325000D02*
X71185000Y-135325000D01*
X71185000Y-135325000D02*
X67685000Y-135325000D01*
%TO.C,J7*%
X63250000Y-111400000D02*
X60950000Y-111400000D01*
X63250000Y-124400000D02*
X63250000Y-111400000D01*
X60950000Y-124400000D02*
X63250000Y-124400000D01*
X60950000Y-111400000D02*
X60950000Y-124400000D01*
%TO.C,J3*%
X64000000Y-97020000D02*
X64000000Y-85820000D01*
X60400000Y-85820000D02*
X60400000Y-97020000D01*
X64000000Y-85820000D02*
X60400000Y-85820000D01*
X60400000Y-97020000D02*
X64000000Y-97020000D01*
%TO.C,C6*%
X80930000Y-140080000D02*
X79470000Y-140080000D01*
X79470000Y-137120000D02*
X80930000Y-137120000D01*
X80930000Y-137120000D02*
X80930000Y-140080000D01*
X79470000Y-140080000D02*
X79470000Y-137120000D01*
%TD*%
M02*
