%TF.GenerationSoftware,KiCad,Pcbnew,(6.0.5)*%
%TF.CreationDate,2023-11-22T15:14:02+07:00*%
%TF.ProjectId,view_base,76696577-5f62-4617-9365-2e6b69636164,rev?*%
%TF.SameCoordinates,Original*%
%TF.FileFunction,Paste,Top*%
%TF.FilePolarity,Positive*%
%FSLAX46Y46*%
G04 Gerber Fmt 4.6, Leading zero omitted, Abs format (unit mm)*
G04 Created by KiCad (PCBNEW (6.0.5)) date 2023-11-22 15:14:02*
%MOMM*%
%LPD*%
G01*
G04 APERTURE LIST*
G04 Aperture macros list*
%AMRoundRect*
0 Rectangle with rounded corners*
0 $1 Rounding radius*
0 $2 $3 $4 $5 $6 $7 $8 $9 X,Y pos of 4 corners*
0 Add a 4 corners polygon primitive as box body*
4,1,4,$2,$3,$4,$5,$6,$7,$8,$9,$2,$3,0*
0 Add four circle primitives for the rounded corners*
1,1,$1+$1,$2,$3*
1,1,$1+$1,$4,$5*
1,1,$1+$1,$6,$7*
1,1,$1+$1,$8,$9*
0 Add four rect primitives between the rounded corners*
20,1,$1+$1,$2,$3,$4,$5,0*
20,1,$1+$1,$4,$5,$6,$7,0*
20,1,$1+$1,$6,$7,$8,$9,0*
20,1,$1+$1,$8,$9,$2,$3,0*%
G04 Aperture macros list end*
%ADD10C,0.010000*%
%ADD11RoundRect,0.200000X0.200000X0.275000X-0.200000X0.275000X-0.200000X-0.275000X0.200000X-0.275000X0*%
%ADD12RoundRect,0.200000X-0.200000X-0.275000X0.200000X-0.275000X0.200000X0.275000X-0.200000X0.275000X0*%
%ADD13RoundRect,0.008100X0.126900X-0.426900X0.126900X0.426900X-0.126900X0.426900X-0.126900X-0.426900X0*%
%ADD14RoundRect,0.008100X0.426900X0.126900X-0.426900X0.126900X-0.426900X-0.126900X0.426900X-0.126900X0*%
%ADD15RoundRect,0.225000X-0.250000X0.225000X-0.250000X-0.225000X0.250000X-0.225000X0.250000X0.225000X0*%
%ADD16RoundRect,0.250000X-0.475000X0.250000X-0.475000X-0.250000X0.475000X-0.250000X0.475000X0.250000X0*%
%ADD17RoundRect,0.225000X-0.225000X-0.250000X0.225000X-0.250000X0.225000X0.250000X-0.225000X0.250000X0*%
%ADD18R,2.000000X1.500000*%
%ADD19R,2.000000X3.800000*%
%ADD20RoundRect,0.150000X-0.825000X-0.150000X0.825000X-0.150000X0.825000X0.150000X-0.825000X0.150000X0*%
%ADD21RoundRect,0.150000X0.150000X-0.150000X0.150000X0.150000X-0.150000X0.150000X-0.150000X-0.150000X0*%
%ADD22RoundRect,0.050000X0.050000X-0.300000X0.050000X0.300000X-0.050000X0.300000X-0.050000X-0.300000X0*%
%ADD23RoundRect,0.050000X0.300000X-0.050000X0.300000X0.050000X-0.300000X0.050000X-0.300000X-0.050000X0*%
%ADD24RoundRect,0.225000X0.225000X0.250000X-0.225000X0.250000X-0.225000X-0.250000X0.225000X-0.250000X0*%
%ADD25RoundRect,0.150000X0.825000X0.150000X-0.825000X0.150000X-0.825000X-0.150000X0.825000X-0.150000X0*%
%ADD26RoundRect,0.200000X-0.275000X0.200000X-0.275000X-0.200000X0.275000X-0.200000X0.275000X0.200000X0*%
%ADD27RoundRect,0.225000X0.250000X-0.225000X0.250000X0.225000X-0.250000X0.225000X-0.250000X-0.225000X0*%
%ADD28R,0.590000X0.350000*%
%ADD29R,0.350000X0.590000*%
G04 APERTURE END LIST*
%TO.C,U2*%
G36*
X80865000Y-135215000D02*
G01*
X79085000Y-135215000D01*
X79085000Y-133435000D01*
X80865000Y-133435000D01*
X80865000Y-135215000D01*
G37*
D10*
X80865000Y-135215000D02*
X79085000Y-135215000D01*
X79085000Y-133435000D01*
X80865000Y-133435000D01*
X80865000Y-135215000D01*
G36*
X78065000Y-135215000D02*
G01*
X76285000Y-135215000D01*
X76285000Y-133435000D01*
X78065000Y-133435000D01*
X78065000Y-135215000D01*
G37*
X78065000Y-135215000D02*
X76285000Y-135215000D01*
X76285000Y-133435000D01*
X78065000Y-133435000D01*
X78065000Y-135215000D01*
G36*
X78065000Y-132415000D02*
G01*
X76285000Y-132415000D01*
X76285000Y-130635000D01*
X78065000Y-130635000D01*
X78065000Y-132415000D01*
G37*
X78065000Y-132415000D02*
X76285000Y-132415000D01*
X76285000Y-130635000D01*
X78065000Y-130635000D01*
X78065000Y-132415000D01*
G36*
X80865000Y-132415000D02*
G01*
X79085000Y-132415000D01*
X79085000Y-130635000D01*
X80865000Y-130635000D01*
X80865000Y-132415000D01*
G37*
X80865000Y-132415000D02*
X79085000Y-132415000D01*
X79085000Y-130635000D01*
X80865000Y-130635000D01*
X80865000Y-132415000D01*
%TD*%
D11*
%TO.C,R1*%
X95325000Y-133000000D03*
X93675000Y-133000000D03*
%TD*%
D12*
%TO.C,R2*%
X104675000Y-133000000D03*
X106325000Y-133000000D03*
%TD*%
D13*
%TO.C,U2*%
X75825000Y-136355000D03*
X76325000Y-136355000D03*
X76825000Y-136355000D03*
X77325000Y-136355000D03*
X77825000Y-136355000D03*
X78325000Y-136355000D03*
X78825000Y-136355000D03*
X79325000Y-136355000D03*
X79825000Y-136355000D03*
X80325000Y-136355000D03*
X80825000Y-136355000D03*
X81325000Y-136355000D03*
D14*
X82005000Y-135675000D03*
X82005000Y-135175000D03*
X82005000Y-134675000D03*
X82005000Y-134175000D03*
X82005000Y-133675000D03*
X82005000Y-133175000D03*
X82005000Y-132675000D03*
X82005000Y-132175000D03*
X82005000Y-131675000D03*
X82005000Y-131175000D03*
X82005000Y-130675000D03*
X82005000Y-130175000D03*
D13*
X81325000Y-129495000D03*
X80825000Y-129495000D03*
X80325000Y-129495000D03*
X79825000Y-129495000D03*
X79325000Y-129495000D03*
X78825000Y-129495000D03*
X78325000Y-129495000D03*
X77825000Y-129495000D03*
X77325000Y-129495000D03*
X76825000Y-129495000D03*
X76325000Y-129495000D03*
X75825000Y-129495000D03*
D14*
X75145000Y-130175000D03*
X75145000Y-130675000D03*
X75145000Y-131175000D03*
X75145000Y-131675000D03*
X75145000Y-132175000D03*
X75145000Y-132675000D03*
X75145000Y-133175000D03*
X75145000Y-133675000D03*
X75145000Y-134175000D03*
X75145000Y-134675000D03*
X75145000Y-135175000D03*
X75145000Y-135675000D03*
%TD*%
D15*
%TO.C,C11*%
X93000000Y-129225000D03*
X93000000Y-130775000D03*
%TD*%
D16*
%TO.C,C13*%
X121000000Y-121550000D03*
X121000000Y-123450000D03*
%TD*%
D15*
%TO.C,C14*%
X123000000Y-121725000D03*
X123000000Y-123275000D03*
%TD*%
D17*
%TO.C,C15*%
X125725000Y-126000000D03*
X127275000Y-126000000D03*
%TD*%
%TO.C,C17*%
X129225000Y-117500000D03*
X130775000Y-117500000D03*
%TD*%
D18*
%TO.C,U6*%
X120350000Y-133200000D03*
D19*
X126650000Y-135500000D03*
D18*
X120350000Y-135500000D03*
X120350000Y-137800000D03*
%TD*%
D20*
%TO.C,U3*%
X86025000Y-129055000D03*
X86025000Y-130325000D03*
X86025000Y-131595000D03*
X86025000Y-132865000D03*
X86025000Y-134135000D03*
X86025000Y-135405000D03*
X86025000Y-136675000D03*
X86025000Y-137945000D03*
X90975000Y-137945000D03*
X90975000Y-136675000D03*
X90975000Y-135405000D03*
X90975000Y-134135000D03*
X90975000Y-132865000D03*
X90975000Y-131595000D03*
X90975000Y-130325000D03*
X90975000Y-129055000D03*
%TD*%
D21*
%TO.C,U5*%
X128410000Y-121590000D03*
X127590000Y-121590000D03*
X128410000Y-122410000D03*
X127590000Y-122410000D03*
D22*
X127200000Y-123450000D03*
X127600000Y-123450000D03*
X128000000Y-123450000D03*
X128400000Y-123450000D03*
X128800000Y-123450000D03*
D23*
X129450000Y-122800000D03*
X129450000Y-122400000D03*
X129450000Y-122000000D03*
X129450000Y-121600000D03*
X129450000Y-121200000D03*
D22*
X128800000Y-120550000D03*
X128400000Y-120550000D03*
X128000000Y-120550000D03*
X127600000Y-120550000D03*
X127200000Y-120550000D03*
D23*
X126550000Y-121200000D03*
X126550000Y-121600000D03*
X126550000Y-122000000D03*
X126550000Y-122400000D03*
X126550000Y-122800000D03*
%TD*%
D24*
%TO.C,C21*%
X127775000Y-117500000D03*
X126225000Y-117500000D03*
%TD*%
D25*
%TO.C,U1*%
X102475000Y-101905000D03*
X102475000Y-100635000D03*
X102475000Y-99365000D03*
X102475000Y-98095000D03*
X97525000Y-98095000D03*
X97525000Y-99365000D03*
X97525000Y-100635000D03*
X97525000Y-101905000D03*
%TD*%
D24*
%TO.C,C20*%
X102775000Y-103500000D03*
X101225000Y-103500000D03*
%TD*%
D26*
%TO.C,R7*%
X129000000Y-133675000D03*
X129000000Y-135325000D03*
%TD*%
%TO.C,R8*%
X130500000Y-133675000D03*
X130500000Y-135325000D03*
%TD*%
%TO.C,R12*%
X136500000Y-133675000D03*
X136500000Y-135325000D03*
%TD*%
%TO.C,R9*%
X132000000Y-133675000D03*
X132000000Y-135325000D03*
%TD*%
%TO.C,R10*%
X133500000Y-133675000D03*
X133500000Y-135325000D03*
%TD*%
%TO.C,R11*%
X135000000Y-133675000D03*
X135000000Y-135325000D03*
%TD*%
D16*
%TO.C,C10*%
X118000000Y-132650000D03*
X118000000Y-134550000D03*
%TD*%
D27*
%TO.C,C9*%
X118000000Y-137875000D03*
X118000000Y-136325000D03*
%TD*%
D11*
%TO.C,R3*%
X70222500Y-136425000D03*
X68572500Y-136425000D03*
%TD*%
D27*
%TO.C,C1*%
X73600000Y-136875000D03*
X73600000Y-135325000D03*
%TD*%
D24*
%TO.C,C4*%
X75075000Y-138400000D03*
X73525000Y-138400000D03*
%TD*%
D27*
%TO.C,C2*%
X75500000Y-127975000D03*
X75500000Y-126425000D03*
%TD*%
%TO.C,C12*%
X78500000Y-139375000D03*
X78500000Y-137825000D03*
%TD*%
D15*
%TO.C,C5*%
X109800000Y-136900000D03*
X109800000Y-138450000D03*
%TD*%
D11*
%TO.C,R4*%
X70222500Y-129325000D03*
X68572500Y-129325000D03*
%TD*%
D27*
%TO.C,C16*%
X83600000Y-131875000D03*
X83600000Y-130325000D03*
%TD*%
D15*
%TO.C,C8*%
X76700000Y-137825000D03*
X76700000Y-139375000D03*
%TD*%
D27*
%TO.C,C3*%
X108200000Y-138450000D03*
X108200000Y-136900000D03*
%TD*%
D15*
%TO.C,C7*%
X83600000Y-127225000D03*
X83600000Y-128775000D03*
%TD*%
D28*
%TO.C,U4*%
X70600000Y-131325000D03*
X70600000Y-131825000D03*
X70600000Y-132325000D03*
X70600000Y-132825000D03*
X70600000Y-133325000D03*
X70600000Y-133825000D03*
X70600000Y-134325000D03*
D29*
X69435000Y-134740000D03*
D28*
X68270000Y-134325000D03*
X68270000Y-133825000D03*
X68270000Y-133325000D03*
X68270000Y-132825000D03*
X68270000Y-132325000D03*
X68270000Y-131825000D03*
X68270000Y-131325000D03*
D29*
X69435000Y-130910000D03*
%TD*%
D15*
%TO.C,C6*%
X80200000Y-137825000D03*
X80200000Y-139375000D03*
%TD*%
M02*
