%TF.GenerationSoftware,KiCad,Pcbnew,(6.0.5)*%
%TF.CreationDate,2023-11-22T15:14:02+07:00*%
%TF.ProjectId,view_base,76696577-5f62-4617-9365-2e6b69636164,rev?*%
%TF.SameCoordinates,Original*%
%TF.FileFunction,Legend,Bot*%
%TF.FilePolarity,Positive*%
%FSLAX46Y46*%
G04 Gerber Fmt 4.6, Leading zero omitted, Abs format (unit mm)*
G04 Created by KiCad (PCBNEW (6.0.5)) date 2023-11-22 15:14:02*
%MOMM*%
%LPD*%
G01*
G04 APERTURE LIST*
%ADD10C,0.120000*%
%ADD11C,1.000000*%
%ADD12C,0.150000*%
%ADD13C,0.300000*%
G04 APERTURE END LIST*
D10*
X78000000Y-96300000D02*
X78000000Y-94500000D01*
X78000000Y-103700000D02*
X78000000Y-105500000D01*
X80000000Y-96300000D02*
X80000000Y-94500000D01*
X82000000Y-105500000D02*
X82000000Y-103700000D01*
X78000000Y-105500000D02*
X82000000Y-105500000D01*
X78000000Y-94500000D02*
X82000000Y-94500000D01*
X82000000Y-94500000D02*
X82000000Y-96300000D01*
X80000000Y-105500000D02*
X80000000Y-103700000D01*
X118000000Y-96300000D02*
X118000000Y-94500000D01*
X118000000Y-94500000D02*
X122000000Y-94500000D01*
X122000000Y-94500000D02*
X122000000Y-96300000D01*
D11*
X108750000Y-104500000D02*
X108750000Y-108750000D01*
D10*
X120000000Y-96300000D02*
X120000000Y-94500000D01*
D11*
X108750000Y-108750000D02*
X113500000Y-113500000D01*
D10*
X118000000Y-103700000D02*
X118000000Y-105500000D01*
X122000000Y-105500000D02*
X122000000Y-103700000D01*
X120000000Y-105500000D02*
X120000000Y-103700000D01*
X118000000Y-105500000D02*
X122000000Y-105500000D01*
D12*
X78928571Y-95428571D02*
X78785714Y-95476190D01*
X78738095Y-95523809D01*
X78690476Y-95619047D01*
X78690476Y-95761904D01*
X78738095Y-95857142D01*
X78785714Y-95904761D01*
X78880952Y-95952380D01*
X79261904Y-95952380D01*
X79261904Y-94952380D01*
X78928571Y-94952380D01*
X78833333Y-95000000D01*
X78785714Y-95047619D01*
X78738095Y-95142857D01*
X78738095Y-95238095D01*
X78785714Y-95333333D01*
X78833333Y-95380952D01*
X78928571Y-95428571D01*
X79261904Y-95428571D01*
X80928571Y-95428571D02*
X80785714Y-95476190D01*
X80738095Y-95523809D01*
X80690476Y-95619047D01*
X80690476Y-95761904D01*
X80738095Y-95857142D01*
X80785714Y-95904761D01*
X80880952Y-95952380D01*
X81261904Y-95952380D01*
X81261904Y-94952380D01*
X80928571Y-94952380D01*
X80833333Y-95000000D01*
X80785714Y-95047619D01*
X80738095Y-95142857D01*
X80738095Y-95238095D01*
X80785714Y-95333333D01*
X80833333Y-95380952D01*
X80928571Y-95428571D01*
X81261904Y-95428571D01*
X79380952Y-104571428D02*
X78619047Y-104571428D01*
X81380952Y-104571428D02*
X80619047Y-104571428D01*
X81000000Y-104952380D02*
X81000000Y-104190476D01*
D13*
X128666666Y-112904761D02*
X128666666Y-110904761D01*
X128000000Y-112333333D01*
X127333333Y-110904761D01*
X127333333Y-112904761D01*
X126095238Y-112904761D02*
X126285714Y-112809523D01*
X126380952Y-112714285D01*
X126476190Y-112523809D01*
X126476190Y-111952380D01*
X126380952Y-111761904D01*
X126285714Y-111666666D01*
X126095238Y-111571428D01*
X125809523Y-111571428D01*
X125619047Y-111666666D01*
X125523809Y-111761904D01*
X125428571Y-111952380D01*
X125428571Y-112523809D01*
X125523809Y-112714285D01*
X125619047Y-112809523D01*
X125809523Y-112904761D01*
X126095238Y-112904761D01*
X124857142Y-111571428D02*
X124095238Y-111571428D01*
X124571428Y-110904761D02*
X124571428Y-112619047D01*
X124476190Y-112809523D01*
X124285714Y-112904761D01*
X124095238Y-112904761D01*
X123142857Y-112904761D02*
X123333333Y-112809523D01*
X123428571Y-112714285D01*
X123523809Y-112523809D01*
X123523809Y-111952380D01*
X123428571Y-111761904D01*
X123333333Y-111666666D01*
X123142857Y-111571428D01*
X122857142Y-111571428D01*
X122666666Y-111666666D01*
X122571428Y-111761904D01*
X122476190Y-111952380D01*
X122476190Y-112523809D01*
X122571428Y-112714285D01*
X122666666Y-112809523D01*
X122857142Y-112904761D01*
X123142857Y-112904761D01*
X121619047Y-112904761D02*
X121619047Y-111571428D01*
X121619047Y-111952380D02*
X121523809Y-111761904D01*
X121428571Y-111666666D01*
X121238095Y-111571428D01*
X121047619Y-111571428D01*
D12*
X67986296Y-135421488D02*
X68129153Y-135373869D01*
X68367249Y-135373869D01*
X68462487Y-135421488D01*
X68510106Y-135469107D01*
X68557725Y-135564345D01*
X68557725Y-135659583D01*
X68510106Y-135754821D01*
X68462487Y-135802440D01*
X68367249Y-135850059D01*
X68176772Y-135897678D01*
X68081534Y-135945297D01*
X68033915Y-135992916D01*
X67986296Y-136088154D01*
X67986296Y-136183392D01*
X68033915Y-136278630D01*
X68081534Y-136326250D01*
X68176772Y-136373869D01*
X68414868Y-136373869D01*
X68557725Y-136326250D01*
X121380952Y-104571428D02*
X120619047Y-104571428D01*
X121000000Y-104952380D02*
X121000000Y-104190476D01*
X121238095Y-95666666D02*
X120761904Y-95666666D01*
X121333333Y-95952380D02*
X121000000Y-94952380D01*
X120666666Y-95952380D01*
X119238095Y-95666666D02*
X118761904Y-95666666D01*
X119333333Y-95952380D02*
X119000000Y-94952380D01*
X118666666Y-95952380D01*
X119380952Y-104571428D02*
X118619047Y-104571428D01*
%TO.C,J1*%
X115848477Y-115377072D02*
X116353553Y-115882148D01*
X116488240Y-115949492D01*
X116622927Y-115949492D01*
X116757614Y-115882148D01*
X116824957Y-115814805D01*
X115848477Y-116791286D02*
X116252538Y-116387225D01*
X116050507Y-116589255D02*
X115343400Y-115882148D01*
X115511759Y-115915820D01*
X115646446Y-115915820D01*
X115747461Y-115882148D01*
%TO.C,TP1*%
X115190476Y-137452380D02*
X115666666Y-137452380D01*
X115714285Y-137928571D01*
X115666666Y-137880952D01*
X115571428Y-137833333D01*
X115333333Y-137833333D01*
X115238095Y-137880952D01*
X115190476Y-137928571D01*
X115142857Y-138023809D01*
X115142857Y-138261904D01*
X115190476Y-138357142D01*
X115238095Y-138404761D01*
X115333333Y-138452380D01*
X115571428Y-138452380D01*
X115666666Y-138404761D01*
X115714285Y-138357142D01*
X114857142Y-137452380D02*
X114523809Y-138452380D01*
X114190476Y-137452380D01*
%TO.C,TP6*%
X123285714Y-117952380D02*
X123285714Y-118761904D01*
X123238095Y-118857142D01*
X123190476Y-118904761D01*
X123095238Y-118952380D01*
X122904761Y-118952380D01*
X122809523Y-118904761D01*
X122761904Y-118857142D01*
X122714285Y-118761904D01*
X122714285Y-117952380D01*
%TO.C,TP7*%
X120833333Y-120452380D02*
X120500000Y-121452380D01*
X120166666Y-120452380D01*
%TO.C,TP8*%
X118428571Y-122952380D02*
X118190476Y-123952380D01*
X118000000Y-123238095D01*
X117809523Y-123952380D01*
X117571428Y-122952380D01*
D10*
%TO.C,J1*%
X114694686Y-120988157D02*
X113789618Y-120083088D01*
X111215693Y-117509164D02*
X111017731Y-117311201D01*
X116448276Y-119234567D02*
X114694686Y-120988157D01*
X117310968Y-111017964D02*
X117508931Y-111215926D01*
X120082855Y-113789851D02*
X120987924Y-114694919D01*
X120987924Y-114694919D02*
X119234333Y-116448509D01*
X111017731Y-117311201D02*
X117310968Y-111017964D01*
%TO.C,TP1*%
X116200000Y-136000000D02*
G75*
G03*
X116200000Y-136000000I-1200000J0D01*
G01*
%TO.C,TP6*%
X124200000Y-116500000D02*
G75*
G03*
X124200000Y-116500000I-1200000J0D01*
G01*
%TO.C,TP7*%
X121700000Y-119000000D02*
G75*
G03*
X121700000Y-119000000I-1200000J0D01*
G01*
%TO.C,TP8*%
X119200000Y-121500000D02*
G75*
G03*
X119200000Y-121500000I-1200000J0D01*
G01*
%TD*%
M02*
